<?xml version="1.0" standalone="no"?>
<!DOCTYPE svg PUBLIC "-//W3C//DTD SVG 1.1//EN" "http://www.w3.org/Graphics/SVG/1.1/DTD/svg11.dtd" >
<svg>
<metadata>
Created by FontForge 20090622 at Sun Sep  8 10:42:17 2019
 By deploy user
Freeware by Fuzzypeg. http://www.geocities.com/SoHo/Lofts/2763
</metadata>
<defs>
<font id="Malachim" horiz-adv-x="500" >
  <font-face 
    font-family="Malachim"
    font-weight="400"
    font-stretch="normal"
    units-per-em="1000"
    panose-1="0 0 4 0 0 0 0 0 0 0"
    ascent="800"
    descent="-200"
    cap-height="749"
    bbox="-4 -92 1114.04 812"
    underline-thickness="20"
    underline-position="-123"
    unicode-range="U+0020-U+0074"
  />
<missing-glyph 
d="M63 0v800h375v-800h-375zM125 63h250v675h-250v-675z" />
    <glyph glyph-name=".notdef" 
d="M63 0v800h375v-800h-375zM125 63h250v675h-250v-675z" />
    <glyph glyph-name=".null" horiz-adv-x="0" 
 />
    <glyph glyph-name="nonmarkingreturn" 
 />
    <glyph glyph-name="space" unicode=" " 
 />
    <glyph glyph-name="A" unicode="A" horiz-adv-x="800" 
d="M719 669q3 17 -12.5 30t-27.5 13q-30 0 -36.5 -7.5t-6.5 -26.5q0 -31 20 -44q31 -10 45.5 -2.5t17.5 37.5zM733 378q0 15 -13.5 25t-23.5 11q-40 5 -36 -35q1 -12 7 -23.5t17 -15.5q17 -5 34 8t15 30zM420 683q-2 23 -27 31q-27 9 -39.5 -7.5t-12.5 -29.5
q0 -23 11.5 -29.5t30.5 -7.5q20 0 29.5 8.5t7.5 34.5zM715 91q0 7 -6 18t-22 14q-48 5 -47 -33q8 -37 36 -38q15 -1 27 11.5t12 27.5zM131 671q0 9 -11.5 24t-24.5 15q-17 0 -30 -12.5t-13 -30.5q0 -40 37 -40q39 3 42 44zM405 88q-13 26 -36 27q-34 -1 -37 -28
q-1 -11 8.5 -25.5t26.5 -14.5q55 0 38 41zM129 361q1 24 -7.5 38.5t-26.5 13.5q-12 0 -28.5 -16t-16.5 -27q2 -27 26 -29q52 -2 53 20zM133 86q-3 20 -13 30t-30 10q-12 0 -22 -10.5t-10 -21.5q-2 -37 8 -42t27 -5q45 0 40 39zM416 208q-17 -1 -14 -48q0 -7 27.5 -23
t29.5 -55q0 -35 -18 -58.5t-71 -22.5q-61 0 -75.5 30.5t-4.5 79.5q7 23 36 33.5t29 19.5v25q0 18 -16 18l-190 4q-22 0 -23 -11l-3 -22q0 -8 6 -12q18 -10 33 -30q21 -28 21 -44q0 -34 -29.5 -60.5t-57.5 -26.5q-25 0 -53 13t-28 77q2 35 24.5 50t23.5 22l3 48q3 24 12.5 33
t39.5 9h227q12 0 11 37l-1 37q-1 16 -10 15l-170 3q-20 -48 -86 -48q-40 1 -57 14.5t-25 41.5q-7 23 13 57t38.5 36.5t39.5 -3.5q23 -5 28 -6t24.5 -16t24.5 -36l149 -2q30 0 32 24v59q-1 28 -22 29l-225 -4q-16 1 -33 15t-17 35v34q0 10 -12 16.5t-25 26t-14 35.5
q0 44 23.5 67t72.5 23q29 -1 50.5 -20.5t22.5 -52.5q1 -52 -31 -71t-29 -40q1 -16 14 -16l204 -2q19 0 19 25l-2 24q0 7 -27.5 23t-29.5 55q0 35 18 58.5t71 22.5q61 0 75.5 -30.5t4.5 -79.5q-7 -23 -36 -33.5t-29 -19.5v-22q1 -22 12 -22l212 -2q22 0 23 11l3 22q0 8 -6 12
q-18 10 -33 30q-21 28 -21 44q0 34 29.5 60.5t57.5 26.5q25 0 53 -13t28 -77q-2 -35 -24.5 -50t-23.5 -22l-3 -48q-3 -24 -12.5 -33t-42.5 -9l-230 -3q-24 0 -24 -19v-58q1 -26 6 -29t33 -3l150 4q22 1 31 24t42 33.5t53 8.5q28 -5 44.5 -31t10.5 -57q-11 -50 -41.5 -63.5
t-47.5 -8.5q-25 6 -34 28t-25 22h-196q-23 0 -22 -18v-58q0 -15 12 -15l243 4q16 -1 33 -15t17 -35v-34q0 -10 12 -16.5t25 -26t14 -35.5q0 -44 -23.5 -67t-72.5 -23q-29 1 -50.5 20.5t-22.5 52.5q-1 52 31 71t29 40q-1 16 -14 16z" />
    <glyph glyph-name="A" unicode="a" horiz-adv-x="800" 
d="M719 669q3 17 -12.5 30t-27.5 13q-30 0 -36.5 -7.5t-6.5 -26.5q0 -31 20 -44q31 -10 45.5 -2.5t17.5 37.5zM733 378q0 15 -13.5 25t-23.5 11q-40 5 -36 -35q1 -12 7 -23.5t17 -15.5q17 -5 34 8t15 30zM420 683q-2 23 -27 31q-27 9 -39.5 -7.5t-12.5 -29.5
q0 -23 11.5 -29.5t30.5 -7.5q20 0 29.5 8.5t7.5 34.5zM715 91q0 7 -6 18t-22 14q-48 5 -47 -33q8 -37 36 -38q15 -1 27 11.5t12 27.5zM131 671q0 9 -11.5 24t-24.5 15q-17 0 -30 -12.5t-13 -30.5q0 -40 37 -40q39 3 42 44zM405 88q-13 26 -36 27q-34 -1 -37 -28
q-1 -11 8.5 -25.5t26.5 -14.5q55 0 38 41zM129 361q1 24 -7.5 38.5t-26.5 13.5q-12 0 -28.5 -16t-16.5 -27q2 -27 26 -29q52 -2 53 20zM133 86q-3 20 -13 30t-30 10q-12 0 -22 -10.5t-10 -21.5q-2 -37 8 -42t27 -5q45 0 40 39zM416 208q-17 -1 -14 -48q0 -7 27.5 -23
t29.5 -55q0 -35 -18 -58.5t-71 -22.5q-61 0 -75.5 30.5t-4.5 79.5q7 23 36 33.5t29 19.5v25q0 18 -16 18l-190 4q-22 0 -23 -11l-3 -22q0 -8 6 -12q18 -10 33 -30q21 -28 21 -44q0 -34 -29.5 -60.5t-57.5 -26.5q-25 0 -53 13t-28 77q2 35 24.5 50t23.5 22l3 48q3 24 12.5 33
t39.5 9h227q12 0 11 37l-1 37q-1 16 -10 15l-170 3q-20 -48 -86 -48q-40 1 -57 14.5t-25 41.5q-7 23 13 57t38.5 36.5t39.5 -3.5q23 -5 28 -6t24.5 -16t24.5 -36l149 -2q30 0 32 24v59q-1 28 -22 29l-225 -4q-16 1 -33 15t-17 35v34q0 10 -12 16.5t-25 26t-14 35.5
q0 44 23.5 67t72.5 23q29 -1 50.5 -20.5t22.5 -52.5q1 -52 -31 -71t-29 -40q1 -16 14 -16l204 -2q19 0 19 25l-2 24q0 7 -27.5 23t-29.5 55q0 35 18 58.5t71 22.5q61 0 75.5 -30.5t4.5 -79.5q-7 -23 -36 -33.5t-29 -19.5v-22q1 -22 12 -22l212 -2q22 0 23 11l3 22q0 8 -6 12
q-18 10 -33 30q-21 28 -21 44q0 34 29.5 60.5t57.5 26.5q25 0 53 -13t28 -77q-2 -35 -24.5 -50t-23.5 -22l-3 -48q-3 -24 -12.5 -33t-42.5 -9l-230 -3q-24 0 -24 -19v-58q1 -26 6 -29t33 -3l150 4q22 1 31 24t42 33.5t53 8.5q28 -5 44.5 -31t10.5 -57q-11 -50 -41.5 -63.5
t-47.5 -8.5q-25 6 -34 28t-25 22h-196q-23 0 -22 -18v-58q0 -15 12 -15l243 4q16 -1 33 -15t17 -35v-34q0 -10 12 -16.5t25 -26t14 -35.5q0 -44 -23.5 -67t-72.5 -23q-29 1 -50.5 20.5t-22.5 52.5q-1 52 31 71t29 40q-1 16 -14 16z" />
    <glyph glyph-name="B" unicode="B" horiz-adv-x="874" 
d="M508 657q0 -13 -3.5 -26.5t-14.5 -23.5q-14 -13 -30.5 -20.5t-16.5 -22.5v-191q0 -8 3 -18t1 -47q-2 -22 1 -36q2 -7 15.5 -16.5t15.5 -12.5q21 -30 21 -56q0 -7 -8 -25t-17 -26q-18 -19 -48 -24q-6 0 -12.5 -2t-10.5 -2q-12 0 -39 16q-14 9 -22.5 23t-8.5 52
q12 26 35 47.5t22 33.5v278q0 15 -3.5 20t-27.5 27q-20 18 -15 71q7 34 35 53q8 5 43 5q85 0 85 -77zM840 676q0 -21 -12 -42.5t-31 -32.5t-22.5 -19t-3 -16t0.5 -89t-7.5 -139.5t-33 -123.5t-71.5 -109.5t-86.5 -63.5t-76.5 -27t-133 -8q-95 0 -171.5 69.5t-104.5 156.5
t-28.5 200.5t-0.5 123t-9.5 13t-27.5 22t-20 36.5t1.5 36t7 23t27 23t36.5 18h27t42 -20t30 -40t-3 -44.5t-23 -39.5t-24.5 -19t-9 -10.5t-1.5 -80.5t-1.5 -83.5t1 -18.5t4 -16.5t5.5 -46.5t27.5 -83t51 -79t83 -62t113.5 -29q67 2 92 11t46 15t72.5 49.5t72.5 96.5t21 62.5
t3.5 35t7.5 41.5t4 65.5v90v50t-2 19.5t-17 31t-13.5 44t13.5 43.5t40.5 30.5t50 5t30.5 -14t15.5 -25t7.5 -30zM802 668q0 13 -13 26.5t-27 13.5q-11 0 -27 -15.5t-16 -24.5q0 -17 15 -30t28 -13q14 0 27 15t13 28zM469 666q-7 16 -16 22.5t-31 5.5q-34 -2 -31 -43
q0 -16 18 -27q15 -9 31 -9q17 1 25 16.5t4 34.5zM130 647q0 9 -14.5 23.5t-29.5 13.5q-32 -4 -35 -38q-2 -39 34 -44q18 -2 31.5 12t13.5 33zM458 193q0 15 -14 27t-25 12q-13 0 -28.5 -15.5t-15.5 -27.5q0 -14 12 -26t28 -10q28 4 34 16q9 19 9 24z" />
    <glyph glyph-name="B" unicode="b" horiz-adv-x="874" 
d="M508 657q0 -13 -3.5 -26.5t-14.5 -23.5q-14 -13 -30.5 -20.5t-16.5 -22.5v-191q0 -8 3 -18t1 -47q-2 -22 1 -36q2 -7 15.5 -16.5t15.5 -12.5q21 -30 21 -56q0 -7 -8 -25t-17 -26q-18 -19 -48 -24q-6 0 -12.5 -2t-10.5 -2q-12 0 -39 16q-14 9 -22.5 23t-8.5 52
q12 26 35 47.5t22 33.5v278q0 15 -3.5 20t-27.5 27q-20 18 -15 71q7 34 35 53q8 5 43 5q85 0 85 -77zM840 676q0 -21 -12 -42.5t-31 -32.5t-22.5 -19t-3 -16t0.5 -89t-7.5 -139.5t-33 -123.5t-71.5 -109.5t-86.5 -63.5t-76.5 -27t-133 -8q-95 0 -171.5 69.5t-104.5 156.5
t-28.5 200.5t-0.5 123t-9.5 13t-27.5 22t-20 36.5t1.5 36t7 23t27 23t36.5 18h27t42 -20t30 -40t-3 -44.5t-23 -39.5t-24.5 -19t-9 -10.5t-1.5 -80.5t-1.5 -83.5t1 -18.5t4 -16.5t5.5 -46.5t27.5 -83t51 -79t83 -62t113.5 -29q67 2 92 11t46 15t72.5 49.5t72.5 96.5t21 62.5
t3.5 35t7.5 41.5t4 65.5v90v50t-2 19.5t-17 31t-13.5 44t13.5 43.5t40.5 30.5t50 5t30.5 -14t15.5 -25t7.5 -30zM802 668q0 13 -13 26.5t-27 13.5q-11 0 -27 -15.5t-16 -24.5q0 -17 15 -30t28 -13q14 0 27 15t13 28zM469 666q-7 16 -16 22.5t-31 5.5q-34 -2 -31 -43
q0 -16 18 -27q15 -9 31 -9q17 1 25 16.5t4 34.5zM130 647q0 9 -14.5 23.5t-29.5 13.5q-32 -4 -35 -38q-2 -39 34 -44q18 -2 31.5 12t13.5 33zM458 193q0 15 -14 27t-25 12q-13 0 -28.5 -15.5t-15.5 -27.5q0 -14 12 -26t28 -10q28 4 34 16q9 19 9 24z" />
    <glyph glyph-name="C" unicode="G" horiz-adv-x="758" 
d="M731 660q0 -15 -7.5 -33.5t-25.5 -33.5q-14 -11 -27.5 -14.5t-15 -7.5t-3.5 -14q-1 -61 -37 -202t-85 -202q-39 -61 -112.5 -102t-184.5 -41q-63 0 -123 26t-87 59t-19 45q10 10 45 -11t73 -39q34 -16 52 -19t39 0t40 27t24 101t3 146t-4.5 140t-5 78.5t-16.5 13.5
q-41 17 -49 79q-2 31 23 59t58 30q27 1 60 -26q37 -31 32 -67q-2 -21 -20 -47t-24 -31.5t-6 -30.5t2 -86t3 -167t-4 -137t-7 -47t-10 -27t11 -7t76 30q57 36 95 91t65 154t33 141q10 60 11 75t-13.5 29t-24.5 40q-11 38 10 67t38.5 34.5t38.5 7.5q24 2 51.5 -25t27.5 -56z
M686 658q0 17 -13.5 26.5t-28.5 9.5q-16 0 -26.5 -10t-11.5 -30q0 -12 10.5 -24.5t22.5 -12.5q20 2 33.5 12t13.5 29zM332 660q0 14 -10.5 26t-25.5 12q-12 0 -25.5 -16t-13.5 -28q0 -32 36 -32q39 0 39 38z" />
    <glyph glyph-name="C" unicode="g" horiz-adv-x="758" 
d="M731 660q0 -15 -7.5 -33.5t-25.5 -33.5q-14 -11 -27.5 -14.5t-15 -7.5t-3.5 -14q-1 -61 -37 -202t-85 -202q-39 -61 -112.5 -102t-184.5 -41q-63 0 -123 26t-87 59t-19 45q10 10 45 -11t73 -39q34 -16 52 -19t39 0t40 27t24 101t3 146t-4.5 140t-5 78.5t-16.5 13.5
q-41 17 -49 79q-2 31 23 59t58 30q27 1 60 -26q37 -31 32 -67q-2 -21 -20 -47t-24 -31.5t-6 -30.5t2 -86t3 -167t-4 -137t-7 -47t-10 -27t11 -7t76 30q57 36 95 91t65 154t33 141q10 60 11 75t-13.5 29t-24.5 40q-11 38 10 67t38.5 34.5t38.5 7.5q24 2 51.5 -25t27.5 -56z
M686 658q0 17 -13.5 26.5t-28.5 9.5q-16 0 -26.5 -10t-11.5 -30q0 -12 10.5 -24.5t22.5 -12.5q20 2 33.5 12t13.5 29zM332 660q0 14 -10.5 26t-25.5 12q-12 0 -25.5 -16t-13.5 -28q0 -32 36 -32q39 0 39 38z" />
    <glyph glyph-name="D" unicode="D" horiz-adv-x="776" 
d="M743 644q7 -36 -26.5 -67.5t-62.5 -24.5q-41 7 -54.5 21t-23 25.5t-18.5 17.5q-5 3 -27 3q-21 0 -25.5 -4.5t-3.5 -38.5q0 -15 -4 -29t0 -20t4 -11l-2 -298q0 -16 0.5 -22t26 -17.5t34.5 -31.5q14 -26 10 -55.5t-10 -40.5q-14 -30 -78 -35q-31 0 -56 27.5t-25 51.5
q0 17 13.5 44.5t21 34.5t7.5 36l1 369q0 40 -40 41h-210q-20 0 -22.5 -10t-17 -26.5t-30 -22t-16.5 -16.5v-331q1 -23 12 -27.5t32 -24.5q28 -27 28 -63q0 -43 -27.5 -63t-57.5 -20q-39 0 -64 26t-25 61q0 40 23 57.5t23 30.5l3 355q0 12 -15 21.5t-28 29t-13 55.5
q0 21 15.5 41t34.5 26t44 6q35 0 55 -24t31 -25h368q30 1 51 23t57 26q31 1 55 -24t32 -57zM690 642q0 14 -10.5 24.5t-25.5 9.5q-18 -1 -26.5 -18t-8.5 -27q0 -31 32 -30q15 0 27 14.5t12 26.5zM128 642q0 12 -12.5 25t-26.5 13q-13 0 -24.5 -16t-8.5 -32q0 -12 6.5 -18
t30.5 -7q21 1 28 12t7 23zM530 101q0 36 -41 36q-12 0 -25 -16t-13 -26t11 -22t27 -12q12 0 26.5 11t14.5 29zM136 101q0 9 -13.5 24t-26.5 15q-38 0 -38 -45q0 -15 13 -24.5t23 -9.5q13 0 27.5 10t14.5 30z" />
    <glyph glyph-name="D" unicode="d" horiz-adv-x="776" 
d="M743 644q7 -36 -26.5 -67.5t-62.5 -24.5q-41 7 -54.5 21t-23 25.5t-18.5 17.5q-5 3 -27 3q-21 0 -25.5 -4.5t-3.5 -38.5q0 -15 -4 -29t0 -20t4 -11l-2 -298q0 -16 0.5 -22t26 -17.5t34.5 -31.5q14 -26 10 -55.5t-10 -40.5q-14 -30 -78 -35q-31 0 -56 27.5t-25 51.5
q0 17 13.5 44.5t21 34.5t7.5 36l1 369q0 40 -40 41h-210q-20 0 -22.5 -10t-17 -26.5t-30 -22t-16.5 -16.5v-331q1 -23 12 -27.5t32 -24.5q28 -27 28 -63q0 -43 -27.5 -63t-57.5 -20q-39 0 -64 26t-25 61q0 40 23 57.5t23 30.5l3 355q0 12 -15 21.5t-28 29t-13 55.5
q0 21 15.5 41t34.5 26t44 6q35 0 55 -24t31 -25h368q30 1 51 23t57 26q31 1 55 -24t32 -57zM690 642q0 14 -10.5 24.5t-25.5 9.5q-18 -1 -26.5 -18t-8.5 -27q0 -31 32 -30q15 0 27 14.5t12 26.5zM128 642q0 12 -12.5 25t-26.5 13q-13 0 -24.5 -16t-8.5 -32q0 -12 6.5 -18
t30.5 -7q21 1 28 12t7 23zM530 101q0 36 -41 36q-12 0 -25 -16t-13 -26t11 -22t27 -12q12 0 26.5 11t14.5 29zM136 101q0 9 -13.5 24t-26.5 15q-38 0 -38 -45q0 -15 13 -24.5t23 -9.5q13 0 27.5 10t14.5 30z" />
    <glyph glyph-name="E" unicode="H" horiz-adv-x="735" 
d="M705 661q-7 -53 -35 -64t-33 -57l-9 -456q0 -28 -10 -53t-33 -25q-22 0 -67 64l-108.5 145.5l-245.5 341.5q-12 19 -20 20q-12 -1 -12 -11.5t-3.5 -33t-10.5 -326.5q0 -20 13 -23.5t34 -29.5t21 -66q0 -29 -34 -55t-66 -26q-25 0 -55.5 30t-29.5 65q-1 38 15 55.5
t32.5 24t16.5 21.5l4 366q-1 16 -8 25.5t-14.5 27t-4.5 45.5q4 32 28 54t53 26q6 0 12 1.5t11 1.5q25 0 50 -24.5t31 -58.5q4 -22 -8.5 -35t-14.5 -22t4 -18l346 -461q9 -12 13 -9.5t4 24.5l9 401q-1 40 -10.5 45t-27 22t-18.5 40q0 42 33.5 65.5t64.5 23.5q38 0 62.5 -26.5
t20.5 -54.5zM652 661q1 13 -15 24.5t-24 11.5q-14 0 -23 -10t-9 -45q0 -8 9 -16.5t21 -8.5q40 0 41 44zM170 666q0 10 -8 22t-39 12q-11 0 -19.5 -14.5t-8.5 -24.5q0 -19 17 -29t35 -7q20 4 23 41zM133 95q0 15 -13 27t-24 12q-34 0 -34 -41q0 -34 36 -34q9 0 22.5 11.5
t12.5 24.5z" />
    <glyph glyph-name="E" unicode="h" horiz-adv-x="735" 
d="M705 661q-7 -53 -35 -64t-33 -57l-9 -456q0 -28 -10 -53t-33 -25q-22 0 -67 64l-108.5 145.5l-245.5 341.5q-12 19 -20 20q-12 -1 -12 -11.5t-3.5 -33t-10.5 -326.5q0 -20 13 -23.5t34 -29.5t21 -66q0 -29 -34 -55t-66 -26q-25 0 -55.5 30t-29.5 65q-1 38 15 55.5
t32.5 24t16.5 21.5l4 366q-1 16 -8 25.5t-14.5 27t-4.5 45.5q4 32 28 54t53 26q6 0 12 1.5t11 1.5q25 0 50 -24.5t31 -58.5q4 -22 -8.5 -35t-14.5 -22t4 -18l346 -461q9 -12 13 -9.5t4 24.5l9 401q-1 40 -10.5 45t-27 22t-18.5 40q0 42 33.5 65.5t64.5 23.5q38 0 62.5 -26.5
t20.5 -54.5zM652 661q1 13 -15 24.5t-24 11.5q-14 0 -23 -10t-9 -45q0 -8 9 -16.5t21 -8.5q40 0 41 44zM170 666q0 10 -8 22t-39 12q-11 0 -19.5 -14.5t-8.5 -24.5q0 -19 17 -29t35 -7q20 4 23 41zM133 95q0 15 -13 27t-24 12q-34 0 -34 -41q0 -34 36 -34q9 0 22.5 11.5
t12.5 24.5z" />
    <glyph glyph-name="F" unicode="F" horiz-adv-x="847" 
d="M46 81q9 -28 35 -28q36 1 40 35q-4 36 -35 44q-16 0 -29.5 -16t-10.5 -35zM385 97q0 -11 13.5 -23.5t26.5 -12.5q30 0 32 47q-2 25 -23 25q-13 0 -29 -10q-20 -11 -20 -26zM502 139q9 -17 9 -40t-17 -47t-38 -31.5t-53 -4t-50 39t-14.5 53t18.5 34.5t22 21.5t12 12
t4 58.5t0 154.5t-2 128t-12.5 13t-36 -57.5l-99.5 -173.5l-82 -142.5t-5 -26t8 -26.5t0.5 -34.5t-14.5 -34.5t-40.5 -25.5t-50 -4t-37.5 24t-20 41.5t9.5 53t44.5 41t42 6t31.5 28t70 120l92 161.5t60.5 98.5t10 29t-24 26.5t-14 51.5t24 46.5t44.5 20.5t43 0t39 -20.5
t23 -50t-9 -54.5t-23 -25.5t4 -27l104.5 -164.5l110.5 -173t34.5 -31t29.5 -4t33.5 -21.5t25 -43.5t1.5 -45t-21.5 -36t-31.5 -22t-37.5 -2t-38 16.5t-26.5 33.5t-2 47t10 37t-3 18t-55.5 85t-95 153t-54 94.5t-10.5 -0.5t0 -173.5t4 -163t10 -12.5t19.5 -9.5t23 -20z
M694 116q0 -10 10 -25t20 -15q11 0 26 13t15 27q0 10 -11.5 24t-24.5 11q-10 -1 -22.5 -12t-12.5 -23zM369 684q-2 -28 21 -42q69 -16 65 28q6 40 -53 44q-23 -2 -33 -30z" />
    <glyph glyph-name="F" unicode="w" horiz-adv-x="847" 
d="M46 81q9 -28 35 -28q36 1 40 35q-4 36 -35 44q-16 0 -29.5 -16t-10.5 -35zM385 97q0 -11 13.5 -23.5t26.5 -12.5q30 0 32 47q-2 25 -23 25q-13 0 -29 -10q-20 -11 -20 -26zM502 139q9 -17 9 -40t-17 -47t-38 -31.5t-53 -4t-50 39t-14.5 53t18.5 34.5t22 21.5t12 12
t4 58.5t0 154.5t-2 128t-12.5 13t-36 -57.5l-99.5 -173.5l-82 -142.5t-5 -26t8 -26.5t0.5 -34.5t-14.5 -34.5t-40.5 -25.5t-50 -4t-37.5 24t-20 41.5t9.5 53t44.5 41t42 6t31.5 28t70 120l92 161.5t60.5 98.5t10 29t-24 26.5t-14 51.5t24 46.5t44.5 20.5t43 0t39 -20.5
t23 -50t-9 -54.5t-23 -25.5t4 -27l104.5 -164.5l110.5 -173t34.5 -31t29.5 -4t33.5 -21.5t25 -43.5t1.5 -45t-21.5 -36t-31.5 -22t-37.5 -2t-38 16.5t-26.5 33.5t-2 47t10 37t-3 18t-55.5 85t-95 153t-54 94.5t-10.5 -0.5t0 -173.5t4 -163t10 -12.5t19.5 -9.5t23 -20z
M694 116q0 -10 10 -25t20 -15q11 0 26 13t15 27q0 10 -11.5 24t-24.5 11q-10 -1 -22.5 -12t-12.5 -23zM369 684q-2 -28 21 -42q69 -16 65 28q6 40 -53 44q-23 -2 -33 -30z" />
    <glyph glyph-name="F" unicode="v" horiz-adv-x="847" 
d="M46 81q9 -28 35 -28q36 1 40 35q-4 36 -35 44q-16 0 -29.5 -16t-10.5 -35zM385 97q0 -11 13.5 -23.5t26.5 -12.5q30 0 32 47q-2 25 -23 25q-13 0 -29 -10q-20 -11 -20 -26zM502 139q9 -17 9 -40t-17 -47t-38 -31.5t-53 -4t-50 39t-14.5 53t18.5 34.5t22 21.5t12 12
t4 58.5t0 154.5t-2 128t-12.5 13t-36 -57.5l-99.5 -173.5l-82 -142.5t-5 -26t8 -26.5t0.5 -34.5t-14.5 -34.5t-40.5 -25.5t-50 -4t-37.5 24t-20 41.5t9.5 53t44.5 41t42 6t31.5 28t70 120l92 161.5t60.5 98.5t10 29t-24 26.5t-14 51.5t24 46.5t44.5 20.5t43 0t39 -20.5
t23 -50t-9 -54.5t-23 -25.5t4 -27l104.5 -164.5l110.5 -173t34.5 -31t29.5 -4t33.5 -21.5t25 -43.5t1.5 -45t-21.5 -36t-31.5 -22t-37.5 -2t-38 16.5t-26.5 33.5t-2 47t10 37t-3 18t-55.5 85t-95 153t-54 94.5t-10.5 -0.5t0 -173.5t4 -163t10 -12.5t19.5 -9.5t23 -20z
M694 116q0 -10 10 -25t20 -15q11 0 26 13t15 27q0 10 -11.5 24t-24.5 11q-10 -1 -22.5 -12t-12.5 -23zM369 684q-2 -28 21 -42q69 -16 65 28q6 40 -53 44q-23 -2 -33 -30z" />
    <glyph glyph-name="F" unicode="u" horiz-adv-x="847" 
d="M46 81q9 -28 35 -28q36 1 40 35q-4 36 -35 44q-16 0 -29.5 -16t-10.5 -35zM385 97q0 -11 13.5 -23.5t26.5 -12.5q30 0 32 47q-2 25 -23 25q-13 0 -29 -10q-20 -11 -20 -26zM502 139q9 -17 9 -40t-17 -47t-38 -31.5t-53 -4t-50 39t-14.5 53t18.5 34.5t22 21.5t12 12
t4 58.5t0 154.5t-2 128t-12.5 13t-36 -57.5l-99.5 -173.5l-82 -142.5t-5 -26t8 -26.5t0.5 -34.5t-14.5 -34.5t-40.5 -25.5t-50 -4t-37.5 24t-20 41.5t9.5 53t44.5 41t42 6t31.5 28t70 120l92 161.5t60.5 98.5t10 29t-24 26.5t-14 51.5t24 46.5t44.5 20.5t43 0t39 -20.5
t23 -50t-9 -54.5t-23 -25.5t4 -27l104.5 -164.5l110.5 -173t34.5 -31t29.5 -4t33.5 -21.5t25 -43.5t1.5 -45t-21.5 -36t-31.5 -22t-37.5 -2t-38 16.5t-26.5 33.5t-2 47t10 37t-3 18t-55.5 85t-95 153t-54 94.5t-10.5 -0.5t0 -173.5t4 -163t10 -12.5t19.5 -9.5t23 -20z
M694 116q0 -10 10 -25t20 -15q11 0 26 13t15 27q0 10 -11.5 24t-24.5 11q-10 -1 -22.5 -12t-12.5 -23zM369 684q-2 -28 21 -42q69 -16 65 28q6 40 -53 44q-23 -2 -33 -30z" />
    <glyph glyph-name="F" unicode="f" horiz-adv-x="847" 
d="M46 81q9 -28 35 -28q36 1 40 35q-4 36 -35 44q-16 0 -29.5 -16t-10.5 -35zM385 97q0 -11 13.5 -23.5t26.5 -12.5q30 0 32 47q-2 25 -23 25q-13 0 -29 -10q-20 -11 -20 -26zM502 139q9 -17 9 -40t-17 -47t-38 -31.5t-53 -4t-50 39t-14.5 53t18.5 34.5t22 21.5t12 12
t4 58.5t0 154.5t-2 128t-12.5 13t-36 -57.5l-99.5 -173.5l-82 -142.5t-5 -26t8 -26.5t0.5 -34.5t-14.5 -34.5t-40.5 -25.5t-50 -4t-37.5 24t-20 41.5t9.5 53t44.5 41t42 6t31.5 28t70 120l92 161.5t60.5 98.5t10 29t-24 26.5t-14 51.5t24 46.5t44.5 20.5t43 0t39 -20.5
t23 -50t-9 -54.5t-23 -25.5t4 -27l104.5 -164.5l110.5 -173t34.5 -31t29.5 -4t33.5 -21.5t25 -43.5t1.5 -45t-21.5 -36t-31.5 -22t-37.5 -2t-38 16.5t-26.5 33.5t-2 47t10 37t-3 18t-55.5 85t-95 153t-54 94.5t-10.5 -0.5t0 -173.5t4 -163t10 -12.5t19.5 -9.5t23 -20z
M694 116q0 -10 10 -25t20 -15q11 0 26 13t15 27q0 10 -11.5 24t-24.5 11q-10 -1 -22.5 -12t-12.5 -23zM369 684q-2 -28 21 -42q69 -16 65 28q6 40 -53 44q-23 -2 -33 -30z" />
    <glyph glyph-name="F" unicode="W" horiz-adv-x="847" 
d="M46 81q9 -28 35 -28q36 1 40 35q-4 36 -35 44q-16 0 -29.5 -16t-10.5 -35zM385 97q0 -11 13.5 -23.5t26.5 -12.5q30 0 32 47q-2 25 -23 25q-13 0 -29 -10q-20 -11 -20 -26zM502 139q9 -17 9 -40t-17 -47t-38 -31.5t-53 -4t-50 39t-14.5 53t18.5 34.5t22 21.5t12 12
t4 58.5t0 154.5t-2 128t-12.5 13t-36 -57.5l-99.5 -173.5l-82 -142.5t-5 -26t8 -26.5t0.5 -34.5t-14.5 -34.5t-40.5 -25.5t-50 -4t-37.5 24t-20 41.5t9.5 53t44.5 41t42 6t31.5 28t70 120l92 161.5t60.5 98.5t10 29t-24 26.5t-14 51.5t24 46.5t44.5 20.5t43 0t39 -20.5
t23 -50t-9 -54.5t-23 -25.5t4 -27l104.5 -164.5l110.5 -173t34.5 -31t29.5 -4t33.5 -21.5t25 -43.5t1.5 -45t-21.5 -36t-31.5 -22t-37.5 -2t-38 16.5t-26.5 33.5t-2 47t10 37t-3 18t-55.5 85t-95 153t-54 94.5t-10.5 -0.5t0 -173.5t4 -163t10 -12.5t19.5 -9.5t23 -20z
M694 116q0 -10 10 -25t20 -15q11 0 26 13t15 27q0 10 -11.5 24t-24.5 11q-10 -1 -22.5 -12t-12.5 -23zM369 684q-2 -28 21 -42q69 -16 65 28q6 40 -53 44q-23 -2 -33 -30z" />
    <glyph glyph-name="F" unicode="V" horiz-adv-x="847" 
d="M46 81q9 -28 35 -28q36 1 40 35q-4 36 -35 44q-16 0 -29.5 -16t-10.5 -35zM385 97q0 -11 13.5 -23.5t26.5 -12.5q30 0 32 47q-2 25 -23 25q-13 0 -29 -10q-20 -11 -20 -26zM502 139q9 -17 9 -40t-17 -47t-38 -31.5t-53 -4t-50 39t-14.5 53t18.5 34.5t22 21.5t12 12
t4 58.5t0 154.5t-2 128t-12.5 13t-36 -57.5l-99.5 -173.5l-82 -142.5t-5 -26t8 -26.5t0.5 -34.5t-14.5 -34.5t-40.5 -25.5t-50 -4t-37.5 24t-20 41.5t9.5 53t44.5 41t42 6t31.5 28t70 120l92 161.5t60.5 98.5t10 29t-24 26.5t-14 51.5t24 46.5t44.5 20.5t43 0t39 -20.5
t23 -50t-9 -54.5t-23 -25.5t4 -27l104.5 -164.5l110.5 -173t34.5 -31t29.5 -4t33.5 -21.5t25 -43.5t1.5 -45t-21.5 -36t-31.5 -22t-37.5 -2t-38 16.5t-26.5 33.5t-2 47t10 37t-3 18t-55.5 85t-95 153t-54 94.5t-10.5 -0.5t0 -173.5t4 -163t10 -12.5t19.5 -9.5t23 -20z
M694 116q0 -10 10 -25t20 -15q11 0 26 13t15 27q0 10 -11.5 24t-24.5 11q-10 -1 -22.5 -12t-12.5 -23zM369 684q-2 -28 21 -42q69 -16 65 28q6 40 -53 44q-23 -2 -33 -30z" />
    <glyph glyph-name="F" unicode="U" horiz-adv-x="847" 
d="M46 81q9 -28 35 -28q36 1 40 35q-4 36 -35 44q-16 0 -29.5 -16t-10.5 -35zM385 97q0 -11 13.5 -23.5t26.5 -12.5q30 0 32 47q-2 25 -23 25q-13 0 -29 -10q-20 -11 -20 -26zM502 139q9 -17 9 -40t-17 -47t-38 -31.5t-53 -4t-50 39t-14.5 53t18.5 34.5t22 21.5t12 12
t4 58.5t0 154.5t-2 128t-12.5 13t-36 -57.5l-99.5 -173.5l-82 -142.5t-5 -26t8 -26.5t0.5 -34.5t-14.5 -34.5t-40.5 -25.5t-50 -4t-37.5 24t-20 41.5t9.5 53t44.5 41t42 6t31.5 28t70 120l92 161.5t60.5 98.5t10 29t-24 26.5t-14 51.5t24 46.5t44.5 20.5t43 0t39 -20.5
t23 -50t-9 -54.5t-23 -25.5t4 -27l104.5 -164.5l110.5 -173t34.5 -31t29.5 -4t33.5 -21.5t25 -43.5t1.5 -45t-21.5 -36t-31.5 -22t-37.5 -2t-38 16.5t-26.5 33.5t-2 47t10 37t-3 18t-55.5 85t-95 153t-54 94.5t-10.5 -0.5t0 -173.5t4 -163t10 -12.5t19.5 -9.5t23 -20z
M694 116q0 -10 10 -25t20 -15q11 0 26 13t15 27q0 10 -11.5 24t-24.5 11q-10 -1 -22.5 -12t-12.5 -23zM369 684q-2 -28 21 -42q69 -16 65 28q6 40 -53 44q-23 -2 -33 -30z" />
    <glyph glyph-name="G" unicode="Z" horiz-adv-x="847" 
d="M771 679q-9 28 -35 28q-36 -1 -40 -35q4 -36 35 -44q16 0 29.5 16t10.5 35zM432 663q0 11 -13.5 23.5t-26.5 12.5q-30 0 -32 -47q2 -25 23 -25q13 0 29 10q20 11 20 26zM315 621q-9 17 -9 40t17 47t38 31.5t53 4t50 -39t14.5 -53t-18.5 -34.5t-22 -21.5t-12 -12t-4 -58.5
t0 -154.5t2 -128t12.5 -13t36 57.5l99.5 173.5l82 142.5t5 26t-8 26.5t-0.5 34.5t14.5 34.5t40.5 25.5t50 4t37.5 -24t20 -41.5t-9.5 -53t-44.5 -41t-42 -6t-31.5 -28t-70 -120l-92 -161.5t-60.5 -98.5t-10 -29t24 -26.5t14 -51.5t-24 -46.5t-44.5 -20.5t-43 0t-39 20.5
t-23 50t9 54.5t23 25.5t-4 27l-104.5 164.5l-110.5 173t-34.5 31t-29.5 4t-33.5 21.5t-25 43.5t-1.5 45t21.5 36t31.5 22t37.5 2t38 -16.5t26.5 -33.5t2 -47t-10 -37t3 -18t55.5 -85t95 -153t54 -94.5t10.5 0.5t0 173.5t-4 163t-10 12.5t-19.5 9.5t-23 20zM123 644
q0 10 -10 25t-20 15q-11 0 -26 -13t-15 -27q0 -10 11.5 -24t24.5 -11q10 1 22.5 12t12.5 23zM448 76q2 28 -21 42q-69 16 -65 -28q-6 -40 53 -44q23 2 33 30z" />
    <glyph glyph-name="G" unicode="z" horiz-adv-x="847" 
d="M771 679q-9 28 -35 28q-36 -1 -40 -35q4 -36 35 -44q16 0 29.5 16t10.5 35zM432 663q0 11 -13.5 23.5t-26.5 12.5q-30 0 -32 -47q2 -25 23 -25q13 0 29 10q20 11 20 26zM315 621q-9 17 -9 40t17 47t38 31.5t53 4t50 -39t14.5 -53t-18.5 -34.5t-22 -21.5t-12 -12t-4 -58.5
t0 -154.5t2 -128t12.5 -13t36 57.5l99.5 173.5l82 142.5t5 26t-8 26.5t-0.5 34.5t14.5 34.5t40.5 25.5t50 4t37.5 -24t20 -41.5t-9.5 -53t-44.5 -41t-42 -6t-31.5 -28t-70 -120l-92 -161.5t-60.5 -98.5t-10 -29t24 -26.5t14 -51.5t-24 -46.5t-44.5 -20.5t-43 0t-39 20.5
t-23 50t9 54.5t23 25.5t-4 27l-104.5 164.5l-110.5 173t-34.5 31t-29.5 4t-33.5 21.5t-25 43.5t-1.5 45t21.5 36t31.5 22t37.5 2t38 -16.5t26.5 -33.5t2 -47t-10 -37t3 -18t55.5 -85t95 -153t54 -94.5t10.5 0.5t0 173.5t-4 163t-10 12.5t-19.5 9.5t-23 20zM123 644
q0 10 -10 25t-20 15q-11 0 -26 -13t-15 -27q0 -10 11.5 -24t24.5 -11q10 1 22.5 12t12.5 23zM448 76q2 28 -21 42q-69 16 -65 -28q-6 -40 53 -44q23 2 33 30z" />
    <glyph glyph-name="H" unicode="C" horiz-adv-x="853" 
d="M822 95q0 -11 -7 -22.5t-27 -14.5l-731 3q-31 0 -42 11.5t-11 33.5l-1 515q0 18 12.5 28t33.5 10q212 -16 719 -3q21 2 34 -5t14 -27zM769 150v411q0 30 -29 32q-128 11 -273 6q-20 0 -20 -22l-5 -434q0 -19 12 -27.5t29 -5.5l242 8q34 1 39 5.5t5 26.5zM388 576
q0 10 -6.5 18t-17.5 6q-122 -10 -278 4q-17 0 -25 -4.5t-8 -17.5v-441q0 -13 15 -14l300 -14q17 0 17 17z" />
    <glyph glyph-name="H" unicode="c" horiz-adv-x="853" 
d="M822 95q0 -11 -7 -22.5t-27 -14.5l-731 3q-31 0 -42 11.5t-11 33.5l-1 515q0 18 12.5 28t33.5 10q212 -16 719 -3q21 2 34 -5t14 -27zM769 150v411q0 30 -29 32q-128 11 -273 6q-20 0 -20 -22l-5 -434q0 -19 12 -27.5t29 -5.5l242 8q34 1 39 5.5t5 26.5zM388 576
q0 10 -6.5 18t-17.5 6q-122 -10 -278 4q-17 0 -25 -4.5t-8 -17.5v-441q0 -13 15 -14l300 -14q17 0 17 17z" />
    <glyph glyph-name="I" unicode="T" horiz-adv-x="1143" 
d="M1067 574q0 13 -14.5 22.5t-25.5 9.5q-9 0 -22.5 -13.5t-13.5 -23.5q0 -7 8.5 -24.5t21.5 -17.5q22 0 33.5 8.5t12.5 38.5zM687 672q0 11 -13 21.5t-27 10.5q-15 0 -25.5 -15t-10.5 -29q0 -12 10.5 -23.5t21.5 -11.5t27.5 18.5t16.5 28.5zM1057 95q0 15 -12.5 27
t-27.5 12q-10 0 -25 -12t-15 -27q0 -13 13 -28.5t27 -15.5q12 0 26 16t14 28zM381 640q0 16 -14 28.5t-31 12.5q-15 0 -24.5 -15t-9.5 -24q0 -16 15.5 -26t27.5 -10q11 0 23.5 10.5t12.5 23.5zM687 87q0 8 -11.5 22.5t-16 16t-16.5 1.5q-32 0 -32 -40q2 -42 44 -40
q12 2 22 13.5t10 26.5zM119 82q-5 21 -14.5 26.5t-23 5t-17.5 -4.5t0 -13.5t-0.5 -13t-4.5 -8.5q0 -8 10 -20t22 -12q14 0 22 11t6 29zM906 344q-10 -17 1 -38q59 -111 67 -125q6 -10 20.5 -5t42.5 1q25 -3 47 -34.5t19 -58.5q-5 -32 -17 -46t-33 -23.5t-37 -7.5
q-22 3 -46 13.5t-32 29.5q-11 24 -11.5 38.5t2.5 26.5t-5 26l-57 106q-10 19 -17 20t-19 -11q-27 -30 -92 -109q-12 -15 -10.5 -23t3 -26t-3 -37t-22.5 -35q-8 -7 -26.5 -13.5t-25.5 -6.5q-8 0 -29 3.5t-37.5 25t-20.5 40.5q-4 28 4 47.5t1 31.5q-92 160 -105 174t-104 184
q-17 30 -25 33t-13 -8l-173 -382q-6 -16 8 -35.5t9 -48.5q-6 -32 -17 -43q-13 -14 -30 -20.5t-34 -6.5q-23 0 -37 8.5t-32 37t-16 47.5q3 25 19 45q23 29 44.5 27t26.5 8l177 396q6 15 -4.5 30.5t-11.5 50.5q-1 14 10 37t33 30q28 9 54.5 7.5t43.5 -13t24 -31.5
q4 -16 6 -31.5t-4.5 -29.5t-14.5 -21.5t-2 -19.5l221 -389q7 -13 19 -11t24.5 -3t22.5 4l113 135q9 9 8.5 18t-19.5 41l-120 200q-10 12 -17 10.5t-25.5 1t-43.5 29.5q-24 28 -24 60t31 55q27 19 54 19t42.5 -9t29.5 -25q17 -20 17 -65q0 -22 -3.5 -30t4.5 -20
q80 -134 114 -197q10 -18 23.5 -1.5l73.5 94.5q10 17 4 27.5t-12 43.5q-2 14 10.5 36t28.5 31q24 13 45.5 12.5t40 -6t36.5 -36.5q11 -20 12 -45t-21 -47t-36 -26q-17 -5 -32 -4t-22 -13z" />
    <glyph glyph-name="J" unicode="I" horiz-adv-x="424" 
d="M228 666q-2 25 -20 36q-14 6 -20.5 6t-21 -6t-13.5 -37q0 -11 12.5 -22t24.5 -11q7 0 22.5 12t15.5 22zM124 88q0 10 -11.5 23t-27.5 13q-14 0 -25 -15t-11 -27q0 -10 11.5 -20t24.5 -10q11 0 25 11.5t14 24.5zM276 594l63 -117t35 -89q24 -72 18 -173t-70 -147t-133 -45
q-47 1 -52.5 -7t-51.5 -9q-35 -2 -60 24.5t-25 64.5q0 32 29 52.5t54 20.5q40 0 63 -30q15 -26 19 -40t40 -13q45 0 84 39t40 112t-25 143q-38 108 -86 188q-8 16 -37 18t-53 22q-29 19 -29 58q0 83 93 83q77 0 85 -81q2 -28 -4.5 -41t3.5 -33z" />
    <glyph glyph-name="J" unicode="y" horiz-adv-x="424" 
d="M228 666q-2 25 -20 36q-14 6 -20.5 6t-21 -6t-13.5 -37q0 -11 12.5 -22t24.5 -11q7 0 22.5 12t15.5 22zM124 88q0 10 -11.5 23t-27.5 13q-14 0 -25 -15t-11 -27q0 -10 11.5 -20t24.5 -10q11 0 25 11.5t14 24.5zM276 594l63 -117t35 -89q24 -72 18 -173t-70 -147t-133 -45
q-47 1 -52.5 -7t-51.5 -9q-35 -2 -60 24.5t-25 64.5q0 32 29 52.5t54 20.5q40 0 63 -30q15 -26 19 -40t40 -13q45 0 84 39t40 112t-25 143q-38 108 -86 188q-8 16 -37 18t-53 22q-29 19 -29 58q0 83 93 83q77 0 85 -81q2 -28 -4.5 -41t3.5 -33z" />
    <glyph glyph-name="J" unicode="j" horiz-adv-x="424" 
d="M228 666q-2 25 -20 36q-14 6 -20.5 6t-21 -6t-13.5 -37q0 -11 12.5 -22t24.5 -11q7 0 22.5 12t15.5 22zM124 88q0 10 -11.5 23t-27.5 13q-14 0 -25 -15t-11 -27q0 -10 11.5 -20t24.5 -10q11 0 25 11.5t14 24.5zM276 594l63 -117t35 -89q24 -72 18 -173t-70 -147t-133 -45
q-47 1 -52.5 -7t-51.5 -9q-35 -2 -60 24.5t-25 64.5q0 32 29 52.5t54 20.5q40 0 63 -30q15 -26 19 -40t40 -13q45 0 84 39t40 112t-25 143q-38 108 -86 188q-8 16 -37 18t-53 22q-29 19 -29 58q0 83 93 83q77 0 85 -81q2 -28 -4.5 -41t3.5 -33z" />
    <glyph glyph-name="J" unicode="i" horiz-adv-x="424" 
d="M228 666q-2 25 -20 36q-14 6 -20.5 6t-21 -6t-13.5 -37q0 -11 12.5 -22t24.5 -11q7 0 22.5 12t15.5 22zM124 88q0 10 -11.5 23t-27.5 13q-14 0 -25 -15t-11 -27q0 -10 11.5 -20t24.5 -10q11 0 25 11.5t14 24.5zM276 594l63 -117t35 -89q24 -72 18 -173t-70 -147t-133 -45
q-47 1 -52.5 -7t-51.5 -9q-35 -2 -60 24.5t-25 64.5q0 32 29 52.5t54 20.5q40 0 63 -30q15 -26 19 -40t40 -13q45 0 84 39t40 112t-25 143q-38 108 -86 188q-8 16 -37 18t-53 22q-29 19 -29 58q0 83 93 83q77 0 85 -81q2 -28 -4.5 -41t3.5 -33z" />
    <glyph glyph-name="J" unicode="Y" horiz-adv-x="424" 
d="M228 666q-2 25 -20 36q-14 6 -20.5 6t-21 -6t-13.5 -37q0 -11 12.5 -22t24.5 -11q7 0 22.5 12t15.5 22zM124 88q0 10 -11.5 23t-27.5 13q-14 0 -25 -15t-11 -27q0 -10 11.5 -20t24.5 -10q11 0 25 11.5t14 24.5zM276 594l63 -117t35 -89q24 -72 18 -173t-70 -147t-133 -45
q-47 1 -52.5 -7t-51.5 -9q-35 -2 -60 24.5t-25 64.5q0 32 29 52.5t54 20.5q40 0 63 -30q15 -26 19 -40t40 -13q45 0 84 39t40 112t-25 143q-38 108 -86 188q-8 16 -37 18t-53 22q-29 19 -29 58q0 83 93 83q77 0 85 -81q2 -28 -4.5 -41t3.5 -33z" />
    <glyph glyph-name="J" unicode="J" horiz-adv-x="424" 
d="M228 666q-2 25 -20 36q-14 6 -20.5 6t-21 -6t-13.5 -37q0 -11 12.5 -22t24.5 -11q7 0 22.5 12t15.5 22zM124 88q0 10 -11.5 23t-27.5 13q-14 0 -25 -15t-11 -27q0 -10 11.5 -20t24.5 -10q11 0 25 11.5t14 24.5zM276 594l63 -117t35 -89q24 -72 18 -173t-70 -147t-133 -45
q-47 1 -52.5 -7t-51.5 -9q-35 -2 -60 24.5t-25 64.5q0 32 29 52.5t54 20.5q40 0 63 -30q15 -26 19 -40t40 -13q45 0 84 39t40 112t-25 143q-38 108 -86 188q-8 16 -37 18t-53 22q-29 19 -29 58q0 83 93 83q77 0 85 -81q2 -28 -4.5 -41t3.5 -33z" />
    <glyph glyph-name="K" unicode="K" horiz-adv-x="678" 
d="M227 76q0 15 -14.5 25.5t-23.5 10.5q-12 0 -24.5 -12.5t-12.5 -23.5q0 -16 12 -28t27 -12q36 0 36 40zM123 665q0 13 -11 25.5t-29 12.5q-11 0 -24 -10t-12 -22q-4 -18 9 -32t28 -12q39 6 39 38zM304 92q115 -2 189 70t85 145q13 79 4.5 122.5t-48.5 102.5
q-46 70 -104 85q-14 4 -38.5 19t-34.5 17q-13 6 -173 -2q-17 -1 -23 -18.5t-19.5 -34t-35.5 -17.5q-29 -3 -67.5 13.5t-38.5 71.5q0 40 32 67q24 19 50 15q27 -2 41 -10t21.5 -16t23.5 -8q110 3 126 7t44 -1q103 -12 202 -106.5t106 -189.5q2 -22 -4.5 -64t-3.5 -60
q6 -61 -90 -165q-101 -109 -262 -110q-18 0 -25 -7.5t-27.5 -16t-47.5 -8.5q-31 0 -58 22t-27 55q0 30 26.5 60t62.5 29q32 0 50 -15.5t25 -32.5t39 -19z" />
    <glyph glyph-name="K" unicode="k" horiz-adv-x="678" 
d="M227 76q0 15 -14.5 25.5t-23.5 10.5q-12 0 -24.5 -12.5t-12.5 -23.5q0 -16 12 -28t27 -12q36 0 36 40zM123 665q0 13 -11 25.5t-29 12.5q-11 0 -24 -10t-12 -22q-4 -18 9 -32t28 -12q39 6 39 38zM304 92q115 -2 189 70t85 145q13 79 4.5 122.5t-48.5 102.5
q-46 70 -104 85q-14 4 -38.5 19t-34.5 17q-13 6 -173 -2q-17 -1 -23 -18.5t-19.5 -34t-35.5 -17.5q-29 -3 -67.5 13.5t-38.5 71.5q0 40 32 67q24 19 50 15q27 -2 41 -10t21.5 -16t23.5 -8q110 3 126 7t44 -1q103 -12 202 -106.5t106 -189.5q2 -22 -4.5 -64t-3.5 -60
q6 -61 -90 -165q-101 -109 -262 -110q-18 0 -25 -7.5t-27.5 -16t-47.5 -8.5q-31 0 -58 22t-27 55q0 30 26.5 60t62.5 29q32 0 50 -15.5t25 -32.5t39 -19z" />
    <glyph glyph-name="L" unicode="L" horiz-adv-x="638" 
d="M609 655q0 -40 -33 -66.5t-32 -64.5q0 -274 -7 -303q-16 -94 -86 -157.5t-152 -63.5q-9 0 -14.5 2t-13.5 2q-93 8 -157 83q-57 66 -57 135q0 80 -8.5 88t-28 31t-19.5 63q0 35 28.5 57.5t59.5 22.5q29 0 57.5 -22t27.5 -62q0 -56 -30 -75t-30 -62l4 -45
q8 -72 60.5 -111.5t107.5 -39.5q89 0 139 62t53 167q-1 143 10 243q1 14 -6 23.5t-26.5 33t-19.5 65.5q0 80 103 84q70 3 70 -90zM560 653q0 12 -12 27.5t-29 15.5q-12 0 -23 -15.5t-11 -29.5q0 -8 11.5 -20.5t22.5 -12.5q8 0 24.5 8.5t16.5 26.5zM125 396q2 15 -11 28
t-28 13q-18 0 -23 -10.5t-9 -34.5q-3 -11 13 -20.5t32 -9.5q7 0 15 7t11 27z" />
    <glyph glyph-name="L" unicode="l" horiz-adv-x="638" 
d="M609 655q0 -40 -33 -66.5t-32 -64.5q0 -274 -7 -303q-16 -94 -86 -157.5t-152 -63.5q-9 0 -14.5 2t-13.5 2q-93 8 -157 83q-57 66 -57 135q0 80 -8.5 88t-28 31t-19.5 63q0 35 28.5 57.5t59.5 22.5q29 0 57.5 -22t27.5 -62q0 -56 -30 -75t-30 -62l4 -45
q8 -72 60.5 -111.5t107.5 -39.5q89 0 139 62t53 167q-1 143 10 243q1 14 -6 23.5t-26.5 33t-19.5 65.5q0 80 103 84q70 3 70 -90zM560 653q0 12 -12 27.5t-29 15.5q-12 0 -23 -15.5t-11 -29.5q0 -8 11.5 -20.5t22.5 -12.5q8 0 24.5 8.5t16.5 26.5zM125 396q2 15 -11 28
t-28 13q-18 0 -23 -10.5t-9 -34.5q-3 -11 13 -20.5t32 -9.5q7 0 15 7t11 27z" />
    <glyph glyph-name="M" unicode="M" horiz-adv-x="583" 
d="M551 84q0 -37 -25.5 -60.5t-54.5 -23.5q-37 0 -63.5 24t-26.5 65q0 44 18 59q36 27 36 37v48v69q-1 16 -24 18l-289 42q-13 1 -13 -19.5t-1 -58.5q0 -15 2 -29t0.5 -24t-1.5 -25q0 -35 28 -54t28 -65q0 -41 -25.5 -64t-57.5 -23t-55 18q-28 22 -24 63q6 52 27.5 71
t21.5 32q4 131 1 161.5t1 50.5t3 117t-7 113t-2 48q7 27 17 32t19 5q16 0 22 -13t6 -48v-210q0 -15 14 -17l284 -40q25 -3 25 20v157q-1 17 -11 23q-10 7 -27 27.5t-17 50.5q0 41 24.5 62t59.5 21q34 0 56 -25t22 -58q0 -32 -16.5 -48.5l-24.5 -24.5t-8 -27l1 -365
q0 -20 2.5 -24.5t25 -21.5t29.5 -66zM499 661q0 14 -9.5 27t-24.5 13q-8 0 -23 -11t-15 -29q0 -16 11 -27.5t23 -11.5q13 0 25.5 12t12.5 27zM504 84q-1 10 -12.5 26t-25.5 16q-12 0 -23 -10.5t-11 -26.5q0 -6 10 -22t24 -16q8 0 23 10.5t15 22.5zM120 91q0 12 -12.5 22.5
t-23.5 10.5q-15 0 -27.5 -17t-12.5 -33q0 -10 10 -21.5t22 -11.5q14 0 29 14.5t15 35.5z" />
    <glyph glyph-name="M" unicode="m" horiz-adv-x="583" 
d="M551 84q0 -37 -25.5 -60.5t-54.5 -23.5q-37 0 -63.5 24t-26.5 65q0 44 18 59q36 27 36 37v48v69q-1 16 -24 18l-289 42q-13 1 -13 -19.5t-1 -58.5q0 -15 2 -29t0.5 -24t-1.5 -25q0 -35 28 -54t28 -65q0 -41 -25.5 -64t-57.5 -23t-55 18q-28 22 -24 63q6 52 27.5 71
t21.5 32q4 131 1 161.5t1 50.5t3 117t-7 113t-2 48q7 27 17 32t19 5q16 0 22 -13t6 -48v-210q0 -15 14 -17l284 -40q25 -3 25 20v157q-1 17 -11 23q-10 7 -27 27.5t-17 50.5q0 41 24.5 62t59.5 21q34 0 56 -25t22 -58q0 -32 -16.5 -48.5l-24.5 -24.5t-8 -27l1 -365
q0 -20 2.5 -24.5t25 -21.5t29.5 -66zM499 661q0 14 -9.5 27t-24.5 13q-8 0 -23 -11t-15 -29q0 -16 11 -27.5t23 -11.5q13 0 25.5 12t12.5 27zM504 84q-1 10 -12.5 26t-25.5 16q-12 0 -23 -10.5t-11 -26.5q0 -6 10 -22t24 -16q8 0 23 10.5t15 22.5zM120 91q0 12 -12.5 22.5
t-23.5 10.5q-15 0 -27.5 -17t-12.5 -33q0 -10 10 -21.5t22 -11.5q14 0 29 14.5t15 35.5z" />
    <glyph glyph-name="N" unicode="N" horiz-adv-x="562" 
d="M483 669q-3 9 -14.5 20t-21.5 11q-11 0 -23.5 -10.5t-12.5 -21.5q0 -16 15.5 -27t31.5 -8q10 0 18.5 9.5t6.5 26.5zM118 561q0 15 -10.5 25.5t-25.5 10.5t-25.5 -10.5t-10.5 -25.5t10.5 -25.5t25.5 -10.5t25.5 10.5t10.5 25.5zM484 79q0 5 -10 16.5t-22 11.5
q-20 -1 -31 -12t-11 -20q0 -12 13.5 -22.5t28.5 -10.5q8 0 20 14t12 23zM397 392q21 -12 21 19l2 154q0 17 -11 28t-24 27.5t-15 45.5q-2 32 27 54t52 22q17 0 46 -18t30 -39q3 -42 -2 -58.5t-22.5 -24.5t-17.5 -21q-8 -228 -9 -411q0 -13 6.5 -17t16 -9t19 -18t9.5 -52
q0 -74 -86 -74q-28 0 -56.5 27.5t-23.5 56.5q3 28 16 39.5t27 26t15 52.5l1 72q-2 28 -19 41l-252 164q-13 8 -30 3t-46 -2q-26 2 -48.5 28.5t-22.5 58.5q0 27 35.5 49.5t54.5 22.5q25 0 48.5 -20.5t23.5 -45.5q2 -22 3.5 -32.5t12.5 -16.5z" />
    <glyph glyph-name="N" unicode="n" horiz-adv-x="562" 
d="M483 669q-3 9 -14.5 20t-21.5 11q-11 0 -23.5 -10.5t-12.5 -21.5q0 -16 15.5 -27t31.5 -8q10 0 18.5 9.5t6.5 26.5zM118 561q0 15 -10.5 25.5t-25.5 10.5t-25.5 -10.5t-10.5 -25.5t10.5 -25.5t25.5 -10.5t25.5 10.5t10.5 25.5zM484 79q0 5 -10 16.5t-22 11.5
q-20 -1 -31 -12t-11 -20q0 -12 13.5 -22.5t28.5 -10.5q8 0 20 14t12 23zM397 392q21 -12 21 19l2 154q0 17 -11 28t-24 27.5t-15 45.5q-2 32 27 54t52 22q17 0 46 -18t30 -39q3 -42 -2 -58.5t-22.5 -24.5t-17.5 -21q-8 -228 -9 -411q0 -13 6.5 -17t16 -9t19 -18t9.5 -52
q0 -74 -86 -74q-28 0 -56.5 27.5t-23.5 56.5q3 28 16 39.5t27 26t15 52.5l1 72q-2 28 -19 41l-252 164q-13 8 -30 3t-46 -2q-26 2 -48.5 28.5t-22.5 58.5q0 27 35.5 49.5t54.5 22.5q25 0 48.5 -20.5t23.5 -45.5q2 -22 3.5 -32.5t12.5 -16.5z" />
    <glyph glyph-name="P" unicode="s" horiz-adv-x="748" 
d="M724 184q0 -36 -27 -60.5t-60 -24.5q-28 0 -55.5 23t-27.5 51q-1 31 -14 38l-141 90q-12 7 -11 -11l1 -96q0 -19 12.5 -25.5t24.5 -33.5t12 -52t-7.5 -40.5t-31 -29t-48.5 -13.5q-28 0 -55.5 27.5t-27.5 55.5q0 29 11.5 45t26.5 26q24 17 24 37l-2 99q0 30 -18 17
l-127 -78q-13 -7 -9.5 -26t-2 -38t-10.5 -28q-11 -18 -29.5 -28.5t-47.5 -10.5q-36 0 -60 27t-21 62q7 52 36 67.5t47 13.5q23 -1 31 -5t31 11l128 90q16 12 -2 23l-98 72q-16 9 -28 6.5t-33 5t-29 12.5q-19 11 -28.5 33t-9.5 39q0 38 23.5 61.5t60.5 23.5q14 0 48 -19
t34 -39q0 -49 -2.5 -56.5t0 -13.5t42.5 -31t57 -32q15 -9 15 17l1 94q-1 19 -12 29t-21.5 31t-11.5 40q-2 24 11.5 48.5t33.5 28.5t43 5q27 0 54 -21t27 -51q0 -31 -9 -45.5t-25 -25.5q-31 -19 -31 -36v-97q1 -13 6.5 -16t19.5 7q9 7 44.5 31.5t50.5 38.5q19 16 14 34t6 42
q15 31 39 38t40 7q24 0 53.5 -15.5t29.5 -42.5q0 -60 -8.5 -71t-22 -24t-50.5 -13q-48 13 -64 0l-115 -89q-10 -7 -10.5 -12.5t12.5 -15.5l141 -101q15 -8 23 -6t22 4.5t32.5 1t39.5 -14.5q32 -17 35 -65zM644 574q0 4 -3 10.5t-14 16t-17 9.5q-7 0 -20 -8.5t-17.5 -17.5
t-4.5 -17q0 -10 11.5 -24t26.5 -16q13 0 26 7t12 40zM406 657q0 13 -10.5 28t-25.5 15q-14 0 -28.5 -12t-14.5 -23q0 -20 10 -30t27.5 -10t29.5 11t12 21zM675 180q-1 26 -15.5 33t-22.5 7q-34 0 -34 -38q0 -8 3 -19t14.5 -16t22.5 -2q31 8 32 35zM168 540q0 35 -10 45
t-31 10q-12 0 -22.5 -7.5t-7.5 -37.5q2 -15 12.5 -24.5t18.5 -7.5t31 6q2 3 5.5 6.5t3.5 9.5zM389 85q0 40 -34 40q-11 0 -26.5 -13.5t-15.5 -24.5q0 -7 8.5 -20t14 -15.5t13.5 -2.5q28 7 34 12t6 24zM125 178q0 7 -9 28t-17.5 17t-16.5 -4q-4 0 -18 -11.5t-14 -22.5
q0 -12 12 -27t27 -15t25.5 11.5t10.5 23.5z" />
    <glyph glyph-name="Q" unicode="E" horiz-adv-x="859" 
d="M831 70q0 -24 -30.5 -47t-47.5 -22q-27 4 -47 14t-27 21t-34 10l-425 -3q-35 0 -39 -11t-22 -26.5t-48 -15.5q-45 0 -67 34t-21 70q1 17 8.5 33t18 24.5t10.5 21.5l-2 385q-1 31 -29 55.5t-24 58.5q3 26 25 57.5t55 31.5q58 0 71.5 -15.5t19 -31.5t22.5 -16l432 -4
q17 3 27.5 18t22.5 22t52 5q38 -2 61.5 -24.5t23.5 -58.5q-1 -52 -31 -70t-30 -41v-355q2 -11 13 -15q16 -6 30 -17t23.5 -31.5t8.5 -56.5zM768 664q0 7 -16.5 18.5t-29.5 11.5q-6 0 -18 -6.5t-12 -18.5q0 -31 13 -39.5t25 -7.5q17 1 27.5 15.5t10.5 26.5zM130 679
q1 13 -10 21t-20 8q-46 -1 -46 -36q0 -22 11.5 -29t35.5 -7q11 0 20 16t9 27zM777 88q-1 12 -14 24t-22 12q-7 0 -16.5 -8t-11.5 -13q-3 -9 4.5 -27.5t25.5 -18.5q17 0 25.5 10t8.5 21zM145 71q0 19 -8 27.5t-19 8.5q-41 -2 -42 -20q-3 -18 9 -32.5t23 -15.5q17 0 27 8.5
t10 23.5zM219 105l432 -1q14 0 18 11.5t6.5 24t13 24t11.5 41.5v342q-1 22 -11.5 25.5t-24.5 19.5t-19.5 31.5t-28.5 15.5l-414 1q-27 1 -30 -10t-18.5 -25.5t-24.5 -16.5t-8 -30v-368q2 -26 14.5 -30.5t26 -17.5t18.5 -24.5t39 -12.5z" />
    <glyph glyph-name="Q" unicode="o" horiz-adv-x="859" 
d="M831 70q0 -24 -30.5 -47t-47.5 -22q-27 4 -47 14t-27 21t-34 10l-425 -3q-35 0 -39 -11t-22 -26.5t-48 -15.5q-45 0 -67 34t-21 70q1 17 8.5 33t18 24.5t10.5 21.5l-2 385q-1 31 -29 55.5t-24 58.5q3 26 25 57.5t55 31.5q58 0 71.5 -15.5t19 -31.5t22.5 -16l432 -4
q17 3 27.5 18t22.5 22t52 5q38 -2 61.5 -24.5t23.5 -58.5q-1 -52 -31 -70t-30 -41v-355q2 -11 13 -15q16 -6 30 -17t23.5 -31.5t8.5 -56.5zM768 664q0 7 -16.5 18.5t-29.5 11.5q-6 0 -18 -6.5t-12 -18.5q0 -31 13 -39.5t25 -7.5q17 1 27.5 15.5t10.5 26.5zM130 679
q1 13 -10 21t-20 8q-46 -1 -46 -36q0 -22 11.5 -29t35.5 -7q11 0 20 16t9 27zM777 88q-1 12 -14 24t-22 12q-7 0 -16.5 -8t-11.5 -13q-3 -9 4.5 -27.5t25.5 -18.5q17 0 25.5 10t8.5 21zM145 71q0 19 -8 27.5t-19 8.5q-41 -2 -42 -20q-3 -18 9 -32.5t23 -15.5q17 0 27 8.5
t10 23.5zM219 105l432 -1q14 0 18 11.5t6.5 24t13 24t11.5 41.5v342q-1 22 -11.5 25.5t-24.5 19.5t-19.5 31.5t-28.5 15.5l-414 1q-27 1 -30 -10t-18.5 -25.5t-24.5 -16.5t-8 -30v-368q2 -26 14.5 -30.5t26 -17.5t18.5 -24.5t39 -12.5z" />
    <glyph glyph-name="Q" unicode="e" horiz-adv-x="859" 
d="M831 70q0 -24 -30.5 -47t-47.5 -22q-27 4 -47 14t-27 21t-34 10l-425 -3q-35 0 -39 -11t-22 -26.5t-48 -15.5q-45 0 -67 34t-21 70q1 17 8.5 33t18 24.5t10.5 21.5l-2 385q-1 31 -29 55.5t-24 58.5q3 26 25 57.5t55 31.5q58 0 71.5 -15.5t19 -31.5t22.5 -16l432 -4
q17 3 27.5 18t22.5 22t52 5q38 -2 61.5 -24.5t23.5 -58.5q-1 -52 -31 -70t-30 -41v-355q2 -11 13 -15q16 -6 30 -17t23.5 -31.5t8.5 -56.5zM768 664q0 7 -16.5 18.5t-29.5 11.5q-6 0 -18 -6.5t-12 -18.5q0 -31 13 -39.5t25 -7.5q17 1 27.5 15.5t10.5 26.5zM130 679
q1 13 -10 21t-20 8q-46 -1 -46 -36q0 -22 11.5 -29t35.5 -7q11 0 20 16t9 27zM777 88q-1 12 -14 24t-22 12q-7 0 -16.5 -8t-11.5 -13q-3 -9 4.5 -27.5t25.5 -18.5q17 0 25.5 10t8.5 21zM145 71q0 19 -8 27.5t-19 8.5q-41 -2 -42 -20q-3 -18 9 -32.5t23 -15.5q17 0 27 8.5
t10 23.5zM219 105l432 -1q14 0 18 11.5t6.5 24t13 24t11.5 41.5v342q-1 22 -11.5 25.5t-24.5 19.5t-19.5 31.5t-28.5 15.5l-414 1q-27 1 -30 -10t-18.5 -25.5t-24.5 -16.5t-8 -30v-368q2 -26 14.5 -30.5t26 -17.5t18.5 -24.5t39 -12.5z" />
    <glyph glyph-name="Q" unicode="O" horiz-adv-x="859" 
d="M831 70q0 -24 -30.5 -47t-47.5 -22q-27 4 -47 14t-27 21t-34 10l-425 -3q-35 0 -39 -11t-22 -26.5t-48 -15.5q-45 0 -67 34t-21 70q1 17 8.5 33t18 24.5t10.5 21.5l-2 385q-1 31 -29 55.5t-24 58.5q3 26 25 57.5t55 31.5q58 0 71.5 -15.5t19 -31.5t22.5 -16l432 -4
q17 3 27.5 18t22.5 22t52 5q38 -2 61.5 -24.5t23.5 -58.5q-1 -52 -31 -70t-30 -41v-355q2 -11 13 -15q16 -6 30 -17t23.5 -31.5t8.5 -56.5zM768 664q0 7 -16.5 18.5t-29.5 11.5q-6 0 -18 -6.5t-12 -18.5q0 -31 13 -39.5t25 -7.5q17 1 27.5 15.5t10.5 26.5zM130 679
q1 13 -10 21t-20 8q-46 -1 -46 -36q0 -22 11.5 -29t35.5 -7q11 0 20 16t9 27zM777 88q-1 12 -14 24t-22 12q-7 0 -16.5 -8t-11.5 -13q-3 -9 4.5 -27.5t25.5 -18.5q17 0 25.5 10t8.5 21zM145 71q0 19 -8 27.5t-19 8.5q-41 -2 -42 -20q-3 -18 9 -32.5t23 -15.5q17 0 27 8.5
t10 23.5zM219 105l432 -1q14 0 18 11.5t6.5 24t13 24t11.5 41.5v342q-1 22 -11.5 25.5t-24.5 19.5t-19.5 31.5t-28.5 15.5l-414 1q-27 1 -30 -10t-18.5 -25.5t-24.5 -16.5t-8 -30v-368q2 -26 14.5 -30.5t26 -17.5t18.5 -24.5t39 -12.5z" />
    <glyph glyph-name="R" unicode="P" horiz-adv-x="642" 
d="M613 83q0 -73 -87 -84q-17 -3 -51.5 22t-34.5 44q0 30 8 48.5t-5 32.5l-127 152q-13 15 -19.5 15.5t-20 -17.5t-48.5 -58q-38 -46 -56 -80q-9 -16 1 -46t7 -42q-6 -31 -32.5 -50.5t-58.5 -19.5q-38 0 -63 29.5t-25 60.5q0 28 22.5 52t50 27.5t37.5 16.5l128 173
q9 13 7 23t-34.5 56.5t-92.5 122.5q-15 18 -32 25t-41 22q-29 19 -29 58q0 83 93 83q77 0 85 -81q2 -28 -14 -43.5t-4 -34.5l107 -143q10 -14 15.5 -14t15 18t52.5 71q42 74 43 87q2 12 -5 27.5t-2 43.5q5 36 24.5 48.5t67.5 12.5q34 0 61 -25.5t27 -59.5q0 -31 -24 -57.5
t-50 -26.5q-27 1 -33.5 0t-25.5 -27l-106 -154q-7 -14 10 -39l150 -173q12 -12 43 -11q28 0 47 -32t19 -53zM530 658q0 39 -39 34q-12 1 -20 -7.5t-8 -43.5q0 -9 9 -14.5t23 -5.5q12 0 23.5 10.5t11.5 26.5zM142 662q0 12 -11 27t-25 15q-9 0 -22.5 -13.5t-13.5 -22.5
q0 -13 12 -22.5t26 -9.5q7 0 20.5 6.5t13.5 19.5zM564 87q0 11 -15.5 23.5t-21.5 12.5q-15 0 -24.5 -13.5t-9.5 -28.5q0 -8 14 -21t23 -13q10 0 22 13.5t12 26.5zM125 85q5 39 -40 39q-11 0 -24 -16q-8 -12 3.5 -35.5t32.5 -19.5q25 6 28 32z" />
    <glyph glyph-name="R" unicode="p" horiz-adv-x="642" 
d="M613 83q0 -73 -87 -84q-17 -3 -51.5 22t-34.5 44q0 30 8 48.5t-5 32.5l-127 152q-13 15 -19.5 15.5t-20 -17.5t-48.5 -58q-38 -46 -56 -80q-9 -16 1 -46t7 -42q-6 -31 -32.5 -50.5t-58.5 -19.5q-38 0 -63 29.5t-25 60.5q0 28 22.5 52t50 27.5t37.5 16.5l128 173
q9 13 7 23t-34.5 56.5t-92.5 122.5q-15 18 -32 25t-41 22q-29 19 -29 58q0 83 93 83q77 0 85 -81q2 -28 -14 -43.5t-4 -34.5l107 -143q10 -14 15.5 -14t15 18t52.5 71q42 74 43 87q2 12 -5 27.5t-2 43.5q5 36 24.5 48.5t67.5 12.5q34 0 61 -25.5t27 -59.5q0 -31 -24 -57.5
t-50 -26.5q-27 1 -33.5 0t-25.5 -27l-106 -154q-7 -14 10 -39l150 -173q12 -12 43 -11q28 0 47 -32t19 -53zM530 658q0 39 -39 34q-12 1 -20 -7.5t-8 -43.5q0 -9 9 -14.5t23 -5.5q12 0 23.5 10.5t11.5 26.5zM142 662q0 12 -11 27t-25 15q-9 0 -22.5 -13.5t-13.5 -22.5
q0 -13 12 -22.5t26 -9.5q7 0 20.5 6.5t13.5 19.5zM564 87q0 11 -15.5 23.5t-21.5 12.5q-15 0 -24.5 -13.5t-9.5 -28.5q0 -8 14 -21t23 -13q10 0 22 13.5t12 26.5zM125 85q5 39 -40 39q-11 0 -24 -16q-8 -12 3.5 -35.5t32.5 -19.5q25 6 28 32z" />
    <glyph glyph-name="S" unicode="X" horiz-adv-x="543" 
d="M286 698q-1 13 -11 24t-22 8q-35 -9 -35 -28q0 -15 13.5 -25.5t24.5 -10.5q10 0 20 9.5t10 22.5zM289 98q0 10 -7 24t-23 14q-14 0 -22.5 -10t-8.5 -32q0 -35 32 -35q14 0 21.5 13t7.5 26zM63 392q0 -60 4 -67.5t13 -7.5h123q19 0 23 6t4 17v94q0 14 -3 17.5t-18 3.5
h-118q-21 0 -24.5 -6t-3.5 -57zM299 317h120q14 0 21.5 8t7.5 22v87q0 13 -4.5 17t-42.5 4l-95 -1q-21 0 -24 -6t-3 -29v-72q0 -18 3 -23.5t17 -6.5zM197 259q-125 -2 -150 -6t-31.5 -0.5t-13.5 32.5l-3 180q0 25 20 37.5t34 12.5l153 1q14 0 17 9t3 25v42q0 15 -14 19.5
t-35.5 28.5t-18.5 54q14 89 98 89q36 0 61 -30q22 -27 22 -59q0 -34 -14 -52q-5 -7 -25 -21q-14 -10 -14 -23l-3 -57q-1 -27 10 -28.5t76 2.5t92 2t34.5 -8.5t12 -14t4.5 -43.5l-4 -144q-2 -24 -11.5 -35.5t-21.5 -12.5h-164q-27 1 -28 -10.5t-1 -36.5t16.5 -32t34.5 -29.5
t17 -61.5q1 -31 -25.5 -60t-59.5 -29t-67.5 25.5t-34.5 58.5q0 31 11 57.5t29.5 33.5t19.5 17q3 52 -2.5 59.5t-23.5 7.5z" />
    <glyph glyph-name="S" unicode="x" horiz-adv-x="543" 
d="M286 698q-1 13 -11 24t-22 8q-35 -9 -35 -28q0 -15 13.5 -25.5t24.5 -10.5q10 0 20 9.5t10 22.5zM289 98q0 10 -7 24t-23 14q-14 0 -22.5 -10t-8.5 -32q0 -35 32 -35q14 0 21.5 13t7.5 26zM63 392q0 -60 4 -67.5t13 -7.5h123q19 0 23 6t4 17v94q0 14 -3 17.5t-18 3.5
h-118q-21 0 -24.5 -6t-3.5 -57zM299 317h120q14 0 21.5 8t7.5 22v87q0 13 -4.5 17t-42.5 4l-95 -1q-21 0 -24 -6t-3 -29v-72q0 -18 3 -23.5t17 -6.5zM197 259q-125 -2 -150 -6t-31.5 -0.5t-13.5 32.5l-3 180q0 25 20 37.5t34 12.5l153 1q14 0 17 9t3 25v42q0 15 -14 19.5
t-35.5 28.5t-18.5 54q14 89 98 89q36 0 61 -30q22 -27 22 -59q0 -34 -14 -52q-5 -7 -25 -21q-14 -10 -14 -23l-3 -57q-1 -27 10 -28.5t76 2.5t92 2t34.5 -8.5t12 -14t4.5 -43.5l-4 -144q-2 -24 -11.5 -35.5t-21.5 -12.5h-164q-27 1 -28 -10.5t-1 -36.5t16.5 -32t34.5 -29.5
t17 -61.5q1 -31 -25.5 -60t-59.5 -29t-67.5 25.5t-34.5 58.5q0 31 11 57.5t29.5 33.5t19.5 17q3 52 -2.5 59.5t-23.5 7.5z" />
    <glyph glyph-name="T" unicode="Q" horiz-adv-x="780" 
d="M701 642q4 12 -6.5 27t-23.5 15q-5 0 -20 -9.5t-18 -22.5q-5 -20 15.5 -26t24.5 -6q22 1 28 22zM404 662q0 9 -13 20.5t-25 11.5q-10 0 -20 -11.5t-10 -20.5q0 -14 12.5 -23t23.5 -9q13 0 22.5 9.5t9.5 22.5zM127 666q-8 19 -36 22q-10 2 -21.5 -6.5t-14.5 -24.5
q-4 -28 42 -37q21 -5 30 11t0 35zM612 156q22 34 24 65t-16 -5t-72 -67t-102 -36t-80 -5q-40 0 -84 6t-99 38t-78 71t-25 25t11 -50t41 -70q34 -38 96 -56t142 -18q108 2 160 26t82 76zM372 0q-135 2 -209.5 35t-104.5 93t-34 106q-4 44 4 71t15 34t3 34t1 188
q-1 16 -10.5 25t-23.5 30t-11 47q3 28 32.5 50.5t54.5 22.5q38 0 62.5 -26t24.5 -57q0 -33 -10 -43t-36 -24q-17 -9 -19 -26q-7 -44 -6 -87t1 -83q0 -30 11 -75t55 -86t97 -52t62 -7t9 28l1 365q-1 17 -28.5 36.5t-29.5 64.5q-1 20 32 49t57 29q34 0 59.5 -29t25.5 -54
t-15 -40t-30 -22.5t-15 -24.5l-1 -374q0 -20 11 -25t62 6t92 52t49 88t8 89q1 37 5 142q0 18 -24 37.5t-25 44.5q-1 27 10 50.5t32 37t51 13.5q39 0 60 -25.5t21 -57.5q0 -35 -17 -52q-5 -6 -32 -19q-16 -9 -15.5 -17.5t-3 -23.5t-5 -82.5t-4.5 -85.5t4 -23t10 -31t1 -66
q-2 -34 -22 -96t-85 -108t-207 -46z" />
    <glyph glyph-name="T" unicode="q" horiz-adv-x="780" 
d="M701 642q4 12 -6.5 27t-23.5 15q-5 0 -20 -9.5t-18 -22.5q-5 -20 15.5 -26t24.5 -6q22 1 28 22zM404 662q0 9 -13 20.5t-25 11.5q-10 0 -20 -11.5t-10 -20.5q0 -14 12.5 -23t23.5 -9q13 0 22.5 9.5t9.5 22.5zM127 666q-8 19 -36 22q-10 2 -21.5 -6.5t-14.5 -24.5
q-4 -28 42 -37q21 -5 30 11t0 35zM612 156q22 34 24 65t-16 -5t-72 -67t-102 -36t-80 -5q-40 0 -84 6t-99 38t-78 71t-25 25t11 -50t41 -70q34 -38 96 -56t142 -18q108 2 160 26t82 76zM372 0q-135 2 -209.5 35t-104.5 93t-34 106q-4 44 4 71t15 34t3 34t1 188
q-1 16 -10.5 25t-23.5 30t-11 47q3 28 32.5 50.5t54.5 22.5q38 0 62.5 -26t24.5 -57q0 -33 -10 -43t-36 -24q-17 -9 -19 -26q-7 -44 -6 -87t1 -83q0 -30 11 -75t55 -86t97 -52t62 -7t9 28l1 365q-1 17 -28.5 36.5t-29.5 64.5q-1 20 32 49t57 29q34 0 59.5 -29t25.5 -54
t-15 -40t-30 -22.5t-15 -24.5l-1 -374q0 -20 11 -25t62 6t92 52t49 88t8 89q1 37 5 142q0 18 -24 37.5t-25 44.5q-1 27 10 50.5t32 37t51 13.5q39 0 60 -25.5t21 -57.5q0 -35 -17 -52q-5 -6 -32 -19q-16 -9 -15.5 -17.5t-3 -23.5t-5 -82.5t-4.5 -85.5t4 -23t10 -31t1 -66
q-2 -34 -22 -96t-85 -108t-207 -46z" />
    <glyph glyph-name="W" unicode="R" horiz-adv-x="687" 
d="M656 690q0 -36 -15 -54t-37.5 -29t-26.5 -27l-166 -414q-7 -16 6.5 -36t14.5 -42q0 -33 -32.5 -60t-60.5 -27q-31 0 -56.5 19t-28.5 47q-2 20 1.5 38t12.5 33t2 30l-91 219q-67 154 -89 184q-6 12 -29.5 17.5t-36.5 20t-19 25t-6 42.5q0 34 25.5 54t41.5 14
q24 -5 42 -5.5t38.5 -25t20.5 -48.5q1 -17 -6 -28.5l-13.5 -23t-1.5 -25.5q68 -131 121 -266l30 -82q20 -51 25.5 -52t12.5 0t14.5 -2.5t16.5 20.5q22 54 29 62t120 320q8 15 -3.5 28t-19 28.5t-8.5 43.5q0 32 29 46.5t55 14.5q33 1 60 -16t28 -43zM610 670q0 12 -12.5 21
t-25.5 9q-14 0 -22 -8t-8 -22t6.5 -20.5t17.5 -6.5q9 0 26.5 7.5t17.5 19.5zM115 667q0 14 -11 25.5t-25 11.5q-11 0 -23.5 -15.5t-12.5 -25.5q0 -12 13 -21t25 -9q11 0 22.5 10t11.5 24zM379 104q0 9 -14 17.5t-27 8.5q-12 0 -24 -14t-10 -26q6 -33 13.5 -35t19.5 -2
q27 0 35.5 17.5t6.5 33.5z" />
    <glyph glyph-name="W" unicode="r" horiz-adv-x="687" 
d="M656 690q0 -36 -15 -54t-37.5 -29t-26.5 -27l-166 -414q-7 -16 6.5 -36t14.5 -42q0 -33 -32.5 -60t-60.5 -27q-31 0 -56.5 19t-28.5 47q-2 20 1.5 38t12.5 33t2 30l-91 219q-67 154 -89 184q-6 12 -29.5 17.5t-36.5 20t-19 25t-6 42.5q0 34 25.5 54t41.5 14
q24 -5 42 -5.5t38.5 -25t20.5 -48.5q1 -17 -6 -28.5l-13.5 -23t-1.5 -25.5q68 -131 121 -266l30 -82q20 -51 25.5 -52t12.5 0t14.5 -2.5t16.5 20.5q22 54 29 62t120 320q8 15 -3.5 28t-19 28.5t-8.5 43.5q0 32 29 46.5t55 14.5q33 1 60 -16t28 -43zM610 670q0 12 -12.5 21
t-25.5 9q-14 0 -22 -8t-8 -22t6.5 -20.5t17.5 -6.5q9 0 26.5 7.5t17.5 19.5zM115 667q0 14 -11 25.5t-25 11.5q-11 0 -23.5 -15.5t-12.5 -25.5q0 -12 13 -21t25 -9q11 0 22.5 10t11.5 24zM379 104q0 9 -14 17.5t-27 8.5q-12 0 -24 -14t-10 -26q6 -33 13.5 -35t19.5 -2
q27 0 35.5 17.5t6.5 33.5z" />
    <glyph glyph-name="X" unicode="S" horiz-adv-x="799" 
d="M725 656q0 11 -13 21.5t-27 10.5q-15 0 -25.5 -15t-10.5 -29q0 -12 10.5 -23.5t21.5 -11.5t27.5 18.5t16.5 28.5zM381 640q0 16 -14 28.5t-31 12.5q-15 0 -24.5 -15t-9.5 -24q0 -16 15.5 -26t27.5 -10q11 0 23.5 10.5t12.5 23.5zM687 87q0 8 -11.5 22.5t-16 16t-16.5 1.5
q-32 0 -32 -40q2 -42 44 -40q12 2 22 13.5t10 26.5zM119 82q-5 21 -14.5 26.5t-23 5t-17.5 -4.5t0 -13.5t-0.5 -13t-4.5 -8.5q0 -8 10 -20t22 -12q14 0 22 11t6 29zM768 650q0 -24 -21 -47t-42.5 -29t-27.5 -15q-30 -49 -62.5 -127.5l-42 -102t-2.5 -39.5l55 -104
q7 -13 19 -11t24.5 -3t31.5 -17t24 -27q6 -16 7.5 -34t-3 -37t-22.5 -35q-8 -7 -26.5 -13.5t-25.5 -6.5q-8 0 -29 3.5t-37.5 25t-20.5 40.5q-4 28 4 47.5t1 31.5q-92 160 -105 174t-104 184q-17 30 -25 33t-13 -8l-173 -382q-6 -16 8 -35.5t9 -48.5q-6 -32 -17 -43
q-13 -14 -30 -20.5t-34 -6.5q-23 0 -37 8.5t-32 37t-16 47.5q3 25 19 45q23 29 44.5 27t26.5 8l177 396q6 15 -4.5 30.5t-11.5 50.5q-1 14 10 37t33 30q28 9 54.5 7.5t43.5 -13t24 -31.5q4 -16 6 -31.5t-4.5 -29.5t-14.5 -21.5t-2 -19.5l108 -183q11 -16 22 2l83 175
q7 15 -6.5 39t-13.5 42t13.5 43.5t34 33.5t35.5 8q4 0 24.5 -3.5t42 -25t21.5 -56.5z" />
    <glyph glyph-name="Y" unicode="t" horiz-adv-x="950" 
d="M748 673q-6 23 -15 27.5t-15 4.5q-8 0 -20.5 -7t-17.5 -14q-4 -7 -4 -21.5t13 -25.5t21 -11q20 0 29 12t9 35zM867 433q0 16 -13.5 29.5t-26.5 13.5q-31 0 -32 -36q0 -15 10.5 -25.5t29.5 -10.5q13 0 22 5.5t10 23.5zM479 666q-1 9 -5 18.5t-11.5 14t-20.5 4.5
q-23 0 -30 -10.5t-12 -15.5t-4 -17q4 -38 36 -40q19 -1 33 16.5t14 29.5zM253 672q0 14 -12 21t-31 7q-10 -1 -21 -12.5t-11 -25.5q0 -9 16.5 -21.5t26.5 -12.5q11 0 21.5 16t10.5 28zM750 91q0 6 -5 17t-38 13q-14 1 -24 -13t-12 -25q-7 -36 20 -37q39 0 49 14t10 31z
M121 424q-2 26 -39 28q-11 1 -21.5 -8.5t-10.5 -25.5q0 -18 14 -30t23 -12q7 0 18 10t13.5 16t2.5 22zM483 79q0 15 -24 34q-4 2 -22.5 0.5t-25.5 -19t-7 -26.5t9 -18t28 -10q6 0 18.5 3t18 15.5t5.5 20.5zM276 65q2 19 -4 29t-14.5 16.5t-15.5 6.5q-13 0 -29 -13t-16 -29
q0 -9 13 -22t31 -12q32 2 35 24zM680 378q0 19 -15 19h-183q-18 0 -18 -26l-3 -190q-1 -20 7.5 -24.5t25 -17t14.5 -18.5t6 -26t-0.5 -32t-5.5 -21.5t-6.5 -26t-24 -20t-36.5 -3.5q-20 0 -35.5 6t-31.5 31.5t-16 38.5q0 24 11 46.5t25 31t14 21.5v201q-1 28 -15 28h-120
q-18 0 -18 -26v-186q0 -23 9.5 -28t30.5 -25q28 -28 26 -50q-4 -47 -28.5 -66t-61.5 -19q-30 0 -54.5 24t-24.5 53q0 51 23 66.5t24 26.5q8 39 5 206q0 25 -22 25q-6 0 -14 -6t-18 -27q-8 -12 -28 -23.5t-38 -11.5q-35 0 -55 20t-28 46q-2 25 8.5 46.5t29.5 37.5t48 16
q16 0 33.5 -5.5t38.5 -32.5q7 -7 13 -7q29 0 29 28l-1 79q-2 13 -8 18.5t-28 16.5q-11 6 -21 23.5t-10 41.5q0 39 25 62t61 23q19 0 48.5 -17.5t31.5 -56.5q2 -23 -7 -44.5t-22.5 -30t-12.5 -24.5l3 -91q2 -18 25 -20h111q13 0 13 24v86q-1 17 -8.5 20t-18.5 12t-19 24.5
t-8 39.5q0 71 83 79q27 0 47 -12t26 -30.5t6 -36.5q0 -35 -26.5 -57.5t-26.5 -33.5v-91q0 -25 11 -25h176q29 0 29 14v92q0 18 -10 24t-21.5 28.5t-13.5 41.5q-3 25 6.5 43t35.5 34q15 9 32.5 9t24.5 -2q8 -2 29.5 -17t25.5 -32t4 -31q1 -18 -12.5 -40t-29 -30t-15.5 -27
l4 -76q1 -19 7 -23q8 -4 15 12t23.5 31.5t43.5 16.5q42 2 67 -32.5t25 -65.5q1 -20 -18.5 -36.5t-34.5 -22.5q-15 -3 -22.5 -12t-29 -5.5t-36 25.5t-31.5 21q-13 0 -13 -69q2 -47 -1.5 -57t-5.5 -69q0 -32 4.5 -37t14.5 -6t30 -17t18 -53q0 -18 -9 -30t-18 -28.5t-20 -21.5
q-15 -9 -28.5 -8l-40.5 3q-17 1 -36.5 28t-17.5 48q2 27 18 46t26 29t10 27v196z" />
    <glyph glyph-name="Z" unicode="$" horiz-adv-x="990" 
d="M956 662q-3 -54 -40.5 -70t-42.5 -28q-37 -107 -148 -161q-70 -34 -176 -53q-22 -3 -28 -8.5t-6 -34.5v-118q0 -22 14.5 -29t31 -31.5t16.5 -59.5q1 -28 -31 -48.5t-57 -20.5q-28 0 -58.5 21.5t-30.5 52.5q0 18 6 31.5t24 29t21.5 26t3.5 28.5v0q0 15 2 43l4 85
q1 29 -16 30q-132 10 -231 71t-146 147q-5 11 -37 27q-30 22 -30 55q0 36 25 65t60 29q69 0 85 -78q5 -25 -16.5 -47t-15.5 -41q48 -132 295 -171q11 -1 17 0.5t9 9.5q4 10 5.5 21.5t-0.5 22.5q-1 16 -13 18t-39.5 5t-35.5 10.5t-37 14.5t-50 24q-24 25 -27 38t-14.5 22
t-25 26t-13.5 36q0 92 91 92q23 0 43.5 -10.5t35.5 -58.5q1 -24 -5.5 -39.5t-21 -26.5t-14.5 -22q0 -12 32 -29.5t49 -17.5q36 -1 41.5 4.5t5.5 18.5q0 17 -26.5 37.5t-26.5 62.5q0 35 26.5 57.5t62.5 22.5q4 0 25 -3.5t38.5 -30t17.5 -40.5q1 -23 -7 -43.5t-31 -30.5
t-22 -23q-2 -10 3 -15t14 -5q12 0 43 18.5t34 34.5q3 12 -6 30.5t-6 36.5t5 25q7 21 25.5 32.5t53.5 11.5q27 0 41 -9.5t28 -30t14 -34.5q-5 -53 -42 -79q-13 -9 -30.5 -8t-30 -18t-94.5 -54q-50 -24 -51 -47q-5 -40 0 -45t11 -5q8 0 44 6.5t86 26t89 56.5t51 72
q5 13 -11 36.5t-13 42.5q11 81 84 92q45 6 67.5 -29.5t22.5 -51.5zM910 658q0 19 -15.5 27.5t-24.5 8.5q-10 0 -23 -10.5t-13 -26.5q0 -7 10 -24.5t22 -17.5q13 0 28.5 14t15.5 29zM728 660q0 7 -9.5 21.5t-23.5 14.5q-34 -1 -43 -32q-3 -12 7.5 -25.5t38.5 -14.5
q11 0 20.5 10.5t9.5 25.5zM539 663q0 17 -6 23.5t-14 10.5t-28 4q-14 0 -19 -8t-5 -28q0 -18 6 -24.5t13.5 -4.5t20.5 1q32 0 32 26zM331 663q1 15 -11.5 24.5t-28.5 7.5q-31 -1 -30 -27q1 -17 12.5 -29t25.5 -12q15 0 23.5 9t8.5 27zM122 664q0 10 -9 21t-25 11
q-15 0 -26.5 -10.5t-11.5 -25.5q0 -13 10 -24.5t22 -11.5q10 0 25 13.5t15 26.5zM529 85q0 12 -13 24t-29 12q-6 0 -14 -2.5t-14 -14t-6 -19.5q0 -19 10.5 -29.5t27.5 -10.5q14 0 26 13.5t12 26.5z" />
    <glyph glyph-name="glyph27" horiz-adv-x="496" 
d="M-4 -46h498v-46h-498v46zM-2 812h498v-46h-498v46z" />
    </font>
</defs>
</svg>
