<?xml version="1.0" standalone="no"?>
<!DOCTYPE svg PUBLIC "-//W3C//DTD SVG 1.1//EN" "http://www.w3.org/Graphics/SVG/1.1/DTD/svg11.dtd" >
<svg>
<metadata>
Created by FontForge 20090622 at Sun Sep  8 10:13:41 2019
 By deploy user
Copyright &#194;&#169; 1995 Deniart Systems. All rights reserved.
</metadata>
<defs>
<font id="PassingTheRiver" horiz-adv-x="1211" >
  <font-face 
    font-family="Passing The River"
    font-weight="400"
    font-stretch="normal"
    units-per-em="1000"
    panose-1="0 0 4 0 0 0 0 0 0 0"
    ascent="800"
    descent="-200"
    x-height="446"
    cap-height="783"
    bbox="63 -125 1125 800"
    underline-thickness="20"
    underline-position="-123"
    unicode-range="U+0020-U+007A"
  />
<missing-glyph horiz-adv-x="500" 
d="M63 0v800h375v-800h-375zM125 63h250v675h-250v-675z" />
    <glyph glyph-name=".notdef" horiz-adv-x="500" 
d="M63 0v800h375v-800h-375zM125 63h250v675h-250v-675z" />
    <glyph glyph-name=".null" horiz-adv-x="0" 
 />
    <glyph glyph-name="nonmarkingreturn" horiz-adv-x="500" 
 />
    <glyph glyph-name="space" unicode=" " horiz-adv-x="500" 
 />
    <glyph glyph-name="A" unicode="A" horiz-adv-x="1116" 
d="M1004 46l-43 -35q-409 468 -649 640q-41 29 -82 29q-32 0 -54 -21t-22 -52q0 -186 221 -279q28 52 82 52q38 0 64.5 -26.5t26.5 -64.5q0 -37 -26.5 -63.5t-64.5 -26.5q-35 0 -61 24.5t-29 60.5q-127 49 -188 118q-72 80 -72 205q0 59 42 95q39 33 98 33q39 0 75 -26
q70 -51 162 -133l155 -142l98 148q-24 26 -24 59q0 36 25.5 61.5t60.5 25.5q36 0 61 -25.5t25 -61.5q0 -37 -25.5 -61t-60.5 -24q-11 0 -22 2l-103 -157l178 -177q155 -156 155 -163t-3 -15zM801 688q-20 0 -34.5 -14t-14.5 -34t14.5 -34t34.5 -14q19 0 33.5 14t14.5 34
t-14.5 34t-33.5 14zM460 344q-22 0 -38 -16t-16 -39q0 -22 16 -38t38 -16q23 0 39 16t16 38q0 23 -16 39t-39 16z" />
    <glyph glyph-name="B" unicode="B" horiz-adv-x="679" 
d="M576 68q-2 -9 -8 -19q-2 -5 -16 -8h-301q-19 -42 -65 -42q-30 0 -51 21.5t-21 50.5q0 30 21 51t51 21q26 0 45.5 -16t24.5 -41h262v573h-274q-14 -52 -69 -52q-30 0 -51 21t-21 51q0 29 21 50.5t51 21.5q44 0 64 -40h310q19 1 19 -3q9 -11 8 -24v-616zM215 677
q0 17 -11.5 29t-28.5 12t-28.5 -12t-11.5 -29q0 -16 11.5 -28t28.5 -12t28.5 12t11.5 28zM225 70q0 16 -11.5 27t-27.5 11t-27.5 -11t-11.5 -27q0 -17 11.5 -28t27.5 -11t27.5 11t11.5 28z" />
    <glyph glyph-name="C" unicode="C" horiz-adv-x="860" 
d="M756 702l-14 -706h-78l-13 613l-360 12q-25 -60 -89 -60q-41 0 -69.5 28.5t-28.5 68.5t28.5 69t69.5 29q30 0 56 -18.5t36 -47.5zM260 657q0 24 -17.5 42t-42.5 18q-24 0 -42 -18t-18 -42q0 -25 18 -42.5t42 -17.5q25 0 42.5 17.5t17.5 42.5z" />
    <glyph glyph-name="D" unicode="D" horiz-adv-x="648" 
d="M540 0h-75l-5 4l-2 343q-213 2 -342 -29l-5 5v96l5 5q343 0 344 -1v239h-246q-19 0 -53 -6l-53 -10l-5 5v98l5 5l294 -13q11 0 32.5 1.5t30.5 1.5h75l5 -5z" />
    <glyph glyph-name="E" unicode="E" horiz-adv-x="382" 
d="M278 673q0 -29 -18 -52.5t-46 -31.5l18 -583q0 -5 -7 -5h-76q-8 0 -7 5l18 586q-56 21 -56 81q0 37 25.5 62.5t61.5 25.5t61.5 -25.5t25.5 -62.5zM238 672q0 20 -13.5 33.5t-33.5 13.5t-33.5 -13.5t-13.5 -33.5t13.5 -34t33.5 -14t33.5 14t13.5 34z" />
    <glyph glyph-name="F" unicode="F" horiz-adv-x="684" 
d="M580 673q0 -57 -54 -74v-450q52 -18 52 -73q0 -32 -23 -54.5t-54 -22.5q-32 0 -55 22.5t-23 54.5q0 53 49 72v205h-217q-17 -54 -74 -54q-32 0 -54.5 22.5t-22.5 54.5t22.5 54.5t54.5 22.5q57 0 74 -54h217v203q-46 21 -46 71q0 32 22.5 54.5t54.5 22.5t54.5 -22.5
t22.5 -54.5zM550 674q0 19 -13.5 32.5t-32.5 13.5t-32 -13.5t-13 -32.5t13 -32.5t32 -13.5t32.5 13.5t13.5 32.5zM544 75q0 19 -13.5 32t-32.5 13t-32.5 -13t-13.5 -32t13.5 -32.5t32.5 -13.5t32.5 13.5t13.5 32.5zM223 375q0 19 -13 32t-31 13t-31 -13t-13 -32
q0 -18 13 -31t31 -13t31 13t13 31z" />
    <glyph glyph-name="G" unicode="G" horiz-adv-x="655" 
d="M552 751l-5 -238q-5 -53 -10 -97q-13 -105 -25 -143q-23 -69 -49 -107q-33 -48 -88 -77q-45 -24 -122 -31q-26 -57 -74 -57q-31 0 -53.5 22t-22.5 54q0 31 22.5 53.5t53.5 22.5q27 0 48 -17.5t27 -43.5q73 12 108 37q70 50 85 157q14 95 14 250q0 106 -6 210q37 14 59 13
q14 -1 38 -8zM225 74q0 19 -14 32.5t-33 13.5t-33 -13.5t-14 -32.5q0 -20 14 -33.5t33 -13.5t33 13.5t14 33.5z" />
    <glyph glyph-name="H" unicode="H" horiz-adv-x="701" 
d="M409 85q35 3 113 19q29 9 77 34v-121l-8 -16q-13 -2 -16 -2h-468q-5 0 -5 5v746q0 5 5 5h85q5 0 5 -5v-137q90 -9 140 -6q49 4 117 53v-140q-29 7 -96 19q-57 8 -161 5v-177q99 -6 153 2q45 7 122 32v-164q-30 15 -103 42q-60 17 -172 16v-219z" />
    <glyph glyph-name="I" unicode="I" 
d="M678 738q-11 0 -11 11q0 10 11 10q10 0 10 -10q0 -11 -10 -11zM798 407h-12q17 28 29 107q11 66 11 110q0 47 -46 47q-41 0 -47 -20q-3 -7 -2 -24q1 -34 1 -36v-184h-18v259q11 16 67 16q59 0 59 -57q0 -134 -42 -218zM669 407v267h17v-267h-17zM614 663q-17 -15 -24 -69
l-6 -78q-10 -111 -66 -113v10q23 1 36 15q8 21 12 51l8 119q13 78 67 79v-11q-2 0 -27 -3zM523 663q-17 -15 -23 -69l-6 -78q-11 -111 -67 -113v10q23 1 36 15q8 21 12 51q4 60 9 119q13 78 67 79v-11q-3 0 -28 -3zM355 405q-70 0 -70 56q0 52 31 102t78 73q0 22 -10 28
q-6 3 -30 3q-31 0 -50 -4v13q58 3 51 3q32 0 42 -8t10 -40v-107q0 -122 0 -117q-35 -2 -52 -2zM394 622q-42 -23 -68 -66t-26 -89q0 -51 46 -51q30 0 44 9q4 22 4 57v140zM305 720l-73 -41v-86q-1 -62 0 -100q1 -54 5 -86q-4 -1 -9 -1q-8 0 -11 1q3 42 3 197v89q0 77 -3 90
h111q31 0 31 -15t-54 -48zM291 773h-14q-34 0 -46 -4v-12v-49l4 -6q14 3 60.5 27.5t46.5 32.5q0 11 -51 11zM966 661q-44 -25 -69 -82q-23 -50 -23 -104q0 -53 49 -53q26 0 43 10v229zM988 239q-1 8 -4 24q-11 1 -24 1q-23 0 -32 -1q-10 -7 -22 -12q-6 -13 -6 -38
q55 8 88 26zM865 268q-2 -5 -4 -11q32 -1 33 0q3 12 10.5 15.5t23.5 4.5q40 47 40 139q-20 -5 -40 -5q-35 0 -50 10q-19 12 -19 46q0 120 110 213l12 -8v-234q0 -116 -38 -161h23q13 -1 15 -1q19 0 21 -33v-13q-84 -20 -102 -33q1 -64 17 -115q23 -76 71 -77v-7
q-51 1 -79 63q-22 48 -22 109q0 46 5 77q-12 -3 -35 -3q-4 -21 -13 -62l-40 -184h-14l-26 139q-18 93 -34 131h19q1 -29 20 -116q12 -48 30 -128l28 130q20 96 21 114h17zM1125 257q-22 5 -40 5q-22 0 -38 -9v-252h-19v259q32 16 57 16q20 0 40 -7v-12zM707 335
q0 -11 -11 -11t-11 11q0 10 11 10t11 -10zM704 1h-16l-1 267h17v-267zM661 257q-22 5 -41 5q-22 0 -38 -9v-252h-19v259q33 16 58 16q19 0 40 -7v-12zM472 227q-84 -20 -102 -33q1 -63 16 -115q24 -76 72 -77v-7q-52 1 -80 63q-22 49 -22 109q0 86 12 99q8 8 41 9
q10 0 25 -1t16 -1q20 0 21 -33q1 -5 1 -13zM457 237q0 7 -3 23q-11 2 -25 2q-39 0 -51 -7q-8 -14 -8 -45q55 8 87 27zM335 220q0 -135 -42 -219h-13q20 30 32 106q9 61 9 111q0 47 -46 47q-10 0 -48 -13v-251h-14v377h14v-110q26 8 48 8q60 0 60 -56zM186 -1q-59 2 -76 107
q-6 40 -6 151h-18v11h18v76h13v-76h46v-11h-46q-1 -30 -1 -40q0 -66 11 -119q18 -85 59 -92v-7z" />
    <glyph glyph-name="J" unicode="J" 
d="M678 738q-11 0 -11 11q0 10 11 10q10 0 10 -10q0 -11 -10 -11zM798 407h-12q17 28 29 107q11 66 11 110q0 47 -46 47q-41 0 -47 -20q-3 -7 -2 -24q1 -34 1 -36v-184h-18v259q11 16 67 16q59 0 59 -57q0 -134 -42 -218zM669 407v267h17v-267h-17zM614 663q-17 -15 -24 -69
l-6 -78q-10 -111 -66 -113v10q23 1 36 15q8 21 12 51l8 119q13 78 67 79v-11q-2 0 -27 -3zM523 663q-17 -15 -23 -69l-6 -78q-11 -111 -67 -113v10q23 1 36 15q8 21 12 51q4 60 9 119q13 78 67 79v-11q-3 0 -28 -3zM355 405q-70 0 -70 56q0 52 31 102t78 73q0 22 -10 28
q-6 3 -30 3q-31 0 -50 -4v13q58 3 51 3q32 0 42 -8t10 -40v-107q0 -122 0 -117q-35 -2 -52 -2zM394 622q-42 -23 -68 -66t-26 -89q0 -51 46 -51q30 0 44 9q4 22 4 57v140zM305 720l-73 -41v-86q-1 -62 0 -100q1 -54 5 -86q-4 -1 -9 -1q-8 0 -11 1q3 42 3 197v89q0 77 -3 90
h111q31 0 31 -15t-54 -48zM291 773h-14q-34 0 -46 -4v-12v-49l4 -6q14 3 60.5 27.5t46.5 32.5q0 11 -51 11zM966 661q-44 -25 -69 -82q-23 -50 -23 -104q0 -53 49 -53q26 0 43 10v229zM988 239q-1 8 -4 24q-11 1 -24 1q-23 0 -32 -1q-10 -7 -22 -12q-6 -13 -6 -38
q55 8 88 26zM865 268q-2 -5 -4 -11q32 -1 33 0q3 12 10.5 15.5t23.5 4.5q40 47 40 139q-20 -5 -40 -5q-35 0 -50 10q-19 12 -19 46q0 120 110 213l12 -8v-234q0 -116 -38 -161h23q13 -1 15 -1q19 0 21 -33v-13q-84 -20 -102 -33q1 -64 17 -115q23 -76 71 -77v-7
q-51 1 -79 63q-22 48 -22 109q0 46 5 77q-12 -3 -35 -3q-4 -21 -13 -62l-40 -184h-14l-26 139q-18 93 -34 131h19q1 -29 20 -116q12 -48 30 -128l28 130q20 96 21 114h17zM1125 257q-22 5 -40 5q-22 0 -38 -9v-252h-19v259q32 16 57 16q20 0 40 -7v-12zM707 335
q0 -11 -11 -11t-11 11q0 10 11 10t11 -10zM704 1h-16l-1 267h17v-267zM661 257q-22 5 -41 5q-22 0 -38 -9v-252h-19v259q33 16 58 16q19 0 40 -7v-12zM472 227q-84 -20 -102 -33q1 -63 16 -115q24 -76 72 -77v-7q-52 1 -80 63q-22 49 -22 109q0 86 12 99q8 8 41 9
q10 0 25 -1t16 -1q20 0 21 -33q1 -5 1 -13zM457 237q0 7 -3 23q-11 2 -25 2q-39 0 -51 -7q-8 -14 -8 -45q55 8 87 27zM335 220q0 -135 -42 -219h-13q20 30 32 106q9 61 9 111q0 47 -46 47q-10 0 -48 -13v-251h-14v377h14v-110q26 8 48 8q60 0 60 -56zM186 -1q-59 2 -76 107
q-6 40 -6 151h-18v11h18v76h13v-76h46v-11h-46q-1 -30 -1 -40q0 -66 11 -119q18 -85 59 -92v-7z" />
    <glyph glyph-name="K" unicode="K" horiz-adv-x="846" 
d="M743 4l-4 -5h-59l-5 5v695h-317q-32 -97 -129 -97q-76 0 -103 37q-23 31 -23 109l5 5l635 -5v-744zM316 698l-171 1q6 -66 83 -66q54 0 88 65z" />
    <glyph glyph-name="L" unicode="L" horiz-adv-x="845" 
d="M739 699l-235 -276l134 -1q21 0 27.5 -7.5t2.5 -27.5l-200 -277h132q10 -12 9 -17q-7 -38 -19 -61q-3 -5 -31 -48q-36 -52 -137 -109q-6 1 -14 8q-2 6 5 16q27 24 77 85q19 19 47 63q2 7 2 13q0 14 -10 17h-148q-6 3 -11 6q-3 4 2 14l222 290h-257l213 249h-298
q-23 -52 -73 -52q-34 0 -53.5 24.5t-19.5 61.5q0 38 19.5 62.5t53.5 24.5q54 0 75 -58h485zM218 670q0 48 -41 48q-35 0 -35 -48t35 -48q41 0 41 48z" />
    <glyph glyph-name="M" unicode="M" horiz-adv-x="930" 
d="M829 753v-756q3 0 3 3h-734l289 753h442zM772 692q0 13 -13 13h-315q-8 0 -12 -10l-242 -630q-6 -16 12 -16h557q13 0 13 13v630z" />
    <glyph glyph-name="N" unicode="N" horiz-adv-x="813" 
d="M707 705l-367 -611q9 -15 9 -25q0 -28 -20 -48.5t-49 -20.5q-28 0 -48 20.5t-20 48.5t20 48.5t48 20.5q9 0 19 -3l325 524h-380q-9 -21 -29 -36.5t-41 -15.5q-29 0 -49 20t-20 49q0 28 20 48t49 20q42 0 61 -38zM216 678q0 17 -12 29.5t-29 12.5t-29.5 -12.5t-12.5 -29.5
t12.5 -29.5t29.5 -12.5t29 12.5t12 29.5zM323 70q0 18 -12.5 30.5t-30.5 12.5q-17 0 -30 -12.5t-13 -30.5q0 -17 13 -30t30 -13q18 0 30.5 13t12.5 30z" />
    <glyph glyph-name="O" unicode="O" 
d="M678 738q-11 0 -11 11q0 10 11 10q10 0 10 -10q0 -11 -10 -11zM798 407h-12q17 28 29 107q11 66 11 110q0 47 -46 47q-41 0 -47 -20q-3 -7 -2 -24q1 -34 1 -36v-184h-18v259q11 16 67 16q59 0 59 -57q0 -134 -42 -218zM669 407v267h17v-267h-17zM614 663q-17 -15 -24 -69
l-6 -78q-10 -111 -66 -113v10q23 1 36 15q8 21 12 51l8 119q13 78 67 79v-11q-2 0 -27 -3zM523 663q-17 -15 -23 -69l-6 -78q-11 -111 -67 -113v10q23 1 36 15q8 21 12 51q4 60 9 119q13 78 67 79v-11q-3 0 -28 -3zM355 405q-70 0 -70 56q0 52 31 102t78 73q0 22 -10 28
q-6 3 -30 3q-31 0 -50 -4v13q58 3 51 3q32 0 42 -8t10 -40v-107q0 -122 0 -117q-35 -2 -52 -2zM394 622q-42 -23 -68 -66t-26 -89q0 -51 46 -51q30 0 44 9q4 22 4 57v140zM305 720l-73 -41v-86q-1 -62 0 -100q1 -54 5 -86q-4 -1 -9 -1q-8 0 -11 1q3 42 3 197v89q0 77 -3 90
h111q31 0 31 -15t-54 -48zM291 773h-14q-34 0 -46 -4v-12v-49l4 -6q14 3 60.5 27.5t46.5 32.5q0 11 -51 11zM966 661q-44 -25 -69 -82q-23 -50 -23 -104q0 -53 49 -53q26 0 43 10v229zM988 239q-1 8 -4 24q-11 1 -24 1q-23 0 -32 -1q-10 -7 -22 -12q-6 -13 -6 -38
q55 8 88 26zM865 268q-2 -5 -4 -11q32 -1 33 0q3 12 10.5 15.5t23.5 4.5q40 47 40 139q-20 -5 -40 -5q-35 0 -50 10q-19 12 -19 46q0 120 110 213l12 -8v-234q0 -116 -38 -161h23q13 -1 15 -1q19 0 21 -33v-13q-84 -20 -102 -33q1 -64 17 -115q23 -76 71 -77v-7
q-51 1 -79 63q-22 48 -22 109q0 46 5 77q-12 -3 -35 -3q-4 -21 -13 -62l-40 -184h-14l-26 139q-18 93 -34 131h19q1 -29 20 -116q12 -48 30 -128l28 130q20 96 21 114h17zM1125 257q-22 5 -40 5q-22 0 -38 -9v-252h-19v259q32 16 57 16q20 0 40 -7v-12zM707 335
q0 -11 -11 -11t-11 11q0 10 11 10t11 -10zM704 1h-16l-1 267h17v-267zM661 257q-22 5 -41 5q-22 0 -38 -9v-252h-19v259q33 16 58 16q19 0 40 -7v-12zM472 227q-84 -20 -102 -33q1 -63 16 -115q24 -76 72 -77v-7q-52 1 -80 63q-22 49 -22 109q0 86 12 99q8 8 41 9
q10 0 25 -1t16 -1q20 0 21 -33q1 -5 1 -13zM457 237q0 7 -3 23q-11 2 -25 2q-39 0 -51 -7q-8 -14 -8 -45q55 8 87 27zM335 220q0 -135 -42 -219h-13q20 30 32 106q9 61 9 111q0 47 -46 47q-10 0 -48 -13v-251h-14v377h14v-110q26 8 48 8q60 0 60 -56zM186 -1q-59 2 -76 107
q-6 40 -6 151h-18v11h18v76h13v-76h46v-11h-46q-1 -30 -1 -40q0 -66 11 -119q18 -85 59 -92v-7z" />
    <glyph glyph-name="P" unicode="P" horiz-adv-x="948" 
d="M848 37h-606q-20 -39 -63 -39q-29 0 -50 21t-21 50t21 50t50 21q22 0 43 -16t28 -37h464l-515 519q-4 -1 -28 -1q-30 0 -50.5 20.5t-20.5 50.5q0 29 20.5 49.5t50.5 20.5q29 0 49.5 -20.5t20.5 -49.5q0 -8 -2 -15l-6 -11l269 -270l220 203q-18 20 -18 48q0 29 20.5 49.5
t49.5 20.5q30 0 50.5 -20.5t20.5 -49.5t-24 -50.5t-55 -17.5l-227 -214zM816 632q0 15 -11 26t-27 11t-27 -11t-11 -26q0 -16 11 -27t27 -11t27 11t11 27zM209 674q0 16 -11 27.5t-27 11.5t-27.5 -11.5t-11.5 -27.5t11.5 -27t27.5 -11t27 11t11 27zM218 67q0 15 -11 26
t-27 11q-15 0 -26 -11t-11 -26q0 -16 11 -27t26 -11q16 0 27 11t11 27z" />
    <glyph glyph-name="Q" unicode="Q" horiz-adv-x="1067" 
d="M966 67q0 -32 -22 -54t-53 -22q-51 0 -70 46h-579q-22 -37 -65 -37q-32 0 -54 22t-22 53q0 32 22 54t54 22h5l317 495q-10 18 -10 38q0 32 22 54t53 22q32 0 54 -22t22 -54q0 -41 -35 -64l259 -483q13 5 27 5q31 0 53 -22t22 -53zM607 685q0 18 -12.5 30.5t-30.5 12.5
q-17 0 -30 -12.5t-13 -30.5t13 -30.5t30 -12.5q18 0 30.5 12.5t12.5 30.5zM934 67q0 18 -13 30.5t-30 12.5q-18 0 -30.5 -12.5t-12.5 -30.5t12.5 -30.5t30.5 -12.5q17 0 30 12.5t13 30.5zM827 108l-263 503h-11q-11 0 -19 4l-307 -483q20 -18 25 -45h566q3 11 9 21zM220 76
q0 18 -12.5 30.5t-30.5 12.5t-30.5 -12.5t-12.5 -30.5t12.5 -30.5t30.5 -12.5t30.5 12.5t12.5 30.5z" />
    <glyph glyph-name="R" unicode="R" horiz-adv-x="838" 
d="M735 752q-3 -150 -17 -215q-23 -103 -94 -194q2 -15 2 -31q0 -196 -168 -284q-71 -37 -136 -37q-44 0 -79 11q-26 8 -80 46q-60 43 -60 64l3 4t9 4l3 -1q113 -83 191 -83q111 0 186 76t80 188q-31 -17 -62 -17q-34 0 -59.5 27.5t-25.5 61.5q0 38 27 65.5t65 27.5
q47 0 78 -46q19 70 19 200q0 66 -5 133h123zM573 357q-6 64 -54 64q-19 0 -34.5 -19.5t-15.5 -39.5q0 -17 17.5 -30t36.5 -13q23 0 50 38z" />
    <glyph glyph-name="S" unicode="S" horiz-adv-x="694" 
d="M590 738l-25 -537q2 -18 -2.5 -25.5t-21.5 -13.5l-294 -106q-4 -26 -23 -42.5t-44 -16.5q-28 0 -47.5 19.5t-19.5 48.5q0 28 19.5 48t47.5 20q38 0 59 -36l239 90q9 3 22 16q3 8 0 22l15 456l-263 -112q-6 -27 -26.5 -44t-46.5 -17q-31 0 -53 22t-22 53t22 53t53 22
q42 0 65 -39l322 136q14 3 18.5 -1t5.5 -16zM219 581q0 18 -12.5 30t-29.5 12t-29 -12t-12 -30q0 -17 12 -29.5t29 -12.5t29.5 12.5t12.5 29.5zM215 65q0 15 -11 26t-27 11q-15 0 -26 -11t-11 -26q0 -16 11 -27t26 -11q16 0 27 11t11 27z" />
    <glyph glyph-name="T" unicode="T" horiz-adv-x="1086" 
d="M985 -23q0 -19 -15 -39t-33 -20q-58 -10 -89 0q-34 11 -34 36l77 -9q37 0 51 24q-1 46 -128 46q-18 0 -44.5 -1t-34.5 -1t-108.5 -8t-110.5 -7l-281 3v332h-74q-15 -15 -15 -68q-1 -60 -8 -77q-20 0 -38 18v162q8 3 30 13q103 0 105 -3v313q0 48 5.5 54.5t43.5 6.5
l552 -1q32 0 50 -100l24 -152h-109q-3 6 -3 16q0 12 4.5 33.5t5.5 25.5l9 104l-9 27h-464q-11 -3 -38 -22v-291q2 -2 4 -10q1 -4 12 -4h241q21 5 21 43q0 30 -11 71h80q-2 -40 -5 -71q-7 -74 -17 -88h-325v-291q54 -13 84 -13q10 0 167 8t167 8q111 0 141 -3
q120 -14 120 -65z" />
    <glyph glyph-name="U" unicode="U" 
d="M678 738q-11 0 -11 11q0 10 11 10q10 0 10 -10q0 -11 -10 -11zM798 407h-12q17 28 29 107q11 66 11 110q0 47 -46 47q-41 0 -47 -20q-3 -7 -2 -24q1 -34 1 -36v-184h-18v259q11 16 67 16q59 0 59 -57q0 -134 -42 -218zM669 407v267h17v-267h-17zM614 663q-17 -15 -24 -69
l-6 -78q-10 -111 -66 -113v10q23 1 36 15q8 21 12 51l8 119q13 78 67 79v-11q-2 0 -27 -3zM523 663q-17 -15 -23 -69l-6 -78q-11 -111 -67 -113v10q23 1 36 15q8 21 12 51q4 60 9 119q13 78 67 79v-11q-3 0 -28 -3zM355 405q-70 0 -70 56q0 52 31 102t78 73q0 22 -10 28
q-6 3 -30 3q-31 0 -50 -4v13q58 3 51 3q32 0 42 -8t10 -40v-107q0 -122 0 -117q-35 -2 -52 -2zM394 622q-42 -23 -68 -66t-26 -89q0 -51 46 -51q30 0 44 9q4 22 4 57v140zM305 720l-73 -41v-86q-1 -62 0 -100q1 -54 5 -86q-4 -1 -9 -1q-8 0 -11 1q3 42 3 197v89q0 77 -3 90
h111q31 0 31 -15t-54 -48zM291 773h-14q-34 0 -46 -4v-12v-49l4 -6q14 3 60.5 27.5t46.5 32.5q0 11 -51 11zM966 661q-44 -25 -69 -82q-23 -50 -23 -104q0 -53 49 -53q26 0 43 10v229zM988 239q-1 8 -4 24q-11 1 -24 1q-23 0 -32 -1q-10 -7 -22 -12q-6 -13 -6 -38
q55 8 88 26zM865 268q-2 -5 -4 -11q32 -1 33 0q3 12 10.5 15.5t23.5 4.5q40 47 40 139q-20 -5 -40 -5q-35 0 -50 10q-19 12 -19 46q0 120 110 213l12 -8v-234q0 -116 -38 -161h23q13 -1 15 -1q19 0 21 -33v-13q-84 -20 -102 -33q1 -64 17 -115q23 -76 71 -77v-7
q-51 1 -79 63q-22 48 -22 109q0 46 5 77q-12 -3 -35 -3q-4 -21 -13 -62l-40 -184h-14l-26 139q-18 93 -34 131h19q1 -29 20 -116q12 -48 30 -128l28 130q20 96 21 114h17zM1125 257q-22 5 -40 5q-22 0 -38 -9v-252h-19v259q32 16 57 16q20 0 40 -7v-12zM707 335
q0 -11 -11 -11t-11 11q0 10 11 10t11 -10zM704 1h-16l-1 267h17v-267zM661 257q-22 5 -41 5q-22 0 -38 -9v-252h-19v259q33 16 58 16q19 0 40 -7v-12zM472 227q-84 -20 -102 -33q1 -63 16 -115q24 -76 72 -77v-7q-52 1 -80 63q-22 49 -22 109q0 86 12 99q8 8 41 9
q10 0 25 -1t16 -1q20 0 21 -33q1 -5 1 -13zM457 237q0 7 -3 23q-11 2 -25 2q-39 0 -51 -7q-8 -14 -8 -45q55 8 87 27zM335 220q0 -135 -42 -219h-13q20 30 32 106q9 61 9 111q0 47 -46 47q-10 0 -48 -13v-251h-14v377h14v-110q26 8 48 8q60 0 60 -56zM186 -1q-59 2 -76 107
q-6 40 -6 151h-18v11h18v76h13v-76h46v-11h-46q-1 -30 -1 -40q0 -66 11 -119q18 -85 59 -92v-7z" />
    <glyph glyph-name="V" unicode="V" horiz-adv-x="835" 
d="M732 466l-4 -4h-82l-4 4q13 87 13 88v130h-227q-10 -71 -10 -155q0 -15 5 -43t5 -41l-4 -4h-80l-4 4q25 103 24 215v22l-174 1v-686l-86 -1l3 758l616 -4q0 -18 -1 -54t-1 -54q0 -3 11 -176z" />
    <glyph glyph-name="W" unicode="W" horiz-adv-x="1190" 
d="M1089 497q-20 -60 -44 -108q-58 -116 -122 -157q-67 -42 -131 -54q-51 -10 -142 -7q-131 4 -355 132q-32 -25 -74 -25q-49 0 -84.5 35t-35.5 85t35.5 85t84.5 35q50 0 85.5 -35t35.5 -85q0 -12 -3 -23q64 -36 141 -69q120 -51 195 -55q19 -1 36 -1q73 0 122 24
q31 14 104 70q62 48 131 172q9 4 14 2q8 -2 7 -21zM293 395q0 30 -21.5 51.5t-51.5 21.5t-51 -21.5t-21 -51.5t21 -51t51 -21t51.5 21t21.5 51z" />
    <glyph glyph-name="X" unicode="X" horiz-adv-x="884" 
d="M781 667q0 -33 -22.5 -58t-55.5 -28l-249 -572q-7 -18 -15 -18q-7 1 -12 15l-226 587q-9 -2 -18 -2q-33 0 -57 24t-24 57t24 56.5t57 23.5t56.5 -23.5t23.5 -56.5q0 -28 -17 -50l76 -200q43 42 74 82q74 98 75 172q1 30 -32 38q-13 3 -38 -23q-15 -16 -24 -56
q-11 16 -11 38q0 26 14.5 49t37.5 30q15 5 28 5q25 0 46 -19q23 -22 23 -51q0 -80 -44 -142q-2 -23 -129 -170l97 -261l215 477q-45 25 -45 76q0 36 25 61.5t61 25.5t61 -25.5t25 -61.5zM742 667q0 20 -13.5 33.5t-33.5 13.5q-19 0 -32.5 -13.5t-13.5 -33.5
q0 -19 13.5 -32.5t32.5 -13.5q20 0 33.5 13.5t13.5 32.5zM227 674q0 18 -12.5 30.5t-30.5 12.5q-17 0 -29.5 -12.5t-12.5 -30.5q0 -17 12.5 -29.5t29.5 -12.5q18 0 30.5 12.5t12.5 29.5z" />
    <glyph glyph-name="Y" unicode="Y" horiz-adv-x="889" 
d="M784 -3l-89 3l31 667q-3 10 -8 23q-7 7 -26 8h-128v-169h-78v169h-142q-1 -48 0 -70q2 -40 15 -108l-79 -3q-7 -2 -8 0q0 1 2 7l26 144q1 17 -5.5 25.5t-29.5 4.5h-103q11 -56 39 -183q-4 2 -3 2h1h-97l9 206q-3 17 2 24q2 3 9 8h634q16 3 23 -2q4 -3 8 -12z" />
    <glyph glyph-name="Z" unicode="Z" horiz-adv-x="889" 
d="M789 674q0 -40 -28 -68t-68 -28q-33 0 -59 20l-411 -248l380 -177q29 25 66 25q42 0 71 -29.5t29 -71.5q0 -41 -29 -70.5t-71 -29.5t-71 29.5t-29 70.5q0 14 3 27l-463 208q-4 3 -9 9q-1 6 6 15l493 301q-2 8 -2 17q0 40 28 68t68 28t68 -28t28 -68zM753 672q0 26 -18 44
t-43 18t-43 -18t-18 -44q0 -25 18 -43t43 -18t43 18t18 43zM728 96q0 25 -17.5 42.5t-41.5 17.5q-25 0 -42.5 -17.5t-17.5 -42.5q0 -24 17.5 -41.5t42.5 -17.5q24 0 41.5 17.5t17.5 41.5z" />
    <glyph glyph-name="a" unicode="a" horiz-adv-x="927" 
d="M823 40q0 -6 -2 -12l-34 -28q-328 374 -520 512q-32 23 -65 23q-26 0 -43.5 -16.5t-17.5 -41.5q0 -149 177 -223q22 41 66 41q30 0 51 -21.5t21 -51.5q0 -29 -21 -50.5t-51 -21.5q-29 0 -49.5 19.5t-23.5 48.5q-102 40 -150 95q-57 64 -57 164q0 47 32 74.5t80 27.5
q30 0 59 -21q57 -40 130 -106l124 -114l78 118q-19 22 -19 48q0 29 20.5 49t48.5 20q29 0 49 -20t20 -49t-20.5 -49t-48.5 -20q-9 0 -18 2l-82 -125q266 -269 266 -272zM697 503q0 16 -11.5 27.5t-27.5 11.5q-15 0 -26.5 -11.5t-11.5 -27.5t11.5 -27.5t26.5 -11.5
q16 0 27.5 11.5t11.5 27.5zM430 222q0 18 -13 31t-31 13t-30.5 -13t-12.5 -31q0 -17 12.5 -30t30.5 -13t31 13t13 30z" />
    <glyph glyph-name="b" unicode="b" horiz-adv-x="575" 
d="M477 54q-2 -6 -7 -15q-1 -4 -12 -6h-241q-16 -33 -52 -33q-24 0 -41 16.5t-17 40.5t17 41t41 17q47 0 56 -46h210v458h-219q-12 -42 -56 -42q-24 0 -40.5 17t-16.5 41t16.5 41t40.5 17q35 0 52 -32h248q14 0 15 -3q7 -9 6 -19v-493zM188 542q0 32 -32 32t-32 -32t32 -32
t32 32zM196 56q0 31 -31 31t-31 -31t31 -31t31 31z" />
    <glyph glyph-name="c" unicode="c" horiz-adv-x="719" 
d="M620 564l-11 -564h-62l-11 490l-287 10q-20 -48 -72 -48q-32 0 -55 23t-23 55t23 55t55 23q55 0 73 -53zM223 529q0 19 -14 33t-33 14q-20 0 -34 -14t-14 -33q0 -20 14 -34t34 -14q19 0 33 14t14 34z" />
    <glyph glyph-name="d" unicode="d" horiz-adv-x="561" 
d="M453 -3h-60l-4 4l-1 274q-171 2 -274 -23l-4 4v77l4 4q275 0 275 -1v191h-196l-86 -13l-3 4v79l3 4l236 -10q9 -1 25 0q18 2 25 2h60l4 -4z" />
    <glyph glyph-name="e" unicode="e" horiz-adv-x="339" 
d="M239 537q0 -53 -51 -67l14 -467q0 -4 -6 -4h-60q-6 0 -6 4l14 469q-44 17 -44 65q0 29 20.5 49.5t48.5 20.5q29 0 49.5 -20.5t20.5 -49.5zM207 536q0 16 -11 27t-27 11q-15 0 -26.5 -11t-11.5 -27t11.5 -27t26.5 -11q16 0 27 11t11 27z" />
    <glyph glyph-name="f" unicode="f" horiz-adv-x="587" 
d="M484 538q0 -45 -43 -59v-360q41 -14 41 -58q0 -26 -18 -44t-44 -18q-25 0 -43.5 18t-18.5 44q0 42 39 57v164h-174q-13 -43 -59 -43q-25 0 -43 18t-18 44q0 25 18 43t43 18q46 0 59 -43h174v163q-36 16 -36 56q0 26 18 44t43 18q26 0 44 -18t18 -44zM460 539q0 15 -11 26
t-26 11t-26 -11t-11 -26t11 -25.5t26 -10.5t26 10.5t11 25.5zM455 60q0 15 -11 25.5t-26 10.5t-25.5 -10.5t-10.5 -25.5t10.5 -26t25.5 -11t26 11t11 26zM198 300q0 15 -10 25.5t-25 10.5t-25 -10.5t-10 -25.5q0 -14 10 -24.5t25 -10.5t25 10.5t10 24.5z" />
    <glyph glyph-name="g" unicode="g" horiz-adv-x="564" 
d="M461 596l-4 -190q-3 -43 -7 -78q-11 -84 -21 -114q-36 -109 -109 -148q-36 -19 -97 -25q-22 -45 -60 -45q-25 0 -43 17.5t-18 43.5q0 25 18 43t43 18q22 0 39 -14t21 -35q59 10 87 29q55 40 68 126q11 76 11 200q0 85 -5 168q30 11 47 11q11 -1 30 -7zM200 54
q0 16 -11 26.5t-27 10.5q-15 0 -26 -10.5t-11 -26.5q0 -15 11 -26t26 -11q16 0 27 11t11 26z" />
    <glyph glyph-name="h" unicode="h" horiz-adv-x="601" 
d="M347 69q29 2 91 15q23 7 62 27v-97l-7 -12q-11 -2 -13 -2h-375q-3 0 -3 3v598q0 3 3 3h69q4 0 4 -3v-110q71 -8 112 -5q39 3 93 43v-113q-23 6 -76 15q-46 7 -129 5v-142q79 -5 123 2q36 5 97 25v-131q-25 12 -83 34q-48 14 -137 13v-176z" />
    <glyph glyph-name="i" unicode="i" 
d="M678 738q-11 0 -11 11q0 10 11 10q10 0 10 -10q0 -11 -10 -11zM798 407h-12q17 28 29 107q11 66 11 110q0 47 -46 47q-41 0 -47 -20q-3 -7 -2 -24q1 -34 1 -36v-184h-18v259q11 16 67 16q59 0 59 -57q0 -134 -42 -218zM669 407v267h17v-267h-17zM614 663q-17 -15 -24 -69
l-6 -78q-10 -111 -66 -113v10q23 1 36 15q8 21 12 51l8 119q13 78 67 79v-11q-2 0 -27 -3zM523 663q-17 -15 -23 -69l-6 -78q-11 -111 -67 -113v10q23 1 36 15q8 21 12 51q4 60 9 119q13 78 67 79v-11q-3 0 -28 -3zM355 405q-70 0 -70 56q0 52 31 102t78 73q0 22 -10 28
q-6 3 -30 3q-31 0 -50 -4v13q58 3 51 3q32 0 42 -8t10 -40v-107q0 -122 0 -117q-35 -2 -52 -2zM394 622q-42 -23 -68 -66t-26 -89q0 -51 46 -51q30 0 44 9q4 22 4 57v140zM305 720l-73 -41v-86q-1 -62 0 -100q1 -54 5 -86q-4 -1 -9 -1q-8 0 -11 1q3 42 3 197v89q0 77 -3 90
h111q31 0 31 -15t-54 -48zM291 773h-14q-34 0 -46 -4v-12v-49l4 -6q14 3 60.5 27.5t46.5 32.5q0 11 -51 11zM966 661q-44 -25 -69 -82q-23 -50 -23 -104q0 -53 49 -53q26 0 43 10v229zM988 239q-1 8 -4 24q-11 1 -24 1q-23 0 -32 -1q-10 -7 -22 -12q-6 -13 -6 -38
q55 8 88 26zM865 268q-2 -5 -4 -11q32 -1 33 0q3 12 10.5 15.5t23.5 4.5q40 47 40 139q-20 -5 -40 -5q-35 0 -50 10q-19 12 -19 46q0 120 110 213l12 -8v-234q0 -116 -38 -161h23q13 -1 15 -1q19 0 21 -33v-13q-84 -20 -102 -33q1 -64 17 -115q23 -76 71 -77v-7
q-51 1 -79 63q-22 48 -22 109q0 46 5 77q-12 -3 -35 -3q-4 -21 -13 -62l-40 -184h-14l-26 139q-18 93 -34 131h19q1 -29 20 -116q12 -48 30 -128l28 130q20 96 21 114h17zM1125 257q-22 5 -40 5q-22 0 -38 -9v-252h-19v259q32 16 57 16q20 0 40 -7v-12zM707 335
q0 -11 -11 -11t-11 11q0 10 11 10t11 -10zM704 1h-16l-1 267h17v-267zM661 257q-22 5 -41 5q-22 0 -38 -9v-252h-19v259q33 16 58 16q19 0 40 -7v-12zM472 227q-84 -20 -102 -33q1 -63 16 -115q24 -76 72 -77v-7q-52 1 -80 63q-22 49 -22 109q0 86 12 99q8 8 41 9
q10 0 25 -1t16 -1q20 0 21 -33q1 -5 1 -13zM457 237q0 7 -3 23q-11 2 -25 2q-39 0 -51 -7q-8 -14 -8 -45q55 8 87 27zM335 220q0 -135 -42 -219h-13q20 30 32 106q9 61 9 111q0 47 -46 47q-10 0 -48 -13v-251h-14v377h14v-110q26 8 48 8q60 0 60 -56zM186 -1q-59 2 -76 107
q-6 40 -6 151h-18v11h18v76h13v-76h46v-11h-46q-1 -30 -1 -40q0 -66 11 -119q18 -85 59 -92v-7z" />
    <glyph glyph-name="j" unicode="j" 
d="M678 738q-11 0 -11 11q0 10 11 10q10 0 10 -10q0 -11 -10 -11zM798 407h-12q17 28 29 107q11 66 11 110q0 47 -46 47q-41 0 -47 -20q-3 -7 -2 -24q1 -34 1 -36v-184h-18v259q11 16 67 16q59 0 59 -57q0 -134 -42 -218zM669 407v267h17v-267h-17zM614 663q-17 -15 -24 -69
l-6 -78q-10 -111 -66 -113v10q23 1 36 15q8 21 12 51l8 119q13 78 67 79v-11q-2 0 -27 -3zM523 663q-17 -15 -23 -69l-6 -78q-11 -111 -67 -113v10q23 1 36 15q8 21 12 51q4 60 9 119q13 78 67 79v-11q-3 0 -28 -3zM355 405q-70 0 -70 56q0 52 31 102t78 73q0 22 -10 28
q-6 3 -30 3q-31 0 -50 -4v13q58 3 51 3q32 0 42 -8t10 -40v-107q0 -122 0 -117q-35 -2 -52 -2zM394 622q-42 -23 -68 -66t-26 -89q0 -51 46 -51q30 0 44 9q4 22 4 57v140zM305 720l-73 -41v-86q-1 -62 0 -100q1 -54 5 -86q-4 -1 -9 -1q-8 0 -11 1q3 42 3 197v89q0 77 -3 90
h111q31 0 31 -15t-54 -48zM291 773h-14q-34 0 -46 -4v-12v-49l4 -6q14 3 60.5 27.5t46.5 32.5q0 11 -51 11zM966 661q-44 -25 -69 -82q-23 -50 -23 -104q0 -53 49 -53q26 0 43 10v229zM988 239q-1 8 -4 24q-11 1 -24 1q-23 0 -32 -1q-10 -7 -22 -12q-6 -13 -6 -38
q55 8 88 26zM865 268q-2 -5 -4 -11q32 -1 33 0q3 12 10.5 15.5t23.5 4.5q40 47 40 139q-20 -5 -40 -5q-35 0 -50 10q-19 12 -19 46q0 120 110 213l12 -8v-234q0 -116 -38 -161h23q13 -1 15 -1q19 0 21 -33v-13q-84 -20 -102 -33q1 -64 17 -115q23 -76 71 -77v-7
q-51 1 -79 63q-22 48 -22 109q0 46 5 77q-12 -3 -35 -3q-4 -21 -13 -62l-40 -184h-14l-26 139q-18 93 -34 131h19q1 -29 20 -116q12 -48 30 -128l28 130q20 96 21 114h17zM1125 257q-22 5 -40 5q-22 0 -38 -9v-252h-19v259q32 16 57 16q20 0 40 -7v-12zM707 335
q0 -11 -11 -11t-11 11q0 10 11 10t11 -10zM704 1h-16l-1 267h17v-267zM661 257q-22 5 -41 5q-22 0 -38 -9v-252h-19v259q33 16 58 16q19 0 40 -7v-12zM472 227q-84 -20 -102 -33q1 -63 16 -115q24 -76 72 -77v-7q-52 1 -80 63q-22 49 -22 109q0 86 12 99q8 8 41 9
q10 0 25 -1t16 -1q20 0 21 -33q1 -5 1 -13zM457 237q0 7 -3 23q-11 2 -25 2q-39 0 -51 -7q-8 -14 -8 -45q55 8 87 27zM335 220q0 -135 -42 -219h-13q20 30 32 106q9 61 9 111q0 47 -46 47q-10 0 -48 -13v-251h-14v377h14v-110q26 8 48 8q60 0 60 -56zM186 -1q-59 2 -76 107
q-6 40 -6 151h-18v11h18v76h13v-76h46v-11h-46q-1 -30 -1 -40q0 -66 11 -119q18 -85 59 -92v-7z" />
    <glyph glyph-name="k" unicode="k" horiz-adv-x="716" 
d="M611 0h-48l-3 3v556h-254q-26 -77 -103 -77q-61 0 -83 30q-18 24 -18 87l4 3l508 -3zM273 558l-137 1q5 -52 66 -52q43 0 71 51z" />
    <glyph glyph-name="l" unicode="l" horiz-adv-x="708" 
d="M607 587l-188 -221l107 -1q17 1 22 -5.5t2 -22.5l-160 -221h106q8 -10 7 -14q-6 -30 -15 -49q-3 -4 -25 -38q-29 -42 -110 -87q-5 0 -11 6q-1 5 5 13q21 19 61 68q15 15 37 51q2 5 2 10q0 11 -8 14h-119q-4 2 -9 4q-1 4 3 11l177 232h-206l171 200h-239q-18 -42 -58 -42
q-27 0 -42.5 19.5t-15.5 49.5t15.5 49.5t42.5 19.5q44 0 60 -46h388zM190 564q0 38 -33 38q-28 0 -28 -38t28 -38q33 0 33 38z" />
    <glyph glyph-name="m" unicode="m" horiz-adv-x="789" 
d="M686 602v-604q2 0 2 2h-587l231 602h354zM640 553q0 11 -10 11h-252q-7 0 -10 -8l-194 -504q-5 -13 10 -13h446q10 0 10 11v503z" />
    <glyph glyph-name="n" unicode="n" horiz-adv-x="688" 
d="M585 564l-294 -489q7 -12 7 -20q0 -23 -16 -39t-39 -16q-22 0 -38.5 16t-16.5 39q0 22 16.5 38.5t38.5 16.5q7 0 16 -2l259 419h-304q-16 -42 -56 -42q-23 0 -39 16t-16 39t16 39t39 16q34 0 49 -31h378zM192 542q0 14 -9.5 23.5t-23.5 9.5t-23.5 -9.5t-9.5 -23.5
t9.5 -23.5t23.5 -9.5t23.5 9.5t9.5 23.5zM277 56q0 14 -10 24t-24 10t-24 -10t-10 -24t10 -24.5t24 -10.5t24 10.5t10 24.5z" />
    <glyph glyph-name="o" unicode="o" 
d="M678 738q-11 0 -11 11q0 10 11 10q10 0 10 -10q0 -11 -10 -11zM798 407h-12q17 28 29 107q11 66 11 110q0 47 -46 47q-41 0 -47 -20q-3 -7 -2 -24q1 -34 1 -36v-184h-18v259q11 16 67 16q59 0 59 -57q0 -134 -42 -218zM669 407v267h17v-267h-17zM614 663q-17 -15 -24 -69
l-6 -78q-10 -111 -66 -113v10q23 1 36 15q8 21 12 51l8 119q13 78 67 79v-11q-2 0 -27 -3zM523 663q-17 -15 -23 -69l-6 -78q-11 -111 -67 -113v10q23 1 36 15q8 21 12 51q4 60 9 119q13 78 67 79v-11q-3 0 -28 -3zM355 405q-70 0 -70 56q0 52 31 102t78 73q0 22 -10 28
q-6 3 -30 3q-31 0 -50 -4v13q58 3 51 3q32 0 42 -8t10 -40v-107q0 -122 0 -117q-35 -2 -52 -2zM394 622q-42 -23 -68 -66t-26 -89q0 -51 46 -51q30 0 44 9q4 22 4 57v140zM305 720l-73 -41v-86q-1 -62 0 -100q1 -54 5 -86q-4 -1 -9 -1q-8 0 -11 1q3 42 3 197v89q0 77 -3 90
h111q31 0 31 -15t-54 -48zM291 773h-14q-34 0 -46 -4v-12v-49l4 -6q14 3 60.5 27.5t46.5 32.5q0 11 -51 11zM966 661q-44 -25 -69 -82q-23 -50 -23 -104q0 -53 49 -53q26 0 43 10v229zM988 239q-1 8 -4 24q-11 1 -24 1q-23 0 -32 -1q-10 -7 -22 -12q-6 -13 -6 -38
q55 8 88 26zM865 268q-2 -5 -4 -11q32 -1 33 0q3 12 10.5 15.5t23.5 4.5q40 47 40 139q-20 -5 -40 -5q-35 0 -50 10q-19 12 -19 46q0 120 110 213l12 -8v-234q0 -116 -38 -161h23q13 -1 15 -1q19 0 21 -33v-13q-84 -20 -102 -33q1 -64 17 -115q23 -76 71 -77v-7
q-51 1 -79 63q-22 48 -22 109q0 46 5 77q-12 -3 -35 -3q-4 -21 -13 -62l-40 -184h-14l-26 139q-18 93 -34 131h19q1 -29 20 -116q12 -48 30 -128l28 130q20 96 21 114h17zM1125 257q-22 5 -40 5q-22 0 -38 -9v-252h-19v259q32 16 57 16q20 0 40 -7v-12zM707 335
q0 -11 -11 -11t-11 11q0 10 11 10t11 -10zM704 1h-16l-1 267h17v-267zM661 257q-22 5 -41 5q-22 0 -38 -9v-252h-19v259q33 16 58 16q19 0 40 -7v-12zM472 227q-84 -20 -102 -33q1 -63 16 -115q24 -76 72 -77v-7q-52 1 -80 63q-22 49 -22 109q0 86 12 99q8 8 41 9
q10 0 25 -1t16 -1q20 0 21 -33q1 -5 1 -13zM457 237q0 7 -3 23q-11 2 -25 2q-39 0 -51 -7q-8 -14 -8 -45q55 8 87 27zM335 220q0 -135 -42 -219h-13q20 30 32 106q9 61 9 111q0 47 -46 47q-10 0 -48 -13v-251h-14v377h14v-110q26 8 48 8q60 0 60 -56zM186 -1q-59 2 -76 107
q-6 40 -6 151h-18v11h18v76h13v-76h46v-11h-46q-1 -30 -1 -40q0 -66 11 -119q18 -85 59 -92v-7z" />
    <glyph glyph-name="p" unicode="p" horiz-adv-x="800" 
d="M699 32h-485q-15 -31 -50 -31q-23 0 -40 16.5t-17 40.5q0 23 17 39.5t40 16.5q18 0 34.5 -12.5t22.5 -29.5h371l-412 415q-3 -1 -23 -1q-23 0 -39.5 16.5t-16.5 40.5q0 23 16.5 39.5t39.5 16.5q24 0 40.5 -16.5t16.5 -39.5q0 -6 -2 -12l-5 -8l216 -217l175 163
q-14 16 -14 38q0 23 16.5 39.5t39.5 16.5q24 0 40.5 -16.5t16.5 -39.5t-19.5 -40.5t-44.5 -13.5l-181 -171zM673 508q0 30 -30 30t-30 -30t30 -30t30 30zM188 542q0 31 -31 31t-31 -31t31 -31t31 31zM195 56q0 30 -30 30t-30 -30t30 -30t30 30z" />
    <glyph glyph-name="q" unicode="q" horiz-adv-x="898" 
d="M795 48q0 -25 -17.5 -43t-42.5 -18q-41 0 -56 37h-463q-18 -30 -52 -30q-26 0 -43.5 18t-17.5 43t17.5 42.5t43.5 17.5h4l253 396q-8 14 -8 31q0 25 17.5 42.5t43.5 17.5q25 0 42.5 -17.5t17.5 -42.5q0 -33 -28 -51l207 -387q10 4 22 4q25 0 42.5 -17.5t17.5 -42.5z
M508 542q0 14 -10 24.5t-24 10.5q-15 0 -25 -10.5t-10 -24.5t10 -24t25 -10q14 0 24 10t10 24zM769 48q0 14 -10 24t-24 10q-15 0 -25 -10t-10 -24t10 -24t25 -10q14 0 24 10t10 24zM684 81l-210 402h-10q-8 0 -14 3l-246 -386q16 -15 19 -36h453q3 9 8 17zM198 55
q0 14 -10 24t-24 10q-15 0 -25 -10t-10 -24t10 -24t25 -10q14 0 24 10t10 24z" />
    <glyph glyph-name="r" unicode="r" horiz-adv-x="708" 
d="M607 607q-3 -120 -14 -172q-18 -83 -75 -155q1 -12 1 -25q0 -157 -134 -228q-57 -29 -108 -29q-36 0 -64 8q-21 7 -64 38q-48 34 -48 51l2.5 3t7.5 3h2q90 -67 153 -67q89 0 149 60.5t64 150.5q-25 -13 -50 -13q-27 0 -47.5 21.5t-20.5 49.5q0 30 21.5 52t52.5 22
q37 0 62 -37q15 57 15 160q0 53 -4 107h99zM477 291q-4 51 -43 51q-15 0 -27.5 -15.5t-12.5 -31.5q0 -14 14 -24.5t29 -10.5q19 0 40 31z" />
    <glyph glyph-name="s" unicode="s" horiz-adv-x="590" 
d="M489 594l-20 -430q2 -15 -2 -21t-17 -10l-235 -85q-8 -48 -54 -48q-22 0 -38 16t-16 39q0 22 16 38t38 16q31 0 48 -28l191 72q7 2 17 13q3 6 0 17l12 365l-210 -90q-11 -49 -59 -49q-25 0 -42.5 17.5t-17.5 42.5t17.5 43t42.5 18q34 0 52 -32l258 109q12 2 15 -1t4 -12z
M192 468q0 14 -9.5 24t-23.5 10t-23.5 -10t-9.5 -24t9.5 -23.5t23.5 -9.5t23.5 9.5t9.5 23.5zM189 55q0 30 -30 30t-30 -30t30 -30t30 30z" />
    <glyph glyph-name="t" unicode="t" horiz-adv-x="907" 
d="M807 -20q0 -16 -12 -32t-26 -16q-46 -7 -72 0q-27 9 -27 29l62 -7q29 0 41 19q-1 37 -103 37q-14 0 -35.5 -1t-27.5 -1t-86.5 -6t-88.5 -6l-225 3v265h-59q-12 -12 -12 -54q-1 -49 -7 -61q-16 0 -30 14v130q7 2 24 9q82 0 84 -1v250q0 38 4.5 43t34.5 5l442 -1
q25 0 40 -80l19 -121h-87q-2 5 -2 13q0 9 3.5 26t3.5 21l8 83l-8 21h-371q-9 -2 -30 -17v-233q1 -1 2.5 -5.5t10.5 -4.5h193q16 3 16 34q0 24 -9 56h65q-2 -32 -4 -56q-6 -59 -14 -71h-260v-232q43 -11 67 -11q8 0 133.5 6.5t133.5 6.5q89 0 113 -3q96 -10 96 -51z" />
    <glyph glyph-name="u" unicode="u" 
d="M678 738q-11 0 -11 11q0 10 11 10q10 0 10 -10q0 -11 -10 -11zM798 407h-12q17 28 29 107q11 66 11 110q0 47 -46 47q-41 0 -47 -20q-3 -7 -2 -24q1 -34 1 -36v-184h-18v259q11 16 67 16q59 0 59 -57q0 -134 -42 -218zM669 407v267h17v-267h-17zM614 663q-17 -15 -24 -69
l-6 -78q-10 -111 -66 -113v10q23 1 36 15q8 21 12 51l8 119q13 78 67 79v-11q-2 0 -27 -3zM523 663q-17 -15 -23 -69l-6 -78q-11 -111 -67 -113v10q23 1 36 15q8 21 12 51q4 60 9 119q13 78 67 79v-11q-3 0 -28 -3zM355 405q-70 0 -70 56q0 52 31 102t78 73q0 22 -10 28
q-6 3 -30 3q-31 0 -50 -4v13q58 3 51 3q32 0 42 -8t10 -40v-107q0 -122 0 -117q-35 -2 -52 -2zM394 622q-42 -23 -68 -66t-26 -89q0 -51 46 -51q30 0 44 9q4 22 4 57v140zM305 720l-73 -41v-86q-1 -62 0 -100q1 -54 5 -86q-4 -1 -9 -1q-8 0 -11 1q3 42 3 197v89q0 77 -3 90
h111q31 0 31 -15t-54 -48zM291 773h-14q-34 0 -46 -4v-12v-49l4 -6q14 3 60.5 27.5t46.5 32.5q0 11 -51 11zM966 661q-44 -25 -69 -82q-23 -50 -23 -104q0 -53 49 -53q26 0 43 10v229zM988 239q-1 8 -4 24q-11 1 -24 1q-23 0 -32 -1q-10 -7 -22 -12q-6 -13 -6 -38
q55 8 88 26zM865 268q-2 -5 -4 -11q32 -1 33 0q3 12 10.5 15.5t23.5 4.5q40 47 40 139q-20 -5 -40 -5q-35 0 -50 10q-19 12 -19 46q0 120 110 213l12 -8v-234q0 -116 -38 -161h23q13 -1 15 -1q19 0 21 -33v-13q-84 -20 -102 -33q1 -64 17 -115q23 -76 71 -77v-7
q-51 1 -79 63q-22 48 -22 109q0 46 5 77q-12 -3 -35 -3q-4 -21 -13 -62l-40 -184h-14l-26 139q-18 93 -34 131h19q1 -29 20 -116q12 -48 30 -128l28 130q20 96 21 114h17zM1125 257q-22 5 -40 5q-22 0 -38 -9v-252h-19v259q32 16 57 16q20 0 40 -7v-12zM707 335
q0 -11 -11 -11t-11 11q0 10 11 10t11 -10zM704 1h-16l-1 267h17v-267zM661 257q-22 5 -41 5q-22 0 -38 -9v-252h-19v259q33 16 58 16q19 0 40 -7v-12zM472 227q-84 -20 -102 -33q1 -63 16 -115q24 -76 72 -77v-7q-52 1 -80 63q-22 49 -22 109q0 86 12 99q8 8 41 9
q10 0 25 -1t16 -1q20 0 21 -33q1 -5 1 -13zM457 237q0 7 -3 23q-11 2 -25 2q-39 0 -51 -7q-8 -14 -8 -45q55 8 87 27zM335 220q0 -135 -42 -219h-13q20 30 32 106q9 61 9 111q0 47 -46 47q-10 0 -48 -13v-251h-14v377h14v-110q26 8 48 8q60 0 60 -56zM186 -1q-59 2 -76 107
q-6 40 -6 151h-18v11h18v76h13v-76h46v-11h-46q-1 -30 -1 -40q0 -66 11 -119q18 -85 59 -92v-7z" />
    <glyph glyph-name="v" unicode="v" horiz-adv-x="702" 
d="M602 375l-3 -3h-65l-4 3l11 71v104h-182q-7 -56 -7 -124q0 -12 3.5 -34.5t4.5 -32.5l-4 -3h-64l-3 3q20 82 19 172v17l-139 1v-549l-69 -1l3 607l493 -3q0 -14 -1 -43t-1 -43q0 -3 8 -142z" />
    <glyph glyph-name="w" unicode="w" horiz-adv-x="986" 
d="M888 429q-16 -48 -35 -87q-46 -93 -99 -125.5t-103 -42.5q-41 -9 -114 -6q-105 4 -284 106q-26 -21 -59 -21q-40 0 -68 28.5t-28 68.5q0 39 28 67.5t68 28.5t68 -28.5t28 -67.5q0 -10 -2 -19q163 -93 269 -99q75 -4 118 14q28 12 91 61q50 38 105 137q7 3 11 2
q7 -2 6 -17zM251 348q0 24 -17 41t-41 17t-41 -17t-17 -41t17 -41t41 -17t41 17t17 41z" />
    <glyph glyph-name="x" unicode="x" horiz-adv-x="745" 
d="M644 542q0 -26 -18 -46t-45 -22l-199 -458q-5 -15 -12 -14q-5 0 -9 11l-181 470q-7 -1 -15 -1q-26 0 -45 18.5t-19 45.5t19 45.5t45 18.5q27 0 46 -18.5t19 -45.5q0 -22 -14 -40l61 -160q34 33 59 66q59 78 60 138q0 24 -26 30q-10 2 -30 -19q-12 -12 -19 -44
q-9 12 -9 30q0 21 11.5 39.5t30.5 23.5q35 11 57.5 -10.5t17.5 -66.5q-6 -50 -33 -89q-1 -18 -103 -136l77 -208l173 382q-37 19 -37 60q0 29 20.5 49.5t48.5 20.5q29 0 49 -20.5t20 -49.5zM612 542q0 16 -10.5 26.5t-25.5 10.5q-16 0 -26.5 -10.5t-10.5 -26.5
q0 -15 10.5 -25.5t26.5 -10.5q15 0 25.5 10.5t10.5 25.5zM201 548q0 14 -10 24t-24 10t-24 -10t-10 -24t10 -24t24 -10t24 10t10 24z" />
    <glyph glyph-name="y" unicode="y" horiz-adv-x="748" 
d="M646 1h-72l25 535q-2 8 -6 19q-6 6 -21 7h-102v-136h-63v136h-113q-1 -38 0 -56q1 -33 12 -87l-64 -2q-5 -2 -5 -1q-1 1 1 6l20 116q1 13 -4 19.5t-23 4.5h-83q9 -45 31 -147q-1 1 -2 1l1 1h-78l8 164q-3 14 0 18t8 8h507q14 2 18 -1t7 -10z" />
    <glyph glyph-name="z" unicode="z" horiz-adv-x="748" 
d="M650 538q0 -32 -22.5 -54.5t-54.5 -22.5q-26 0 -47 16l-329 -198l304 -142q23 20 53 20q33 0 56.5 -23.5t23.5 -56.5q0 -34 -23.5 -57.5t-56.5 -23.5t-56.5 23.5t-23.5 57.5q0 11 2 21l-370 167q-3 1 -7 7q-1 5 4 12l395 240q-2 7 -2 14q0 32 22.5 54.5t54.5 22.5
t54.5 -22.5t22.5 -54.5zM621 537q0 20 -14 34.5t-35 14.5q-20 0 -34.5 -14.5t-14.5 -34.5q0 -21 14.5 -35t34.5 -14q21 0 35 14t14 35zM601 76q0 20 -14 34t-34 14q-19 0 -33 -14t-14 -34t14 -34t33 -14q20 0 34 14t14 34z" />
  </font>
</defs>
</svg>
