<?xml version="1.0" standalone="no"?>
<!DOCTYPE svg PUBLIC "-//W3C//DTD SVG 1.1//EN" "http://www.w3.org/Graphics/SVG/1.1/DTD/svg11.dtd" >
<svg xmlns="http://www.w3.org/2000/svg" xmlns:xlink="http://www.w3.org/1999/xlink" version="1.1">
<metadata>
Created by FontForge 20170731 at Thu Oct 15 11:10:34 2020
 By Aleksey,,,
Copyright 2011 The Bitter Project Authors (https://github.com/solmatas/BitterPro)
</metadata>
<defs>
<font id="Bitter-Medium" horiz-adv-x="0" >
  <font-face 
    font-family="Bitter Medium"
    font-weight="500"
    font-stretch="normal"
    units-per-em="1000"
    panose-1="0 0 0 0 0 0 0 0 0 0"
    ascent="800"
    descent="-200"
    x-height="530"
    cap-height="700"
    bbox="-171 -290 1258 1104"
    underline-thickness="50"
    underline-position="-175"
    unicode-range="U+000D-FB02"
  />
<missing-glyph horiz-adv-x="495" 
d="M93 -230h314v991h-314v-991zM165 -161v31l70 47h-70v33h165v-33h-32l-69 -47h101v-31h-165zM165 -27v112h165v-112h-165zM198 6h100v47h-100v-47zM165 145v113h33v-80h100v47h-33v-23h-34v56h99v-113h-165zM165 278v34h133v66h32v-100h-165zM165 335v33h66v37h-66v33h165
v-33h-65v-70h-100zM198 497h33v36h-33v-36zM165 465v102h100v-70h65v-32h-165zM165 593v33h66v37h-65v31h164v-31h-65v-37h65v-33h-165z" />
    <glyph glyph-name="fi" unicode="fi" horiz-adv-x="643" 
d="M36 0v53l86 20l-11 -13v412l11 -13h-88v55l90 16l-13 -17v75q0 98 51 145t136 47q13 0 30.5 -1.5t35.5 -4.5t32 -8l-9 -70q-19 6 -36 8.5t-32 2.5q-53 0 -80.5 -26.5t-27.5 -83.5v-84l-13 16l350 4v-472l-10 12l84 -20v-53h-249v53l84 20l-9 -12v412l16 -14h-265l12 13
v-411l-11 12l101 -20v-53h-265zM495 631q-28 0 -45.5 17t-17.5 48q0 32 18.5 48.5t45.5 16.5q28 0 45.5 -16.5t17.5 -48.5t-18.5 -48.5t-45.5 -16.5z" />
    <glyph glyph-name="fl" unicode="fl" horiz-adv-x="655" 
d="M36 0v53l87 20l-12 -17v415l12 -14h-89v55l88 16l-11 -17v74q0 70 29.5 113t82 62.5t119.5 19.5q37 0 78 -6t84 -17l-89 4l144 8v-713l-12 17l86 -20v-53h-250v53l88 20l-12 -17v652l20 -15q-36 8 -68 11.5t-58 3.5q-54 0 -83 -13.5t-41.5 -34t-15 -40.5t-2.5 -33v-76
l-13 15h147l-3 -69h-144l13 14v-415l-13 17l103 -20v-53h-265z" />
    <glyph glyph-name="f_f" unicode="ff" horiz-adv-x="693" 
d="M36 0v53l86 20l-11 -13v410l11 -13h-88v55l90 15l-13 -16v63q0 68 28 109.5t76 61t109 19.5q55 0 114 -14.5t117 -41.5l-52 -57q-43 20 -86.5 31t-81.5 11q-54 0 -89 -27t-35 -86v-69l-15 14l300 1v-69h-297l12 13v-409l-11 12l91 -20v-53h-255zM373 0v53l85 20l-11 -13
v528q0 98 51.5 145t135.5 47q27 0 55 -4.5t59 -14.5l-15 -68q-22 7 -42.5 11t-40.5 4q-46 0 -74.5 -26.5t-28.5 -84.5v-86l-15 15h150l-2 -69h-144l11 13v-409l-11 12l101 -20v-53h-264z" />
    <glyph glyph-name="f_f_i" unicode="ffi" horiz-adv-x="979" 
d="M36 0v53l86 20l-11 -13v412l11 -12h-88v54l90 16l-13 -16v60q0 68 28.5 109.5t77.5 61t109 19.5q55 0 114.5 -14.5t117.5 -41.5l-53 -57q-43 20 -86 31t-82 11q-54 0 -90 -27t-36 -86v-66l-15 14h300v-69h-297l12 13v-411l-11 12l91 -20v-53h-255zM373 0v53l85 20
l-11 -13v528q0 98 51.5 145t135.5 47q14 0 31.5 -1.5t35 -4.5t31.5 -8l-9 -70q-19 6 -35.5 8.5t-32.5 2.5q-52 0 -80 -26.5t-28 -83.5v-84l-12 16l349 4v-472l-9 12l83 -20v-53h-248v53l83 20l-9 -12v412l16 -14h-264l11 13v-411l-11 12l101 -20v-53h-264zM831 631
q-27 0 -44.5 17t-17.5 48q0 32 18 48.5t45 16.5q28 0 45.5 -16.5t17.5 -48.5t-18.5 -48.5t-45.5 -16.5z" />
    <glyph glyph-name="f_f_l" unicode="ffl" horiz-adv-x="993" 
d="M36 0v53l86 20l-11 -13v410l11 -13h-88v55l90 15l-13 -16v63q0 68 28.5 109.5t77.5 61t109 19.5q55 0 114.5 -14.5t117.5 -41.5l-53 -57q-43 20 -86 31t-82 11q-54 0 -90 -26.5t-36 -86.5v-69l-15 14h307v-68h-304l12 13v-409l-11 12l91 -20v-53h-255zM375 0v53l87 20
l-13 -17v529q0 70 29.5 113t82 62.5t119.5 19.5q37 0 78 -6t84 -17l-89 4l145 8v-713l-13 17l87 -20v-53h-250v53l88 20l-12 -17v652l20 -15q-36 7 -69.5 10.5t-59.5 3.5q-66 0 -103 -26t-37 -94v-76l-13 15h141l-3 -69h-138l13 14v-415l-12 17l102 -20v-53h-264z" />
    <glyph glyph-name=".notdef" horiz-adv-x="495" 
d="M93 -230h314v991h-314v-991zM165 -161v31l70 47h-70v33h165v-33h-32l-69 -47h101v-31h-165zM165 -27v112h165v-112h-165zM198 6h100v47h-100v-47zM165 145v113h33v-80h100v47h-33v-23h-34v56h99v-113h-165zM165 278v34h133v66h32v-100h-165zM165 335v33h66v37h-66v33h165
v-33h-65v-70h-100zM198 497h33v36h-33v-36zM165 465v102h100v-70h65v-32h-165zM165 593v33h66v37h-65v31h164v-31h-65v-37h65v-33h-165z" />
    <glyph glyph-name=".null" 
 />
    <glyph glyph-name="nonmarkingreturn" horiz-adv-x="333" 
 />
    <glyph glyph-name="NULL" 
 />
    <glyph glyph-name="NULL" 
 />
    <glyph glyph-name="CR" unicode="&#xd;" horiz-adv-x="193" 
 />
    <glyph glyph-name="space" unicode=" " horiz-adv-x="193" 
 />
    <glyph glyph-name="exclam" unicode="!" horiz-adv-x="329" 
d="M127 227l-16 473h107l-16 -468zM103 51q0 27 18.5 43.5t42.5 16.5q29 0 45.5 -16.5t16.5 -43.5q0 -28 -18.5 -44.5t-43.5 -16.5q-27 0 -44 16.5t-17 44.5z" />
    <glyph glyph-name="quotedbl" unicode="&#x22;" horiz-adv-x="401" 
d="M88 520l-16 250h93l-16 -250h-61zM251 520l-16 250h93l-16 -250h-61z" />
    <glyph glyph-name="numbersign" unicode="#" horiz-adv-x="670" 
d="M86 521h538v-63h-538v63zM47 252h538v-63h-538v63zM220 700h82l-99 -700h-82zM466 700h83l-99 -700h-83z" />
    <glyph glyph-name="dollar" unicode="$" horiz-adv-x="618" 
d="M281 -136v158l27 -19q-6 0 -12.5 -0.5t-13.5 -0.5q-44 0 -98.5 10.5t-106.5 31.5l3 173h63l15 -110q32 -13 65.5 -20t66.5 -7q43 0 78.5 12.5t57 37.5t21.5 63q0 36 -20 58.5t-52.5 36.5t-71 25.5t-77.5 24.5t-71.5 33.5t-52.5 53t-20 81.5q0 63 31 104.5t83.5 63.5
t117.5 23l-33 -21v152h70v-151l-28 20h11q29 0 63.5 -5.5t69 -15t61.5 -21.5l-9 -162h-62l-15 106q-25 10 -54.5 15.5t-59.5 5.5q-38 0 -71.5 -10.5t-54 -32.5t-20.5 -58q0 -34 20 -55.5t52.5 -36t72 -26t78 -25t71 -34.5t52.5 -54t20 -84q0 -63 -31 -105.5t-83.5 -66.5
t-115.5 -29l33 23v-162h-70z" />
    <glyph glyph-name="percent" unicode="%" horiz-adv-x="853" 
d="M150 -10l470 720h84l-471 -720h-83zM219 349q-81 0 -123.5 49t-42.5 129q0 82 43.5 132.5t130.5 50.5q85 0 124 -47.5t39 -123.5q0 -86 -43 -138t-128 -52zM221 407q51 0 72 33.5t21 92.5q1 59 -19.5 89.5t-68.5 30.5q-53 0 -75 -33t-22 -93q0 -57 21.5 -88.5t70.5 -31.5
zM628 -10q-82 0 -124 48.5t-42 128.5q0 82 43 132.5t130 50.5q85 0 124.5 -47t39.5 -124q0 -85 -43.5 -137t-127.5 -52zM630 47q51 0 71.5 34t21.5 92q0 59 -20 89.5t-69 30.5q-52 0 -74 -33t-22 -92q0 -57 21.5 -89t70.5 -32z" />
    <glyph glyph-name="ampersand" unicode="&#x26;" horiz-adv-x="684" 
d="M318 -10q-69 0 -124 22t-86.5 67t-31.5 111q0 47 20 86.5t61.5 67t105.5 34.5l3 -11q-85 9 -128 54t-43 107q0 64 31.5 104t85.5 59t120 19q52 0 103.5 -9.5t101.5 -27.5l-8 -149h-64l-16 103l20 -14q-34 10 -65 15.5t-65 5.5q-65 0 -102.5 -27t-37.5 -87q0 -53 41.5 -83
t110.5 -30h294v-55l-86 -20l12 19v-131q0 -75 -32 -126.5t-88.5 -77.5t-132.5 -26zM328 70q66 0 105 35.5t39 106.5v136l19 -15h-150q-55 0 -90.5 -17.5t-52.5 -46.5t-17 -64q0 -64 41 -99.5t106 -35.5z" />
    <glyph glyph-name="quotesingle" unicode="'" horiz-adv-x="238" 
d="M88 520l-16 250h93l-16 -250h-61z" />
    <glyph glyph-name="parenleft" unicode="(" horiz-adv-x="311" 
d="M297 835q-77 -105 -115.5 -224.5t-38.5 -237.5q0 -116 38.5 -236t115.5 -225l-64 -40q-94 112 -140 242.5t-46 258.5t46 259t140 243z" />
    <glyph glyph-name="parenright" unicode=")" horiz-adv-x="311" 
d="M14 -88q77 105 115.5 225t38.5 237t-38.5 236.5t-115.5 225.5l64 39q94 -112 140 -242.5t46 -258.5t-46 -258.5t-140 -242.5z" />
    <glyph glyph-name="asterisk" unicode="*" horiz-adv-x="472" 
d="M310 446l-74 114l7 31l32 -4l85 -103zM165 445l-53 37l86 107l31 2l7 -31zM198 589l-129 27l20 62l123 -44l13 -30zM236 613l-24 21l-10 126l64 1l-5 -127zM275 587l-26 19l12 28l119 46l20 -62z" />
    <glyph glyph-name="plus" unicode="+" horiz-adv-x="563" 
d="M261 386l-18 -18v222h77v-222l-18 18h214v-73h-214l18 19v-222h-77v222l18 -19h-215v73h215z" />
    <glyph glyph-name="comma" unicode="," horiz-adv-x="239" 
d="M48 -128q30 45 40 70.5t10 37.5t-7.5 21.5t-14.5 21.5t-7 31q0 29 19.5 45t42.5 16q15 0 29 -7t22.5 -22t8.5 -39q0 -32 -23.5 -85.5t-82.5 -116.5z" />
    <glyph glyph-name="hyphen" unicode="-" horiz-adv-x="454" 
d="M375 332v-77h-296v77h296z" />
    <glyph glyph-name="period" unicode="." horiz-adv-x="218" 
d="M48 54q0 28 18.5 44.5t42.5 16.5q29 0 45.5 -16.5t16.5 -44.5t-18.5 -44.5t-43.5 -16.5q-28 0 -44.5 16.5t-16.5 44.5z" />
    <glyph glyph-name="slash" unicode="/" horiz-adv-x="323" 
d="M325 804l-257 -885h-70l256 885h71z" />
    <glyph glyph-name="zero" unicode="0" horiz-adv-x="639" 
d="M315 -10q-88 0 -144.5 39.5t-83.5 118t-27 196.5q0 122 28 203t88 122t153 41q91 0 145.5 -37.5t79 -114.5t24.5 -194q0 -124 -28.5 -207t-86.5 -125t-148 -42zM318 69q54 0 87.5 31.5t49.5 95t17 161.5q1 100 -15 160t-48.5 87t-83.5 27q-56 0 -91.5 -31t-51.5 -93.5
t-16 -158.5q0 -95 16 -157t49.5 -92t86.5 -30z" />
    <glyph glyph-name="one" unicode="1" horiz-adv-x="415" 
d="M293 51l-21 27l133 -24v-54h-351v54l158 22l-21 -25v564l27 -2l-171 -98l-33 63l195 125h84v-652z" />
    <glyph glyph-name="two" unicode="2" horiz-adv-x="550" 
d="M40 0v87q117 103 193.5 178.5t114 135.5t37.5 115q0 60 -39 88t-99 28q-27 0 -60 -6.5t-68 -17.5l13 19l-16 -119h-62l-10 164q59 18 115 28t104 10q67 0 118.5 -18.5t81.5 -58.5t30 -103q0 -70 -38.5 -138.5t-113 -146t-182.5 -176.5l-1 13h351v-82h-469z" />
    <glyph glyph-name="three" unicode="3" horiz-adv-x="572" 
d="M252 -9q-57 0 -112 14t-105 42l29 73q44 -24 91.5 -36.5t92.5 -12.5q47 0 83 14t57 43.5t21 74.5q0 37 -16.5 65t-52.5 44.5t-94 16.5h-84v74h83q75 0 112.5 30.5t37.5 86.5q0 62 -39 88.5t-100 26.5q-33 0 -67 -6.5t-67 -17.5l15 15l-13 -113h-61l-8 157
q56 19 113.5 29.5t109.5 10.5q63 0 113.5 -17t79 -55.5t28.5 -101.5q0 -74 -43.5 -116.5t-127.5 -53.5l-4 8q96 -7 142.5 -52t46.5 -122q0 -53 -20 -92.5t-56.5 -65.5t-84 -38.5t-100.5 -12.5z" />
    <glyph glyph-name="four" unicode="4" horiz-adv-x="592" 
d="M361 190l26 -22h-365l-11 73l332 471l120 -12v-471l-26 19h141v-80h-141l26 22v-190h-102v190zM389 248l-26 -19v422l34 -6l-304 -432l-19 35h315z" />
    <glyph glyph-name="five" unicode="5" horiz-adv-x="538" 
d="M248 -9q-102 0 -209 50l29 74q42 -21 84.5 -32t80.5 -11q47 0 82 17.5t54.5 49.5t19.5 77q0 51 -27 79t-80.5 39.5t-133.5 11.5h-67l14 354h371l-1 -80h-299l30 19l-11 -239l-27 22h59q99 0 160.5 -24t90.5 -69t29 -110q0 -72 -32 -123.5t-88.5 -78t-128.5 -26.5z" />
    <glyph glyph-name="six" unicode="6" horiz-adv-x="588" 
d="M144 289l-4 70q47 31 98.5 48t102.5 17q58 0 105.5 -23t75.5 -68.5t28 -113.5q0 -71 -31 -122.5t-86.5 -79t-126.5 -27.5q-74 0 -131 33t-89.5 103t-32.5 180q0 125 41.5 215t117 139.5t176.5 49.5q55 0 114 -15l-8 -75q-25 5 -49 7.5t-45 2.5q-83 0 -136.5 -39
t-79.5 -112t-26 -175q0 -120 38 -177t111 -57q64 0 101 38.5t37 106.5q0 46 -18 76t-48.5 45t-68.5 15q-40 0 -83.5 -15.5t-82.5 -46.5z" />
    <glyph glyph-name="seven" unicode="7" horiz-adv-x="514" 
d="M498 627l-267 -627h-113l275 634l15 -16h-324l23 17l-22 -121h-63v186h476v-73z" />
    <glyph glyph-name="eight" unicode="8" horiz-adv-x="601" 
d="M290 -9q-45 0 -87.5 12t-76 35.5t-53 59t-19.5 81.5q0 42 15.5 74.5t42.5 56.5t59.5 39.5t64.5 23.5l62 -31q-23 -7 -48 -19t-47 -29.5t-35.5 -42.5t-13.5 -59q0 -39 18.5 -67.5t51.5 -44t73 -15.5q43 0 76 16t52.5 45t19.5 67t-20.5 63t-53.5 41.5t-73 30t-80 28.5
t-73 35.5t-53 52t-20 80.5q0 62 33.5 103.5t88 62t114.5 20.5t111 -19.5t83 -58.5t32 -97q0 -39 -15.5 -68t-40.5 -49.5t-56 -33.5t-63 -21l-71 33q28 6 54.5 16t47.5 25.5t33 37.5t12 51q0 37 -18 61t-47.5 36.5t-65.5 12.5q-35 0 -65.5 -12t-49 -36t-18.5 -60
q0 -37 20.5 -60.5t53.5 -39.5t73 -29t80 -28t73 -36.5t53.5 -54.5t20.5 -82q0 -51 -21.5 -89.5t-58 -65t-81.5 -39.5t-94 -13z" />
    <glyph glyph-name="nine" unicode="9" horiz-adv-x="588" 
d="M443 414l4 -71q-46 -31 -97 -48.5t-104 -17.5q-60 0 -107 23t-74 68t-28 111q0 73 31.5 124t87 79t125.5 28q74 0 131.5 -33t90 -102.5t32.5 -179.5q0 -123 -41 -214t-116 -140.5t-179 -49.5q-54 0 -113 15l8 74q26 -5 49.5 -7.5t43.5 -2.5q84 0 137.5 39t79.5 112
t26 175q0 119 -37.5 176.5t-111.5 57.5q-63 0 -100.5 -38t-37.5 -106q0 -47 17.5 -77t47.5 -44.5t68 -14.5q42 0 85 16.5t82 47.5z" />
    <glyph glyph-name="colon" unicode=":" horiz-adv-x="218" 
d="M48 54q0 28 18.5 44.5t42.5 16.5q29 0 45.5 -16.5t16.5 -44.5t-18.5 -44.5t-43.5 -16.5q-28 0 -44.5 16.5t-16.5 44.5zM48 407q0 28 18.5 44.5t42.5 16.5q29 0 45.5 -16.5t16.5 -44.5t-18.5 -44.5t-43.5 -16.5q-28 0 -44.5 16.5t-16.5 44.5z" />
    <glyph glyph-name="semicolon" unicode=";" horiz-adv-x="239" 
d="M48 -128q30 45 40 70.5t10 37.5t-7.5 21.5t-14.5 21.5t-7 31q0 29 19.5 45t42.5 16q15 0 29 -7t22.5 -22t8.5 -39q0 -32 -23.5 -85.5t-82.5 -116.5zM68 407q0 28 18.5 44.5t42.5 16.5q29 0 45.5 -16.5t16.5 -44.5t-18.5 -44.5t-43.5 -16.5q-28 0 -44.5 16.5t-16.5 44.5z
" />
    <glyph glyph-name="less" unicode="&#x3c;" horiz-adv-x="556" 
d="M466 124l-417 190v76l417 200l27 -70l-370 -176v20l371 -167z" />
    <glyph glyph-name="equal" unicode="=" horiz-adv-x="545" 
d="M498 479v-73h-451v73h451zM498 287v-73h-451v73h451z" />
    <glyph glyph-name="greater" unicode="&#x3e;" horiz-adv-x="551" 
d="M89 569l413 -170v-76l-414 -179l-26 69l366 156v-21l-366 144z" />
    <glyph glyph-name="question" unicode="?" horiz-adv-x="428" 
d="M121 233q-3 16 -5 33.5t-2 29.5q0 37 17.5 64t43 49t51 43t43 45.5t17.5 57.5q0 41 -29 60.5t-72 19.5q-28 0 -61 -7.5t-66 -18.5l-22 66q89 36 175 36q50 0 90.5 -14t64 -44.5t23.5 -80.5q0 -47 -19.5 -80t-48 -59t-57 -49t-48 -48.5t-19.5 -59.5q0 -6 0.5 -17.5
t1.5 -21.5zM111 50q0 28 18 44.5t44 16.5q27 0 43.5 -16.5t16.5 -42.5q0 -29 -18 -45.5t-44 -16.5q-27 0 -43.5 16.5t-16.5 43.5z" />
    <glyph glyph-name="at" unicode="@" horiz-adv-x="872" 
d="M402 -110q-99 0 -175.5 45.5t-119 129t-42.5 197.5q0 94 29 166t81 122.5t122 76t152 25.5q81 0 148.5 -25t116 -71.5t75 -112.5t26.5 -149q0 -109 -47.5 -169.5t-131.5 -60.5q-50 0 -80.5 23t-39.5 71h15q-26 -43 -66 -68t-83 -25q-31 0 -57 13.5t-40.5 40.5t-14.5 66
q0 54 34 85t113 31h108l-12 -13v65q0 38 -24.5 53.5t-61.5 15.5q-26 0 -57.5 -7t-61.5 -19l-14 52q40 17 79.5 25.5t74.5 8.5q64 0 104 -31.5t40 -101.5v-169q0 -32 14 -46.5t39 -14.5q47 0 68.5 45.5t21.5 114.5q0 97 -35 166t-99.5 106t-154.5 37q-92 0 -159.5 -38
t-104 -110.5t-36.5 -175.5q0 -95 32 -164.5t91.5 -107t141.5 -37.5q35 0 74 7t78 22l22 -57q-45 -18 -92 -27.5t-91 -9.5zM412 124q29 0 58.5 19.5t51.5 52.5l-9 -28v105l12 -14h-87q-48 0 -67 -17.5t-19 -49.5q0 -33 16.5 -50.5t43.5 -17.5z" />
    <glyph glyph-name="A" unicode="A" horiz-adv-x="710" 
d="M642 52l-27 24l91 -23v-53h-269v53l98 21l-10 -16l-48 150l17 -14h-292l15 14l-52 -148l-5 13l95 -20v-53h-251v53l89 22l-25 -21l241 645l105 3zM231 252l-9 15h254l-11 -16l-122 391h24z" />
    <glyph glyph-name="B" unicode="B" horiz-adv-x="646" 
d="M367 351l7 11q68 -1 116.5 -20t73.5 -56.5t25 -94.5q0 -58 -28 -101t-85.5 -66.5t-145.5 -23.5h-285v53l97 23l-15 -22v589l18 -22l-100 21v53l180 5h117q72 0 121 -19.5t74 -57.5t25 -95q0 -75 -46.5 -120t-148.5 -57zM321 626h-109l17 18v-267l-17 16h85q52 0 88.5 13
t55 40t18.5 68q0 40 -16.5 64.5t-47 36t-74.5 11.5zM321 74q53 0 89 13.5t55 41t19 69.5q0 41 -17 68t-47.5 41t-71.5 14h-136l17 19v-283l-17 17h109z" />
    <glyph glyph-name="C" unicode="C" horiz-adv-x="641" 
d="M347 -10q-81 0 -147.5 41t-106 120.5t-39.5 195.5q0 114 39.5 195t110.5 124.5t166 43.5q50 0 104.5 -12.5t114.5 -38.5l-8 -164h-61l-20 121l18 -18q-38 16 -76 24t-70 8q-65 0 -111.5 -32.5t-71.5 -93t-25 -145.5q0 -93 27.5 -156.5t75 -96t106.5 -32.5q44 0 92 19
t94 57l40 -60q-60 -51 -125 -75.5t-127 -24.5z" />
    <glyph glyph-name="D" unicode="D" horiz-adv-x="716" 
d="M348 700q69 0 126.5 -20.5t99.5 -62.5t65.5 -105.5t23.5 -150.5q0 -118 -42.5 -198.5t-117 -121.5t-172.5 -41h-286v53l97 23l-15 -22v589l16 -22l-98 21v53l201 5h102zM335 75q41 0 80 13t70.5 44t49.5 85.5t18 136.5q0 80 -17.5 132.5t-47 83t-66.5 43t-76 12.5h-134
l17 17v-584l-17 17h123z" />
    <glyph glyph-name="E" unicode="E" horiz-adv-x="617" 
d="M494 172h62l-1 -172h-510v53l97 23l-15 -22v589l14 -21l-96 20v53l182 5h316v-165h-61l-19 105l20 -15h-271l17 17v-265l-17 17h257v-73h-257l17 20v-283l-17 17h284l-21 -17z" />
    <glyph glyph-name="F" unicode="F" horiz-adv-x="563" 
d="M45 0v53l94 22l-12 -17v585l16 -21l-98 20v53l182 5h309v-167h-61l-19 104l20 -12h-264l17 17v-271l-17 16h249v-75h-249l17 17v-271l-14 17l116 -22v-53h-286z" />
    <glyph glyph-name="G" unicode="G" horiz-adv-x="731" 
d="M376 -9q-97 0 -169.5 40t-112.5 119t-40 194q0 116 40 198t115 125t179 43q55 0 115.5 -12.5t122.5 -39.5l-8 -163h-61l-20 120l16 -16q-39 14 -81 22.5t-80 8.5q-70 0 -121.5 -33t-79 -96t-27.5 -155q0 -131 59 -203t166 -72q34 0 72 7.5t79 23.5l-13 -23v207l18 -18
l-100 15v55l257 5v-55l-91 -21l12 19v-241q-66 -28 -128.5 -41t-118.5 -13z" />
    <glyph glyph-name="H" unicode="H" horiz-adv-x="793" 
d="M45 0v53l97 23l-15 -22v590l18 -23l-100 21v53l266 5v-53l-99 -26l17 23v-267l-17 17h370l-18 -17v267l18 -22l-100 20v53l267 5v-53l-98 -25l16 22v-590l-16 22l98 -23v-53h-267v53l97 23l-15 -22v282l18 -17h-370l17 17v-282l-15 22l97 -23v-53h-266z" />
    <glyph glyph-name="I" unicode="I" horiz-adv-x="355" 
d="M311 647l-94 -24l12 16v-581l-12 17l94 -22v-53h-266v53l93 21l-11 -16v581l14 -17l-96 20v53l266 5v-53z" />
    <glyph glyph-name="J" unicode="J" horiz-adv-x="335" 
d="M27 695l274 5v-52l-95 -26l13 22v-572q0 -54 -9.5 -95.5t-31.5 -70t-57 -43.5t-86 -15q-16 0 -31.5 1.5t-32.5 4.5l9 74q9 -1 17 -2t17 -1q56 0 79.5 31t23.5 96v592l13 -20l-103 18v53z" />
    <glyph glyph-name="K" unicode="K" horiz-adv-x="712" 
d="M636 53l-30 22l92 -22v-53h-261v53l85 22l-4 -18l-192 284l30 -20h-144l17 21v-288l-15 23l95 -24v-53h-264v53l95 22l-13 -21v590l12 -20l-94 18v53l264 5v-52l-94 -25l14 24v-269l-17 18h148l-28 -18l159 265l9 -16l-92 15v53l252 5v-53l-93 -24l24 19l-181 -292v28z
" />
    <glyph glyph-name="L" unicode="L" horiz-adv-x="555" 
d="M468 189h62v-189h-485v53l95 22l-13 -21v589l13 -21l-95 20v53l276 5v-53l-104 -25l12 21v-585l-17 17h252l-16 -18z" />
    <glyph glyph-name="M" unicode="M" horiz-adv-x="885" 
d="M841 647l-98 -26l16 27v-594l-16 22l98 -23v-53h-259v53l100 23l-18 -22v534l16 -1l-213 -405l-66 -4l-206 411l15 1v-536l-13 20l96 -21v-53h-248v53l97 23l-15 -22v594l15 -26l-97 20v53l207 5l200 -420h-14l207 415l196 5v-53z" />
    <glyph glyph-name="N" unicode="N" horiz-adv-x="785" 
d="M503 695l250 5v-53l-98 -25l16 22v-644h-116l-357 592h15v-538l-17 22l99 -23v-53h-250v53l99 23l-17 -22v590l12 -21l-94 19v53l204 5l351 -581l-15 -1v526l17 -21l-99 19v53z" />
    <glyph glyph-name="O" unicode="O" horiz-adv-x="741" 
d="M359 -10q-89 0 -158 39.5t-108 118t-39 194.5q0 92 24.5 161t68.5 115t102.5 69t126.5 23q67 0 124 -22t99 -65.5t65 -109t23 -151.5q0 -117 -42.5 -200.5t-116.5 -127.5t-169 -44zM366 70q58 0 106 29t76.5 92.5t28.5 165.5q0 97 -26.5 157t-73 88t-105.5 28
q-58 0 -105 -28.5t-75 -90.5t-28 -165q0 -97 26.5 -157.5t72 -89.5t103.5 -29z" />
    <glyph glyph-name="P" unicode="P" horiz-adv-x="601" 
d="M296 261h-89l22 17v-224l-16 21l121 -22v-53h-289v53l99 23l-17 -22v591l19 -23l-101 20v53l186 5h106q79 0 130 -27t76 -74t25 -108q0 -67 -30 -119t-90.5 -81.5t-151.5 -29.5zM321 625h-109l17 18v-324l-22 17h89q81 0 124.5 41.5t43.5 111.5q0 63 -36.5 99.5
t-106.5 36.5z" />
    <glyph glyph-name="Q" unicode="Q" horiz-adv-x="749" 
d="M667 -180q-35 0 -76.5 19t-102.5 58.5t-155 101.5l26 -9q-90 1 -158.5 41t-107.5 118t-39 194q0 91 24.5 160t68.5 115t103.5 69t129.5 23q69 0 126.5 -22t99.5 -65.5t65.5 -108.5t23.5 -151q0 -104 -33.5 -180.5t-92.5 -123t-137 -60.5l2 11q65 -36 107.5 -60.5t72 -36
t54.5 -11.5q24 0 49 10t59 29l37 -63q-47 -28 -80.5 -43t-65.5 -15zM164 346q0 -96 26 -157t72.5 -90t107.5 -29q62 0 111 30.5t76.5 94t27.5 162.5q0 95 -27 155.5t-73.5 89t-108.5 28.5t-110 -30t-75 -92.5t-27 -161.5z" />
    <glyph glyph-name="R" unicode="R" horiz-adv-x="661" 
d="M45 0v53l96 22l-14 -21v589l19 -22l-101 21v53l188 5h110q116 0 175 -48t59 -139q0 -82 -51.5 -135t-158.5 -65v12q39 -3 63.5 -15.5t41.5 -34t32 -52.5l83 -165l-31 20l87 -25v-53h-137l-91 196q-19 41 -35 63.5t-39 31.5t-67 9l-63 -1l18 16v-261l-15 22l111 -23v-53
h-280zM229 346l-18 26h91q83 0 126.5 34t43.5 101q0 57 -35.5 87.5t-105.5 30.5h-120l18 18v-297z" />
    <glyph glyph-name="S" unicode="S" horiz-adv-x="600" 
d="M171 528q0 -35 20 -57.5t53 -37.5t72.5 -27t79 -27t72.5 -37t53 -57t20 -88q0 -71 -36.5 -117t-97 -68t-133.5 -22q-51 0 -104 10.5t-105 31.5l6 172h60l19 -125l-11 19q33 -15 69.5 -23t71.5 -8q43 0 79.5 13t58.5 39t22 65q0 37 -20 60t-53 38t-72 27t-78.5 26
t-72.5 35.5t-53 56t-20 86.5q0 67 32.5 110.5t88 65t124.5 21.5q49 0 101.5 -10.5t103.5 -31.5l-9 -163h-61l-17 116l13 -13q-28 12 -61 18.5t-66 6.5q-39 0 -73 -10.5t-55 -33.5t-21 -61z" />
    <glyph glyph-name="T" unicode="T" horiz-adv-x="594" 
d="M151 0v53l114 23l-19 -27v593l22 -17h-183l24 21l-23 -127h-61v181h544v-181h-61l-22 123l23 -17h-183l22 17v-593l-18 27l113 -23v-53h-292z" />
    <glyph glyph-name="U" unicode="U" horiz-adv-x="747" 
d="M455 695l267 5v-53l-96 -24l14 26v-381q0 -42 -7.5 -82.5t-25 -75.5t-48 -62.5t-77 -42.5t-112.5 -15q-79 0 -129 19.5t-77.5 51.5t-39 68t-14.5 69.5t-3 57.5v392l14 -25l-96 19v53l267 5v-53l-94 -24l12 25v-392q0 -25 2 -51.5t10 -51t25.5 -43t47.5 -30t76 -11.5
q47 0 78 12t49 32t26.5 45.5t10.5 53.5t2 56v381l11 -25l-93 18v53z" />
    <glyph glyph-name="V" unicode="V" horiz-adv-x="698" 
d="M290 -1l-216 642l26 -19l-95 20v53l274 5v-53l-105 -23l12 26l174 -561h-15l187 555l9 -21l-102 19v53l256 5v-53l-95 -23l25 19l-227 -644h-108z" />
    <glyph glyph-name="W" unicode="W" horiz-adv-x="1023" 
d="M767 695l252 5v-53l-95 -22l25 27l-184 -653h-98l-166 576l18 -1l-175 -575h-97l-170 645l12 -18l-84 16v53l262 5v-53l-99 -23l13 20l133 -551h-21l177 603l94 4l169 -605h-21l147 549l10 -20l-102 18v53z" />
    <glyph glyph-name="X" unicode="X" horiz-adv-x="702" 
d="M626 52l-32 23l88 -22v-53h-272v53l95 20l1 -17l-178 260l26 1l-180 -264l-6 23l98 -23v-53h-245v53l88 22l-29 -24l224 318l-1 -29l-210 303l26 -16l-86 15v53l267 5v-53l-90 -21l5 15l162 -240l-24 5l160 235l7 -17l-92 18v53l241 5v-53l-88 -26l27 22l-210 -295l3 28z
" />
    <glyph glyph-name="Y" unicode="Y" horiz-adv-x="643" 
d="M184 0v53l100 23l-15 -22v220l10 -39l-210 405l21 -17l-87 19v53l264 5v-53l-101 -21l9 19l163 -335h-20l165 331l9 -18l-102 19v53l250 5v-53l-87 -21l21 17l-211 -408l8 39v-220l-16 22l100 -23v-53h-271z" />
    <glyph glyph-name="Z" unicode="Z" horiz-adv-x="619" 
d="M41 0v69l413 568l11 -13h-344l25 12l-21 -119h-61v183h501v-68l-411 -572l-5 16h363l-24 -15l20 122h62l-2 -183h-527z" />
    <glyph glyph-name="bracketleft" unicode="[" horiz-adv-x="345" 
d="M102 -105v958l231 -5v-62l-144 -6v-812l144 -5v-63z" />
    <glyph glyph-name="backslash" unicode="\" horiz-adv-x="330" 
d="M1 804h73l256 -885h-73z" />
    <glyph glyph-name="bracketright" unicode="]" horiz-adv-x="345" 
d="M243 853v-958l-230 5v63l143 5v812l-143 6v62z" />
    <glyph glyph-name="asciicircum" unicode="^" horiz-adv-x="545" 
d="M48 530l188 339h73l189 -339h-93l-157 299h47l-157 -299h-90z" />
    <glyph glyph-name="underscore" unicode="_" horiz-adv-x="494" 
d="M495 -67v-66h-496v66h496z" />
    <glyph glyph-name="grave" unicode="`" horiz-adv-x="321" 
d="M92 816l188 -149l-38 -52l-205 129z" />
    <glyph glyph-name="a" unicode="a" horiz-adv-x="551" 
d="M459 54l-15 21l90 -21v-53l-152 -7l-14 96l8 -3q-43 -49 -93 -73t-97 -24q-58 0 -99.5 38t-41.5 114q0 58 25 90.5t70 46.5t106 14h122l-9 -11v86q0 52 -27 74.5t-75 22.5q-25 0 -52.5 -5t-59.5 -16l14 14l-11 -89h-66l-8 133q61 19 112.5 28.5t95.5 9.5q84 0 130.5 -37
t46.5 -117v-332zM146 149q0 -43 21 -63.5t53 -20.5t70.5 20.5t74.5 54.5l-6 -25v124l9 -10h-106q-66 0 -91 -20t-25 -60z" />
    <glyph glyph-name="b" unicode="b" horiz-adv-x="582" 
d="M250 -10q-37 0 -79 5t-90 15v710l18 -28l-92 22v53l174 7v-329l-13 15q40 38 84.5 59t90.5 21q57 0 101 -31t70 -90t26 -146q0 -64 -16 -116.5t-50.5 -89.5t-90 -57t-133.5 -20zM268 63q83 0 125.5 52t42.5 150q0 63 -16.5 107.5t-45.5 68.5t-68 24q-32 0 -66.5 -17
t-70.5 -52l12 34v-379l-13 26q57 -14 100 -14z" />
    <glyph glyph-name="c" unicode="c" horiz-adv-x="514" 
d="M272 -10q-65 0 -118 32t-83.5 92t-30.5 145q0 75 21.5 128t58 87t82.5 50t96 16q43 0 89.5 -11.5t79.5 -28.5l-4 -133h-66l-14 90l9 -8q-21 10 -47 14t-47 4q-49 0 -83.5 -24.5t-52.5 -70t-18 -107.5q0 -64 19.5 -109t53.5 -67.5t78 -22.5q34 0 73 14t81 43l35 -53
q-54 -41 -107 -60.5t-105 -19.5z" />
    <glyph glyph-name="d" unicode="d" horiz-adv-x="597" 
d="M240 -10q-56 0 -101 30.5t-70.5 90t-25.5 145.5q0 142 72 213t200 71q25 0 51.5 -3.5t54.5 -10.5l-20 -11v189l10 -12l-89 22v53l179 7v-715l-13 16l88 -21v-53l-152 -7l-14 86l11 -4q-45 -43 -89.5 -64.5t-91.5 -21.5zM277 65q32 0 66.5 17t70.5 51l-13 -32v373l13 -24
q-56 17 -102 17q-82 0 -123.5 -53.5t-41.5 -148.5q0 -62 16.5 -107t46 -69t67.5 -24z" />
    <glyph glyph-name="e" unicode="e" horiz-adv-x="547" 
d="M276 -10q-69 0 -121.5 30.5t-82 90t-29.5 145.5q0 88 30.5 151.5t87 98t132.5 34.5q73 0 119.5 -30t69 -82.5t22.5 -119.5q0 -13 -1 -26t-3 -30h-379v69h289l-9 -6q1 41 -10 75t-37 54.5t-69 20.5q-47 0 -78 -25.5t-46 -69.5t-15 -101q0 -61 17 -106.5t51.5 -71
t85.5 -25.5q36 0 78.5 14t87.5 42l35 -55q-56 -39 -113.5 -58t-111.5 -19z" />
    <glyph glyph-name="f" unicode="f" horiz-adv-x="357" 
d="M36 0v53l86 20l-11 -13v410l11 -13h-88v55l90 16l-13 -17v77q0 98 51 145t136 47q27 0 54.5 -4.5t59.5 -14.5l-16 -68q-21 7 -42 11t-40 4q-46 0 -74.5 -26.5t-28.5 -84.5v-86l-15 15h150l-3 -69h-144l12 13v-409l-11 12l101 -20v-53h-265z" />
    <glyph glyph-name="g" unicode="g" horiz-adv-x="564" 
d="M262 -240q-119 0 -178 33.5t-59 97.5q0 47 31.5 81.5t92.5 59.5v-20q-34 2 -53.5 15.5t-19.5 37.5q0 8 2.5 16.5t9 23.5t18.5 39l31 62l2 -17q-45 23 -69 63.5t-24 95.5q0 89 59.5 140.5t164.5 51.5q72 0 124 -25l-25 5l160 7l1 -59l-88 -17l7 14q19 -19 29 -46.5
t10 -62.5q0 -90 -61 -141.5t-162 -51.5q-55 0 -103 17l23 11l-23 -123l-21 10h197q98 0 148.5 -38t50.5 -109q0 -83 -69 -127t-206 -44zM271 -165q88 0 129 22t41 66q0 39 -30 59t-89 20h-164l26 6q-71 -45 -71 -97q0 -38 38.5 -57t119.5 -19zM264 232q59 0 91.5 31.5
t32.5 90.5t-30.5 88t-88.5 29q-59 0 -90.5 -30.5t-31.5 -89.5q0 -58 30 -88.5t87 -30.5z" />
    <glyph glyph-name="h" unicode="h" horiz-adv-x="623" 
d="M21 0v53l89 21l-14 -17v654l14 -18l-89 21v53l175 7v-337l-22 5q48 50 102.5 74t103.5 24q44 0 79.5 -18.5t55.5 -55t19 -93.5v-316l-11 16l86 -20v-53h-245v53l83 20l-13 -17v295q1 58 -25.5 85t-69.5 27q-33 0 -73 -18.5t-78 -57.5l8 19v-350l-11 16l81 -19v-53h-245z
" />
    <glyph glyph-name="i" unicode="i" horiz-adv-x="305" 
d="M209 61l-9 12l84 -20v-53h-249v53l84 20l-10 -12v403l9 -9l-83 19v53l174 6v-472zM154 631q-27 0 -44.5 17t-17.5 48q0 32 18 48.5t45 16.5q28 0 45.5 -16.5t17.5 -48.5t-18.5 -48.5t-45.5 -16.5z" />
    <glyph glyph-name="j" unicode="j" horiz-adv-x="278" 
d="M8 -240q-13 0 -26.5 1.5t-28.5 3.5l8 72q10 -1 19.5 -1.5t17.5 -0.5q53 0 75.5 25.5t22.5 86.5v521l11 -14l-86 20v53l175 6v-555q0 -56 -11.5 -97t-35 -67.5t-59 -40t-82.5 -13.5zM137 631q-27 0 -44.5 17t-17.5 48q0 32 18 48.5t45 16.5q28 0 45.5 -16.5t17.5 -48.5
t-18.5 -48.5t-45.5 -16.5z" />
    <glyph glyph-name="k" unicode="k" horiz-adv-x="576" 
d="M21 0v53l89 21l-14 -20v654l9 -13l-84 19v53l175 7v-463l-18 15h135l-25 -12l100 160l8 -12l-78 12v53l228 7v-52l-88 -19l28 17l-122 -192v28l143 -259l-17 15l80 -20v-52h-137l-142 266l18 -8h-131l18 9v-213l-12 20l84 -21v-53h-247z" />
    <glyph glyph-name="l" unicode="l" horiz-adv-x="292" 
d="M196 61l-9 12l83 -20v-53h-249v53l84 20l-9 -12v643l8 -9l-83 19v53l175 7v-713z" />
    <glyph glyph-name="m" unicode="m" horiz-adv-x="954" 
d="M527 442l-14 -3q49 51 103.5 76t103.5 25q61 0 103 -41t42 -125v-317l-11 16l85 -20v-53h-242v53l81 20l-13 -17v295q0 58 -24 85t-63 27q-32 0 -72 -19.5t-78 -58.5l8 23q1 -9 1.5 -16.5t0.5 -14.5v-320l-11 16l78 -20v-53h-235v53l81 20l-13 -17v295q0 58 -24.5 85
t-62.5 27q-33 0 -72 -18.5t-77 -56.5l7 17v-349l-11 16l79 -19v-53h-242v53l88 21l-14 -17v414l14 -18l-88 21v53l152 7l13 -97l-13 5q48 50 102.5 74t103.5 24q46 0 82 -24t52 -74z" />
    <glyph glyph-name="n" unicode="n" horiz-adv-x="637" 
d="M35 0v53l88 21l-14 -17v414l14 -18l-88 21v53l152 7l13 -97l-13 5q49 50 103.5 74t103.5 24q67 0 111 -41t43 -127v-315l-11 16l85 -20v-53h-244v53l83 20l-13 -17v295q0 58 -26 85t-69 27q-34 0 -73.5 -18.5t-77.5 -56.5l7 18v-350l-11 16l81 -19v-53h-244z" />
    <glyph glyph-name="o" unicode="o" horiz-adv-x="576" 
d="M295 540q112 0 176 -69.5t64 -196.5q0 -86 -31 -150t-88.5 -99t-138.5 -35q-111 0 -173 68.5t-62 195.5q0 89 30 153t86.5 98.5t136.5 34.5zM290 467q-71 0 -107.5 -53.5t-36.5 -154.5q0 -99 35 -147.5t102 -48.5q49 0 81.5 24t49 70.5t16.5 111.5q0 99 -36 148.5
t-104 49.5z" />
    <glyph glyph-name="p" unicode="p" horiz-adv-x="600" 
d="M25 -230v53l89 23l-15 -18v640l13 -15l-87 21v53l152 7l12 -87l-12 7q47 43 92.5 64.5t91.5 21.5q56 0 100.5 -31t70.5 -89.5t26 -144.5q0 -93 -32 -157t-90 -96.5t-136 -32.5q-26 0 -55 4.5t-60 12.5l14 12v-190l-12 16l99 -21v-53h-261zM288 62q83 0 124.5 54t41.5 149
q0 63 -17 107.5t-46 68.5t-67 24q-32 0 -67 -17t-70 -52l12 29v-366l-13 21q56 -18 102 -18z" />
    <glyph glyph-name="q" unicode="q" horiz-adv-x="582" 
d="M312 -230v55l102 23l-13 -19v243l20 4q-45 -44 -89.5 -65.5t-91.5 -21.5q-56 0 -101 30.5t-70.5 90.5t-25.5 146q0 100 34.5 162.5t97.5 92t148 29.5q41 0 85.5 -6t92.5 -17v-688l-13 19l88 -23v-55h-264zM277 64q32 0 66.5 17.5t70.5 51.5l-13 -32v374l13 -25
q-56 17 -102 17q-82 0 -123.5 -53.5t-41.5 -148.5q0 -63 16.5 -107.5t46 -69t67.5 -24.5z" />
    <glyph glyph-name="r" unicode="r" horiz-adv-x="451" 
d="M35 0v53l86 20l-12 -17v415l13 -18l-87 21v53l152 7l13 -97l-13 4q45 47 88.5 73t93.5 26q32 0 68 -10l-7 -159h-61l-13 106l11 -21q-7 2 -14.5 3t-14.5 1q-37 0 -72.5 -22.5t-65.5 -57.5l9 29v-353l-13 17l106 -20v-53h-267z" />
    <glyph glyph-name="s" unicode="s" horiz-adv-x="479" 
d="M154 400q0 -29 20 -45.5t52 -27.5t68.5 -22t68.5 -28t52.5 -45.5t20.5 -74.5q0 -54 -29.5 -91t-80.5 -56.5t-114 -19.5q-37 0 -78 6t-84 18l7 141h63l11 -95l-10 12q22 -6 47.5 -9.5t46.5 -3.5q31 0 58.5 9t45 27.5t17.5 45.5q0 30 -20.5 47.5t-52.5 28.5t-67.5 22
t-67.5 28t-52 45t-20 75q0 53 27 87t72 50t96 16q35 0 77.5 -7t87.5 -21l-5 -121h-64l-15 81l14 -16q-50 15 -92 15q-44 0 -72 -19t-28 -52z" />
    <glyph glyph-name="t" unicode="t" horiz-adv-x="373" 
d="M218 -10q-58 0 -89.5 35.5t-31.5 106.5v344l14 -14h-100v54l102 18l-16 -19v133l100 17v-150l-12 15h155l-3 -68h-152l12 14v-330q0 -42 15.5 -61t45.5 -19q17 0 37.5 5.5t44.5 16.5l20 -57q-76 -41 -142 -41z" />
    <glyph glyph-name="u" unicode="u" horiz-adv-x="624" 
d="M242 -10q-66 0 -109.5 42t-43.5 128v310l11 -16l-86 20v53l175 6v-356q0 -56 25.5 -83t68.5 -27q34 0 73.5 18.5t77.5 56.5l-7 -20v350l11 -18l-86 20v53l175 7v-477l-14 17l88 -20v-53l-152 -7l-14 99l14 -5q-49 -50 -103.5 -74t-103.5 -24z" />
    <glyph glyph-name="v" unicode="v" horiz-adv-x="533" 
d="M322 527l215 7v-53l-65 -22l16 17l-171 -478h-117l-155 475l16 -14l-66 15v53l229 7v-53l-85 -19l8 14l124 -414h-9l134 410l7 -10l-81 12v53z" />
    <glyph glyph-name="w" unicode="w" horiz-adv-x="810" 
d="M610 527l205 7v-53l-68 -18l16 13l-134 -478h-109l-123 458h20l-133 -458h-109l-126 475l13 -13l-67 14v53l223 7v-53l-85 -17l11 10l102 -415h-16l129 469l105 6l123 -479h-16l109 417l10 -12l-80 14v53z" />
    <glyph glyph-name="x" unicode="x" horiz-adv-x="559" 
d="M10 0v52l86 17l-26 -15l159 229l24 3l161 241l120 7v-53l-86 -20l30 18l-155 -217l-21 -3l-171 -259h-121zM307 0v53l71 12l-6 -15l-136 197l-163 232l23 -19l-75 14v53l226 7v-53l-75 -14l8 16l125 -182l175 -246l-19 14l83 -16v-53h-237z" />
    <glyph glyph-name="y" unicode="y" horiz-adv-x="538" 
d="M13 -234l9 72q13 -2 24.5 -3t21.5 -1q47 0 76.5 21t50.5 63t42 106l-3 -36l-189 484l12 -10l-63 12v53l229 7v-53l-83 -16l6 10l142 -408l-24 5l133 401l7 -11l-82 12v53l220 7v-53l-68 -17l16 10l-172 -475q-19 -52 -40 -96t-48 -76t-64.5 -49.5t-89.5 -17.5
q-27 0 -63 6z" />
    <glyph glyph-name="z" unicode="z" horiz-adv-x="489" 
d="M448 153l1 -152l-411 -1v59l305 423l14 -21h-265l29 23l-14 -96h-61l-1 142h395v-60l-307 -429l-4 28h262l-27 -28l22 112h62z" />
    <glyph glyph-name="braceleft" unicode="{" horiz-adv-x="348" 
d="M270 -105q-81 0 -116 39.5t-35 123.5v176q0 48 -19 77t-72 29v69q54 0 72.5 29t18.5 77v176q0 84 35.5 123t115.5 39h51v-62q-47 0 -71.5 -9t-33 -32.5t-8.5 -65.5v-180q0 -53 -19 -83t-51 -41.5t-71 -11.5v12q39 0 71 -11.5t51 -41t19 -83.5v-179q0 -43 8.5 -66.5
t33 -32t71.5 -8.5v-63h-51z" />
    <glyph glyph-name="bar" unicode="|" horiz-adv-x="324" 
d="M123 806h78v-908h-78v908z" />
    <glyph glyph-name="braceright" unicode="}" horiz-adv-x="348" 
d="M78 -105q81 0 116 39.5t35 123.5v176q0 48 19 77t72 29v69q-55 0 -73 29t-18 77v176q0 84 -35.5 123t-115.5 39h-52v-62q48 0 72 -9t33 -32.5t9 -65.5v-180q0 -53 19 -83t51 -41.5t71 -11.5v12q-39 0 -71 -11.5t-51 -41t-19 -83.5v-179q0 -43 -9 -66.5t-33 -32t-72 -8.5
v-63h52z" />
    <glyph glyph-name="asciitilde" unicode="~" horiz-adv-x="602" 
d="M409 282q-30 0 -58 11t-55 25t-53 25t-51 11q-23 0 -46 -11.5t-48 -44.5l-42 27q29 55 63 79t75 24q30 0 58.5 -11t55.5 -25t53 -25t51 -11q23 0 46 12t47 44l42 -28q-31 -55 -65 -78.5t-73 -23.5z" />
    <glyph glyph-name="uni00A0" unicode="&#xa0;" horiz-adv-x="193" 
 />
    <glyph glyph-name="exclamdown" unicode="&#xa1;" horiz-adv-x="329" 
d="M202 269l16 -472h-107l15 467zM226 446q0 -27 -18.5 -44t-43.5 -17q-27 0 -44 17t-17 44q0 28 18.5 44.5t42.5 16.5q29 0 45.5 -16.5t16.5 -44.5z" />
    <glyph glyph-name="cent" unicode="&#xa2;" horiz-adv-x="559" 
d="M495 181q-48 -37 -96 -55.5t-95 -20.5l27 21v-147h-68v146l30 -20q-67 -1 -118.5 29t-81 86.5t-29.5 133.5q0 81 30.5 136.5t81.5 86t114 33.5l-27 -22v147h68v-144l-37 19q35 2 69 -3t63.5 -14.5t50.5 -20.5l-4 -124h-59l-12 79q-21 9 -45 13t-43 4q-49 0 -83.5 -24
t-52 -65t-17.5 -95q0 -58 18 -99.5t51.5 -64t79.5 -22.5q35 0 73.5 14t79.5 43z" />
    <glyph glyph-name="sterling" unicode="&#xa3;" horiz-adv-x="671" 
d="M69 0v53l102 28l-32 -23q26 21 35.5 55.5t9.5 77.5q0 37 -5 78.5t-10 85.5l17 -19h-117v55l107 9l-10 -17q-5 36 -8.5 71t-3.5 62q0 74 28.5 116t78.5 60t115 18q44 0 93.5 -7.5t102.5 -20.5l-8 -158h-62l-17 113l11 -17q-31 7 -60 10.5t-52 3.5q-60 0 -93.5 -25.5
t-33.5 -91.5q0 -24 4 -60t8 -71l-19 14h196v-64h-190l17 22q4 -35 8 -69.5t4 -66.5q0 -48 -12.5 -88t-48.5 -68l-12 11l303 -2l-18 -19l21 125h61v-181h-510z" />
    <glyph glyph-name="currency" unicode="&#xa4;" horiz-adv-x="665" 
d="M577 123l-49 -53l-100 93l38 1q-24 -24 -58 -37.5t-78 -13.5q-43 0 -77 14t-57 38l42 3l-104 -97l-44 48l101 95l-3 -41q-21 23 -32.5 55t-11.5 66q0 37 12 69.5t34 59.5l-4 -36l-100 93l50 53l103 -95l-36 -4q25 23 59 36t77 13q42 0 73.5 -12t53.5 -32l-34 1l97 92
l45 -49l-99 -91l-1 40q24 -26 36 -59t12 -69t-11.5 -69t-33.5 -59l-3 42zM332 176q37 0 60 16t34.5 44t12.5 62q1 55 -24.5 88.5t-77.5 33.5q-37 0 -61.5 -16.5t-36 -44.5t-11.5 -63q0 -52 25.5 -86t78.5 -34z" />
    <glyph glyph-name="yen" unicode="&#xa5;" horiz-adv-x="712" 
d="M136 281v51h146l-8 -19l-170 327l21 -17l-85 19v53l262 5v-53l-101 -21l7 19l163 -332h-18l165 328l9 -18l-102 19v53l248 5v-53l-85 -21l21 17l-173 -332l-8 21h146v-51h-438zM222 0v53l97 23l-15 -22v130l16 -16h-184v50h438v-50h-188l20 18v-132l-16 22l98 -23v-53
h-266z" />
    <glyph glyph-name="brokenbar" unicode="&#xa6;" horiz-adv-x="324" 
d="M123 437v369h78v-369h-78zM123 -102v369h78v-369h-78z" />
    <glyph glyph-name="section" unicode="&#xa7;" horiz-adv-x="563" 
d="M248 -180q-35 0 -74.5 6t-79.5 18l6 133h62l11 -93l-10 16q22 -7 44 -11t42 -4q49 0 82.5 22.5t33.5 66.5q0 35 -20.5 59.5t-53 45t-68.5 40t-68.5 42.5t-52.5 54t-20 75t21.5 74.5t57 49.5t76.5 26l16 -29q-19 -6 -38.5 -22t-32.5 -38.5t-13 -49.5q0 -33 21 -57
t54 -44.5t70 -40.5t70 -44t54 -57.5t21 -80.5q0 -52 -27.5 -86.5t-75 -52.5t-108.5 -18zM321 94l-8 30q18 9 37.5 26t32.5 40t13 49q0 33 -21 57.5t-53.5 45t-69.5 40.5t-69.5 44.5t-53.5 57.5t-21 78q0 72 53.5 109.5t138.5 37.5q37 0 78 -7t83 -20l-5 -115h-63l-14 81
l14 -18q-22 7 -44 10.5t-43 3.5q-47 0 -76.5 -20.5t-29.5 -59.5q0 -33 21 -57t53 -44t68.5 -39.5t69 -43t53 -55t20.5 -74.5t-22.5 -75.5t-60 -52.5t-81.5 -29z" />
    <glyph glyph-name="dieresis" unicode="&#xa8;" horiz-adv-x="456" 
d="M331 637q-26 0 -40.5 15.5t-14.5 43.5q-1 28 15.5 44t39.5 16q25 0 40 -16t15 -44t-16.5 -43.5t-38.5 -15.5zM125 637q-26 0 -40 15.5t-15 43.5q0 28 16 44t39 16q25 0 40 -16t15 -44t-16 -43.5t-39 -15.5z" />
    <glyph glyph-name="copyright" unicode="&#xa9;" horiz-adv-x="882" 
d="M437 155q-73 0 -121.5 50t-48.5 142q0 64 24.5 108.5t66 67.5t93.5 23q61 0 125 -30l-2 -97h-50l-9 64l7 -6q-15 7 -32.5 9.5t-32.5 2.5q-54 0 -82 -37.5t-28 -99.5q0 -70 29.5 -104.5t76.5 -34.5q25 0 53.5 10t57.5 30l27 -41q-38 -29 -77.5 -43t-76.5 -14zM429 -10
q-78 0 -143.5 26t-113 73t-73.5 111.5t-26 141.5q0 80 27.5 147.5t78 117t118.5 76.5t147 27t145 -26t115.5 -73.5t77 -111.5t27.5 -141q0 -79 -29 -146t-81 -117t-121 -77.5t-149 -27.5zM434 47q66 0 122 23t97 64t63.5 97t22.5 122q0 88 -38 155.5t-106 106t-156 38.5
t-155 -39.5t-104.5 -108t-37.5 -157.5q0 -87 36.5 -155t102 -107t153.5 -39z" />
    <glyph glyph-name="ordfeminine" unicode="&#xaa;" horiz-adv-x="438" 
d="M357 360l-14 18l67 -17v-39l-114 -5l-10 69l6 -3q-30 -33 -67.5 -51t-74.5 -18q-48 0 -78.5 30t-30.5 82q0 40 18.5 63.5t52 33.5t78.5 10h95l-6 -6v59q0 35 -20.5 51t-57.5 16q-19 0 -40.5 -3.5t-45.5 -11.5l9 13l-9 -64h-49l-7 95q46 14 87 21t74 7q66 0 101.5 -26.5
t35.5 -84.5v-239zM119 433q0 -29 16 -46t42 -17q23 0 51.5 12.5t54.5 34.5l-4 -13v98l7 -8h-84q-12 0 -26 -2t-27 -7.5t-21.5 -17.5t-8.5 -34zM43 168v70h367v-70h-367z" />
    <glyph glyph-name="guillemotleft" unicode="&#xab;" horiz-adv-x="511" 
d="M209 58l-156 185v54l157 185l48 -36l-136 -196v41l135 -195zM408 58l-156 185v54l157 185l48 -36l-136 -196v41l135 -195z" />
    <glyph glyph-name="logicalnot" unicode="&#xac;" horiz-adv-x="607" 
d="M449 113v215l13 -15h-411v73h480v-273h-82z" />
    <glyph glyph-name="uni00AD" unicode="&#xad;" horiz-adv-x="432" 
d="M364 332v-77h-296v77h296z" />
    <glyph glyph-name="registered" unicode="&#xae;" horiz-adv-x="740" 
d="M228 297v29l49 13l-10 -13v266l13 -13l-52 10v29l100 3h51q57 0 87.5 -22.5t30.5 -63.5q0 -34 -25.5 -58t-81.5 -30l4 9q30 -1 45 -14.5t28 -37.5l40 -79l-19 13l43 -12v-29h-72l-44 96q-9 21 -19.5 30.5t-23 11.5t-29.5 2h-31l11 11v-122l-9 13l57 -13v-29h-143z
M323 465l-11 10h42q41 0 62.5 15t21.5 41q0 23 -17 35.5t-53 12.5h-56l11 13v-127zM361 163q-84 1 -149.5 37t-102 100.5t-36.5 148.5q0 86 39.5 153t107 106t152.5 39q86 0 152.5 -36.5t105 -101t38.5 -148.5q0 -63 -23.5 -117.5t-65.5 -95t-97.5 -63t-120.5 -22.5z
M363 209q72 0 129 32.5t90 89t33 129.5q0 71 -31.5 125.5t-86.5 84.5t-126 30t-126.5 -32t-87 -88t-31.5 -129q0 -72 30 -126.5t83.5 -85t123.5 -30.5z" />
    <glyph glyph-name="macron" unicode="&#xaf;" horiz-adv-x="429" 
d="M353 739v-71h-277v71h277z" />
    <glyph glyph-name="degree" unicode="&#xb0;" horiz-adv-x="444" 
d="M199 433q-69 0 -112 40.5t-43 111.5q0 45 20 79t55 53t81 19q69 0 112 -40.5t43 -108.5q0 -70 -43 -112t-113 -42zM200 490q40 0 63 25t23 71q0 45 -23.5 69.5t-62.5 24.5t-62.5 -24t-24.5 -69q1 -46 24 -71t63 -26z" />
    <glyph glyph-name="plusminus" unicode="&#xb1;" horiz-adv-x="591" 
d="M275 446l-18 -18v206h77v-206l-18 18h206v-72h-206l18 18v-206h-77v206l18 -18h-205v72h205zM522 112v-72h-452v72h452z" />
    <glyph glyph-name="uni00B2" unicode="&#xb2;" horiz-adv-x="359" 
d="M31 346v61q65 55 109.5 99t68 80.5t23.5 67.5q0 33 -20 47t-52 14q-36 0 -72 -14l10 16l-8 -72h-51l-7 111q37 10 72.5 16.5t68.5 6.5q62 0 103.5 -26t41.5 -85q0 -35 -16.5 -67.5t-44 -64.5t-62.5 -64.5t-74 -67.5l-1 8h205v-66h-294z" />
    <glyph glyph-name="uni00B3" unicode="&#xb3;" horiz-adv-x="369" 
d="M164 338q-36 0 -71.5 9t-68.5 26l26 53q26 -12 53 -19t53 -7q37 0 62.5 17t25.5 54q0 30 -19 48t-67 18h-58v54h53q45 0 64.5 17.5t19.5 47.5q0 35 -21 49.5t-54 14.5q-17 0 -36 -3t-39 -9l13 12l-8 -67h-51l-5 100q37 13 73.5 19t69.5 6q41 0 73 -10.5t51 -34t19 -63.5
q0 -47 -27 -72t-74 -31l-5 4q58 -5 86 -32t28 -72q0 -44 -23 -72.5t-60.5 -42.5t-82.5 -14z" />
    <glyph glyph-name="acute" unicode="&#xb4;" horiz-adv-x="329" 
d="M99 615l-36 50l191 150l54 -73z" />
    <glyph glyph-name="uni00B5" unicode="&#xb5;" horiz-adv-x="655" 
d="M133 125l25 -53q7 -37 15.5 -82t14.5 -100t6 -120h-100v701l11 -17l-85 20v53l174 5v-359q0 -54 25.5 -80t67.5 -26q34 0 74.5 18.5t78.5 57.5l-7 -18v348l11 -19l-86 20v53l175 5v-475l-14 18l88 -21v-53l-152 -7l-14 99l11 -5q-47 -49 -96 -73.5t-94 -24.5
q-51 0 -86 33t-43 102z" />
    <glyph glyph-name="paragraph" unicode="&#xb6;" horiz-adv-x="614" 
d="M137 -170v53l97 23l-15 -22v456l21 -19q-58 0 -101.5 23t-68 65.5t-24.5 101.5q0 56 24.5 99t68.5 66.5t102 23.5h319v-53l-97 -25l15 22v-814h-84v819l17 -24l-124 -1l16 26v-820h-166z" />
    <glyph glyph-name="periodcentered" unicode="&#xb7;" horiz-adv-x="218" 
d="M48 328q0 28 18.5 44.5t42.5 16.5q29 0 45.5 -16.5t16.5 -44.5t-18.5 -44.5t-43.5 -16.5q-28 0 -44.5 16.5t-16.5 44.5z" />
    <glyph glyph-name="cedilla" unicode="&#xb8;" horiz-adv-x="322" 
d="M149 -240q-24 0 -49 5.5t-48 16.5l20 50q18 -6 38.5 -10.5t37.5 -4.5q24 0 40 9.5t16 28.5q0 14 -13 23.5t-35.5 15t-53.5 6.5l6 100h62v-55q56 -5 82 -28.5t26 -58.5q0 -33 -18 -54.5t-47 -32.5t-64 -11z" />
    <glyph glyph-name="uni00B9" unicode="&#xb9;" horiz-adv-x="282" 
d="M200 391l-13 17l83 -19v-43h-233v43l97 17l-13 -15v311h22l-109 -63l-25 50l128 84h63v-382z" />
    <glyph glyph-name="ordmasculine" unicode="&#xba;" horiz-adv-x="478" 
d="M229 313q-84 0 -132 51t-48 139q0 63 23.5 109t67.5 72t105 26q86 0 135 -51.5t49 -137.5q0 -62 -23.5 -109t-68.5 -73t-108 -26zM63 168v70h353v-70h-353zM235 372q36 0 60.5 18t36.5 50.5t12 75.5q0 64 -26.5 99.5t-77.5 35.5q-53 0 -79.5 -38.5t-26.5 -104.5
q0 -65 25.5 -100.5t75.5 -35.5z" />
    <glyph glyph-name="guillemotright" unicode="&#xbb;" horiz-adv-x="511" 
d="M302 482l156 -185v-54l-157 -185l-48 36l135 195v-40l-134 194zM103 482l156 -185v-54l-157 -185l-48 36l135 195v-40l-134 194z" />
    <glyph glyph-name="onequarter" unicode="&#xbc;" horiz-adv-x="855" 
d="M219 321l-13 17l83 -19v-43h-233v43l97 17l-13 -15v311h22l-109 -63l-25 50l128 84h63v-382zM160 -8l428 716h81l-428 -716h-81zM675 114l11 -17h-206l-11 59l185 276l103 -8v-281l-20 13h84v-59h-84l20 17v-114h-82v114zM688 156l-13 -13v242l13 -1l-167 -251l-10 23
h177z" />
    <glyph glyph-name="onehalf" unicode="&#xbd;" horiz-adv-x="878" 
d="M225 321l-13 17l83 -19v-43h-233v43l97 17l-13 -15v311h22l-109 -63l-25 50l128 84h63v-382zM165 -8l428 716h81l-428 -716h-81zM535 0v61q65 55 109.5 99t68 80.5t23.5 67.5q0 33 -20 47t-52 14q-36 0 -72 -14l10 16l-8 -72h-51l-7 111q37 10 72.5 16.5t68.5 6.5
q62 0 103.5 -26t41.5 -85q0 -35 -16.5 -67.5t-44 -64.5t-62.5 -64.5t-74 -67.5l-1 8h205v-66h-294z" />
    <glyph glyph-name="threequarters" unicode="&#xbe;" horiz-adv-x="892" 
d="M164 268q-36 0 -71.5 9t-68.5 26l26 53q26 -12 53 -19t53 -7q37 0 62.5 17t25.5 54q0 30 -19 48t-67 18h-58v54h53q45 0 64.5 17.5t19.5 47.5q0 35 -21 49.5t-54 14.5q-17 0 -36 -3t-39 -9l13 12l-8 -67h-51l-5 100q37 13 73.5 19t69.5 6q41 0 73 -10.5t51 -34t19 -63.5
q0 -47 -27 -72t-74 -31l-5 4q58 -5 86 -32t28 -72q0 -44 -23 -72.5t-60.5 -42.5t-82.5 -14zM198 -8l428 716h81l-428 -716h-81zM714 114l11 -17h-206l-11 59l185 276l103 -8v-281l-20 13h84v-59h-84l20 17v-114h-82v114zM727 156l-13 -13v242l13 -1l-167 -251l-10 23h177z
" />
    <glyph glyph-name="questiondown" unicode="&#xbf;" horiz-adv-x="426" 
d="M295 297q3 -16 5 -33t2 -30q0 -37 -17.5 -64t-43 -49t-51.5 -43t-43.5 -45.5t-17.5 -57.5q0 -41 29 -60.5t73 -19.5q28 0 61 7.5t65 18.5l22 -66q-89 -36 -175 -36q-49 0 -89.5 14t-64.5 45t-24 80q0 47 19.5 80t48 59t57.5 49t48 48.5t19 59.5q0 6 -0.5 17.5t-1.5 21.5z
M305 480q0 -28 -18 -44.5t-45 -16.5q-26 0 -43 16.5t-17 42.5q0 29 18.5 45.5t44.5 16.5t43 -16.5t17 -43.5z" />
    <glyph glyph-name="Agrave" unicode="&#xc0;" horiz-adv-x="710" 
d="M642 52l-27 24l91 -23v-53h-269v53l98 21l-10 -16l-48 150l17 -14h-292l15 14l-52 -148l-5 13l95 -20v-53h-251v53l89 22l-25 -21l241 645l105 3zM231 252l-9 15h254l-11 -16l-122 391h24zM461 751l-225 96l44 81l209 -121z" />
    <glyph glyph-name="Aacute" unicode="&#xc1;" horiz-adv-x="710" 
d="M642 52l-27 24l91 -23v-53h-269v53l98 21l-10 -16l-48 150l17 -14h-292l15 14l-52 -148l-5 13l95 -20v-53h-251v53l89 22l-25 -21l241 645l105 3zM231 252l-9 15h254l-11 -16l-122 391h24zM271 751l-30 55l211 122l41 -80z" />
    <glyph glyph-name="Acircumflex" unicode="&#xc2;" horiz-adv-x="710" 
d="M642 52l-27 24l91 -23v-53h-269v53l98 21l-10 -16l-48 150l17 -14h-292l15 14l-52 -148l-5 13l95 -20v-53h-251v53l89 22l-25 -21l241 645l105 3zM231 252l-9 15h254l-11 -16l-122 391h24zM222 746l-34 41l140 123l58 5l149 -128l-35 -41l-176 112l68 -1z" />
    <glyph glyph-name="Atilde" unicode="&#xc3;" horiz-adv-x="710" 
d="M642 52l-27 24l91 -23v-53h-269v53l98 21l-10 -16l-48 150l17 -14h-292l15 14l-52 -148l-5 13l95 -20v-53h-251v53l89 22l-25 -21l241 645l105 3zM231 252l-9 15h254l-11 -16l-122 391h24zM233 775l-44 20q18 51 42 73.5t56 22.5q26 0 51 -11t48 -21.5t42 -10.5
q17 0 31.5 10t29.5 35l44 -19q-19 -52 -44.5 -74.5t-57.5 -22.5q-25 0 -49 11t-47 21.5t-44 10.5q-17 0 -30 -11t-28 -34z" />
    <glyph glyph-name="Adieresis" unicode="&#xc4;" horiz-adv-x="710" 
d="M642 52l-27 24l91 -23v-53h-269v53l98 21l-10 -16l-48 150l17 -14h-292l15 14l-52 -148l-5 13l95 -20v-53h-251v53l89 22l-25 -21l241 645l105 3zM231 252l-9 15h254l-11 -16l-122 391h24zM464 765q-26 0 -40.5 15.5t-14.5 43.5q-1 28 15.5 44t39.5 16q25 0 40 -16
t15 -44t-16.5 -43.5t-38.5 -15.5zM258 765q-26 0 -40 15.5t-15 43.5q0 28 16 44t39 16q25 0 40 -16t15 -44t-16 -43.5t-39 -15.5z" />
    <glyph glyph-name="Aring" unicode="&#xc5;" horiz-adv-x="710" 
d="M642 52l-27 24l91 -23v-53h-269v53l98 21l-10 -16l-48 150l17 -14h-292l15 14l-52 -148l-5 13l95 -20v-53h-251v53l89 22l-25 -21l241 645l105 3zM231 252l-9 15h254l-11 -16l-122 391h24zM360 732q-34 0 -59.5 13t-40 36.5t-14.5 54.5t14.5 55t41 37.5t61.5 13.5t60 -13
t39.5 -36.5t14.5 -53.5q0 -31 -14.5 -55t-40.5 -38t-62 -14zM361 781q26 0 39.5 16t13.5 41q0 24 -13.5 39.5t-38.5 15.5q-26 0 -39.5 -16t-13.5 -40q0 -25 13 -40.5t39 -15.5z" />
    <glyph glyph-name="AE" unicode="&#xc6;" horiz-adv-x="945" 
d="M0 0v53l92 22l-29 -22l292 586l12 -18l-99 21v53l203 5h399v-165h-61l-20 110l20 -20h-265l17 17v-258l-17 17h252v-73h-252l17 20v-291l-17 18h278l-20 -19l20 116h61l-1 -172h-501v53l92 24l-14 -19v170l17 -18h-253l23 17l-86 -174l-7 22l99 -22v-53h-252zM264 268
l-12 15h224l-17 -15v369l17 -12h-52l22 11z" />
    <glyph glyph-name="Ccedilla" unicode="&#xc7;" horiz-adv-x="641" 
d="M347 -10q-81 0 -147.5 41t-106 120.5t-39.5 195.5q0 114 39.5 195t110.5 124.5t166 43.5q50 0 104.5 -12.5t114.5 -38.5l-8 -164h-61l-20 121l18 -18q-38 16 -76 24t-70 8q-65 0 -111.5 -32.5t-71.5 -93t-25 -145.5q0 -93 27.5 -156.5t75 -96t106.5 -32.5q44 0 92 19
t94 57l40 -60q-60 -51 -125 -75.5t-127 -24.5zM360 -240q-24 0 -49 5.5t-48 16.5l20 50q18 -6 38.5 -10.5t37.5 -4.5q24 0 40 9.5t16 28.5q0 14 -13 23.5t-35.5 15t-53.5 6.5l6 100h62v-55q56 -5 82 -28.5t26 -58.5q0 -33 -18 -54.5t-47 -32.5t-64 -11z" />
    <glyph glyph-name="Egrave" unicode="&#xc8;" horiz-adv-x="617" 
d="M494 172h62l-1 -172h-510v53l97 23l-15 -22v589l14 -21l-96 20v53l182 5h316v-165h-61l-19 105l20 -15h-271l17 17v-265l-17 17h257v-73h-257l17 20v-283l-17 17h284l-21 -17zM417 751l-225 96l44 81l209 -121z" />
    <glyph glyph-name="Eacute" unicode="&#xc9;" horiz-adv-x="617" 
d="M494 172h62l-1 -172h-510v53l97 23l-15 -22v589l14 -21l-96 20v53l182 5h316v-165h-61l-19 105l20 -15h-271l17 17v-265l-17 17h257v-73h-257l17 20v-283l-17 17h284l-21 -17zM228 751l-30 55l211 122l41 -80z" />
    <glyph glyph-name="Ecircumflex" unicode="&#xca;" horiz-adv-x="617" 
d="M494 172h62l-1 -172h-510v53l97 23l-15 -22v589l14 -21l-96 20v53l182 5h316v-165h-61l-19 105l20 -15h-271l17 17v-265l-17 17h257v-73h-257l17 20v-283l-17 17h284l-21 -17zM178 746l-34 41l140 123l58 5l149 -128l-35 -41l-176 112l68 -1z" />
    <glyph glyph-name="Edieresis" unicode="&#xcb;" horiz-adv-x="617" 
d="M494 172h62l-1 -172h-510v53l97 23l-15 -22v589l14 -21l-96 20v53l182 5h316v-165h-61l-19 105l20 -15h-271l17 17v-265l-17 17h257v-73h-257l17 20v-283l-17 17h284l-21 -17zM421 765q-26 0 -40.5 15.5t-14.5 43.5q-1 28 15.5 44t39.5 16q25 0 40 -16t15 -44
t-16.5 -43.5t-38.5 -15.5zM215 765q-26 0 -40 15.5t-15 43.5q0 28 16 44t39 16q25 0 40 -16t15 -44t-16 -43.5t-39 -15.5z" />
    <glyph glyph-name="Igrave" unicode="&#xcc;" horiz-adv-x="355" 
d="M311 647l-94 -24l12 16v-581l-12 17l94 -22v-53h-266v53l93 21l-11 -16v581l14 -17l-96 20v53l266 5v-53zM277 751l-225 96l44 81l209 -121z" />
    <glyph glyph-name="Iacute" unicode="&#xcd;" horiz-adv-x="355" 
d="M311 647l-94 -24l12 16v-581l-12 17l94 -22v-53h-266v53l93 21l-11 -16v581l14 -17l-96 20v53l266 5v-53zM87 751l-30 55l211 122l41 -80z" />
    <glyph glyph-name="Icircumflex" unicode="&#xce;" horiz-adv-x="355" 
d="M311 647l-94 -24l12 16v-581l-12 17l94 -22v-53h-266v53l93 21l-11 -16v581l14 -17l-96 20v53l266 5v-53zM38 746l-34 41l140 123l58 5l149 -128l-35 -41l-176 112l68 -1z" />
    <glyph glyph-name="Idieresis" unicode="&#xcf;" horiz-adv-x="355" 
d="M311 647l-94 -24l12 16v-581l-12 17l94 -22v-53h-266v53l93 21l-11 -16v581l14 -17l-96 20v53l266 5v-53zM280 765q-26 0 -40.5 15.5t-14.5 43.5q-1 28 15.5 44t39.5 16q25 0 40 -16t15 -44t-16.5 -43.5t-38.5 -15.5zM74 765q-26 0 -40 15.5t-15 43.5q0 28 16 44t39 16
q25 0 40 -16t15 -44t-16 -43.5t-39 -15.5z" />
    <glyph glyph-name="Eth" unicode="&#xd0;" horiz-adv-x="716" 
d="M45 322v70h337v-70h-337zM348 700q69 0 126.5 -20.5t99.5 -62.5t65.5 -105.5t23.5 -150.5q0 -118 -42.5 -198.5t-117 -121.5t-172.5 -41h-286v53l97 23l-15 -22v589l16 -22l-98 21v53l201 5h102zM335 75q41 0 80 13t70.5 44t49.5 85.5t18 136.5q0 80 -17.5 132.5t-47 83
t-66.5 43t-76 12.5h-134l17 17v-584l-17 17h123z" />
    <glyph glyph-name="Ntilde" unicode="&#xd1;" horiz-adv-x="785" 
d="M503 695l250 5v-53l-98 -25l16 22v-644h-116l-357 592h15v-538l-17 22l99 -23v-53h-250v53l99 23l-17 -22v590l12 -21l-94 19v53l204 5l351 -581l-15 -1v526l17 -21l-99 19v53zM277 775l-44 20q18 51 42 73.5t56 22.5q26 0 51 -11t48 -21.5t42 -10.5q17 0 31.5 10
t29.5 35l44 -19q-19 -52 -44.5 -74.5t-57.5 -22.5q-25 0 -49 11t-47 21.5t-44 10.5q-17 0 -30 -11t-28 -34z" />
    <glyph glyph-name="Ograve" unicode="&#xd2;" horiz-adv-x="741" 
d="M359 -10q-89 0 -158 39.5t-108 118t-39 194.5q0 92 24.5 161t68.5 115t102.5 69t126.5 23q67 0 124 -22t99 -65.5t65 -109t23 -151.5q0 -117 -42.5 -200.5t-116.5 -127.5t-169 -44zM366 70q58 0 106 29t76.5 92.5t28.5 165.5q0 97 -26.5 157t-73 88t-105.5 28
q-58 0 -105 -28.5t-75 -90.5t-28 -165q0 -97 26.5 -157.5t72 -89.5t103.5 -29zM474 751l-225 96l44 81l209 -121z" />
    <glyph glyph-name="Oacute" unicode="&#xd3;" horiz-adv-x="741" 
d="M359 -10q-89 0 -158 39.5t-108 118t-39 194.5q0 92 24.5 161t68.5 115t102.5 69t126.5 23q67 0 124 -22t99 -65.5t65 -109t23 -151.5q0 -117 -42.5 -200.5t-116.5 -127.5t-169 -44zM366 70q58 0 106 29t76.5 92.5t28.5 165.5q0 97 -26.5 157t-73 88t-105.5 28
q-58 0 -105 -28.5t-75 -90.5t-28 -165q0 -97 26.5 -157.5t72 -89.5t103.5 -29zM284 751l-30 55l211 122l41 -80z" />
    <glyph glyph-name="Ocircumflex" unicode="&#xd4;" horiz-adv-x="741" 
d="M359 -10q-89 0 -158 39.5t-108 118t-39 194.5q0 92 24.5 161t68.5 115t102.5 69t126.5 23q67 0 124 -22t99 -65.5t65 -109t23 -151.5q0 -117 -42.5 -200.5t-116.5 -127.5t-169 -44zM366 70q58 0 106 29t76.5 92.5t28.5 165.5q0 97 -26.5 157t-73 88t-105.5 28
q-58 0 -105 -28.5t-75 -90.5t-28 -165q0 -97 26.5 -157.5t72 -89.5t103.5 -29zM235 746l-34 41l140 123l58 5l149 -128l-35 -41l-176 112l68 -1z" />
    <glyph glyph-name="Otilde" unicode="&#xd5;" horiz-adv-x="741" 
d="M359 -10q-89 0 -158 39.5t-108 118t-39 194.5q0 92 24.5 161t68.5 115t102.5 69t126.5 23q67 0 124 -22t99 -65.5t65 -109t23 -151.5q0 -117 -42.5 -200.5t-116.5 -127.5t-169 -44zM366 70q58 0 106 29t76.5 92.5t28.5 165.5q0 97 -26.5 157t-73 88t-105.5 28
q-58 0 -105 -28.5t-75 -90.5t-28 -165q0 -97 26.5 -157.5t72 -89.5t103.5 -29zM246 775l-44 20q18 51 42 73.5t56 22.5q26 0 51 -11t48 -21.5t42 -10.5q17 0 31.5 10t29.5 35l44 -19q-19 -52 -44.5 -74.5t-57.5 -22.5q-25 0 -49 11t-47 21.5t-44 10.5q-17 0 -30 -11t-28 -34
z" />
    <glyph glyph-name="Odieresis" unicode="&#xd6;" horiz-adv-x="741" 
d="M359 -10q-89 0 -158 39.5t-108 118t-39 194.5q0 92 24.5 161t68.5 115t102.5 69t126.5 23q67 0 124 -22t99 -65.5t65 -109t23 -151.5q0 -117 -42.5 -200.5t-116.5 -127.5t-169 -44zM366 70q58 0 106 29t76.5 92.5t28.5 165.5q0 97 -26.5 157t-73 88t-105.5 28
q-58 0 -105 -28.5t-75 -90.5t-28 -165q0 -97 26.5 -157.5t72 -89.5t103.5 -29zM477 765q-26 0 -40.5 15.5t-14.5 43.5q-1 28 15.5 44t39.5 16q25 0 40 -16t15 -44t-16.5 -43.5t-38.5 -15.5zM271 765q-26 0 -40 15.5t-15 43.5q0 28 16 44t39 16q25 0 40 -16t15 -44t-16 -43.5
t-39 -15.5z" />
    <glyph glyph-name="multiply" unicode="&#xd7;" horiz-adv-x="504" 
d="M105 149l-54 54l160 159l1 -27l-161 161l55 55l161 -161l-28 1l160 159l54 -54l-160 -159l-1 27l161 -161l-55 -55l-161 161h27z" />
    <glyph glyph-name="Oslash" unicode="&#xd8;" horiz-adv-x="742" 
d="M600 774l55 -32l-79 -124l-15 -20l-327 -519l-7 -15l-88 -140l-55 33l88 140l11 14l332 524l6 14zM360 -10q-89 0 -158 39.5t-108 118t-39 194.5q0 92 24.5 161t68.5 115t102.5 69t127.5 23q67 0 123.5 -22t98.5 -65.5t65.5 -109t23.5 -151.5q0 -117 -42.5 -200.5
t-116.5 -127.5t-170 -44zM367 70q58 0 106 29t77 92.5t29 165.5q0 97 -27 157t-73.5 88t-105.5 28q-57 0 -104.5 -28.5t-75.5 -90.5t-28 -165q0 -97 26.5 -157.5t72 -89.5t103.5 -29z" />
    <glyph glyph-name="Ugrave" unicode="&#xd9;" horiz-adv-x="747" 
d="M455 695l267 5v-53l-96 -24l14 26v-381q0 -42 -7.5 -82.5t-25 -75.5t-48 -62.5t-77 -42.5t-112.5 -15q-79 0 -129 19.5t-77.5 51.5t-39 68t-14.5 69.5t-3 57.5v392l14 -25l-96 19v53l267 5v-53l-94 -24l12 25v-392q0 -25 2 -51.5t10 -51t25.5 -43t47.5 -30t76 -11.5
q47 0 78 12t49 32t26.5 45.5t10.5 53.5t2 56v381l11 -25l-93 18v53zM474 751l-225 96l44 81l209 -121z" />
    <glyph glyph-name="Uacute" unicode="&#xda;" horiz-adv-x="747" 
d="M455 695l267 5v-53l-96 -24l14 26v-381q0 -42 -7.5 -82.5t-25 -75.5t-48 -62.5t-77 -42.5t-112.5 -15q-79 0 -129 19.5t-77.5 51.5t-39 68t-14.5 69.5t-3 57.5v392l14 -25l-96 19v53l267 5v-53l-94 -24l12 25v-392q0 -25 2 -51.5t10 -51t25.5 -43t47.5 -30t76 -11.5
q47 0 78 12t49 32t26.5 45.5t10.5 53.5t2 56v381l11 -25l-93 18v53zM285 751l-30 55l211 122l41 -80z" />
    <glyph glyph-name="Ucircumflex" unicode="&#xdb;" horiz-adv-x="747" 
d="M455 695l267 5v-53l-96 -24l14 26v-381q0 -42 -7.5 -82.5t-25 -75.5t-48 -62.5t-77 -42.5t-112.5 -15q-79 0 -129 19.5t-77.5 51.5t-39 68t-14.5 69.5t-3 57.5v392l14 -25l-96 19v53l267 5v-53l-94 -24l12 25v-392q0 -25 2 -51.5t10 -51t25.5 -43t47.5 -30t76 -11.5
q47 0 78 12t49 32t26.5 45.5t10.5 53.5t2 56v381l11 -25l-93 18v53zM235 746l-34 41l140 123l58 5l149 -128l-35 -41l-176 112l68 -1z" />
    <glyph glyph-name="Udieresis" unicode="&#xdc;" horiz-adv-x="747" 
d="M455 695l267 5v-53l-96 -24l14 26v-381q0 -42 -7.5 -82.5t-25 -75.5t-48 -62.5t-77 -42.5t-112.5 -15q-79 0 -129 19.5t-77.5 51.5t-39 68t-14.5 69.5t-3 57.5v392l14 -25l-96 19v53l267 5v-53l-94 -24l12 25v-392q0 -25 2 -51.5t10 -51t25.5 -43t47.5 -30t76 -11.5
q47 0 78 12t49 32t26.5 45.5t10.5 53.5t2 56v381l11 -25l-93 18v53zM478 765q-26 0 -40.5 15.5t-14.5 43.5q-1 28 15.5 44t39.5 16q25 0 40 -16t15 -44t-16.5 -43.5t-38.5 -15.5zM272 765q-26 0 -40 15.5t-15 43.5q0 28 16 44t39 16q25 0 40 -16t15 -44t-16 -43.5t-39 -15.5
z" />
    <glyph glyph-name="Yacute" unicode="&#xdd;" horiz-adv-x="643" 
d="M184 0v53l100 23l-15 -22v220l10 -39l-210 405l21 -17l-87 19v53l264 5v-53l-101 -21l9 19l163 -335h-20l165 331l9 -18l-102 19v53l250 5v-53l-87 -21l21 17l-211 -408l8 39v-220l-16 22l100 -23v-53h-271zM234 751l-30 55l211 122l41 -80z" />
    <glyph glyph-name="Thorn" unicode="&#xde;" horiz-adv-x="588" 
d="M45 0v53l96 22l-14 -21v590l14 -22l-96 20v53l266 5v-53l-95 -26l13 21v-104l-17 19h130q104 0 159 -47.5t55 -140.5q0 -107 -68 -162t-185 -55h-91l17 20v-117l-15 21l118 -23v-53h-287zM229 208l-17 17h73q50 0 87.5 14t58.5 44.5t21 78.5q0 44 -17.5 71t-49.5 39.5
t-76 12.5h-97l17 17v-294z" />
    <glyph glyph-name="germandbls" unicode="&#xdf;" horiz-adv-x="666" 
d="M410 416q0 -27 17.5 -45t45 -32t58.5 -28.5t58.5 -34t44.5 -48.5t17 -73q0 -57 -27 -93t-72.5 -54t-102.5 -18q-34 0 -69.5 6.5t-72.5 17.5l6 135h62l12 -96l-13 20q19 -8 40 -12.5t39 -4.5q28 0 51 9t37 28.5t14 47.5q0 30 -17 51t-44.5 37t-58 31t-58 33t-44.5 44.5
t-17 65.5q0 36 15 58.5t37.5 38.5t44.5 30t37 33t15 49q0 31 -15.5 52t-43 32.5t-61.5 11.5q-59 0 -96.5 -30t-37.5 -94v-584h-175v53l89 21l-14 -18v410l14 -9h-91v55l89 16l-12 -16v63q0 56 18.5 95t51 63.5t75.5 35.5t91 11q62 0 110 -18t77 -53t29 -87q0 -39 -15.5 -63
t-38 -40t-45.5 -30t-38.5 -30.5t-15.5 -42.5z" />
    <glyph glyph-name="agrave" unicode="&#xe0;" horiz-adv-x="552" 
d="M459 54l-15 21l90 -21v-53l-152 -7l-14 96l8 -3q-43 -49 -93 -73t-97 -24q-58 0 -99.5 38t-41.5 114q0 58 25 90.5t70 46.5t106 14h122l-9 -11v86q0 52 -27 74.5t-75 22.5q-25 0 -52.5 -5t-59.5 -16l14 14l-11 -89h-66l-8 133q61 19 112.5 28.5t95.5 9.5q84 0 130.5 -37
t46.5 -117v-332zM146 149q0 -43 21 -63.5t53 -20.5t70.5 20.5t74.5 54.5l-6 -25v124l9 -10h-106q-66 0 -91 -20t-25 -60zM205 816l188 -149l-38 -52l-205 129z" />
    <glyph glyph-name="aacute" unicode="&#xe1;" horiz-adv-x="552" 
d="M459 54l-15 21l90 -21v-53l-152 -7l-14 96l8 -3q-43 -49 -93 -73t-97 -24q-58 0 -99.5 38t-41.5 114q0 58 25 90.5t70 46.5t106 14h122l-9 -11v86q0 52 -27 74.5t-75 22.5q-25 0 -52.5 -5t-59.5 -16l14 14l-11 -89h-66l-8 133q61 19 112.5 28.5t95.5 9.5q84 0 130.5 -37
t46.5 -117v-332zM146 149q0 -43 21 -63.5t53 -20.5t70.5 20.5t74.5 54.5l-6 -25v124l9 -10h-106q-66 0 -91 -20t-25 -60zM209 615l-36 50l191 150l54 -73z" />
    <glyph glyph-name="acircumflex" unicode="&#xe2;" horiz-adv-x="552" 
d="M459 54l-15 21l90 -21v-53l-152 -7l-14 96l8 -3q-43 -49 -93 -73t-97 -24q-58 0 -99.5 38t-41.5 114q0 58 25 90.5t70 46.5t106 14h122l-9 -11v86q0 52 -27 74.5t-75 22.5q-25 0 -52.5 -5t-59.5 -16l14 14l-11 -89h-66l-8 133q61 19 112.5 28.5t95.5 9.5q84 0 130.5 -37
t46.5 -117v-332zM146 149q0 -43 21 -63.5t53 -20.5t70.5 20.5t74.5 54.5l-6 -25v124l9 -10h-106q-66 0 -91 -20t-25 -60zM137 625l-35 39l139 133l58 5l146 -138l-36 -39l-172 123l68 -1z" />
    <glyph glyph-name="atilde" unicode="&#xe3;" horiz-adv-x="552" 
d="M459 54l-15 21l90 -21v-53l-152 -7l-14 96l8 -3q-43 -49 -93 -73t-97 -24q-58 0 -99.5 38t-41.5 114q0 58 25 90.5t70 46.5t106 14h122l-9 -11v86q0 52 -27 74.5t-75 22.5q-25 0 -52.5 -5t-59.5 -16l14 14l-11 -89h-66l-8 133q61 19 112.5 28.5t95.5 9.5q84 0 130.5 -37
t46.5 -117v-332zM146 149q0 -43 21 -63.5t53 -20.5t70.5 20.5t74.5 54.5l-6 -25v124l9 -10h-106q-66 0 -91 -20t-25 -60zM343 646q-28 0 -50.5 12.5t-43.5 25t-44 12.5q-19 0 -34 -11.5t-29 -36.5l-45 19q18 53 44.5 78t59.5 25q27 0 50 -12t44.5 -24.5t43.5 -12.5
q19 0 34 12t30 36l44 -18q-18 -53 -44.5 -79t-59.5 -26z" />
    <glyph glyph-name="adieresis" unicode="&#xe4;" horiz-adv-x="552" 
d="M459 54l-15 21l90 -21v-53l-152 -7l-14 96l8 -3q-43 -49 -93 -73t-97 -24q-58 0 -99.5 38t-41.5 114q0 58 25 90.5t70 46.5t106 14h122l-9 -11v86q0 52 -27 74.5t-75 22.5q-25 0 -52.5 -5t-59.5 -16l14 14l-11 -89h-66l-8 133q61 19 112.5 28.5t95.5 9.5q84 0 130.5 -37
t46.5 -117v-332zM146 149q0 -43 21 -63.5t53 -20.5t70.5 20.5t74.5 54.5l-6 -25v124l9 -10h-106q-66 0 -91 -20t-25 -60zM375 637q-26 0 -40.5 15.5t-14.5 43.5q-1 28 15.5 44t39.5 16q25 0 40 -16t15 -44t-16.5 -43.5t-38.5 -15.5zM169 637q-26 0 -40 15.5t-15 43.5
q0 28 16 44t39 16q25 0 40 -16t15 -44t-16 -43.5t-39 -15.5z" />
    <glyph glyph-name="aring" unicode="&#xe5;" horiz-adv-x="552" 
d="M459 54l-15 21l90 -21v-53l-152 -7l-14 96l8 -3q-43 -49 -93 -73t-97 -24q-58 0 -99.5 38t-41.5 114q0 58 25 90.5t70 46.5t106 14h122l-9 -11v86q0 52 -27 74.5t-75 22.5q-25 0 -52.5 -5t-59.5 -16l14 14l-11 -89h-66l-8 133q61 19 112.5 28.5t95.5 9.5q84 0 130.5 -37
t46.5 -117v-332zM146 149q0 -43 21 -63.5t53 -20.5t70.5 20.5t74.5 54.5l-6 -25v124l9 -10h-106q-66 0 -91 -20t-25 -60zM270 614q-34 0 -59.5 13t-40 36.5t-14.5 54.5t14.5 55t41 37.5t61.5 13.5t60 -13t39.5 -36.5t14.5 -53.5q0 -31 -14.5 -55t-40.5 -38t-62 -14zM271 663
q26 0 39.5 16t13.5 41q0 24 -13.5 39.5t-38.5 15.5q-26 0 -39.5 -16t-13.5 -40q0 -25 13 -40.5t39 -15.5z" />
    <glyph glyph-name="ae" unicode="&#xe6;" horiz-adv-x="863" 
d="M80 374l-8 128q59 20 109.5 29t90.5 9q67 0 106.5 -25t47.5 -74l6 -21l-9 8q28 54 77.5 83t110.5 29q99 0 154 -62t55 -175q0 -20 -1.5 -38.5t-3.5 -29.5h-361l9 24l1 -15q2 -82 43 -130t109 -48q77 0 165 57l35 -56q-55 -37 -111.5 -57t-111.5 -20q-67 0 -118 31.5
t-77 88.5l26 -1q-43 -61 -101.5 -90.5t-114.5 -29.5q-44 0 -81 17.5t-59.5 52t-22.5 84.5q0 80 48 120.5t149 40.5h130l-10 -17v81q0 50 -25.5 74t-76.5 24q-24 0 -53 -5.5t-64 -16.5l11 14l-11 -84h-63zM376 128q-7 26 -10.5 57t-3.5 70l10 -20h-110q-63 0 -89.5 -15.5
t-26.5 -63.5q0 -46 27 -69.5t66 -23.5q35 0 73 19t69 58zM463 286l-10 18h273l-10 -14q1 91 -27.5 134t-87.5 43q-63 0 -99.5 -47t-38.5 -134z" />
    <glyph glyph-name="ccedilla" unicode="&#xe7;" horiz-adv-x="514" 
d="M272 -10q-65 0 -118 32t-83.5 92t-30.5 145q0 75 21.5 128t58 87t82.5 50t96 16q43 0 89.5 -11.5t79.5 -28.5l-4 -133h-66l-14 90l9 -8q-21 10 -47 14t-47 4q-49 0 -83.5 -24.5t-52.5 -70t-18 -107.5q0 -64 19.5 -109t53.5 -67.5t78 -22.5q34 0 73 14t81 43l35 -53
q-54 -41 -107 -60.5t-105 -19.5zM283 -240q-24 0 -49 5.5t-48 16.5l20 50q18 -6 38.5 -10.5t37.5 -4.5q24 0 40 9.5t16 28.5q0 14 -13 23.5t-35.5 15t-53.5 6.5l6 100h62v-55q56 -5 82 -28.5t26 -58.5q0 -33 -18 -54.5t-47 -32.5t-64 -11z" />
    <glyph glyph-name="egrave" unicode="&#xe8;" horiz-adv-x="549" 
d="M276 -10q-69 0 -121.5 30.5t-82 90t-29.5 145.5q0 88 30.5 151.5t87 98t132.5 34.5q73 0 119.5 -30t69 -82.5t22.5 -119.5q0 -13 -1 -26t-3 -30h-379v69h289l-9 -6q1 41 -10 75t-37 54.5t-69 20.5q-47 0 -78 -25.5t-46 -69.5t-15 -101q0 -61 17 -106.5t51.5 -71
t85.5 -25.5q36 0 78.5 14t87.5 42l35 -55q-56 -39 -113.5 -58t-111.5 -19zM218 816l188 -149l-38 -52l-205 129z" />
    <glyph glyph-name="eacute" unicode="&#xe9;" horiz-adv-x="549" 
d="M276 -10q-69 0 -121.5 30.5t-82 90t-29.5 145.5q0 88 30.5 151.5t87 98t132.5 34.5q73 0 119.5 -30t69 -82.5t22.5 -119.5q0 -13 -1 -26t-3 -30h-379v69h289l-9 -6q1 41 -10 75t-37 54.5t-69 20.5q-47 0 -78 -25.5t-46 -69.5t-15 -101q0 -61 17 -106.5t51.5 -71
t85.5 -25.5q36 0 78.5 14t87.5 42l35 -55q-56 -39 -113.5 -58t-111.5 -19zM222 615l-36 50l191 150l54 -73z" />
    <glyph glyph-name="ecircumflex" unicode="&#xea;" horiz-adv-x="549" 
d="M276 -10q-69 0 -121.5 30.5t-82 90t-29.5 145.5q0 88 30.5 151.5t87 98t132.5 34.5q73 0 119.5 -30t69 -82.5t22.5 -119.5q0 -13 -1 -26t-3 -30h-379v69h289l-9 -6q1 41 -10 75t-37 54.5t-69 20.5q-47 0 -78 -25.5t-46 -69.5t-15 -101q0 -61 17 -106.5t51.5 -71
t85.5 -25.5q36 0 78.5 14t87.5 42l35 -55q-56 -39 -113.5 -58t-111.5 -19zM149 625l-35 39l139 133l58 5l146 -138l-36 -39l-172 123l68 -1z" />
    <glyph glyph-name="edieresis" unicode="&#xeb;" horiz-adv-x="549" 
d="M276 -10q-69 0 -121.5 30.5t-82 90t-29.5 145.5q0 88 30.5 151.5t87 98t132.5 34.5q73 0 119.5 -30t69 -82.5t22.5 -119.5q0 -13 -1 -26t-3 -30h-379v69h289l-9 -6q1 41 -10 75t-37 54.5t-69 20.5q-47 0 -78 -25.5t-46 -69.5t-15 -101q0 -61 17 -106.5t51.5 -71
t85.5 -25.5q36 0 78.5 14t87.5 42l35 -55q-56 -39 -113.5 -58t-111.5 -19zM387 637q-26 0 -40.5 15.5t-14.5 43.5q-1 28 15.5 44t39.5 16q25 0 40 -16t15 -44t-16.5 -43.5t-38.5 -15.5zM181 637q-26 0 -40 15.5t-15 43.5q0 28 16 44t39 16q25 0 40 -16t15 -44t-16 -43.5
t-39 -15.5z" />
    <glyph glyph-name="igrave" unicode="&#xec;" horiz-adv-x="305" 
d="M209 61l-9 12l84 -20v-53h-249v53l84 20l-10 -12v403l9 -9l-83 19v53l174 6v-472zM75 816l188 -149l-38 -52l-205 129z" />
    <glyph glyph-name="iacute" unicode="&#xed;" horiz-adv-x="305" 
d="M209 61l-9 12l84 -20v-53h-249v53l84 20l-10 -12v403l9 -9l-83 19v53l174 6v-472zM93 615l-36 50l191 150l54 -73z" />
    <glyph glyph-name="icircumflex" unicode="&#xee;" horiz-adv-x="305" 
d="M41 625l-37 39l118 133l58 5l126 -138l-38 -39l-150 123l68 -1zM209 61l-9 12l84 -20v-53h-249v53l84 20l-10 -12v403l9 -9l-83 19v53l174 6v-472z" />
    <glyph glyph-name="idieresis" unicode="&#xef;" horiz-adv-x="305" 
d="M243 637q-24 0 -38 15.5t-15 43.5q0 28 16 44t37 16q24 0 38.5 -16t14.5 -44t-16 -43.5t-37 -15.5zM51 637q-24 0 -38 15.5t-14 43.5q-1 28 15 44t37 16q24 0 38.5 -16t14.5 -44t-16 -43.5t-37 -15.5zM209 61l-9 12l84 -20v-53h-249v53l84 20l-10 -12v403l9 -9l-83 19v53
l174 6v-472z" />
    <glyph glyph-name="eth" unicode="&#xf0;" horiz-adv-x="584" 
d="M273 -10q-76 0 -128 31.5t-78.5 88t-26.5 131.5q0 84 30 144t81.5 91.5t117.5 31.5q59 0 104.5 -27t72.5 -79l-10 4q-13 94 -53 161t-104 103t-151 37l8 73q104 0 179 -39t123 -105.5t71 -149.5t23 -171q0 -75 -16 -135t-48.5 -102.5t-81.5 -65t-113 -22.5zM280 63
q45 0 78.5 23.5t51.5 68t18 107.5q0 88 -36 132.5t-101 44.5q-45 0 -78 -21.5t-51 -64.5t-18 -107q0 -92 36.5 -137.5t99.5 -45.5zM218 571l-32 43l255 168l32 -44z" />
    <glyph glyph-name="ntilde" unicode="&#xf1;" horiz-adv-x="637" 
d="M35 0v53l88 21l-14 -17v414l14 -18l-88 21v53l152 7l13 -97l-13 5q49 50 103.5 74t103.5 24q67 0 111 -41t43 -127v-315l-11 16l85 -20v-53h-244v53l83 20l-13 -17v295q0 58 -26 85t-69 27q-34 0 -73.5 -18.5t-77.5 -56.5l7 18v-350l-11 16l81 -19v-53h-244zM399 646
q-28 0 -50.5 12.5t-43.5 25t-44 12.5q-19 0 -34 -11.5t-29 -36.5l-45 19q18 53 44.5 78t59.5 25q27 0 50 -12t44.5 -24.5t43.5 -12.5q19 0 34 12t30 36l44 -18q-18 -53 -44.5 -79t-59.5 -26z" />
    <glyph glyph-name="ograve" unicode="&#xf2;" horiz-adv-x="576" 
d="M295 540q112 0 176 -69.5t64 -196.5q0 -86 -31 -150t-88.5 -99t-138.5 -35q-111 0 -173 68.5t-62 195.5q0 89 30 153t86.5 98.5t136.5 34.5zM290 467q-71 0 -107.5 -53.5t-36.5 -154.5q0 -99 35 -147.5t102 -48.5q49 0 81.5 24t49 70.5t16.5 111.5q0 99 -36 148.5
t-104 49.5zM221 816l188 -149l-38 -52l-205 129z" />
    <glyph glyph-name="oacute" unicode="&#xf3;" horiz-adv-x="576" 
d="M295 540q112 0 176 -69.5t64 -196.5q0 -86 -31 -150t-88.5 -99t-138.5 -35q-111 0 -173 68.5t-62 195.5q0 89 30 153t86.5 98.5t136.5 34.5zM290 467q-71 0 -107.5 -53.5t-36.5 -154.5q0 -99 35 -147.5t102 -48.5q49 0 81.5 24t49 70.5t16.5 111.5q0 99 -36 148.5
t-104 49.5zM225 615l-36 50l191 150l54 -73z" />
    <glyph glyph-name="ocircumflex" unicode="&#xf4;" horiz-adv-x="576" 
d="M295 540q112 0 176 -69.5t64 -196.5q0 -86 -31 -150t-88.5 -99t-138.5 -35q-111 0 -173 68.5t-62 195.5q0 89 30 153t86.5 98.5t136.5 34.5zM290 467q-71 0 -107.5 -53.5t-36.5 -154.5q0 -99 35 -147.5t102 -48.5q49 0 81.5 24t49 70.5t16.5 111.5q0 99 -36 148.5
t-104 49.5zM152 625l-35 39l139 133l58 5l146 -138l-36 -39l-172 123l68 -1z" />
    <glyph glyph-name="otilde" unicode="&#xf5;" horiz-adv-x="576" 
d="M295 540q112 0 176 -69.5t64 -196.5q0 -86 -31 -150t-88.5 -99t-138.5 -35q-111 0 -173 68.5t-62 195.5q0 89 30 153t86.5 98.5t136.5 34.5zM290 467q-71 0 -107.5 -53.5t-36.5 -154.5q0 -99 35 -147.5t102 -48.5q49 0 81.5 24t49 70.5t16.5 111.5q0 99 -36 148.5
t-104 49.5zM359 646q-28 0 -50.5 12.5t-43.5 25t-44 12.5q-19 0 -34 -11.5t-29 -36.5l-45 19q18 53 44.5 78t59.5 25q27 0 50 -12t44.5 -24.5t43.5 -12.5q19 0 34 12t30 36l44 -18q-18 -53 -44.5 -79t-59.5 -26z" />
    <glyph glyph-name="odieresis" unicode="&#xf6;" horiz-adv-x="576" 
d="M295 540q112 0 176 -69.5t64 -196.5q0 -86 -31 -150t-88.5 -99t-138.5 -35q-111 0 -173 68.5t-62 195.5q0 89 30 153t86.5 98.5t136.5 34.5zM290 467q-71 0 -107.5 -53.5t-36.5 -154.5q0 -99 35 -147.5t102 -48.5q49 0 81.5 24t49 70.5t16.5 111.5q0 99 -36 148.5
t-104 49.5zM391 637q-26 0 -40.5 15.5t-14.5 43.5q-1 28 15.5 44t39.5 16q25 0 40 -16t15 -44t-16.5 -43.5t-38.5 -15.5zM185 637q-26 0 -40 15.5t-15 43.5q0 28 16 44t39 16q25 0 40 -16t15 -44t-16 -43.5t-39 -15.5z" />
    <glyph glyph-name="divide" unicode="&#xf7;" horiz-adv-x="545" 
d="M498 386v-73h-451v73h451zM211 173q0 28 18.5 44.5t42.5 16.5q29 0 45.5 -16.5t16.5 -44.5t-18.5 -44.5t-43.5 -16.5q-28 0 -44.5 16.5t-16.5 44.5zM211 528q0 28 18.5 44.5t42.5 16.5q29 0 45.5 -16.5t16.5 -44.5t-18.5 -44.5t-43.5 -16.5q-28 0 -44.5 16.5t-16.5 44.5z
" />
    <glyph glyph-name="oslash" unicode="&#xf8;" horiz-adv-x="579" 
d="M476 618l52 -30l-78 -125l-15 -15l-242 -391l-6 -20l-77 -125l-53 31l78 126l16 15l246 396l4 17zM297 540q112 0 176 -69.5t64 -196.5q0 -86 -31 -150t-88.5 -99t-137.5 -35q-112 0 -174 68.5t-62 195.5q0 89 30 153t87 98.5t136 34.5zM292 467q-70 0 -107 -53.5
t-37 -154.5q0 -99 35 -147.5t102 -48.5q49 0 81.5 24t49.5 70.5t17 111.5q0 99 -36.5 148.5t-104.5 49.5z" />
    <glyph glyph-name="ugrave" unicode="&#xf9;" horiz-adv-x="624" 
d="M242 -10q-66 0 -109.5 42t-43.5 128v310l11 -16l-86 20v53l175 6v-356q0 -56 25.5 -83t68.5 -27q34 0 73.5 18.5t77.5 56.5l-7 -20v350l11 -18l-86 20v53l175 7v-477l-14 17l88 -20v-53l-152 -7l-14 99l14 -5q-49 -50 -103.5 -74t-103.5 -24zM235 816l188 -149l-38 -52
l-205 129z" />
    <glyph glyph-name="uacute" unicode="&#xfa;" horiz-adv-x="624" 
d="M242 -10q-66 0 -109.5 42t-43.5 128v310l11 -16l-86 20v53l175 6v-356q0 -56 25.5 -83t68.5 -27q34 0 73.5 18.5t77.5 56.5l-7 -20v350l11 -18l-86 20v53l175 7v-477l-14 17l88 -20v-53l-152 -7l-14 99l14 -5q-49 -50 -103.5 -74t-103.5 -24zM239 615l-36 50l191 150
l54 -73z" />
    <glyph glyph-name="ucircumflex" unicode="&#xfb;" horiz-adv-x="624" 
d="M242 -10q-66 0 -109.5 42t-43.5 128v310l11 -16l-86 20v53l175 6v-356q0 -56 25.5 -83t68.5 -27q34 0 73.5 18.5t77.5 56.5l-7 -20v350l11 -18l-86 20v53l175 7v-477l-14 17l88 -20v-53l-152 -7l-14 99l14 -5q-49 -50 -103.5 -74t-103.5 -24zM166 625l-35 39l139 133
l58 5l146 -138l-36 -39l-172 123l68 -1z" />
    <glyph glyph-name="udieresis" unicode="&#xfc;" horiz-adv-x="624" 
d="M242 -10q-66 0 -109.5 42t-43.5 128v310l11 -16l-86 20v53l175 6v-356q0 -56 25.5 -83t68.5 -27q34 0 73.5 18.5t77.5 56.5l-7 -20v350l11 -18l-86 20v53l175 7v-477l-14 17l88 -20v-53l-152 -7l-14 99l14 -5q-49 -50 -103.5 -74t-103.5 -24zM404 637q-26 0 -40.5 15.5
t-14.5 43.5q-1 28 15.5 44t39.5 16q25 0 40 -16t15 -44t-16.5 -43.5t-38.5 -15.5zM198 637q-26 0 -40 15.5t-15 43.5q0 28 16 44t39 16q25 0 40 -16t15 -44t-16 -43.5t-39 -15.5z" />
    <glyph glyph-name="yacute" unicode="&#xfd;" horiz-adv-x="538" 
d="M13 -234l9 72q13 -2 24.5 -3t21.5 -1q47 0 76.5 21t50.5 63t42 106l-3 -36l-189 484l12 -10l-63 12v53l229 7v-53l-83 -16l6 10l142 -408l-24 5l133 401l7 -11l-82 12v53l220 7v-53l-68 -17l16 10l-172 -475q-19 -52 -40 -96t-48 -76t-64.5 -49.5t-89.5 -17.5
q-27 0 -63 6zM206 615l-36 50l191 150l54 -73z" />
    <glyph glyph-name="thorn" unicode="&#xfe;" horiz-adv-x="585" 
d="M9 -230v53l89 23l-14 -19v882l15 -18l-90 23v53l175 7v-317l-22 -3q46 43 91.5 64.5t91.5 21.5q57 0 101.5 -31t70 -89.5t25.5 -144.5q0 -93 -32 -157t-89.5 -96.5t-135.5 -32.5q-27 0 -55.5 4.5t-59.5 12.5l14 9v-188l-12 17l99 -21v-53h-262zM273 62q82 0 123.5 54
t41.5 149q0 63 -16.5 107.5t-45.5 68.5t-68 24q-32 0 -66.5 -17t-70.5 -52l13 22v-354l-13 16q56 -18 102 -18z" />
    <glyph glyph-name="ydieresis" unicode="&#xff;" horiz-adv-x="538" 
d="M13 -234l9 72q13 -2 24.5 -3t21.5 -1q47 0 76.5 21t50.5 63t42 106l-3 -36l-189 484l12 -10l-63 12v53l229 7v-53l-83 -16l6 10l142 -408l-24 5l133 401l7 -11l-82 12v53l220 7v-53l-68 -17l16 10l-172 -475q-19 -52 -40 -96t-48 -76t-64.5 -49.5t-89.5 -17.5
q-27 0 -63 6zM371 637q-26 0 -40.5 15.5t-14.5 43.5q-1 28 15.5 44t39.5 16q25 0 40 -16t15 -44t-16.5 -43.5t-38.5 -15.5zM165 637q-26 0 -40 15.5t-15 43.5q0 28 16 44t39 16q25 0 40 -16t15 -44t-16 -43.5t-39 -15.5z" />
    <glyph glyph-name="Amacron" unicode="&#x100;" horiz-adv-x="710" 
d="M642 52l-27 24l91 -23v-53h-269v53l98 21l-10 -16l-48 150l17 -14h-292l15 14l-52 -148l-5 13l95 -20v-53h-251v53l89 22l-25 -21l241 645l105 3zM231 252l-9 15h254l-11 -16l-122 391h24zM500 858v-71h-277v71h277z" />
    <glyph glyph-name="amacron" unicode="&#x101;" horiz-adv-x="552" 
d="M459 54l-15 21l90 -21v-53l-152 -7l-14 96l8 -3q-43 -49 -93 -73t-97 -24q-58 0 -99.5 38t-41.5 114q0 58 25 90.5t70 46.5t106 14h122l-9 -11v86q0 52 -27 74.5t-75 22.5q-25 0 -52.5 -5t-59.5 -16l14 14l-11 -89h-66l-8 133q61 19 112.5 28.5t95.5 9.5q84 0 130.5 -37
t46.5 -117v-332zM146 149q0 -43 21 -63.5t53 -20.5t70.5 20.5t74.5 54.5l-6 -25v124l9 -10h-106q-66 0 -91 -20t-25 -60zM410 739v-71h-277v71h277z" />
    <glyph glyph-name="Abreve" unicode="&#x102;" horiz-adv-x="710" 
d="M642 52l-27 24l91 -23v-53h-269v53l98 21l-10 -16l-48 150l17 -14h-292l15 14l-52 -148l-5 13l95 -20v-53h-251v53l89 22l-25 -21l241 645l105 3zM231 252l-9 15h254l-11 -16l-122 391h24zM360 763q-35 0 -68 15t-54.5 45t-22.5 73l60 7q5 -38 32 -56t58 -18t55.5 17.5
t27.5 52.5l59 3q0 -46 -21 -77t-55 -46.5t-71 -15.5z" />
    <glyph glyph-name="abreve" unicode="&#x103;" horiz-adv-x="552" 
d="M459 54l-15 21l90 -21v-53l-152 -7l-14 96l8 -3q-43 -49 -93 -73t-97 -24q-58 0 -99.5 38t-41.5 114q0 58 25 90.5t70 46.5t106 14h122l-9 -11v86q0 52 -27 74.5t-75 22.5q-25 0 -52.5 -5t-59.5 -16l14 14l-11 -89h-66l-8 133q61 19 112.5 28.5t95.5 9.5q84 0 130.5 -37
t46.5 -117v-332zM146 149q0 -43 21 -63.5t53 -20.5t70.5 20.5t74.5 54.5l-6 -25v124l9 -10h-106q-66 0 -91 -20t-25 -60zM272 629q-41 0 -73 17.5t-50.5 49.5t-19.5 73l61 7q4 -35 27 -55.5t58 -20.5q34 0 55 19.5t24 51.5l60 3q1 -42 -17 -75t-50 -51.5t-75 -18.5z" />
    <glyph glyph-name="Aogonek" unicode="&#x104;" horiz-adv-x="710" 
d="M642 52l-27 24l91 -23v-53h-164l-65 208l17 -14h-292l15 14l-52 -148l-5 13l95 -20v-53h-251v53l89 22l-25 -21l241 645l105 3zM231 252l-9 15h254l-11 -16l-122 391h24zM509 -221q-59 0 -90.5 28t-31.5 67q0 31 20 67t63 66.5t110 43.5l17 -51q-67 -13 -101.5 -42
t-34.5 -59q0 -25 21 -39.5t57 -14.5q11 0 23 1.5t25 3.5l6 -57q-23 -7 -44.5 -10.5t-39.5 -3.5z" />
    <glyph glyph-name="aogonek" unicode="&#x105;" horiz-adv-x="552" 
d="M459 54l-15 21l90 -21v-53l-152 -7l-14 96l8 -3q-43 -49 -93 -73t-97 -24q-58 0 -99.5 38t-41.5 114q0 58 25 90.5t70 46.5t106 14h122l-9 -11v86q0 52 -27 74.5t-75 22.5q-25 0 -52.5 -5t-59.5 -16l14 14l-11 -89h-66l-8 133q61 19 112.5 28.5t95.5 9.5q84 0 130.5 -37
t46.5 -117v-332zM146 149q0 -43 21 -63.5t53 -20.5t70.5 20.5t74.5 54.5l-6 -25v124l9 -10h-106q-66 0 -91 -20t-25 -60zM385 -221q-52 0 -84.5 25.5t-32.5 69.5q0 32 19.5 64.5t58 60.5t95.5 47l11 -46q-53 -19 -81.5 -48.5t-28.5 -55.5q0 -23 20.5 -37t51.5 -14
q9 0 19 1.5t20 3.5l6 -58q-20 -7 -38.5 -10t-35.5 -3z" />
    <glyph glyph-name="Cacute" unicode="&#x106;" horiz-adv-x="641" 
d="M347 -10q-81 0 -147.5 41t-106 120.5t-39.5 195.5q0 114 39.5 195t110.5 124.5t166 43.5q50 0 104.5 -12.5t114.5 -38.5l-8 -164h-61l-20 121l18 -18q-38 16 -76 24t-70 8q-65 0 -111.5 -32.5t-71.5 -93t-25 -145.5q0 -93 27.5 -156.5t75 -96t106.5 -32.5q44 0 92 19
t94 57l40 -60q-60 -51 -125 -75.5t-127 -24.5zM262 751l-30 55l211 122l41 -80z" />
    <glyph glyph-name="cacute" unicode="&#x107;" horiz-adv-x="514" 
d="M272 -10q-65 0 -118 32t-83.5 92t-30.5 145q0 75 21.5 128t58 87t82.5 50t96 16q43 0 89.5 -11.5t79.5 -28.5l-4 -133h-66l-14 90l9 -8q-21 10 -47 14t-47 4q-49 0 -83.5 -24.5t-52.5 -70t-18 -107.5q0 -64 19.5 -109t53.5 -67.5t78 -22.5q34 0 73 14t81 43l35 -53
q-54 -41 -107 -60.5t-105 -19.5zM221 615l-36 50l191 150l54 -73z" />
    <glyph glyph-name="Ccircumflex" unicode="&#x108;" horiz-adv-x="641" 
d="M347 -10q-81 0 -147.5 41t-106 120.5t-39.5 195.5q0 114 39.5 195t110.5 124.5t166 43.5q50 0 104.5 -12.5t114.5 -38.5l-8 -164h-61l-20 121l18 -18q-38 16 -76 24t-70 8q-65 0 -111.5 -32.5t-71.5 -93t-25 -145.5q0 -93 27.5 -156.5t75 -96t106.5 -32.5q44 0 92 19
t94 57l40 -60q-60 -51 -125 -75.5t-127 -24.5zM213 746l-34 41l140 123l58 5l149 -128l-35 -41l-176 112l68 -1z" />
    <glyph glyph-name="ccircumflex" unicode="&#x109;" horiz-adv-x="514" 
d="M272 -10q-65 0 -118 32t-83.5 92t-30.5 145q0 75 21.5 128t58 87t82.5 50t96 16q43 0 89.5 -11.5t79.5 -28.5l-4 -133h-66l-14 90l9 -8q-21 10 -47 14t-47 4q-49 0 -83.5 -24.5t-52.5 -70t-18 -107.5q0 -64 19.5 -109t53.5 -67.5t78 -22.5q34 0 73 14t81 43l35 -53
q-54 -41 -107 -60.5t-105 -19.5zM148 625l-35 39l139 133l58 5l146 -138l-36 -39l-172 123l68 -1z" />
    <glyph glyph-name="Cdotaccent" unicode="&#x10a;" horiz-adv-x="641" 
d="M347 -10q-81 0 -147.5 41t-106 120.5t-39.5 195.5q0 114 39.5 195t110.5 124.5t166 43.5q50 0 104.5 -12.5t114.5 -38.5l-8 -164h-61l-20 121l18 -18q-38 16 -76 24t-70 8q-65 0 -111.5 -32.5t-71.5 -93t-25 -145.5q0 -93 27.5 -156.5t75 -96t106.5 -32.5q44 0 92 19
t94 57l40 -60q-60 -51 -125 -75.5t-127 -24.5zM351 764q-27 0 -44.5 17t-17.5 48q0 32 18 48.5t45 16.5q28 0 45.5 -16.5t17.5 -48.5t-18.5 -48.5t-45.5 -16.5z" />
    <glyph glyph-name="cdotaccent" unicode="&#x10b;" horiz-adv-x="514" 
d="M272 -10q-65 0 -118 32t-83.5 92t-30.5 145q0 75 21.5 128t58 87t82.5 50t96 16q43 0 89.5 -11.5t79.5 -28.5l-4 -133h-66l-14 90l9 -8q-21 10 -47 14t-47 4q-49 0 -83.5 -24.5t-52.5 -70t-18 -107.5q0 -64 19.5 -109t53.5 -67.5t78 -22.5q34 0 73 14t81 43l35 -53
q-54 -41 -107 -60.5t-105 -19.5zM282 631q-27 0 -44.5 17t-17.5 48q0 32 18 48.5t45 16.5q28 0 45.5 -16.5t17.5 -48.5t-18.5 -48.5t-45.5 -16.5z" />
    <glyph glyph-name="Ccaron" unicode="&#x10c;" horiz-adv-x="641" 
d="M347 -10q-81 0 -147.5 41t-106 120.5t-39.5 195.5q0 114 39.5 195t110.5 124.5t166 43.5q50 0 104.5 -12.5t114.5 -38.5l-8 -164h-61l-20 121l18 -18q-38 16 -76 24t-70 8q-65 0 -111.5 -32.5t-71.5 -93t-25 -145.5q0 -93 27.5 -156.5t75 -96t106.5 -32.5q44 0 92 19
t94 57l40 -60q-60 -51 -125 -75.5t-127 -24.5zM491 924l34 -41l-140 -122l-58 -5l-149 127l35 41l176 -111l-68 1z" />
    <glyph glyph-name="ccaron" unicode="&#x10d;" horiz-adv-x="514" 
d="M272 -10q-65 0 -118 32t-83.5 92t-30.5 145q0 75 21.5 128t58 87t82.5 50t96 16q43 0 89.5 -11.5t79.5 -28.5l-4 -133h-66l-14 90l9 -8q-21 10 -47 14t-47 4q-49 0 -83.5 -24.5t-52.5 -70t-18 -107.5q0 -64 19.5 -109t53.5 -67.5t78 -22.5q34 0 73 14t81 43l35 -53
q-54 -41 -107 -60.5t-105 -19.5zM417 803l34 -39l-135 -133l-58 -5l-143 138l35 39l170 -122l-68 1z" />
    <glyph glyph-name="Dcaron" unicode="&#x10e;" horiz-adv-x="716" 
d="M348 700q69 0 126.5 -20.5t99.5 -62.5t65.5 -105.5t23.5 -150.5q0 -118 -42.5 -198.5t-117 -121.5t-172.5 -41h-286v53l97 23l-15 -22v589l16 -22l-98 21v53l201 5h102zM335 75q41 0 80 13t70.5 44t49.5 85.5t18 136.5q0 80 -17.5 132.5t-47 83t-66.5 43t-76 12.5h-134
l17 17v-584l-17 17h123zM463 924l34 -41l-140 -122l-58 -5l-149 127l35 41l176 -111l-68 1z" />
    <glyph glyph-name="dcaron" unicode="&#x10f;" horiz-adv-x="597" 
d="M240 -10q-56 0 -101 30.5t-70.5 90t-25.5 145.5q0 142 72 213t200 71q25 0 51.5 -3.5t54.5 -10.5l-20 -11v189l10 -12l-89 22v53l179 7v-715l-13 16l88 -21v-53l-152 -7l-14 86l11 -4q-45 -43 -89.5 -64.5t-91.5 -21.5zM277 65q32 0 66.5 17t70.5 51l-13 -32v373l13 -24
q-56 17 -102 17q-82 0 -123.5 -53.5t-41.5 -148.5q0 -62 16.5 -107t46 -69t67.5 -24zM614 574l-60 9q11 53 16.5 102t3.5 96l90 -5q-5 -42 -18 -93t-32 -109z" />
    <glyph glyph-name="Dcroat" unicode="&#x110;" horiz-adv-x="716" 
d="M45 322v70h337v-70h-337zM348 700q69 0 126.5 -20.5t99.5 -62.5t65.5 -105.5t23.5 -150.5q0 -118 -42.5 -198.5t-117 -121.5t-172.5 -41h-286v53l97 23l-15 -22v589l16 -22l-98 21v53l201 5h102zM335 75q41 0 80 13t70.5 44t49.5 85.5t18 136.5q0 80 -17.5 132.5t-47 83
t-66.5 43t-76 12.5h-134l17 17v-584l-17 17h123z" />
    <glyph glyph-name="dcroat" unicode="&#x111;" horiz-adv-x="597" 
d="M211 650h363v-57h-363v57zM240 -10q-56 0 -101 30.5t-70.5 89.5t-25.5 144q0 140 71 209.5t198 69.5q26 0 53 -3.5t56 -10.5l-20 -11v199l10 -10l-89 20v49l179 7v-715l-13 16l88 -21v-52l-152 -8l-14 86l11 -4q-45 -43 -89.5 -64t-91.5 -21zM277 65q32 0 66.5 16.5
t70.5 50.5l-13 -32v366l13 -23q-57 17 -104 17q-80 0 -121.5 -50t-41.5 -147q0 -61 16.5 -106t46 -68.5t67.5 -23.5z" />
    <glyph glyph-name="Emacron" unicode="&#x112;" horiz-adv-x="617" 
d="M494 172h62l-1 -172h-510v53l97 23l-15 -22v589l14 -21l-96 20v53l182 5h316v-165h-61l-19 105l20 -15h-271l17 17v-265l-17 17h257v-73h-257l17 20v-283l-17 17h284l-21 -17zM456 858v-71h-277v71h277z" />
    <glyph glyph-name="emacron" unicode="&#x113;" horiz-adv-x="549" 
d="M276 -10q-69 0 -121.5 30.5t-82 90t-29.5 145.5q0 88 30.5 151.5t87 98t132.5 34.5q73 0 119.5 -30t69 -82.5t22.5 -119.5q0 -13 -1 -26t-3 -30h-379v69h289l-9 -6q1 41 -10 75t-37 54.5t-69 20.5q-47 0 -78 -25.5t-46 -69.5t-15 -101q0 -61 17 -106.5t51.5 -71
t85.5 -25.5q36 0 78.5 14t87.5 42l35 -55q-56 -39 -113.5 -58t-111.5 -19zM423 739v-71h-277v71h277z" />
    <glyph glyph-name="Ebreve" unicode="&#x114;" horiz-adv-x="617" 
d="M494 172h62l-1 -172h-510v53l97 23l-15 -22v589l14 -21l-96 20v53l182 5h316v-165h-61l-19 105l20 -15h-271l17 17v-265l-17 17h257v-73h-257l17 20v-283l-17 17h284l-21 -17zM317 763q-35 0 -68 15t-54.5 45t-22.5 73l60 7q5 -38 32 -56t58 -18t55.5 17.5t27.5 52.5
l59 3q0 -46 -21 -77t-55 -46.5t-71 -15.5z" />
    <glyph glyph-name="ebreve" unicode="&#x115;" horiz-adv-x="549" 
d="M276 -10q-69 0 -121.5 30.5t-82 90t-29.5 145.5q0 88 30.5 151.5t87 98t132.5 34.5q73 0 119.5 -30t69 -82.5t22.5 -119.5q0 -13 -1 -26t-3 -30h-379v69h289l-9 -6q1 41 -10 75t-37 54.5t-69 20.5q-47 0 -78 -25.5t-46 -69.5t-15 -101q0 -61 17 -106.5t51.5 -71
t85.5 -25.5q36 0 78.5 14t87.5 42l35 -55q-56 -39 -113.5 -58t-111.5 -19zM285 629q-41 0 -73 17.5t-50.5 49.5t-19.5 73l61 7q4 -35 27 -55.5t58 -20.5q34 0 55 19.5t24 51.5l60 3q1 -42 -17 -75t-50 -51.5t-75 -18.5z" />
    <glyph glyph-name="Edotaccent" unicode="&#x116;" horiz-adv-x="617" 
d="M494 172h62l-1 -172h-510v53l97 23l-15 -22v589l14 -21l-96 20v53l182 5h316v-165h-61l-19 105l20 -15h-271l17 17v-265l-17 17h257v-73h-257l17 20v-283l-17 17h284l-21 -17zM316 764q-27 0 -44.5 17t-17.5 48q0 32 18 48.5t45 16.5q28 0 45.5 -16.5t17.5 -48.5
t-18.5 -48.5t-45.5 -16.5z" />
    <glyph glyph-name="edotaccent" unicode="&#x117;" horiz-adv-x="549" 
d="M276 -10q-69 0 -121.5 30.5t-82 90t-29.5 145.5q0 88 30.5 151.5t87 98t132.5 34.5q73 0 119.5 -30t69 -82.5t22.5 -119.5q0 -13 -1 -26t-3 -30h-379v69h289l-9 -6q1 41 -10 75t-37 54.5t-69 20.5q-47 0 -78 -25.5t-46 -69.5t-15 -101q0 -61 17 -106.5t51.5 -71
t85.5 -25.5q36 0 78.5 14t87.5 42l35 -55q-56 -39 -113.5 -58t-111.5 -19zM283 631q-27 0 -44.5 17t-17.5 48q0 32 18 48.5t45 16.5q28 0 45.5 -16.5t17.5 -48.5t-18.5 -48.5t-45.5 -16.5z" />
    <glyph glyph-name="Eogonek" unicode="&#x118;" horiz-adv-x="617" 
d="M494 172h62l-1 -172h-510v53l97 23l-15 -22v589l14 -21l-96 20v53l182 5h316v-165h-61l-19 105l20 -15h-271l17 17v-265l-17 17h257v-73h-257l17 20v-283l-17 17h284l-21 -17zM466 -221q-59 0 -90.5 28t-31.5 67q0 31 20 67t63 66.5t110 43.5l17 -51q-67 -13 -101.5 -42
t-34.5 -59q0 -25 21 -39.5t57 -14.5q11 0 23 1.5t25 3.5l6 -57q-23 -7 -44.5 -10.5t-39.5 -3.5z" />
    <glyph glyph-name="eogonek" unicode="&#x119;" horiz-adv-x="549" 
d="M276 -10q-69 0 -121.5 30.5t-82 90t-29.5 145.5q0 88 30.5 151.5t87 98t132.5 34.5q73 0 119.5 -30t69 -82.5t22.5 -119.5q0 -13 -1 -26t-3 -30h-379v69h289l-9 -6q1 41 -10 75t-37 54.5t-69 20.5q-47 0 -78 -25.5t-46 -69.5t-15 -101q0 -61 17 -106.5t51.5 -71
t85.5 -25.5q36 0 78.5 14t87.5 42l35 -55q-56 -39 -113.5 -58t-111.5 -19zM286 -221q-52 0 -84.5 25.5t-32.5 69.5q0 32 19.5 64.5t58 60.5t95.5 47l11 -46q-53 -19 -81.5 -48.5t-28.5 -55.5q0 -23 20.5 -37t51.5 -14q9 0 19 1.5t20 3.5l6 -58q-20 -7 -38.5 -10t-35.5 -3z
" />
    <glyph glyph-name="Ecaron" unicode="&#x11a;" horiz-adv-x="617" 
d="M494 172h62l-1 -172h-510v53l97 23l-15 -22v589l14 -21l-96 20v53l182 5h316v-165h-61l-19 105l20 -15h-271l17 17v-265l-17 17h257v-73h-257l17 20v-283l-17 17h284l-21 -17zM456 924l34 -41l-140 -122l-58 -5l-149 127l35 41l176 -111l-68 1z" />
    <glyph glyph-name="ecaron" unicode="&#x11b;" horiz-adv-x="549" 
d="M276 -10q-69 0 -121.5 30.5t-82 90t-29.5 145.5q0 88 30.5 151.5t87 98t132.5 34.5q73 0 119.5 -30t69 -82.5t22.5 -119.5q0 -13 -1 -26t-3 -30h-379v69h289l-9 -6q1 41 -10 75t-37 54.5t-69 20.5q-47 0 -78 -25.5t-46 -69.5t-15 -101q0 -61 17 -106.5t51.5 -71
t85.5 -25.5q36 0 78.5 14t87.5 42l35 -55q-56 -39 -113.5 -58t-111.5 -19zM418 803l34 -39l-135 -133l-58 -5l-143 138l35 39l170 -122l-68 1z" />
    <glyph glyph-name="Gcircumflex" unicode="&#x11c;" horiz-adv-x="731" 
d="M376 -9q-97 0 -169.5 40t-112.5 119t-40 194q0 116 40 198t115 125t179 43q55 0 115.5 -12.5t122.5 -39.5l-8 -163h-61l-20 120l16 -16q-39 14 -81 22.5t-80 8.5q-70 0 -121.5 -33t-79 -96t-27.5 -155q0 -131 59 -203t166 -72q34 0 72 7.5t79 23.5l-13 -23v207l18 -18
l-100 15v55l257 5v-55l-91 -21l12 19v-241q-66 -28 -128.5 -41t-118.5 -13zM236 746l-34 41l140 123l58 5l149 -128l-35 -41l-176 112l68 -1z" />
    <glyph glyph-name="gcircumflex" unicode="&#x11d;" horiz-adv-x="564" 
d="M262 -240q-119 0 -178 33.5t-59 97.5q0 47 31.5 81.5t92.5 59.5v-20q-34 2 -53.5 15.5t-19.5 37.5q0 8 2.5 16.5t9 23.5t18.5 39l31 62l2 -17q-45 23 -69 63.5t-24 95.5q0 89 59.5 140.5t164.5 51.5q72 0 124 -25l-25 5l160 7l1 -59l-88 -17l7 14q19 -19 29 -46.5
t10 -62.5q0 -90 -61 -141.5t-162 -51.5q-55 0 -103 17l23 11l-23 -123l-21 10h197q98 0 148.5 -38t50.5 -109q0 -83 -69 -127t-206 -44zM271 -165q88 0 129 22t41 66q0 39 -30 59t-89 20h-164l26 6q-71 -45 -71 -97q0 -38 38.5 -57t119.5 -19zM264 232q59 0 91.5 31.5
t32.5 90.5t-30.5 88t-88.5 29q-59 0 -90.5 -30.5t-31.5 -89.5q0 -58 30 -88.5t87 -30.5zM135 625l-35 39l139 133l58 5l146 -138l-36 -39l-172 123l68 -1z" />
    <glyph glyph-name="Gbreve" unicode="&#x11e;" horiz-adv-x="731" 
d="M376 -9q-97 0 -169.5 40t-112.5 119t-40 194q0 116 40 198t115 125t179 43q55 0 115.5 -12.5t122.5 -39.5l-8 -163h-61l-20 120l16 -16q-39 14 -81 22.5t-80 8.5q-70 0 -121.5 -33t-79 -96t-27.5 -155q0 -131 59 -203t166 -72q34 0 72 7.5t79 23.5l-13 -23v207l18 -18
l-100 15v55l257 5v-55l-91 -21l12 19v-241q-66 -28 -128.5 -41t-118.5 -13zM374 763q-35 0 -68 15t-54.5 45t-22.5 73l60 7q5 -38 32 -56t58 -18t55.5 17.5t27.5 52.5l59 3q0 -46 -21 -77t-55 -46.5t-71 -15.5z" />
    <glyph glyph-name="gbreve" unicode="&#x11f;" horiz-adv-x="564" 
d="M262 -240q-119 0 -178 33.5t-59 97.5q0 47 31.5 81.5t92.5 59.5v-20q-34 2 -53.5 15.5t-19.5 37.5q0 8 2.5 16.5t9 23.5t18.5 39l31 62l2 -17q-45 23 -69 63.5t-24 95.5q0 89 59.5 140.5t164.5 51.5q72 0 124 -25l-25 5l160 7l1 -59l-88 -17l7 14q19 -19 29 -46.5
t10 -62.5q0 -90 -61 -141.5t-162 -51.5q-55 0 -103 17l23 11l-23 -123l-21 10h197q98 0 148.5 -38t50.5 -109q0 -83 -69 -127t-206 -44zM271 -165q88 0 129 22t41 66q0 39 -30 59t-89 20h-164l26 6q-71 -45 -71 -97q0 -38 38.5 -57t119.5 -19zM264 232q59 0 91.5 31.5
t32.5 90.5t-30.5 88t-88.5 29q-59 0 -90.5 -30.5t-31.5 -89.5q0 -58 30 -88.5t87 -30.5zM270 629q-41 0 -73 17.5t-50.5 49.5t-19.5 73l61 7q4 -35 27 -55.5t58 -20.5q34 0 55 19.5t24 51.5l60 3q1 -42 -17 -75t-50 -51.5t-75 -18.5z" />
    <glyph glyph-name="Gdotaccent" unicode="&#x120;" horiz-adv-x="731" 
d="M376 -9q-97 0 -169.5 40t-112.5 119t-40 194q0 116 40 198t115 125t179 43q55 0 115.5 -12.5t122.5 -39.5l-8 -163h-61l-20 120l16 -16q-39 14 -81 22.5t-80 8.5q-70 0 -121.5 -33t-79 -96t-27.5 -155q0 -131 59 -203t166 -72q34 0 72 7.5t79 23.5l-13 -23v207l18 -18
l-100 15v55l257 5v-55l-91 -21l12 19v-241q-66 -28 -128.5 -41t-118.5 -13zM374 764q-27 0 -44.5 17t-17.5 48q0 32 18 48.5t45 16.5q28 0 45.5 -16.5t17.5 -48.5t-18.5 -48.5t-45.5 -16.5z" />
    <glyph glyph-name="gdotaccent" unicode="&#x121;" horiz-adv-x="564" 
d="M262 -240q-119 0 -178 33.5t-59 97.5q0 47 31.5 81.5t92.5 59.5v-20q-34 2 -53.5 15.5t-19.5 37.5q0 8 2.5 16.5t9 23.5t18.5 39l31 62l2 -17q-45 23 -69 63.5t-24 95.5q0 89 59.5 140.5t164.5 51.5q72 0 124 -25l-25 5l160 7l1 -59l-88 -17l7 14q19 -19 29 -46.5
t10 -62.5q0 -90 -61 -141.5t-162 -51.5q-55 0 -103 17l23 11l-23 -123l-21 10h197q98 0 148.5 -38t50.5 -109q0 -83 -69 -127t-206 -44zM271 -165q88 0 129 22t41 66q0 39 -30 59t-89 20h-164l26 6q-71 -45 -71 -97q0 -38 38.5 -57t119.5 -19zM264 232q59 0 91.5 31.5
t32.5 90.5t-30.5 88t-88.5 29q-59 0 -90.5 -30.5t-31.5 -89.5q0 -58 30 -88.5t87 -30.5zM268 631q-27 0 -44.5 17t-17.5 48q0 32 18 48.5t45 16.5q28 0 45.5 -16.5t17.5 -48.5t-18.5 -48.5t-45.5 -16.5z" />
    <glyph glyph-name="uni0122" unicode="&#x122;" horiz-adv-x="731" 
d="M376 -9q-97 0 -169.5 40t-112.5 119t-40 194q0 116 40 198t115 125t179 43q55 0 115.5 -12.5t122.5 -39.5l-8 -163h-61l-20 120l16 -16q-39 14 -81 22.5t-80 8.5q-70 0 -121.5 -33t-79 -96t-27.5 -155q0 -131 59 -203t166 -72q34 0 72 7.5t79 23.5l-13 -23v207l18 -18
l-100 15v55l257 5v-55l-91 -21l12 19v-241q-66 -28 -128.5 -41t-118.5 -13zM344 -290l-36 23q20 33 27 52t7 30t-5.5 19.5t-11.5 18.5t-6 27q0 27 17.5 40.5t38.5 13.5t39 -14.5t18 -44.5q0 -29 -20.5 -70.5t-67.5 -94.5z" />
    <glyph glyph-name="uni0123" unicode="&#x123;" horiz-adv-x="564" 
d="M262 -240q-119 0 -178 33.5t-59 97.5q0 47 31.5 81.5t92.5 59.5v-20q-34 2 -53.5 15.5t-19.5 37.5q0 8 2.5 16.5t9 23.5t18.5 39l31 62l2 -17q-45 23 -69 63.5t-24 95.5q0 89 59.5 140.5t164.5 51.5q72 0 124 -25l-25 5l160 7l1 -59l-88 -17l7 14q19 -19 29 -46.5
t10 -62.5q0 -90 -61 -141.5t-162 -51.5q-55 0 -103 17l23 11l-23 -123l-21 10h197q98 0 148.5 -38t50.5 -109q0 -83 -69 -127t-206 -44zM271 -165q88 0 129 22t41 66q0 39 -30 59t-89 20h-164l26 6q-71 -45 -71 -97q0 -38 38.5 -57t119.5 -19zM264 232q59 0 91.5 31.5
t32.5 90.5t-30.5 88t-88.5 29q-59 0 -90.5 -30.5t-31.5 -89.5q0 -58 30 -88.5t87 -30.5zM301 856l36 -23q-20 -32 -27 -51.5t-7 -30.5t5.5 -19.5t11.5 -18.5t6 -27q0 -27 -17.5 -41t-38.5 -14t-39 15t-18 44q0 30 20.5 71.5t67.5 94.5z" />
    <glyph glyph-name="Hcircumflex" unicode="&#x124;" horiz-adv-x="793" 
d="M45 0v53l97 23l-15 -22v590l18 -23l-100 21v53l266 5v-53l-99 -26l17 23v-267l-17 17h370l-18 -17v267l18 -22l-100 20v53l267 5v-53l-98 -25l16 22v-590l-16 22l98 -23v-53h-267v53l97 23l-15 -22v282l18 -17h-370l17 17v-282l-15 22l97 -23v-53h-266zM256 746l-34 41
l140 123l58 5l149 -128l-35 -41l-176 112l68 -1z" />
    <glyph glyph-name="hcircumflex" unicode="&#x125;" horiz-adv-x="623" 
d="M21 0v53l89 21l-14 -17v654l14 -18l-89 21v53l175 7v-337l-22 5q48 50 102.5 74t103.5 24q44 0 79.5 -18.5t55.5 -55t19 -93.5v-316l-11 16l86 -20v-53h-245v53l83 20l-13 -17v295q1 58 -25.5 85t-69.5 27q-33 0 -73 -18.5t-78 -57.5l8 19v-350l-11 16l81 -19v-53h-245z
M-3 794l-34 41l140 123l58 5l149 -128l-35 -41l-176 112l68 -1z" />
    <glyph glyph-name="Hbar" unicode="&#x126;" horiz-adv-x="803" 
d="M50 487v53h704v-53h-704zM50 0v53l97 23l-15 -22v590l18 -23l-100 21v53l266 5v-53l-99 -26l17 23v-276l-17 17h370l-18 -17v276l18 -22l-100 20v53l267 5v-53l-98 -25l16 22v-590l-16 22l98 -23v-53h-267v53l97 23l-15 -22v275l18 -17h-370l17 17v-275l-15 22l97 -23
v-53h-266z" />
    <glyph glyph-name="hbar" unicode="&#x127;" horiz-adv-x="623" 
d="M19 650h361v-57h-361v57zM23 0v53l88 21l-13 -17v658l13 -16l-88 19v49l175 7v-344l-19 5q49 51 103 74.5t102 23.5q44 0 78.5 -18.5t54.5 -54.5t19 -90v-313l-11 16l81 -20v-53h-240v53l83 20l-13 -17v295q1 54 -24.5 79.5t-68.5 25.5q-33 0 -73.5 -18.5t-79.5 -57.5
l8 18v-342l-11 16l81 -19v-53h-245z" />
    <glyph glyph-name="Itilde" unicode="&#x128;" horiz-adv-x="355" 
d="M311 647l-94 -24l12 16v-581l-12 17l94 -22v-53h-266v53l93 21l-11 -16v581l14 -17l-96 20v53l266 5v-53zM49 775l-44 20q18 51 42 73.5t56 22.5q26 0 51 -11t48 -21.5t42 -10.5q17 0 31.5 10t29.5 35l44 -19q-19 -52 -44.5 -74.5t-57.5 -22.5q-25 0 -49 11t-47 21.5
t-44 10.5q-17 0 -30 -11t-28 -34z" />
    <glyph glyph-name="itilde" unicode="&#x129;" horiz-adv-x="305" 
d="M209 61l-9 12l84 -20v-53h-249v53l84 20l-10 -12v403l9 -9l-83 19v53l174 6v-472zM206 646q-24 0 -43 12.5t-36 25t-38 12.5q-17 0 -31 -11.5t-28 -36.5l-44 19q17 53 43 78t56 25q26 0 44.5 -12t36 -24.5t37.5 -12.5q16 0 31 12t29 36l43 -18q-16 -53 -42 -79t-58 -26z
" />
    <glyph glyph-name="Imacron" unicode="&#x12a;" horiz-adv-x="355" 
d="M311 647l-94 -24l12 16v-581l-12 17l94 -22v-53h-266v53l93 21l-11 -16v581l14 -17l-96 20v53l266 5v-53zM316 858v-71h-277v71h277z" />
    <glyph glyph-name="imacron" unicode="&#x12b;" horiz-adv-x="305" 
d="M279 739v-71h-240v71h240zM209 61l-9 12l84 -20v-53h-249v53l84 20l-10 -12v403l9 -9l-83 19v53l174 6v-472z" />
    <glyph glyph-name="Ibreve" unicode="&#x12c;" horiz-adv-x="355" 
d="M311 647l-94 -24l12 16v-581l-12 17l94 -22v-53h-266v53l93 21l-11 -16v581l14 -17l-96 20v53l266 5v-53zM176 763q-35 0 -68 15t-54.5 45t-22.5 73l60 7q5 -38 32 -56t58 -18t55.5 17.5t27.5 52.5l59 3q0 -46 -21 -77t-55 -46.5t-71 -15.5z" />
    <glyph glyph-name="ibreve" unicode="&#x12d;" horiz-adv-x="305" 
d="M209 61l-9 12l84 -20v-53h-249v53l84 20l-10 -12v403l9 -9l-83 19v53l174 6v-472zM155 629q-41 0 -73 17.5t-50.5 49.5t-19.5 73l61 7q4 -35 27 -55.5t58 -20.5q34 0 55 19.5t24 51.5l60 3q1 -42 -17 -75t-50 -51.5t-75 -18.5z" />
    <glyph glyph-name="Iogonek" unicode="&#x12e;" horiz-adv-x="355" 
d="M311 647l-94 -24l12 16v-581l-12 17l94 -22v-53h-266v53l93 21l-11 -16v581l14 -17l-96 20v53l266 5v-53zM202 -221q-52 0 -84.5 25.5t-32.5 69.5q0 32 19.5 64.5t58 60.5t95.5 47l11 -46q-53 -19 -81.5 -48.5t-28.5 -55.5q0 -23 20.5 -37t51.5 -14q9 0 19 1.5t20 3.5
l6 -58q-20 -7 -38.5 -10t-35.5 -3z" />
    <glyph glyph-name="iogonek" unicode="&#x12f;" horiz-adv-x="305" 
d="M209 61l-9 12l84 -20v-53h-249v53l84 20l-10 -12v403l9 -9l-83 19v53l174 6v-472zM154 631q-27 0 -44.5 17t-17.5 48q0 32 18 48.5t45 16.5q28 0 45.5 -16.5t17.5 -48.5t-18.5 -48.5t-45.5 -16.5zM179 -221q-52 0 -84.5 25.5t-32.5 69.5q0 32 19.5 64.5t58 60.5t95.5 47
l11 -46q-53 -19 -81.5 -48.5t-28.5 -55.5q0 -23 20.5 -37t51.5 -14q9 0 19 1.5t20 3.5l6 -58q-20 -7 -38.5 -10t-35.5 -3z" />
    <glyph glyph-name="Idotaccent" unicode="&#x130;" horiz-adv-x="355" 
d="M311 647l-94 -24l12 16v-581l-12 17l94 -22v-53h-266v53l93 21l-11 -16v581l14 -17l-96 20v53l266 5v-53zM176 764q-27 0 -44.5 17t-17.5 48q0 32 18 48.5t45 16.5q28 0 45.5 -16.5t17.5 -48.5t-18.5 -48.5t-45.5 -16.5z" />
    <glyph glyph-name="dotlessi" unicode="&#x131;" horiz-adv-x="305" 
d="M209 61l-9 12l84 -20v-53h-249v53l84 20l-10 -12v403l9 -9l-83 19v53l174 6v-472z" />
    <glyph glyph-name="IJ" unicode="&#x132;" horiz-adv-x="703" 
d="M311 647l-94 -24l12 16v-581l-12 17l94 -22v-53h-266v53l93 21l-11 -16v581l14 -17l-96 20v53l266 5v-53zM395 695l274 5v-52l-95 -26l13 22v-572q0 -54 -9.5 -95.5t-31.5 -70t-57 -43.5t-86 -15q-16 0 -31.5 1.5t-32.5 4.5l9 74q9 -1 17 -2t17 -1q56 0 79.5 31t23.5 96
v592l13 -20l-103 18v53z" />
    <glyph glyph-name="ij" unicode="&#x133;" horiz-adv-x="587" 
d="M209 61l-9 12l84 -20v-53h-249v53l84 20l-10 -12v403l9 -9l-83 19v53l174 6v-472zM154 631q-27 0 -44.5 17t-17.5 48q0 32 18 48.5t45 16.5q28 0 45.5 -16.5t17.5 -48.5t-18.5 -48.5t-45.5 -16.5zM317 -240q-13 0 -26.5 1.5t-28.5 3.5l8 72q10 -1 19.5 -1.5t17.5 -0.5
q53 0 75.5 25.5t22.5 86.5v521l11 -14l-86 20v53l175 6v-555q0 -56 -11.5 -97t-35 -67.5t-59 -40t-82.5 -13.5zM446 631q-27 0 -44.5 17t-17.5 48q0 32 18 48.5t45 16.5q28 0 45.5 -16.5t17.5 -48.5t-18.5 -48.5t-45.5 -16.5z" />
    <glyph glyph-name="Jcircumflex" unicode="&#x134;" horiz-adv-x="335" 
d="M27 695l274 5v-52l-95 -26l13 22v-572q0 -54 -9.5 -95.5t-31.5 -70t-57 -43.5t-86 -15q-16 0 -31.5 1.5t-32.5 4.5l9 74q9 -1 17 -2t17 -1q56 0 79.5 31t23.5 96v592l13 -20l-103 18v53zM25 746l-34 41l140 123l58 5l149 -128l-35 -41l-176 112l68 -1z" />
    <glyph glyph-name="jcircumflex" unicode="&#x135;" horiz-adv-x="278" 
d="M26 625l-37 39l118 133l58 5l126 -138l-38 -39l-150 123l68 -1zM8 -240q-13 0 -26.5 1.5t-28.5 3.5l8 72q10 -1 19.5 -1.5t17.5 -0.5q53 0 75.5 25.5t22.5 86.5v521l11 -14l-86 20v53l175 6v-555q0 -56 -11.5 -97t-35 -67.5t-59 -40t-82.5 -13.5z" />
    <glyph glyph-name="uni0136" unicode="&#x136;" horiz-adv-x="712" 
d="M636 53l-30 22l92 -22v-53h-261v53l85 22l-4 -18l-192 284l30 -20h-144l17 21v-288l-15 23l95 -24v-53h-264v53l95 22l-13 -21v590l12 -20l-94 18v53l264 5v-52l-94 -25l14 24v-269l-17 18h148l-28 -18l159 265l9 -16l-92 15v53l252 5v-53l-93 -24l24 19l-181 -292v28z
M318 -290l-36 23q20 33 27 52t7 30t-5.5 19.5t-11.5 18.5t-6 27q0 27 17.5 40.5t38.5 13.5t39 -14.5t18 -44.5q0 -29 -20.5 -70.5t-67.5 -94.5z" />
    <glyph glyph-name="uni0137" unicode="&#x137;" horiz-adv-x="576" 
d="M21 0v53l89 21l-14 -20v654l9 -13l-84 19v53l175 7v-463l-18 15h135l-25 -12l100 160l8 -12l-78 12v53l228 7v-52l-88 -19l28 17l-122 -192v28l143 -259l-17 15l80 -20v-52h-137l-142 266l18 -8h-131l18 9v-213l-12 20l84 -21v-53h-247zM273 -290l-36 23q20 33 27 52
t7 30t-5.5 19.5t-11.5 18.5t-6 27q0 27 17.5 40.5t38.5 13.5t39 -14.5t18 -44.5q0 -29 -20.5 -70.5t-67.5 -94.5z" />
    <glyph glyph-name="kgreenlandic" unicode="&#x138;" horiz-adv-x="592" 
d="M35 0v53l88 21l-14 -20v414l10 -13l-84 19v53l174 7v-223l-17 13h134l-25 -12l101 162l5 -12l-77 12v53l229 7v-52l-90 -19l31 17l-123 -194l2 26l142 -255l-17 15l83 -20v-52h-141l-141 266l17 -11h-130l17 12v-213l-12 20l92 -21v-53h-254z" />
    <glyph glyph-name="Lacute" unicode="&#x139;" horiz-adv-x="555" 
d="M468 189h62v-189h-485v53l95 22l-13 -21v589l13 -21l-95 20v53l276 5v-53l-104 -25l12 21v-585l-17 17h252l-16 -18zM88 751l-30 55l211 122l41 -80z" />
    <glyph glyph-name="lacute" unicode="&#x13a;" horiz-adv-x="292" 
d="M196 61l-9 12l83 -20v-53h-249v53l84 20l-9 -12v643l8 -9l-83 19v53l175 7v-713zM48 795l-30 55l211 122l41 -80z" />
    <glyph glyph-name="uni013B" unicode="&#x13b;" horiz-adv-x="555" 
d="M468 189h62v-189h-485v53l95 22l-13 -21v589l13 -21l-95 20v53l276 5v-53l-104 -25l12 21v-585l-17 17h252l-16 -18zM274 -290l-36 23q20 33 27 52t7 30t-5.5 19.5t-11.5 18.5t-6 27q0 27 17.5 40.5t38.5 13.5t39 -14.5t18 -44.5q0 -29 -20.5 -70.5t-67.5 -94.5z" />
    <glyph glyph-name="uni013C" unicode="&#x13c;" horiz-adv-x="292" 
d="M196 61l-9 12l83 -20v-53h-249v53l84 20l-9 -12v643l8 -9l-83 19v53l175 7v-713zM111 -290l-36 23q20 33 27 52t7 30t-5.5 19.5t-11.5 18.5t-6 27q0 27 17.5 40.5t38.5 13.5t39 -14.5t18 -44.5q0 -29 -20.5 -70.5t-67.5 -94.5z" />
    <glyph glyph-name="Lcaron" unicode="&#x13d;" horiz-adv-x="555" 
d="M468 189h62v-189h-485v53l95 22l-13 -21v589l13 -21l-95 20v53l276 5v-53l-104 -25l12 21v-585l-17 17h252l-16 -18zM453 504l-60 9q11 53 16.5 102t3.5 96l90 -5q-5 -42 -18 -93t-32 -109z" />
    <glyph glyph-name="lcaron" unicode="&#x13e;" horiz-adv-x="292" 
d="M196 61l-9 12l83 -20v-53h-249v53l84 20l-9 -12v643l8 -9l-83 19v53l175 7v-713zM308 574l-60 9q11 53 16.5 102t3.5 96l90 -5q-5 -42 -18 -93t-32 -109z" />
    <glyph glyph-name="Ldot" unicode="&#x13f;" horiz-adv-x="578" 
d="M468 189h62v-189h-485v53l95 22l-13 -21v589l13 -21l-95 20v53l276 5v-53l-104 -25l12 21v-585l-17 17h252l-16 -18zM391 393q0 28 18.5 44.5t42.5 16.5q29 0 45.5 -16.5t16.5 -44.5t-18.5 -44.5t-43.5 -16.5q-28 0 -44.5 16.5t-16.5 44.5z" />
    <glyph glyph-name="ldot" unicode="&#x140;" horiz-adv-x="412" 
d="M196 61l-9 12l83 -20v-53h-249v53l84 20l-9 -12v643l8 -9l-83 19v53l175 7v-713zM351 312q-27 0 -44.5 17t-17.5 48q0 32 18 48.5t45 16.5q28 0 45.5 -16.5t17.5 -48.5t-18.5 -48.5t-45.5 -16.5z" />
    <glyph glyph-name="Lslash" unicode="&#x141;" horiz-adv-x="573" 
d="M42 288l358 199l24 -54l-358 -199zM486 189h62v-189h-485v53l96 22l-14 -21v589l14 -21l-96 20v53l276 5v-53l-104 -25l13 21v-585l-18 17h252l-16 -18z" />
    <glyph glyph-name="lslash" unicode="&#x142;" horiz-adv-x="346" 
d="M50 304l-20 58l270 129l20 -58zM223 61l-10 12l84 -20v-53h-249v53l84 20l-9 -12v643l8 -9l-83 19v53l175 7v-713z" />
    <glyph glyph-name="Nacute" unicode="&#x143;" horiz-adv-x="785" 
d="M503 695l250 5v-53l-98 -25l16 22v-644h-116l-357 592h15v-538l-17 22l99 -23v-53h-250v53l99 23l-17 -22v590l12 -21l-94 19v53l204 5l351 -581l-15 -1v526l17 -21l-99 19v53zM315 751l-30 55l211 122l41 -80z" />
    <glyph glyph-name="nacute" unicode="&#x144;" horiz-adv-x="637" 
d="M35 0v53l88 21l-14 -17v414l14 -18l-88 21v53l152 7l13 -97l-13 5q49 50 103.5 74t103.5 24q67 0 111 -41t43 -127v-315l-11 16l85 -20v-53h-244v53l83 20l-13 -17v295q0 58 -26 85t-69 27q-34 0 -73.5 -18.5t-77.5 -56.5l7 18v-350l-11 16l81 -19v-53h-244zM265 615
l-36 50l191 150l54 -73z" />
    <glyph glyph-name="uni0145" unicode="&#x145;" horiz-adv-x="785" 
d="M503 695l250 5v-53l-98 -25l16 22v-644h-116l-357 592h15v-538l-17 22l99 -23v-53h-250v53l99 23l-17 -22v590l12 -21l-94 19v53l204 5l351 -581l-15 -1v526l17 -21l-99 19v53zM364 -290l-36 23q20 33 27 52t7 30t-5.5 19.5t-11.5 18.5t-6 27q0 27 17.5 40.5t38.5 13.5
t39 -14.5t18 -44.5q0 -29 -20.5 -70.5t-67.5 -94.5z" />
    <glyph glyph-name="uni0146" unicode="&#x146;" horiz-adv-x="637" 
d="M35 0v53l88 21l-14 -17v414l14 -18l-88 21v53l152 7l13 -97l-13 5q49 50 103.5 74t103.5 24q67 0 111 -41t43 -127v-315l-11 16l85 -20v-53h-244v53l83 20l-13 -17v295q0 58 -26 85t-69 27q-34 0 -73.5 -18.5t-77.5 -56.5l7 18v-350l-11 16l81 -19v-53h-244zM292 -290
l-36 23q20 33 27 52t7 30t-5.5 19.5t-11.5 18.5t-6 27q0 27 17.5 40.5t38.5 13.5t39 -14.5t18 -44.5q0 -29 -20.5 -70.5t-67.5 -94.5z" />
    <glyph glyph-name="Ncaron" unicode="&#x147;" horiz-adv-x="785" 
d="M503 695l250 5v-53l-98 -25l16 22v-644h-116l-357 592h15v-538l-17 22l99 -23v-53h-250v53l99 23l-17 -22v590l12 -21l-94 19v53l204 5l351 -581l-15 -1v526l17 -21l-99 19v53zM544 924l34 -41l-140 -122l-58 -5l-149 127l35 41l176 -111l-68 1z" />
    <glyph glyph-name="ncaron" unicode="&#x148;" horiz-adv-x="637" 
d="M35 0v53l88 21l-14 -17v414l14 -18l-88 21v53l152 7l13 -97l-13 5q49 50 103.5 74t103.5 24q67 0 111 -41t43 -127v-315l-11 16l85 -20v-53h-244v53l83 20l-13 -17v295q0 58 -26 85t-69 27q-34 0 -73.5 -18.5t-77.5 -56.5l7 18v-350l-11 16l81 -19v-53h-244zM461 803
l34 -39l-135 -133l-58 -5l-143 138l35 39l170 -122l-68 1z" />
    <glyph glyph-name="napostrophe" unicode="&#x149;" horiz-adv-x="747" 
d="M40 729q0 26 15.5 39.5t34.5 13.5q21 0 38 -15t17 -45q0 -29 -20.5 -76t-70.5 -106l-33 21q26 44 33.5 67.5t7.5 34.5t-5.5 20t-11 19.5t-5.5 26.5zM145 0v53l88 21l-14 -17v414l14 -18l-88 21v53l152 7l13 -97l-13 5q49 50 103.5 74t103.5 24q67 0 111 -41t43 -127v-315
l-11 16l85 -20v-53h-244v53l83 20l-13 -17v295q0 58 -26 85t-69 27q-34 0 -73.5 -18.5t-77.5 -56.5l7 18v-350l-11 16l81 -19v-53h-244z" />
    <glyph glyph-name="Eng" unicode="&#x14a;" horiz-adv-x="796" 
d="M488 -240q-15 0 -29.5 1t-28.5 4l8 72q11 -1 20.5 -1.5t18.5 -0.5q52 0 75 22t23 74v87l7 -32l-379 592l13 1v-525l-17 22l112 -23v-53h-266v53l103 23l-17 -22v590l12 -21l-98 19v53l204 5l355 -569l-13 -1v514l17 -21l-112 19v53l266 5v-53l-102 -25l16 22v-701
q0 -69 -27 -109t-70 -57t-91 -17z" />
    <glyph glyph-name="eng" unicode="&#x14b;" horiz-adv-x="624" 
d="M359 -240q-13 0 -27.5 1.5t-30.5 3.5l8 73q12 -2 22.5 -2.5t19.5 -0.5q52 0 74.5 25.5t22.5 86.5v404q0 58 -26 85t-69 27q-34 0 -73.5 -18.5t-77.5 -56.5l7 18v-350l-11 16l81 -19v-53h-244v53l88 21l-14 -17v414l14 -18l-88 21v53l152 7l13 -97l-13 5q49 50 103.5 74
t103.5 24q67 0 110.5 -41t43.5 -127v-394q0 -56 -12 -97t-35.5 -67.5t-58.5 -40t-83 -13.5z" />
    <glyph glyph-name="Omacron" unicode="&#x14c;" horiz-adv-x="741" 
d="M359 -10q-89 0 -158 39.5t-108 118t-39 194.5q0 92 24.5 161t68.5 115t102.5 69t126.5 23q67 0 124 -22t99 -65.5t65 -109t23 -151.5q0 -117 -42.5 -200.5t-116.5 -127.5t-169 -44zM366 70q58 0 106 29t76.5 92.5t28.5 165.5q0 97 -26.5 157t-73 88t-105.5 28
q-58 0 -105 -28.5t-75 -90.5t-28 -165q0 -97 26.5 -157.5t72 -89.5t103.5 -29zM512 858v-71h-277v71h277z" />
    <glyph glyph-name="omacron" unicode="&#x14d;" horiz-adv-x="576" 
d="M295 540q112 0 176 -69.5t64 -196.5q0 -86 -31 -150t-88.5 -99t-138.5 -35q-111 0 -173 68.5t-62 195.5q0 89 30 153t86.5 98.5t136.5 34.5zM290 467q-71 0 -107.5 -53.5t-36.5 -154.5q0 -99 35 -147.5t102 -48.5q49 0 81.5 24t49 70.5t16.5 111.5q0 99 -36 148.5
t-104 49.5zM426 739v-71h-277v71h277z" />
    <glyph glyph-name="Obreve" unicode="&#x14e;" horiz-adv-x="741" 
d="M359 -10q-89 0 -158 39.5t-108 118t-39 194.5q0 92 24.5 161t68.5 115t102.5 69t126.5 23q67 0 124 -22t99 -65.5t65 -109t23 -151.5q0 -117 -42.5 -200.5t-116.5 -127.5t-169 -44zM366 70q58 0 106 29t76.5 92.5t28.5 165.5q0 97 -26.5 157t-73 88t-105.5 28
q-58 0 -105 -28.5t-75 -90.5t-28 -165q0 -97 26.5 -157.5t72 -89.5t103.5 -29zM373 763q-35 0 -68 15t-54.5 45t-22.5 73l60 7q5 -38 32 -56t58 -18t55.5 17.5t27.5 52.5l59 3q0 -46 -21 -77t-55 -46.5t-71 -15.5z" />
    <glyph glyph-name="obreve" unicode="&#x14f;" horiz-adv-x="576" 
d="M295 540q112 0 176 -69.5t64 -196.5q0 -86 -31 -150t-88.5 -99t-138.5 -35q-111 0 -173 68.5t-62 195.5q0 89 30 153t86.5 98.5t136.5 34.5zM290 467q-71 0 -107.5 -53.5t-36.5 -154.5q0 -99 35 -147.5t102 -48.5q49 0 81.5 24t49 70.5t16.5 111.5q0 99 -36 148.5
t-104 49.5zM288 629q-41 0 -73 17.5t-50.5 49.5t-19.5 73l61 7q4 -35 27 -55.5t58 -20.5q34 0 55 19.5t24 51.5l60 3q1 -42 -17 -75t-50 -51.5t-75 -18.5z" />
    <glyph glyph-name="Ohungarumlaut" unicode="&#x150;" horiz-adv-x="741" 
d="M359 -10q-89 0 -158 39.5t-108 118t-39 194.5q0 92 24.5 161t68.5 115t102.5 69t126.5 23q67 0 124 -22t99 -65.5t65 -109t23 -151.5q0 -117 -42.5 -200.5t-116.5 -127.5t-169 -44zM366 70q58 0 106 29t76.5 92.5t28.5 165.5q0 97 -26.5 157t-73 88t-105.5 28
q-58 0 -105 -28.5t-75 -90.5t-28 -165q0 -97 26.5 -157.5t72 -89.5t103.5 -29zM460 743l-53 27l78 174l71 -38zM313 743l-54 26l72 175l74 -35z" />
    <glyph glyph-name="ohungarumlaut" unicode="&#x151;" horiz-adv-x="576" 
d="M295 540q112 0 176 -69.5t64 -196.5q0 -86 -31 -150t-88.5 -99t-138.5 -35q-111 0 -173 68.5t-62 195.5q0 89 30 153t86.5 98.5t136.5 34.5zM290 467q-71 0 -107.5 -53.5t-36.5 -154.5q0 -99 35 -147.5t102 -48.5q49 0 81.5 24t49 70.5t16.5 111.5q0 99 -36 148.5
t-104 49.5zM378 615l-53 27l78 174l71 -38zM231 615l-54 26l72 175l74 -35z" />
    <glyph glyph-name="OE" unicode="&#x152;" horiz-adv-x="937" 
d="M358 -4q-91 0 -159.5 38t-106.5 115t-38 194q0 123 42 203t116.5 119t172.5 39q14 0 38 -1t49.5 -1.5t47.5 -1t32 -0.5h311v-165h-62l-18 105l20 -15h-267l18 17v-258l-18 17h252v-73h-252l18 18v-288l-18 17h280l-21 -17l19 114h61l-1 -172h-359q-11 0 -30.5 -0.5
t-42.5 -1.5t-45 -1.5t-39 -0.5zM451 54v593l22 -29q-12 2 -27.5 3t-32 2t-31.5 1q-49 0 -89 -14.5t-69 -47t-44.5 -85.5t-15.5 -131q0 -97 25 -157t71.5 -87t109.5 -27q17 0 37.5 1.5t37.5 3t23 2.5z" />
    <glyph glyph-name="oe" unicode="&#x153;" horiz-adv-x="939" 
d="M279 -10q-111 0 -174 66.5t-63 196.5q0 91 31 154.5t88 97.5t136 34q88 0 141 -37.5t72 -107.5l-32 1q26 70 79 107.5t130 37.5q69 0 115.5 -28.5t70 -80.5t23.5 -122q0 -12 -1 -27t-3 -30h-373l23 21v-10.5v-13.5q0 -54 18 -95t52.5 -64.5t81.5 -23.5q35 0 77 14t87 43
l35 -56q-56 -39 -113 -58t-109 -19q-76 0 -128 39t-73 112l34 -2q-25 -70 -79 -109.5t-146 -39.5zM286 63q47 0 80.5 22t51.5 68.5t18 117.5q0 66 -16 109.5t-47 65t-77 21.5t-79.5 -22t-52 -67.5t-18.5 -118.5q0 -66 16 -109.5t47.5 -65t76.5 -21.5zM542 297l-22 24h282
l-9 -6q1 38 -9.5 73t-36 57t-70.5 22q-44 0 -73 -22.5t-44 -61t-18 -86.5z" />
    <glyph glyph-name="Racute" unicode="&#x154;" horiz-adv-x="661" 
d="M45 0v53l96 22l-14 -21v589l19 -22l-101 21v53l188 5h110q116 0 175 -48t59 -139q0 -82 -51.5 -135t-158.5 -65v12q39 -3 63.5 -15.5t41.5 -34t32 -52.5l83 -165l-31 20l87 -25v-53h-137l-91 196q-19 41 -35 63.5t-39 31.5t-67 9l-63 -1l18 16v-261l-15 22l111 -23v-53
h-280zM229 346l-18 26h91q83 0 126.5 34t43.5 101q0 57 -35.5 87.5t-105.5 30.5h-120l18 18v-297zM223 751l-30 55l211 122l41 -80z" />
    <glyph glyph-name="racute" unicode="&#x155;" horiz-adv-x="451" 
d="M35 0v53l86 20l-12 -17v415l13 -18l-87 21v53l152 7l13 -97l-13 4q45 47 88.5 73t93.5 26q32 0 68 -10l-7 -159h-61l-13 106l11 -21q-7 2 -14.5 3t-14.5 1q-37 0 -72.5 -22.5t-65.5 -57.5l9 29v-353l-13 17l106 -20v-53h-267zM172 615l-36 50l191 150l54 -73z" />
    <glyph glyph-name="uni0156" unicode="&#x156;" horiz-adv-x="661" 
d="M45 0v53l96 22l-14 -21v589l19 -22l-101 21v53l188 5h110q116 0 175 -48t59 -139q0 -82 -51.5 -135t-158.5 -65v12q39 -3 63.5 -15.5t41.5 -34t32 -52.5l83 -165l-31 20l87 -25v-53h-137l-91 196q-19 41 -35 63.5t-39 31.5t-67 9l-63 -1l18 16v-261l-15 22l111 -23v-53
h-280zM229 346l-18 26h91q83 0 126.5 34t43.5 101q0 57 -35.5 87.5t-105.5 30.5h-120l18 18v-297zM311 -290l-36 23q20 33 27 52t7 30t-5.5 19.5t-11.5 18.5t-6 27q0 27 17.5 40.5t38.5 13.5t39 -14.5t18 -44.5q0 -29 -20.5 -70.5t-67.5 -94.5z" />
    <glyph glyph-name="uni0157" unicode="&#x157;" horiz-adv-x="451" 
d="M35 0v53l86 20l-12 -17v415l13 -18l-87 21v53l152 7l13 -97l-13 4q45 47 88.5 73t93.5 26q32 0 68 -10l-7 -159h-61l-13 106l11 -21q-7 2 -14.5 3t-14.5 1q-37 0 -72.5 -22.5t-65.5 -57.5l9 29v-353l-13 17l106 -20v-53h-267zM124 -290l-36 23q20 33 27 52t7 30
t-5.5 19.5t-11.5 18.5t-6 27q0 27 17.5 40.5t38.5 13.5t39 -14.5t18 -44.5q0 -29 -20.5 -70.5t-67.5 -94.5z" />
    <glyph glyph-name="Rcaron" unicode="&#x158;" horiz-adv-x="661" 
d="M45 0v53l96 22l-14 -21v589l19 -22l-101 21v53l188 5h110q116 0 175 -48t59 -139q0 -82 -51.5 -135t-158.5 -65v12q39 -3 63.5 -15.5t41.5 -34t32 -52.5l83 -165l-31 20l87 -25v-53h-137l-91 196q-19 41 -35 63.5t-39 31.5t-67 9l-63 -1l18 16v-261l-15 22l111 -23v-53
h-280zM229 346l-18 26h91q83 0 126.5 34t43.5 101q0 57 -35.5 87.5t-105.5 30.5h-120l18 18v-297zM452 924l34 -41l-140 -122l-58 -5l-149 127l35 41l176 -111l-68 1z" />
    <glyph glyph-name="rcaron" unicode="&#x159;" horiz-adv-x="451" 
d="M35 0v53l86 20l-12 -17v415l13 -18l-87 21v53l152 7l13 -97l-13 4q45 47 88.5 73t93.5 26q32 0 68 -10l-7 -159h-61l-13 106l11 -21q-7 2 -14.5 3t-14.5 1q-37 0 -72.5 -22.5t-65.5 -57.5l9 29v-353l-13 17l106 -20v-53h-267zM368 803l34 -39l-135 -133l-58 -5l-143 138
l35 39l170 -122l-68 1z" />
    <glyph glyph-name="Sacute" unicode="&#x15a;" horiz-adv-x="600" 
d="M171 528q0 -35 20 -57.5t53 -37.5t72.5 -27t79 -27t72.5 -37t53 -57t20 -88q0 -71 -36.5 -117t-97 -68t-133.5 -22q-51 0 -104 10.5t-105 31.5l6 172h60l19 -125l-11 19q33 -15 69.5 -23t71.5 -8q43 0 79.5 13t58.5 39t22 65q0 37 -20 60t-53 38t-72 27t-78.5 26
t-72.5 35.5t-53 56t-20 86.5q0 67 32.5 110.5t88 65t124.5 21.5q49 0 101.5 -10.5t103.5 -31.5l-9 -163h-61l-17 116l13 -13q-28 12 -61 18.5t-66 6.5q-39 0 -73 -10.5t-55 -33.5t-21 -61zM221 751l-30 55l211 122l41 -80z" />
    <glyph glyph-name="sacute" unicode="&#x15b;" horiz-adv-x="495" 
d="M154 400q0 -29 20 -45.5t52 -27.5t68.5 -22t68.5 -28t52.5 -45.5t20.5 -74.5q0 -54 -29.5 -91t-80.5 -56.5t-114 -19.5q-37 0 -78 6t-84 18l7 141h63l11 -95l-10 12q22 -6 47.5 -9.5t46.5 -3.5q31 0 58.5 9t45 27.5t17.5 45.5q0 30 -20.5 47.5t-52.5 28.5t-67.5 22
t-67.5 28t-52 45t-20 75q0 53 27 87t72 50t96 16q35 0 77.5 -7t87.5 -21l-5 -121h-64l-15 81l14 -16q-50 15 -92 15q-44 0 -72 -19t-28 -52zM189 615l-36 50l191 150l54 -73z" />
    <glyph glyph-name="Scircumflex" unicode="&#x15c;" horiz-adv-x="600" 
d="M171 528q0 -35 20 -57.5t53 -37.5t72.5 -27t79 -27t72.5 -37t53 -57t20 -88q0 -71 -36.5 -117t-97 -68t-133.5 -22q-51 0 -104 10.5t-105 31.5l6 172h60l19 -125l-11 19q33 -15 69.5 -23t71.5 -8q43 0 79.5 13t58.5 39t22 65q0 37 -20 60t-53 38t-72 27t-78.5 26
t-72.5 35.5t-53 56t-20 86.5q0 67 32.5 110.5t88 65t124.5 21.5q49 0 101.5 -10.5t103.5 -31.5l-9 -163h-61l-17 116l13 -13q-28 12 -61 18.5t-66 6.5q-39 0 -73 -10.5t-55 -33.5t-21 -61zM172 746l-34 41l140 123l58 5l149 -128l-35 -41l-176 112l68 -1z" />
    <glyph glyph-name="scircumflex" unicode="&#x15d;" horiz-adv-x="495" 
d="M154 400q0 -29 20 -45.5t52 -27.5t68.5 -22t68.5 -28t52.5 -45.5t20.5 -74.5q0 -54 -29.5 -91t-80.5 -56.5t-114 -19.5q-37 0 -78 6t-84 18l7 141h63l11 -95l-10 12q22 -6 47.5 -9.5t46.5 -3.5q31 0 58.5 9t45 27.5t17.5 45.5q0 30 -20.5 47.5t-52.5 28.5t-67.5 22
t-67.5 28t-52 45t-20 75q0 53 27 87t72 50t96 16q35 0 77.5 -7t87.5 -21l-5 -121h-64l-15 81l14 -16q-50 15 -92 15q-44 0 -72 -19t-28 -52zM117 625l-35 39l139 133l58 5l146 -138l-36 -39l-172 123l68 -1z" />
    <glyph glyph-name="Scedilla" unicode="&#x15e;" horiz-adv-x="600" 
d="M171 528q0 -35 20 -57.5t53 -37.5t72.5 -27t79 -27t72.5 -37t53 -57t20 -88q0 -71 -36.5 -117t-97 -68t-133.5 -22q-51 0 -104 10.5t-105 31.5l6 172h60l19 -125l-11 19q33 -15 69.5 -23t71.5 -8q43 0 79.5 13t58.5 39t22 65q0 37 -20 60t-53 38t-72 27t-78.5 26
t-72.5 35.5t-53 56t-20 86.5q0 67 32.5 110.5t88 65t124.5 21.5q49 0 101.5 -10.5t103.5 -31.5l-9 -163h-61l-17 116l13 -13q-28 12 -61 18.5t-66 6.5q-39 0 -73 -10.5t-55 -33.5t-21 -61zM316 -240q-24 0 -49 5.5t-48 16.5l20 50q18 -6 38.5 -10.5t37.5 -4.5q24 0 40 9.5
t16 28.5q0 14 -13 23.5t-35.5 15t-53.5 6.5l6 100h62v-55q56 -5 82 -28.5t26 -58.5q0 -33 -18 -54.5t-47 -32.5t-64 -11z" />
    <glyph glyph-name="scedilla" unicode="&#x15f;" horiz-adv-x="495" 
d="M154 400q0 -29 20 -45.5t52 -27.5t68.5 -22t68.5 -28t52.5 -45.5t20.5 -74.5q0 -54 -29.5 -91t-80.5 -56.5t-114 -19.5q-37 0 -78 6t-84 18l7 141h63l11 -95l-10 12q22 -6 47.5 -9.5t46.5 -3.5q31 0 58.5 9t45 27.5t17.5 45.5q0 30 -20.5 47.5t-52.5 28.5t-67.5 22
t-67.5 28t-52 45t-20 75q0 53 27 87t72 50t96 16q35 0 77.5 -7t87.5 -21l-5 -121h-64l-15 81l14 -16q-50 15 -92 15q-44 0 -72 -19t-28 -52zM259 -240q-24 0 -49 5.5t-48 16.5l20 50q18 -6 38.5 -10.5t37.5 -4.5q24 0 40 9.5t16 28.5q0 14 -13 23.5t-35.5 15t-53.5 6.5
l6 100h62v-55q56 -5 82 -28.5t26 -58.5q0 -33 -18 -54.5t-47 -32.5t-64 -11z" />
    <glyph glyph-name="Scaron" unicode="&#x160;" horiz-adv-x="600" 
d="M171 528q0 -35 20 -57.5t53 -37.5t72.5 -27t79 -27t72.5 -37t53 -57t20 -88q0 -71 -36.5 -117t-97 -68t-133.5 -22q-51 0 -104 10.5t-105 31.5l6 172h60l19 -125l-11 19q33 -15 69.5 -23t71.5 -8q43 0 79.5 13t58.5 39t22 65q0 37 -20 60t-53 38t-72 27t-78.5 26
t-72.5 35.5t-53 56t-20 86.5q0 67 32.5 110.5t88 65t124.5 21.5q49 0 101.5 -10.5t103.5 -31.5l-9 -163h-61l-17 116l13 -13q-28 12 -61 18.5t-66 6.5q-39 0 -73 -10.5t-55 -33.5t-21 -61zM450 924l34 -41l-140 -122l-58 -5l-149 127l35 41l176 -111l-68 1z" />
    <glyph glyph-name="scaron" unicode="&#x161;" horiz-adv-x="495" 
d="M154 400q0 -29 20 -45.5t52 -27.5t68.5 -22t68.5 -28t52.5 -45.5t20.5 -74.5q0 -54 -29.5 -91t-80.5 -56.5t-114 -19.5q-37 0 -78 6t-84 18l7 141h63l11 -95l-10 12q22 -6 47.5 -9.5t46.5 -3.5q31 0 58.5 9t45 27.5t17.5 45.5q0 30 -20.5 47.5t-52.5 28.5t-67.5 22
t-67.5 28t-52 45t-20 75q0 53 27 87t72 50t96 16q35 0 77.5 -7t87.5 -21l-5 -121h-64l-15 81l14 -16q-50 15 -92 15q-44 0 -72 -19t-28 -52zM385 803l34 -39l-135 -133l-58 -5l-143 138l35 39l170 -122l-68 1z" />
    <glyph glyph-name="uni0162" unicode="&#x162;" horiz-adv-x="594" 
d="M151 0v53l114 23l-19 -27v593l22 -17h-183l24 21l-23 -127h-61v181h544v-181h-61l-22 123l23 -17h-183l22 17v-593l-18 27l113 -23v-53h-292zM308 -240q-24 0 -49 5.5t-48 16.5l20 50q18 -6 38.5 -10.5t37.5 -4.5q24 0 40 9.5t16 28.5q0 14 -13 23.5t-35.5 15t-53.5 6.5
l6 100h62v-55q56 -5 82 -28.5t26 -58.5q0 -33 -18 -54.5t-47 -32.5t-64 -11z" />
    <glyph glyph-name="uni0163" unicode="&#x163;" horiz-adv-x="373" 
d="M218 -10q-58 0 -89.5 35.5t-31.5 106.5v344l14 -14h-100v54l102 18l-16 -19v133l100 17v-150l-12 15h155l-3 -68h-152l12 14v-330q0 -42 15.5 -61t45.5 -19q17 0 37.5 5.5t44.5 16.5l20 -57q-76 -41 -142 -41zM205 -240q-24 0 -49 5.5t-48 16.5l20 50q18 -6 38.5 -10.5
t37.5 -4.5q24 0 40 9.5t16 28.5q0 14 -13 23.5t-35.5 15t-53.5 6.5l6 100h62v-55q56 -5 82 -28.5t26 -58.5q0 -33 -18 -54.5t-47 -32.5t-64 -11z" />
    <glyph glyph-name="Tcaron" unicode="&#x164;" horiz-adv-x="594" 
d="M151 0v53l114 23l-19 -27v593l22 -17h-183l24 21l-23 -127h-61v181h544v-181h-61l-22 123l23 -17h-183l22 17v-593l-18 27l113 -23v-53h-292zM436 924l34 -41l-140 -122l-58 -5l-149 127l35 41l176 -111l-68 1z" />
    <glyph glyph-name="tcaron" unicode="&#x165;" horiz-adv-x="373" 
d="M218 -10q-58 0 -89.5 35.5t-31.5 106.5v344l14 -14h-100v54l102 18l-16 -19v133l100 17v-150l-12 15h155l-3 -68h-152l12 14v-330q0 -42 15.5 -61t45.5 -19q17 0 37.5 5.5t44.5 16.5l20 -57q-76 -41 -142 -41zM319 574l-60 9q11 53 16.5 102t3.5 96l90 -5q-5 -42 -18 -93
t-32 -109z" />
    <glyph glyph-name="Tbar" unicode="&#x166;" horiz-adv-x="594" 
d="M109 312v69h376v-69h-376zM151 0v53l114 23l-19 -27v593l22 -17h-183l24 21l-23 -127h-61v181h544v-181h-61l-22 123l23 -17h-183l22 17v-593l-18 27l113 -23v-53h-292z" />
    <glyph glyph-name="tbar" unicode="&#x167;" horiz-adv-x="380" 
d="M11 262v59h331v-59h-331zM218 -10q-58 0 -89.5 35.5t-31.5 106.5v344l14 -14h-100v54l102 18l-16 -19v133l100 17v-150l-12 15h155l-3 -68h-152l12 14v-330q0 -42 15.5 -61t45.5 -19q17 0 37.5 5.5t44.5 16.5l20 -57q-76 -41 -142 -41z" />
    <glyph glyph-name="Utilde" unicode="&#x168;" horiz-adv-x="747" 
d="M455 695l267 5v-53l-96 -24l14 26v-381q0 -42 -7.5 -82.5t-25 -75.5t-48 -62.5t-77 -42.5t-112.5 -15q-79 0 -129 19.5t-77.5 51.5t-39 68t-14.5 69.5t-3 57.5v392l14 -25l-96 19v53l267 5v-53l-94 -24l12 25v-392q0 -25 2 -51.5t10 -51t25.5 -43t47.5 -30t76 -11.5
q47 0 78 12t49 32t26.5 45.5t10.5 53.5t2 56v381l11 -25l-93 18v53zM247 775l-44 20q18 51 42 73.5t56 22.5q26 0 51 -11t48 -21.5t42 -10.5q17 0 31.5 10t29.5 35l44 -19q-19 -52 -44.5 -74.5t-57.5 -22.5q-25 0 -49 11t-47 21.5t-44 10.5q-17 0 -30 -11t-28 -34z" />
    <glyph glyph-name="utilde" unicode="&#x169;" horiz-adv-x="624" 
d="M242 -10q-66 0 -109.5 42t-43.5 128v310l11 -16l-86 20v53l175 6v-356q0 -56 25.5 -83t68.5 -27q34 0 73.5 18.5t77.5 56.5l-7 -20v350l11 -18l-86 20v53l175 7v-477l-14 17l88 -20v-53l-152 -7l-14 99l14 -5q-49 -50 -103.5 -74t-103.5 -24zM372 646q-28 0 -50.5 12.5
t-43.5 25t-44 12.5q-19 0 -34 -11.5t-29 -36.5l-45 19q18 53 44.5 78t59.5 25q27 0 50 -12t44.5 -24.5t43.5 -12.5q19 0 34 12t30 36l44 -18q-18 -53 -44.5 -79t-59.5 -26z" />
    <glyph glyph-name="Umacron" unicode="&#x16a;" horiz-adv-x="747" 
d="M455 695l267 5v-53l-96 -24l14 26v-381q0 -42 -7.5 -82.5t-25 -75.5t-48 -62.5t-77 -42.5t-112.5 -15q-79 0 -129 19.5t-77.5 51.5t-39 68t-14.5 69.5t-3 57.5v392l14 -25l-96 19v53l267 5v-53l-94 -24l12 25v-392q0 -25 2 -51.5t10 -51t25.5 -43t47.5 -30t76 -11.5
q47 0 78 12t49 32t26.5 45.5t10.5 53.5t2 56v381l11 -25l-93 18v53zM513 858v-71h-277v71h277z" />
    <glyph glyph-name="umacron" unicode="&#x16b;" horiz-adv-x="624" 
d="M242 -10q-66 0 -109.5 42t-43.5 128v310l11 -16l-86 20v53l175 6v-356q0 -56 25.5 -83t68.5 -27q34 0 73.5 18.5t77.5 56.5l-7 -20v350l11 -18l-86 20v53l175 7v-477l-14 17l88 -20v-53l-152 -7l-14 99l14 -5q-49 -50 -103.5 -74t-103.5 -24zM440 739v-71h-277v71h277z
" />
    <glyph glyph-name="Ubreve" unicode="&#x16c;" horiz-adv-x="747" 
d="M455 695l267 5v-53l-96 -24l14 26v-381q0 -42 -7.5 -82.5t-25 -75.5t-48 -62.5t-77 -42.5t-112.5 -15q-79 0 -129 19.5t-77.5 51.5t-39 68t-14.5 69.5t-3 57.5v392l14 -25l-96 19v53l267 5v-53l-94 -24l12 25v-392q0 -25 2 -51.5t10 -51t25.5 -43t47.5 -30t76 -11.5
q47 0 78 12t49 32t26.5 45.5t10.5 53.5t2 56v381l11 -25l-93 18v53zM374 763q-35 0 -68 15t-54.5 45t-22.5 73l60 7q5 -38 32 -56t58 -18t55.5 17.5t27.5 52.5l59 3q0 -46 -21 -77t-55 -46.5t-71 -15.5z" />
    <glyph glyph-name="ubreve" unicode="&#x16d;" horiz-adv-x="624" 
d="M242 -10q-66 0 -109.5 42t-43.5 128v310l11 -16l-86 20v53l175 6v-356q0 -56 25.5 -83t68.5 -27q34 0 73.5 18.5t77.5 56.5l-7 -20v350l11 -18l-86 20v53l175 7v-477l-14 17l88 -20v-53l-152 -7l-14 99l14 -5q-49 -50 -103.5 -74t-103.5 -24zM301 629q-41 0 -73 17.5
t-50.5 49.5t-19.5 73l61 7q4 -35 27 -55.5t58 -20.5q34 0 55 19.5t24 51.5l60 3q1 -42 -17 -75t-50 -51.5t-75 -18.5z" />
    <glyph glyph-name="Uring" unicode="&#x16e;" horiz-adv-x="747" 
d="M455 695l267 5v-53l-96 -24l14 26v-381q0 -42 -7.5 -82.5t-25 -75.5t-48 -62.5t-77 -42.5t-112.5 -15q-79 0 -129 19.5t-77.5 51.5t-39 68t-14.5 69.5t-3 57.5v392l14 -25l-96 19v53l267 5v-53l-94 -24l12 25v-392q0 -25 2 -51.5t10 -51t25.5 -43t47.5 -30t76 -11.5
q47 0 78 12t49 32t26.5 45.5t10.5 53.5t2 56v381l11 -25l-93 18v53zM373 732q-34 0 -59.5 13t-40 36.5t-14.5 54.5t14.5 55t41 37.5t61.5 13.5t60 -13t39.5 -36.5t14.5 -53.5q0 -31 -14.5 -55t-40.5 -38t-62 -14zM374 781q26 0 39.5 16t13.5 41q0 24 -13.5 39.5t-38.5 15.5
q-26 0 -39.5 -16t-13.5 -40q0 -25 13 -40.5t39 -15.5z" />
    <glyph glyph-name="uring" unicode="&#x16f;" horiz-adv-x="624" 
d="M242 -10q-66 0 -109.5 42t-43.5 128v310l11 -16l-86 20v53l175 6v-356q0 -56 25.5 -83t68.5 -27q34 0 73.5 18.5t77.5 56.5l-7 -20v350l11 -18l-86 20v53l175 7v-477l-14 17l88 -20v-53l-152 -7l-14 99l14 -5q-49 -50 -103.5 -74t-103.5 -24zM300 614q-34 0 -59.5 13
t-40 36.5t-14.5 54.5t14.5 55t41 37.5t61.5 13.5t60 -13t39.5 -36.5t14.5 -53.5q0 -31 -14.5 -55t-40.5 -38t-62 -14zM301 663q26 0 39.5 16t13.5 41q0 24 -13.5 39.5t-38.5 15.5q-26 0 -39.5 -16t-13.5 -40q0 -25 13 -40.5t39 -15.5z" />
    <glyph glyph-name="Uhungarumlaut" unicode="&#x170;" horiz-adv-x="747" 
d="M455 695l267 5v-53l-96 -24l14 26v-381q0 -42 -7.5 -82.5t-25 -75.5t-48 -62.5t-77 -42.5t-112.5 -15q-79 0 -129 19.5t-77.5 51.5t-39 68t-14.5 69.5t-3 57.5v392l14 -25l-96 19v53l267 5v-53l-94 -24l12 25v-392q0 -25 2 -51.5t10 -51t25.5 -43t47.5 -30t76 -11.5
q47 0 78 12t49 32t26.5 45.5t10.5 53.5t2 56v381l11 -25l-93 18v53zM461 743l-53 27l78 174l71 -38zM314 743l-54 26l72 175l74 -35z" />
    <glyph glyph-name="uhungarumlaut" unicode="&#x171;" horiz-adv-x="624" 
d="M242 -10q-66 0 -109.5 42t-43.5 128v310l11 -16l-86 20v53l175 6v-356q0 -56 25.5 -83t68.5 -27q34 0 73.5 18.5t77.5 56.5l-7 -20v350l11 -18l-86 20v53l175 7v-477l-14 17l88 -20v-53l-152 -7l-14 99l14 -5q-49 -50 -103.5 -74t-103.5 -24zM392 615l-53 27l78 174
l71 -38zM245 615l-54 26l72 175l74 -35z" />
    <glyph glyph-name="Uogonek" unicode="&#x172;" horiz-adv-x="747" 
d="M455 695l267 5v-53l-96 -24l14 26v-381q0 -42 -7.5 -82.5t-25 -75.5t-48 -62.5t-77 -42.5t-112.5 -15q-79 0 -129 19.5t-77.5 51.5t-39 68t-14.5 69.5t-3 57.5v392l14 -25l-96 19v53l267 5v-53l-94 -24l12 25v-392q0 -25 2 -51.5t10 -51t25.5 -43t47.5 -30t76 -11.5
q47 0 78 12t49 32t26.5 45.5t10.5 53.5t2 56v381l11 -25l-93 18v53zM395 -221q-52 0 -84.5 25.5t-32.5 69.5q0 32 19.5 64.5t58 60.5t95.5 47l11 -46q-53 -19 -81.5 -48.5t-28.5 -55.5q0 -23 20.5 -37t51.5 -14q9 0 19 1.5t20 3.5l6 -58q-20 -7 -38.5 -10t-35.5 -3z" />
    <glyph glyph-name="uogonek" unicode="&#x173;" horiz-adv-x="624" 
d="M242 -10q-66 0 -109.5 42t-43.5 128v310l11 -16l-86 20v53l175 6v-356q0 -56 25.5 -83t68.5 -27q34 0 73.5 18.5t77.5 56.5l-7 -20v350l11 -18l-86 20v53l175 7v-477l-14 17l88 -20v-53l-152 -7l-14 99l14 -5q-49 -50 -103.5 -74t-103.5 -24zM450 -221q-52 0 -84.5 25.5
t-32.5 69.5q0 32 19.5 64.5t58 60.5t95.5 47l11 -46q-53 -19 -81.5 -48.5t-28.5 -55.5q0 -23 20.5 -37t51.5 -14q9 0 19 1.5t20 3.5l6 -58q-20 -7 -38.5 -10t-35.5 -3z" />
    <glyph glyph-name="Wcircumflex" unicode="&#x174;" horiz-adv-x="1023" 
d="M767 695l252 5v-53l-95 -22l25 27l-184 -653h-98l-166 576l18 -1l-175 -575h-97l-170 645l12 -18l-84 16v53l262 5v-53l-99 -23l13 20l133 -551h-21l177 603l94 4l169 -605h-21l147 549l10 -20l-102 18v53zM380 746l-34 41l140 123l58 5l149 -128l-35 -41l-176 112l68 -1
z" />
    <glyph glyph-name="wcircumflex" unicode="&#x175;" horiz-adv-x="810" 
d="M610 527l205 7v-53l-68 -18l16 13l-134 -478h-109l-123 458h20l-133 -458h-109l-126 475l13 -13l-67 14v53l223 7v-53l-85 -17l11 10l102 -415h-16l129 469l105 6l123 -479h-16l109 417l10 -12l-80 14v53zM274 625l-35 39l139 133l58 5l146 -138l-36 -39l-172 123l68 -1z
" />
    <glyph glyph-name="Ycircumflex" unicode="&#x176;" horiz-adv-x="643" 
d="M184 0v53l100 23l-15 -22v220l10 -39l-210 405l21 -17l-87 19v53l264 5v-53l-101 -21l9 19l163 -335h-20l165 331l9 -18l-102 19v53l250 5v-53l-87 -21l21 17l-211 -408l8 39v-220l-16 22l100 -23v-53h-271zM185 746l-34 41l140 123l58 5l149 -128l-35 -41l-176 112
l68 -1z" />
    <glyph glyph-name="ycircumflex" unicode="&#x177;" horiz-adv-x="538" 
d="M13 -234l9 72q13 -2 24.5 -3t21.5 -1q47 0 76.5 21t50.5 63t42 106l-3 -36l-189 484l12 -10l-63 12v53l229 7v-53l-83 -16l6 10l142 -408l-24 5l133 401l7 -11l-82 12v53l220 7v-53l-68 -17l16 10l-172 -475q-19 -52 -40 -96t-48 -76t-64.5 -49.5t-89.5 -17.5
q-27 0 -63 6zM133 625l-35 39l139 133l58 5l146 -138l-36 -39l-172 123l68 -1z" />
    <glyph glyph-name="Ydieresis" unicode="&#x178;" horiz-adv-x="643" 
d="M184 0v53l100 23l-15 -22v220l10 -39l-210 405l21 -17l-87 19v53l264 5v-53l-101 -21l9 19l163 -335h-20l165 331l9 -18l-102 19v53l250 5v-53l-87 -21l21 17l-211 -408l8 39v-220l-16 22l100 -23v-53h-271zM427 765q-26 0 -40.5 15.5t-14.5 43.5q-1 28 15.5 44t39.5 16
q25 0 40 -16t15 -44t-16.5 -43.5t-38.5 -15.5zM221 765q-26 0 -40 15.5t-15 43.5q0 28 16 44t39 16q25 0 40 -16t15 -44t-16 -43.5t-39 -15.5z" />
    <glyph glyph-name="Zacute" unicode="&#x179;" horiz-adv-x="619" 
d="M41 0v69l413 568l11 -13h-344l25 12l-21 -119h-61v183h501v-68l-411 -572l-5 16h363l-24 -15l20 122h62l-2 -183h-527zM221 751l-30 55l211 122l41 -80z" />
    <glyph glyph-name="zacute" unicode="&#x17a;" horiz-adv-x="489" 
d="M448 153l1 -152l-411 -1v59l305 423l14 -21h-265l29 23l-14 -96h-61l-1 142h395v-60l-307 -429l-4 28h262l-27 -28l22 112h62zM182 615l-36 50l191 150l54 -73z" />
    <glyph glyph-name="Zdotaccent" unicode="&#x17b;" horiz-adv-x="619" 
d="M41 0v69l413 568l11 -13h-344l25 12l-21 -119h-61v183h501v-68l-411 -572l-5 16h363l-24 -15l20 122h62l-2 -183h-527zM310 764q-27 0 -44.5 17t-17.5 48q0 32 18 48.5t45 16.5q28 0 45.5 -16.5t17.5 -48.5t-18.5 -48.5t-45.5 -16.5z" />
    <glyph glyph-name="zdotaccent" unicode="&#x17c;" horiz-adv-x="489" 
d="M448 153l1 -152l-411 -1v59l305 423l14 -21h-265l29 23l-14 -96h-61l-1 142h395v-60l-307 -429l-4 28h262l-27 -28l22 112h62zM243 631q-27 0 -44.5 17t-17.5 48q0 32 18 48.5t45 16.5q28 0 45.5 -16.5t17.5 -48.5t-18.5 -48.5t-45.5 -16.5z" />
    <glyph glyph-name="Zcaron" unicode="&#x17d;" horiz-adv-x="619" 
d="M41 0v69l413 568l11 -13h-344l25 12l-21 -119h-61v183h501v-68l-411 -572l-5 16h363l-24 -15l20 122h62l-2 -183h-527zM449 924l34 -41l-140 -122l-58 -5l-149 127l35 41l176 -111l-68 1z" />
    <glyph glyph-name="zcaron" unicode="&#x17e;" horiz-adv-x="489" 
d="M448 153l1 -152l-411 -1v59l305 423l14 -21h-265l29 23l-14 -96h-61l-1 142h395v-60l-307 -429l-4 28h262l-27 -28l22 112h62zM377 803l34 -39l-135 -133l-58 -5l-143 138l35 39l170 -122l-68 1z" />
    <glyph glyph-name="longs" unicode="&#x17f;" horiz-adv-x="354" 
d="M34 0v53l85 20l-11 -13v528q0 98 51.5 145t136.5 47q26 0 54 -4.5t59 -14.5l-15 -68q-21 7 -42 11t-40 4q-47 0 -75.5 -26.5t-28.5 -84.5v-536l-11 12l101 -20v-53h-264z" />
    <glyph glyph-name="uni018F" unicode="&#x18f;" horiz-adv-x="687" 
d="M327 -10q-76 0 -138.5 35t-99.5 104.5t-37 172.5q0 14 1 33t3 35h516v-80h-424l14 14q0 -80 22 -132t60.5 -77t88.5 -25q54 0 97 28t68.5 90t25.5 163q0 90 -26 151t-73 92.5t-110 31.5q-47 0 -102 -18.5t-114 -57.5l-41 60q71 50 142 75t136 25q84 0 151 -40t106.5 -118
t39.5 -191q0 -124 -43 -206.5t-112.5 -123.5t-150.5 -41z" />
    <glyph glyph-name="florin" unicode="&#x192;" horiz-adv-x="546" 
d="M102 -204q-18 0 -37 2.5t-39 6.5l9 71q29 -3 49 -3q40 0 62 12t32 36.5t13 60.5l37 415l22 -14h-104v55l112 12l-27 -19l14 151q6 72 30 115.5t63 63t93 19.5q19 0 38.5 -2t39.5 -6l-8 -71q-27 3 -49 3q-40 0 -62 -12.5t-32 -37t-13 -61.5l-15 -163l-20 16h158l-2 -63
h-161l22 20l-36 -407q-6 -70 -30.5 -114.5t-65 -65t-93.5 -20.5z" />
    <glyph glyph-name="Ohorn" unicode="&#x1a0;" horiz-adv-x="753" 
d="M359 -10q-89 0 -158 39.5t-108 118t-39 194.5q0 92 24.5 161t68.5 115t102.5 69t126.5 23q67 0 124 -22t99 -65.5t65 -109t23 -151.5q0 -117 -42.5 -200.5t-116.5 -127.5t-169 -44zM366 70q58 0 106 29t76.5 92.5t28.5 165.5q0 97 -26.5 157t-73 88t-105.5 28
q-58 0 -105 -28.5t-75 -90.5t-28 -165q0 -97 26.5 -157.5t72 -89.5t103.5 -29zM521 635l-35 50q62 0 96.5 18t34.5 55q0 11 -4 28.5t-11 37.5l75 17q12 -26 17 -48.5t5 -41.5q0 -55 -48.5 -86t-129.5 -30z" />
    <glyph glyph-name="ohorn" unicode="&#x1a1;" horiz-adv-x="578" 
d="M276 -10q-109 0 -171.5 68.5t-62.5 194.5q0 89 30 153.5t87 99t136 34.5q112 0 176 -69.5t64 -194.5q0 -88 -31 -152t-88.5 -99t-139.5 -35zM283 63q49 0 81.5 24t49 70.5t16.5 113.5q0 97 -36 146.5t-104 49.5q-71 0 -107.5 -53.5t-36.5 -154.5q0 -99 35 -147.5
t102 -48.5zM391 475l-20 51q53 1 77.5 16.5t24.5 47.5q0 14 -4 31.5t-11 36.5l75 18q12 -26 17 -48.5t5 -42.5q0 -54 -42.5 -81.5t-121.5 -28.5z" />
    <glyph glyph-name="Uhorn" unicode="&#x1af;" horiz-adv-x="748" 
d="M596 643l44 22v-397q0 -93 -28.5 -154.5t-88 -92.5t-155.5 -31q-137 0 -199 65t-62 201v392l14 -25l-96 19v53l267 5v-53l-94 -24l12 25v-392q0 -95 33.5 -141t126.5 -46q67 0 103 22.5t50 67t14 109.5v381l11 -25l-93 18v53l138 3q37 1 53.5 15.5t16.5 41.5t-15 69
l74 17q12 -24 17.5 -46.5t5.5 -42.5q0 -50 -38 -80.5t-111 -28.5z" />
    <glyph glyph-name="uhorn" unicode="&#x1b0;" horiz-adv-x="640" 
d="M242 -10q-66 0 -109.5 42t-43.5 128v310l11 -16l-86 20v53l175 6v-356q0 -56 25.5 -83t68.5 -27q34 0 73.5 18.5t77.5 56.5l-7 -20v350l11 -18l-86 20v53l175 7v-477l-14 17l88 -20v-53l-152 -7l-14 99l14 -5q-49 -50 -103.5 -74t-103.5 -24zM474 481l-4 50
q36 2 51.5 15.5t15.5 41.5t-14 70l74 17q12 -25 17 -47.5t5 -42.5q0 -52 -38 -79.5t-107 -24.5z" />
    <glyph glyph-name="uni01C4" unicode="&#x1c4;" horiz-adv-x="1307" 
d="M348 700q69 0 126.5 -20.5t99.5 -62.5t65.5 -105.5t23.5 -150.5q0 -118 -42.5 -198.5t-117 -121.5t-172.5 -41h-286v53l97 23l-15 -22v589l16 -22l-98 21v53l201 5h102zM335 75q41 0 80 13t70.5 44t49.5 85.5t18 136.5q0 80 -17.5 132.5t-47 83t-66.5 43t-76 12.5h-134
l17 17v-584l-17 17h123zM729 0v69l413 568l11 -13h-344l25 12l-21 -119h-61v183h501v-68l-411 -572l-5 16h363l-24 -15l20 122h62l-2 -183h-527zM1137 924l34 -41l-140 -122l-58 -5l-149 127l35 41l176 -111l-68 1z" />
    <glyph glyph-name="uni01C5" unicode="&#x1c5;" horiz-adv-x="1205" 
d="M348 700q69 0 126.5 -20.5t99.5 -62.5t65.5 -105.5t23.5 -150.5q0 -118 -42.5 -198.5t-117 -121.5t-172.5 -41h-286v53l97 23l-15 -22v589l16 -22l-98 21v53l201 5h102zM335 75q41 0 80 13t70.5 44t49.5 85.5t18 136.5q0 80 -17.5 132.5t-47 83t-66.5 43t-76 12.5h-134
l17 17v-584l-17 17h123zM1164 153l1 -152l-411 -1v59l305 423l14 -21h-265l29 23l-14 -96h-61l-1 142h395v-60l-307 -429l-4 28h262l-27 -28l22 112h62zM1093 803l34 -39l-135 -133l-58 -5l-143 138l35 39l170 -122l-68 1z" />
    <glyph glyph-name="uni01C6" unicode="&#x1c6;" horiz-adv-x="1085" 
d="M240 -10q-56 0 -101 30.5t-70.5 90t-25.5 145.5q0 142 72 213t200 71q25 0 51.5 -3.5t54.5 -10.5l-20 -11v189l10 -12l-89 22v53l179 7v-715l-13 16l88 -21v-53l-152 -7l-14 86l11 -4q-45 -43 -89.5 -64.5t-91.5 -21.5zM277 65q32 0 66.5 17t70.5 51l-13 -32v373l13 -24
q-56 17 -102 17q-82 0 -123.5 -53.5t-41.5 -148.5q0 -62 16.5 -107t46 -69t67.5 -24zM1045 153l1 -152l-411 -1v59l305 423l14 -21h-265l29 23l-14 -96h-61l-1 142h395v-60l-307 -429l-4 28h262l-27 -28l22 112h62zM974 803l34 -39l-135 -133l-58 -5l-143 138l35 39
l170 -122l-68 1z" />
    <glyph glyph-name="uni01C7" unicode="&#x1c7;" horiz-adv-x="883" 
d="M468 189h62v-189h-485v53l95 22l-13 -21v589l13 -21l-95 20v53l276 5v-53l-104 -25l12 21v-585l-17 17h252l-16 -18zM575 695l274 5v-52l-95 -26l13 22v-572q0 -54 -9.5 -95.5t-31.5 -70t-57 -43.5t-86 -15q-16 0 -31.5 1.5t-32.5 4.5l9 74q9 -1 17 -2t17 -1
q56 0 79.5 31t23.5 96v592l13 -20l-103 18v53z" />
    <glyph glyph-name="uni01C8" unicode="&#x1c8;" horiz-adv-x="832" 
d="M468 189h62v-189h-485v53l95 22l-13 -21v589l13 -21l-95 20v53l276 5v-53l-104 -25l12 21v-585l-17 17h252l-16 -18zM563 -240q-13 0 -26.5 1.5t-28.5 3.5l8 72q10 -1 19.5 -1.5t17.5 -0.5q53 0 75.5 25.5t22.5 86.5v521l11 -14l-86 20v53l175 6v-555q0 -56 -11.5 -97
t-35 -67.5t-59 -40t-82.5 -13.5zM691 631q-27 0 -44.5 17t-17.5 48q0 32 18 48.5t45 16.5q28 0 45.5 -16.5t17.5 -48.5t-18.5 -48.5t-45.5 -16.5z" />
    <glyph glyph-name="uni01C9" unicode="&#x1c9;" horiz-adv-x="565" 
d="M196 61l-9 12l83 -20v-53h-249v53l84 20l-9 -12v643l8 -9l-83 19v53l175 7v-713zM295 -240q-13 0 -26.5 1.5t-28.5 3.5l8 72q10 -1 19.5 -1.5t17.5 -0.5q53 0 75.5 25.5t22.5 86.5v521l11 -14l-86 20v53l175 6v-555q0 -56 -11.5 -97t-35 -67.5t-59 -40t-82.5 -13.5z
M424 631q-27 0 -44.5 17t-17.5 48q0 32 18 48.5t45 16.5q28 0 45.5 -16.5t17.5 -48.5t-18.5 -48.5t-45.5 -16.5z" />
    <glyph glyph-name="uni01CA" unicode="&#x1ca;" horiz-adv-x="1120" 
d="M503 695l250 5v-53l-98 -25l16 22v-644h-116l-357 592h15v-538l-17 22l99 -23v-53h-250v53l99 23l-17 -22v590l12 -21l-94 19v53l204 5l351 -581l-15 -1v526l17 -21l-99 19v53zM812 695l274 5v-52l-95 -26l13 22v-572q0 -54 -9.5 -95.5t-31.5 -70t-57 -43.5t-86 -15
q-16 0 -31.5 1.5t-32.5 4.5l9 74q9 -1 17 -2t17 -1q56 0 79.5 31t23.5 96v592l13 -20l-103 18v53z" />
    <glyph glyph-name="uni01CB" unicode="&#x1cb;" horiz-adv-x="1050" 
d="M503 695l250 5v-53l-98 -25l16 22v-644h-116l-357 592h15v-538l-17 22l99 -23v-53h-250v53l99 23l-17 -22v590l12 -21l-94 19v53l204 5l351 -581l-15 -1v526l17 -21l-99 19v53zM780 -240q-13 0 -26.5 1.5t-28.5 3.5l8 72q10 -1 19.5 -1.5t17.5 -0.5q53 0 75.5 25.5
t22.5 86.5v521l11 -14l-86 20v53l175 6v-555q0 -56 -11.5 -97t-35 -67.5t-59 -40t-82.5 -13.5zM909 631q-27 0 -44.5 17t-17.5 48q0 32 18 48.5t45 16.5q28 0 45.5 -16.5t17.5 -48.5t-18.5 -48.5t-45.5 -16.5z" />
    <glyph glyph-name="uni01CC" unicode="&#x1cc;" horiz-adv-x="914" 
d="M35 0v53l88 21l-14 -17v414l14 -18l-88 21v53l152 7l13 -97l-13 5q49 50 103.5 74t103.5 24q67 0 111 -41t43 -127v-315l-11 16l85 -20v-53h-244v53l83 20l-13 -17v295q0 58 -26 85t-69 27q-34 0 -73.5 -18.5t-77.5 -56.5l7 18v-350l-11 16l81 -19v-53h-244zM645 -240
q-13 0 -26.5 1.5t-28.5 3.5l8 72q10 -1 19.5 -1.5t17.5 -0.5q53 0 75.5 25.5t22.5 86.5v521l11 -14l-86 20v53l175 6v-555q0 -56 -11.5 -97t-35 -67.5t-59 -40t-82.5 -13.5zM774 631q-27 0 -44.5 17t-17.5 48q0 32 18 48.5t45 16.5q28 0 45.5 -16.5t17.5 -48.5t-18.5 -48.5
t-45.5 -16.5z" />
    <glyph glyph-name="uni01CD" unicode="&#x1cd;" horiz-adv-x="710" 
d="M642 52l-27 24l91 -23v-53h-269v53l98 21l-10 -16l-48 150l17 -14h-292l15 14l-52 -148l-5 13l95 -20v-53h-251v53l89 22l-25 -21l241 645l105 3zM231 252l-9 15h254l-11 -16l-122 391h24zM500 924l34 -41l-140 -122l-58 -5l-149 127l35 41l176 -111l-68 1z" />
    <glyph glyph-name="uni01CE" unicode="&#x1ce;" horiz-adv-x="552" 
d="M459 54l-15 21l90 -21v-53l-152 -7l-14 96l8 -3q-43 -49 -93 -73t-97 -24q-58 0 -99.5 38t-41.5 114q0 58 25 90.5t70 46.5t106 14h122l-9 -11v86q0 52 -27 74.5t-75 22.5q-25 0 -52.5 -5t-59.5 -16l14 14l-11 -89h-66l-8 133q61 19 112.5 28.5t95.5 9.5q84 0 130.5 -37
t46.5 -117v-332zM146 149q0 -43 21 -63.5t53 -20.5t70.5 20.5t74.5 54.5l-6 -25v124l9 -10h-106q-66 0 -91 -20t-25 -60zM405 803l34 -39l-135 -133l-58 -5l-143 138l35 39l170 -122l-68 1z" />
    <glyph glyph-name="uni01CF" unicode="&#x1cf;" horiz-adv-x="355" 
d="M311 647l-94 -24l12 16v-581l-12 17l94 -22v-53h-266v53l93 21l-11 -16v581l14 -17l-96 20v53l266 5v-53zM316 924l34 -41l-140 -122l-58 -5l-149 127l35 41l176 -111l-68 1z" />
    <glyph glyph-name="uni01D0" unicode="&#x1d0;" horiz-adv-x="305" 
d="M209 61l-9 12l84 -20v-53h-249v53l84 20l-10 -12v403l9 -9l-83 19v53l174 6v-472zM268 803l37 -39l-118 -133l-58 -5l-126 138l38 39l150 -122l-68 1z" />
    <glyph glyph-name="uni01D1" unicode="&#x1d1;" horiz-adv-x="741" 
d="M359 -10q-89 0 -158 39.5t-108 118t-39 194.5q0 92 24.5 161t68.5 115t102.5 69t126.5 23q67 0 124 -22t99 -65.5t65 -109t23 -151.5q0 -117 -42.5 -200.5t-116.5 -127.5t-169 -44zM366 70q58 0 106 29t76.5 92.5t28.5 165.5q0 97 -26.5 157t-73 88t-105.5 28
q-58 0 -105 -28.5t-75 -90.5t-28 -165q0 -97 26.5 -157.5t72 -89.5t103.5 -29zM513 924l34 -41l-140 -122l-58 -5l-149 127l35 41l176 -111l-68 1z" />
    <glyph glyph-name="uni01D2" unicode="&#x1d2;" horiz-adv-x="576" 
d="M295 540q112 0 176 -69.5t64 -196.5q0 -86 -31 -150t-88.5 -99t-138.5 -35q-111 0 -173 68.5t-62 195.5q0 89 30 153t86.5 98.5t136.5 34.5zM290 467q-71 0 -107.5 -53.5t-36.5 -154.5q0 -99 35 -147.5t102 -48.5q49 0 81.5 24t49 70.5t16.5 111.5q0 99 -36 148.5
t-104 49.5zM421 803l34 -39l-135 -133l-58 -5l-143 138l35 39l170 -122l-68 1z" />
    <glyph glyph-name="uni01D3" unicode="&#x1d3;" horiz-adv-x="747" 
d="M455 695l267 5v-53l-96 -24l14 26v-381q0 -42 -7.5 -82.5t-25 -75.5t-48 -62.5t-77 -42.5t-112.5 -15q-79 0 -129 19.5t-77.5 51.5t-39 68t-14.5 69.5t-3 57.5v392l14 -25l-96 19v53l267 5v-53l-94 -24l12 25v-392q0 -25 2 -51.5t10 -51t25.5 -43t47.5 -30t76 -11.5
q47 0 78 12t49 32t26.5 45.5t10.5 53.5t2 56v381l11 -25l-93 18v53zM513 924l34 -41l-140 -122l-58 -5l-149 127l35 41l176 -111l-68 1z" />
    <glyph glyph-name="uni01D4" unicode="&#x1d4;" horiz-adv-x="624" 
d="M242 -10q-66 0 -109.5 42t-43.5 128v310l11 -16l-86 20v53l175 6v-356q0 -56 25.5 -83t68.5 -27q34 0 73.5 18.5t77.5 56.5l-7 -20v350l11 -18l-86 20v53l175 7v-477l-14 17l88 -20v-53l-152 -7l-14 99l14 -5q-49 -50 -103.5 -74t-103.5 -24zM434 803l34 -39l-135 -133
l-58 -5l-143 138l35 39l170 -122l-68 1z" />
    <glyph glyph-name="uni01D5" unicode="&#x1d5;" horiz-adv-x="747" 
d="M455 695l267 5v-53l-96 -24l14 26v-381q0 -42 -7.5 -82.5t-25 -75.5t-48 -62.5t-77 -42.5t-112.5 -15q-79 0 -129 19.5t-77.5 51.5t-39 68t-14.5 69.5t-3 57.5v392l14 -25l-96 19v53l267 5v-53l-94 -24l12 25v-392q0 -25 2 -51.5t10 -51t25.5 -43t47.5 -30t76 -11.5
q47 0 78 12t49 32t26.5 45.5t10.5 53.5t2 56v381l11 -25l-93 18v53zM478 749q-26 0 -40.5 15.5t-14.5 43.5q-1 28 15.5 44t39.5 16q25 0 40 -16t15 -44t-16.5 -43.5t-38.5 -15.5zM272 749q-26 0 -40 15.5t-15 43.5q0 28 16 44t39 16q25 0 40 -16t15 -44t-16 -43.5t-39 -15.5
zM513 983v-71h-277v71h277z" />
    <glyph glyph-name="uni01D6" unicode="&#x1d6;" horiz-adv-x="624" 
d="M242 -10q-66 0 -109.5 42t-43.5 128v310l11 -16l-86 20v53l175 6v-356q0 -56 25.5 -83t68.5 -27q34 0 73.5 18.5t77.5 56.5l-7 -20v350l11 -18l-86 20v53l175 7v-477l-14 17l88 -20v-53l-152 -7l-14 99l14 -5q-49 -50 -103.5 -74t-103.5 -24zM404 604q-26 0 -40.5 15.5
t-14.5 43.5q-1 28 15.5 44t39.5 16q25 0 40 -16t15 -44t-16.5 -43.5t-38.5 -15.5zM198 604q-26 0 -40 15.5t-15 43.5q0 28 16 44t39 16q25 0 40 -16t15 -44t-16 -43.5t-39 -15.5zM440 843v-71h-277v71h277z" />
    <glyph glyph-name="uni01D7" unicode="&#x1d7;" horiz-adv-x="747" 
d="M455 695l267 5v-53l-96 -24l14 26v-381q0 -42 -7.5 -82.5t-25 -75.5t-48 -62.5t-77 -42.5t-112.5 -15q-79 0 -129 19.5t-77.5 51.5t-39 68t-14.5 69.5t-3 57.5v392l14 -25l-96 19v53l267 5v-53l-94 -24l12 25v-392q0 -25 2 -51.5t10 -51t25.5 -43t47.5 -30t76 -11.5
q47 0 78 12t49 32t26.5 45.5t10.5 53.5t2 56v381l11 -25l-93 18v53zM485 745q-26 0 -40 15.5t-15 43.5q0 28 16 44t39 16q26 0 40.5 -16t14.5 -44t-16 -43.5t-39 -15.5zM261 745q-25 0 -39.5 15.5t-14.5 43.5q-1 28 15 44t39 16q26 0 41 -16t15 -44t-16.5 -43.5t-39.5 -15.5
zM366 827l-41 42l128 137l57 -56z" />
    <glyph glyph-name="uni01D8" unicode="&#x1d8;" horiz-adv-x="624" 
d="M242 -10q-66 0 -109.5 42t-43.5 128v310l11 -16l-86 20v53l175 6v-356q0 -56 25.5 -83t68.5 -27q34 0 73.5 18.5t77.5 56.5l-7 -20v350l11 -18l-86 20v53l175 7v-477l-14 17l88 -20v-53l-152 -7l-14 99l14 -5q-49 -50 -103.5 -74t-103.5 -24zM410 604q-25 0 -39.5 15.5
t-15.5 43.5q0 28 16 44t39 16q26 0 40.5 -16t14.5 -44t-16 -43.5t-39 -15.5zM191 604q-25 0 -39.5 15.5t-14.5 43.5q-1 28 15 44t39 16q26 0 41 -16t15 -44t-16.5 -43.5t-39.5 -15.5zM296 691l-41 41l128 138l57 -56z" />
    <glyph glyph-name="uni01D9" unicode="&#x1d9;" horiz-adv-x="747" 
d="M455 695l267 5v-53l-96 -24l14 26v-381q0 -42 -7.5 -82.5t-25 -75.5t-48 -62.5t-77 -42.5t-112.5 -15q-79 0 -129 19.5t-77.5 51.5t-39 68t-14.5 69.5t-3 57.5v392l14 -25l-96 19v53l267 5v-53l-94 -24l12 25v-392q0 -25 2 -51.5t10 -51t25.5 -43t47.5 -30t76 -11.5
q47 0 78 12t49 32t26.5 45.5t10.5 53.5t2 56v381l11 -25l-93 18v53zM502 745q-25 0 -39.5 15.5t-14.5 43.5q-1 28 15 44t39 16q26 0 41 -16t15 -44t-16.5 -43.5t-39.5 -15.5zM247 745q-25 0 -39.5 15.5t-14.5 43.5q-1 28 15 44t39 16q26 0 41 -16t15 -44t-16.5 -43.5
t-39.5 -15.5zM517 1005l30 -42l-145 -121l-45 -5l-150 129l31 39l175 -116l-68 1z" />
    <glyph glyph-name="uni01DA" unicode="&#x1da;" horiz-adv-x="624" 
d="M242 -10q-66 0 -109.5 42t-43.5 128v310l11 -16l-86 20v53l175 6v-356q0 -56 25.5 -83t68.5 -27q34 0 73.5 18.5t77.5 56.5l-7 -20v350l11 -18l-86 20v53l175 7v-477l-14 17l88 -20v-53l-152 -7l-14 99l14 -5q-49 -50 -103.5 -74t-103.5 -24zM417 604q-26 0 -40.5 15.5
t-14.5 43.5q-1 28 15.5 44t39.5 16q25 0 40 -16t15 -44t-16.5 -43.5t-38.5 -15.5zM185 604q-26 0 -40 15.5t-15 43.5q0 28 16 44t39 16q25 0 40 -16t15 -44t-16.5 -43.5t-38.5 -15.5zM441 873l34 -41l-140 -122l-58 -5l-149 127l35 41l175 -111l-67 1z" />
    <glyph glyph-name="uni01DB" unicode="&#x1db;" horiz-adv-x="747" 
d="M455 695l267 5v-53l-96 -24l14 26v-381q0 -42 -7.5 -82.5t-25 -75.5t-48 -62.5t-77 -42.5t-112.5 -15q-79 0 -129 19.5t-77.5 51.5t-39 68t-14.5 69.5t-3 57.5v392l14 -25l-96 19v53l267 5v-53l-94 -24l12 25v-392q0 -25 2 -51.5t10 -51t25.5 -43t47.5 -30t76 -11.5
q47 0 78 12t49 32t26.5 45.5t10.5 53.5t2 56v381l11 -25l-93 18v53zM485 745q-26 0 -40 15.5t-15 43.5q0 28 16 44t39 16q26 0 40.5 -16t14.5 -44t-16 -43.5t-39 -15.5zM261 745q-25 0 -39.5 15.5t-14.5 43.5q-1 28 15 44t39 16q26 0 41 -16t15 -44t-16.5 -43.5t-39.5 -15.5
zM383 827l-143 122l57 57l128 -138z" />
    <glyph glyph-name="uni01DC" unicode="&#x1dc;" horiz-adv-x="624" 
d="M242 -10q-66 0 -109.5 42t-43.5 128v310l11 -16l-86 20v53l175 6v-356q0 -56 25.5 -83t68.5 -27q34 0 73.5 18.5t77.5 56.5l-7 -20v350l11 -18l-86 20v53l175 7v-477l-14 17l88 -20v-53l-152 -7l-14 99l14 -5q-49 -50 -103.5 -74t-103.5 -24zM410 604q-25 0 -39.5 15.5
t-15.5 43.5q0 28 16 44t39 16q26 0 40.5 -16t14.5 -44t-16 -43.5t-39 -15.5zM191 604q-25 0 -39.5 15.5t-14.5 43.5q-1 28 15 44t39 16q26 0 41 -16t15 -44t-16.5 -43.5t-39.5 -15.5zM306 691l-143 121l57 58l128 -139z" />
    <glyph glyph-name="Gcaron" unicode="&#x1e6;" horiz-adv-x="731" 
d="M376 -9q-97 0 -169.5 40t-112.5 119t-40 194q0 116 40 198t115 125t179 43q55 0 115.5 -12.5t122.5 -39.5l-8 -163h-61l-20 120l16 -16q-39 14 -81 22.5t-80 8.5q-70 0 -121.5 -33t-79 -96t-27.5 -155q0 -131 59 -203t166 -72q34 0 72 7.5t79 23.5l-13 -23v207l18 -18
l-100 15v55l257 5v-55l-91 -21l12 19v-241q-66 -28 -128.5 -41t-118.5 -13zM514 924l34 -41l-140 -122l-58 -5l-149 127l35 41l176 -111l-68 1z" />
    <glyph glyph-name="gcaron" unicode="&#x1e7;" horiz-adv-x="564" 
d="M262 -240q-119 0 -178 33.5t-59 97.5q0 47 31.5 81.5t92.5 59.5v-20q-34 2 -53.5 15.5t-19.5 37.5q0 8 2.5 16.5t9 23.5t18.5 39l31 62l2 -17q-45 23 -69 63.5t-24 95.5q0 89 59.5 140.5t164.5 51.5q72 0 124 -25l-25 5l160 7l1 -59l-88 -17l7 14q19 -19 29 -46.5
t10 -62.5q0 -90 -61 -141.5t-162 -51.5q-55 0 -103 17l23 11l-23 -123l-21 10h197q98 0 148.5 -38t50.5 -109q0 -83 -69 -127t-206 -44zM271 -165q88 0 129 22t41 66q0 39 -30 59t-89 20h-164l26 6q-71 -45 -71 -97q0 -38 38.5 -57t119.5 -19zM264 232q59 0 91.5 31.5
t32.5 90.5t-30.5 88t-88.5 29q-59 0 -90.5 -30.5t-31.5 -89.5q0 -58 30 -88.5t87 -30.5zM403 803l34 -39l-135 -133l-58 -5l-143 138l35 39l170 -122l-68 1z" />
    <glyph glyph-name="uni01EA" unicode="&#x1ea;" horiz-adv-x="741" 
d="M359 -10q-89 0 -158 39.5t-108 118t-39 194.5q0 92 24.5 161t68.5 115t102.5 69t126.5 23q67 0 124 -22t99 -65.5t65 -109t23 -151.5q0 -117 -42.5 -200.5t-116.5 -127.5t-169 -44zM366 70q58 0 106 29t76.5 92.5t28.5 165.5q0 97 -26.5 157t-73 88t-105.5 28
q-58 0 -105 -28.5t-75 -90.5t-28 -165q0 -97 26.5 -157.5t72 -89.5t103.5 -29zM376 -221q-52 0 -84.5 25.5t-32.5 69.5q0 32 19.5 64.5t58 60.5t95.5 47l11 -46q-53 -19 -81.5 -48.5t-28.5 -55.5q0 -23 20.5 -37t51.5 -14q9 0 19 1.5t20 3.5l6 -58q-20 -7 -38.5 -10
t-35.5 -3z" />
    <glyph glyph-name="uni01EB" unicode="&#x1eb;" horiz-adv-x="576" 
d="M295 540q112 0 176 -69.5t64 -196.5q0 -86 -31 -150t-88.5 -99t-138.5 -35q-111 0 -173 68.5t-62 195.5q0 89 30 153t86.5 98.5t136.5 34.5zM290 467q-71 0 -107.5 -53.5t-36.5 -154.5q0 -99 35 -147.5t102 -48.5q49 0 81.5 24t49 70.5t16.5 111.5q0 99 -36 148.5
t-104 49.5zM287 -221q-52 0 -84.5 25.5t-32.5 69.5q0 32 19.5 64.5t58 60.5t95.5 47l11 -46q-53 -19 -81.5 -48.5t-28.5 -55.5q0 -23 20.5 -37t51.5 -14q9 0 19 1.5t20 3.5l6 -58q-20 -7 -38.5 -10t-35.5 -3z" />
    <glyph glyph-name="uni01F1" unicode="&#x1f1;" horiz-adv-x="1307" 
d="M348 700q69 0 126.5 -20.5t99.5 -62.5t65.5 -105.5t23.5 -150.5q0 -118 -42.5 -198.5t-117 -121.5t-172.5 -41h-286v53l97 23l-15 -22v589l16 -22l-98 21v53l201 5h102zM335 75q41 0 80 13t70.5 44t49.5 85.5t18 136.5q0 80 -17.5 132.5t-47 83t-66.5 43t-76 12.5h-134
l17 17v-584l-17 17h123zM729 0v69l413 568l11 -13h-344l25 12l-21 -119h-61v183h501v-68l-411 -572l-5 16h363l-24 -15l20 122h62l-2 -183h-527z" />
    <glyph glyph-name="uni01F2" unicode="&#x1f2;" horiz-adv-x="1205" 
d="M348 700q69 0 126.5 -20.5t99.5 -62.5t65.5 -105.5t23.5 -150.5q0 -118 -42.5 -198.5t-117 -121.5t-172.5 -41h-286v53l97 23l-15 -22v589l16 -22l-98 21v53l201 5h102zM335 75q41 0 80 13t70.5 44t49.5 85.5t18 136.5q0 80 -17.5 132.5t-47 83t-66.5 43t-76 12.5h-134
l17 17v-584l-17 17h123zM1164 153l1 -152l-411 -1v59l305 423l14 -21h-265l29 23l-14 -96h-61l-1 142h395v-60l-307 -429l-4 28h262l-27 -28l22 112h62z" />
    <glyph glyph-name="uni01F3" unicode="&#x1f3;" horiz-adv-x="1085" 
d="M240 -10q-56 0 -101 30.5t-70.5 90t-25.5 145.5q0 142 72 213t200 71q25 0 51.5 -3.5t54.5 -10.5l-20 -11v189l10 -12l-89 22v53l179 7v-715l-13 16l88 -21v-53l-152 -7l-14 86l11 -4q-45 -43 -89.5 -64.5t-91.5 -21.5zM277 65q32 0 66.5 17t70.5 51l-13 -32v373l13 -24
q-56 17 -102 17q-82 0 -123.5 -53.5t-41.5 -148.5q0 -62 16.5 -107t46 -69t67.5 -24zM1045 153l1 -152l-411 -1v59l305 423l14 -21h-265l29 23l-14 -96h-61l-1 142h395v-60l-307 -429l-4 28h262l-27 -28l22 112h62z" />
    <glyph glyph-name="Aringacute" unicode="&#x1fa;" horiz-adv-x="710" 
d="M642 52l-27 24l91 -23v-53h-269v53l98 21l-10 -16l-48 150l17 -14h-292l15 14l-52 -148l-5 13l95 -20v-53h-251v53l89 22l-25 -21l241 645l105 3zM231 252l-9 15h254l-11 -16l-122 391h24zM256 934l-29 56l214 114l40 -81zM361 728q-34 0 -60 13t-40 36.5t-14 54.5t14 55
t40.5 37.5t62.5 13.5q34 0 59.5 -13t39.5 -36.5t14 -53.5q0 -31 -14 -55t-40 -38t-62 -14zM361 777q26 0 39.5 16t13.5 41q0 24 -13 39.5t-39 15.5q-25 0 -38.5 -16t-13.5 -40q0 -25 13 -40.5t38 -15.5z" />
    <glyph glyph-name="aringacute" unicode="&#x1fb;" horiz-adv-x="552" 
d="M459 54l-15 21l90 -21v-53l-152 -7l-14 96l8 -3q-43 -49 -93 -73t-97 -24q-58 0 -99.5 38t-41.5 114q0 58 25 90.5t70 46.5t106 14h122l-9 -11v86q0 52 -27 74.5t-75 22.5q-25 0 -52.5 -5t-59.5 -16l14 14l-11 -89h-66l-8 133q61 19 112.5 28.5t95.5 9.5q84 0 130.5 -37
t46.5 -117v-332zM146 149q0 -43 21 -63.5t53 -20.5t70.5 20.5t74.5 54.5l-6 -25v124l9 -10h-106q-66 0 -91 -20t-25 -60zM166 785l-29 56l214 114l40 -81zM271 579q-34 0 -60 13t-40 36.5t-14 54.5t14 55t40.5 37.5t62.5 13.5q34 0 59.5 -13t39.5 -36.5t14 -53.5
q0 -31 -14 -55t-40 -38t-62 -14zM271 628q26 0 39.5 16t13.5 41q0 24 -13 39.5t-39 15.5q-25 0 -38.5 -16t-13.5 -40q0 -25 13 -40.5t38 -15.5z" />
    <glyph glyph-name="AEacute" unicode="&#x1fc;" horiz-adv-x="945" 
d="M0 0v53l92 22l-29 -22l292 586l12 -18l-99 21v53l203 5h399v-165h-61l-20 110l20 -20h-265l17 17v-258l-17 17h252v-73h-252l17 20v-291l-17 18h278l-20 -19l20 116h61l-1 -172h-501v53l92 24l-14 -19v170l17 -18h-253l23 17l-86 -174l-7 22l99 -22v-53h-252zM264 268
l-12 15h224l-17 -15v369l17 -12h-52l22 11zM474 751l-30 55l211 122l41 -80z" />
    <glyph glyph-name="aeacute" unicode="&#x1fd;" horiz-adv-x="865" 
d="M80 374l-8 128q59 20 109.5 29t90.5 9q67 0 106.5 -25t47.5 -74l6 -21l-9 8q28 54 77.5 83t110.5 29q99 0 154 -62t55 -175q0 -20 -1.5 -38.5t-3.5 -29.5h-361l9 24l1 -15q2 -82 43 -130t109 -48q77 0 165 57l35 -56q-55 -37 -111.5 -57t-111.5 -20q-67 0 -118 31.5
t-77 88.5l26 -1q-43 -61 -101.5 -90.5t-114.5 -29.5q-44 0 -81 17.5t-59.5 52t-22.5 84.5q0 80 48 120.5t149 40.5h130l-10 -17v81q0 50 -25.5 74t-76.5 24q-24 0 -53 -5.5t-64 -16.5l11 14l-11 -84h-63zM376 128q-7 26 -10.5 57t-3.5 70l10 -20h-110q-63 0 -89.5 -15.5
t-26.5 -63.5q0 -46 27 -69.5t66 -23.5q35 0 73 19t69 58zM463 286l-10 18h273l-10 -14q1 91 -27.5 134t-87.5 43q-63 0 -99.5 -47t-38.5 -134zM372 615l-36 50l191 150l54 -73z" />
    <glyph glyph-name="Oslashacute" unicode="&#x1fe;" horiz-adv-x="742" 
d="M600 774l55 -32l-79 -124l-15 -20l-327 -519l-7 -15l-88 -140l-55 33l88 140l11 14l332 524l6 14zM360 -10q-89 0 -158 39.5t-108 118t-39 194.5q0 92 24.5 161t68.5 115t102.5 69t127.5 23q67 0 123.5 -22t98.5 -65.5t65.5 -109t23.5 -151.5q0 -117 -42.5 -200.5
t-116.5 -127.5t-170 -44zM367 70q58 0 106 29t77 92.5t29 165.5q0 97 -27 157t-73.5 88t-105.5 28q-57 0 -104.5 -28.5t-75.5 -90.5t-28 -165q0 -97 26.5 -157.5t72 -89.5t103.5 -29zM285 751l-30 55l211 122l41 -80z" />
    <glyph glyph-name="oslashacute" unicode="&#x1ff;" horiz-adv-x="579" 
d="M476 618l52 -30l-78 -125l-15 -15l-242 -391l-6 -20l-77 -125l-53 31l78 126l16 15l246 396l4 17zM297 540q112 0 176 -69.5t64 -196.5q0 -86 -31 -150t-88.5 -99t-137.5 -35q-112 0 -174 68.5t-62 195.5q0 89 30 153t87 98.5t136 34.5zM292 467q-70 0 -107 -53.5
t-37 -154.5q0 -99 35 -147.5t102 -48.5q49 0 81.5 24t49.5 70.5t17 111.5q0 99 -36.5 148.5t-104.5 49.5zM227 615l-36 50l191 150l54 -73z" />
    <glyph glyph-name="uni0200" unicode="&#x200;" horiz-adv-x="710" 
d="M642 52l-27 24l91 -23v-53h-269v53l98 21l-10 -16l-48 150l17 -14h-292l15 14l-52 -148l-5 13l95 -20v-53h-251v53l89 22l-25 -21l241 645l105 3zM231 252l-9 15h254l-11 -16l-122 391h24zM283 743l53 27l-78 174l-72 -38zM430 743l54 26l-73 175l-73 -35z" />
    <glyph glyph-name="uni0201" unicode="&#x201;" horiz-adv-x="552" 
d="M459 54l-15 21l90 -21v-53l-152 -7l-14 96l8 -3q-43 -49 -93 -73t-97 -24q-58 0 -99.5 38t-41.5 114q0 58 25 90.5t70 46.5t106 14h122l-9 -11v86q0 52 -27 74.5t-75 22.5q-25 0 -52.5 -5t-59.5 -16l14 14l-11 -89h-66l-8 133q61 19 112.5 28.5t95.5 9.5q84 0 130.5 -37
t46.5 -117v-332zM146 149q0 -43 21 -63.5t53 -20.5t70.5 20.5t74.5 54.5l-6 -25v124l9 -10h-106q-66 0 -91 -20t-25 -60zM181 615l53 27l-78 174l-71 -38zM328 615l54 26l-73 175l-73 -35z" />
    <glyph glyph-name="uni0202" unicode="&#x202;" horiz-adv-x="710" 
d="M642 52l-27 24l91 -23v-53h-269v53l98 21l-10 -16l-48 150l17 -14h-292l15 14l-52 -148l-5 13l95 -20v-53h-251v53l89 22l-25 -21l241 645l105 3zM231 252l-9 15h254l-11 -16l-122 391h24zM361 900q42 0 73.5 -18t50.5 -49.5t20 -72.5l-62 -7q-4 35 -27 55.5t-58 20.5
q-34 0 -55 -19t-24 -53l-60 -2q0 42 17.5 75t50 51.5t74.5 18.5z" />
    <glyph glyph-name="uni0203" unicode="&#x203;" horiz-adv-x="552" 
d="M459 54l-15 21l90 -21v-53l-152 -7l-14 96l8 -3q-43 -49 -93 -73t-97 -24q-58 0 -99.5 38t-41.5 114q0 58 25 90.5t70 46.5t106 14h122l-9 -11v86q0 52 -27 74.5t-75 22.5q-25 0 -52.5 -5t-59.5 -16l14 14l-11 -89h-66l-8 133q61 19 112.5 28.5t95.5 9.5q84 0 130.5 -37
t46.5 -117v-332zM146 149q0 -43 21 -63.5t53 -20.5t70.5 20.5t74.5 54.5l-6 -25v124l9 -10h-106q-66 0 -91 -20t-25 -60zM271 769q42 0 73.5 -18t50.5 -49.5t20 -72.5l-62 -7q-4 35 -27 55.5t-58 20.5q-34 0 -55 -19t-24 -53l-60 -2q0 42 17.5 75t50 51.5t74.5 18.5z" />
    <glyph glyph-name="uni0204" unicode="&#x204;" horiz-adv-x="617" 
d="M494 172h62l-1 -172h-510v53l97 23l-15 -22v589l14 -21l-96 20v53l182 5h316v-165h-61l-19 105l20 -15h-271l17 17v-265l-17 17h257v-73h-257l17 20v-283l-17 17h284l-21 -17zM239 743l53 27l-78 174l-72 -38zM386 743l54 26l-73 175l-73 -35z" />
    <glyph glyph-name="uni0205" unicode="&#x205;" horiz-adv-x="549" 
d="M276 -10q-69 0 -121.5 30.5t-82 90t-29.5 145.5q0 88 30.5 151.5t87 98t132.5 34.5q73 0 119.5 -30t69 -82.5t22.5 -119.5q0 -13 -1 -26t-3 -30h-379v69h289l-9 -6q1 41 -10 75t-37 54.5t-69 20.5q-47 0 -78 -25.5t-46 -69.5t-15 -101q0 -61 17 -106.5t51.5 -71
t85.5 -25.5q36 0 78.5 14t87.5 42l35 -55q-56 -39 -113.5 -58t-111.5 -19zM194 615l53 27l-78 174l-71 -38zM341 615l54 26l-73 175l-73 -35z" />
    <glyph glyph-name="uni0206" unicode="&#x206;" horiz-adv-x="617" 
d="M494 172h62l-1 -172h-510v53l97 23l-15 -22v589l14 -21l-96 20v53l182 5h316v-165h-61l-19 105l20 -15h-271l17 17v-265l-17 17h257v-73h-257l17 20v-283l-17 17h284l-21 -17zM317 900q42 0 73.5 -18t50.5 -49.5t20 -72.5l-62 -7q-4 35 -27 55.5t-58 20.5q-34 0 -55 -19
t-24 -53l-60 -2q0 42 17.5 75t50 51.5t74.5 18.5z" />
    <glyph glyph-name="uni0207" unicode="&#x207;" horiz-adv-x="549" 
d="M276 -10q-69 0 -121.5 30.5t-82 90t-29.5 145.5q0 88 30.5 151.5t87 98t132.5 34.5q73 0 119.5 -30t69 -82.5t22.5 -119.5q0 -13 -1 -26t-3 -30h-379v69h289l-9 -6q1 41 -10 75t-37 54.5t-69 20.5q-47 0 -78 -25.5t-46 -69.5t-15 -101q0 -61 17 -106.5t51.5 -71
t85.5 -25.5q36 0 78.5 14t87.5 42l35 -55q-56 -39 -113.5 -58t-111.5 -19zM284 769q42 0 73.5 -18t50.5 -49.5t20 -72.5l-62 -7q-4 35 -27 55.5t-58 20.5q-34 0 -55 -19t-24 -53l-60 -2q0 42 17.5 75t50 51.5t74.5 18.5z" />
    <glyph glyph-name="uni0208" unicode="&#x208;" horiz-adv-x="355" 
d="M311 647l-94 -24l12 16v-581l-12 17l94 -22v-53h-266v53l93 21l-11 -16v581l14 -17l-96 20v53l266 5v-53zM99 743l53 27l-78 174l-72 -38zM246 743l54 26l-73 175l-73 -35z" />
    <glyph glyph-name="uni0209" unicode="&#x209;" horiz-adv-x="305" 
d="M209 61l-9 12l84 -20v-53h-249v53l84 20l-10 -12v403l9 -9l-83 19v53l174 6v-472zM64 615l53 27l-78 174l-71 -38zM211 615l54 26l-73 175l-73 -35z" />
    <glyph glyph-name="uni020A" unicode="&#x20a;" horiz-adv-x="355" 
d="M311 647l-94 -24l12 16v-581l-12 17l94 -22v-53h-266v53l93 21l-11 -16v581l14 -17l-96 20v53l266 5v-53zM177 900q42 0 73.5 -18t50.5 -49.5t20 -72.5l-62 -7q-4 35 -27 55.5t-58 20.5q-34 0 -55 -19t-24 -53l-60 -2q0 42 17.5 75t50 51.5t74.5 18.5z" />
    <glyph glyph-name="uni020B" unicode="&#x20b;" horiz-adv-x="305" 
d="M209 61l-9 12l84 -20v-53h-249v53l84 20l-10 -12v403l9 -9l-83 19v53l174 6v-472zM155 769q42 0 73.5 -18t50.5 -49.5t20 -72.5l-62 -7q-4 35 -27 55.5t-58 20.5q-34 0 -55 -19t-24 -53l-60 -2q0 42 17.5 75t50 51.5t74.5 18.5z" />
    <glyph glyph-name="uni020C" unicode="&#x20c;" horiz-adv-x="741" 
d="M359 -10q-89 0 -158 39.5t-108 118t-39 194.5q0 92 24.5 161t68.5 115t102.5 69t126.5 23q67 0 124 -22t99 -65.5t65 -109t23 -151.5q0 -117 -42.5 -200.5t-116.5 -127.5t-169 -44zM366 70q58 0 106 29t76.5 92.5t28.5 165.5q0 97 -26.5 157t-73 88t-105.5 28
q-58 0 -105 -28.5t-75 -90.5t-28 -165q0 -97 26.5 -157.5t72 -89.5t103.5 -29zM295 743l53 27l-78 174l-72 -38zM442 743l54 26l-73 175l-73 -35z" />
    <glyph glyph-name="uni020D" unicode="&#x20d;" horiz-adv-x="576" 
d="M295 540q112 0 176 -69.5t64 -196.5q0 -86 -31 -150t-88.5 -99t-138.5 -35q-111 0 -173 68.5t-62 195.5q0 89 30 153t86.5 98.5t136.5 34.5zM290 467q-71 0 -107.5 -53.5t-36.5 -154.5q0 -99 35 -147.5t102 -48.5q49 0 81.5 24t49 70.5t16.5 111.5q0 99 -36 148.5
t-104 49.5zM197 615l53 27l-78 174l-71 -38zM344 615l54 26l-73 175l-73 -35z" />
    <glyph glyph-name="uni020E" unicode="&#x20e;" horiz-adv-x="741" 
d="M359 -10q-89 0 -158 39.5t-108 118t-39 194.5q0 92 24.5 161t68.5 115t102.5 69t126.5 23q67 0 124 -22t99 -65.5t65 -109t23 -151.5q0 -117 -42.5 -200.5t-116.5 -127.5t-169 -44zM366 70q58 0 106 29t76.5 92.5t28.5 165.5q0 97 -26.5 157t-73 88t-105.5 28
q-58 0 -105 -28.5t-75 -90.5t-28 -165q0 -97 26.5 -157.5t72 -89.5t103.5 -29zM374 900q42 0 73.5 -18t50.5 -49.5t20 -72.5l-62 -7q-4 35 -27 55.5t-58 20.5q-34 0 -55 -19t-24 -53l-60 -2q0 42 17.5 75t50 51.5t74.5 18.5z" />
    <glyph glyph-name="uni020F" unicode="&#x20f;" horiz-adv-x="576" 
d="M295 540q112 0 176 -69.5t64 -196.5q0 -86 -31 -150t-88.5 -99t-138.5 -35q-111 0 -173 68.5t-62 195.5q0 89 30 153t86.5 98.5t136.5 34.5zM290 467q-71 0 -107.5 -53.5t-36.5 -154.5q0 -99 35 -147.5t102 -48.5q49 0 81.5 24t49 70.5t16.5 111.5q0 99 -36 148.5
t-104 49.5zM287 769q42 0 73.5 -18t50.5 -49.5t20 -72.5l-62 -7q-4 35 -27 55.5t-58 20.5q-34 0 -55 -19t-24 -53l-60 -2q0 42 17.5 75t50 51.5t74.5 18.5z" />
    <glyph glyph-name="uni0210" unicode="&#x210;" horiz-adv-x="661" 
d="M45 0v53l96 22l-14 -21v589l19 -22l-101 21v53l188 5h110q116 0 175 -48t59 -139q0 -82 -51.5 -135t-158.5 -65v12q39 -3 63.5 -15.5t41.5 -34t32 -52.5l83 -165l-31 20l87 -25v-53h-137l-91 196q-19 41 -35 63.5t-39 31.5t-67 9l-63 -1l18 16v-261l-15 22l111 -23v-53
h-280zM229 346l-18 26h91q83 0 126.5 34t43.5 101q0 57 -35.5 87.5t-105.5 30.5h-120l18 18v-297zM235 743l53 27l-78 174l-72 -38zM382 743l54 26l-73 175l-73 -35z" />
    <glyph glyph-name="uni0211" unicode="&#x211;" horiz-adv-x="451" 
d="M35 0v53l86 20l-12 -17v415l13 -18l-87 21v53l152 7l13 -97l-13 4q45 47 88.5 73t93.5 26q32 0 68 -10l-7 -159h-61l-13 106l11 -21q-7 2 -14.5 3t-14.5 1q-37 0 -72.5 -22.5t-65.5 -57.5l9 29v-353l-13 17l106 -20v-53h-267zM144 615l53 27l-78 174l-71 -38zM291 615
l54 26l-73 175l-73 -35z" />
    <glyph glyph-name="uni0212" unicode="&#x212;" horiz-adv-x="661" 
d="M45 0v53l96 22l-14 -21v589l19 -22l-101 21v53l188 5h110q116 0 175 -48t59 -139q0 -82 -51.5 -135t-158.5 -65v12q39 -3 63.5 -15.5t41.5 -34t32 -52.5l83 -165l-31 20l87 -25v-53h-137l-91 196q-19 41 -35 63.5t-39 31.5t-67 9l-63 -1l18 16v-261l-15 22l111 -23v-53
h-280zM229 346l-18 26h91q83 0 126.5 34t43.5 101q0 57 -35.5 87.5t-105.5 30.5h-120l18 18v-297zM313 900q42 0 73.5 -18t50.5 -49.5t20 -72.5l-62 -7q-4 35 -27 55.5t-58 20.5q-34 0 -55 -19t-24 -53l-60 -2q0 42 17.5 75t50 51.5t74.5 18.5z" />
    <glyph glyph-name="uni0213" unicode="&#x213;" horiz-adv-x="451" 
d="M35 0v53l86 20l-12 -17v415l13 -18l-87 21v53l152 7l13 -97l-13 4q45 47 88.5 73t93.5 26q32 0 68 -10l-7 -159h-61l-13 106l11 -21q-7 2 -14.5 3t-14.5 1q-37 0 -72.5 -22.5t-65.5 -57.5l9 29v-353l-13 17l106 -20v-53h-267zM235 769q42 0 73.5 -18t50.5 -49.5t20 -72.5
l-62 -7q-4 35 -27 55.5t-58 20.5q-34 0 -55 -19t-24 -53l-60 -2q0 42 17.5 75t50 51.5t74.5 18.5z" />
    <glyph glyph-name="uni0214" unicode="&#x214;" horiz-adv-x="747" 
d="M455 695l267 5v-53l-96 -24l14 26v-381q0 -42 -7.5 -82.5t-25 -75.5t-48 -62.5t-77 -42.5t-112.5 -15q-79 0 -129 19.5t-77.5 51.5t-39 68t-14.5 69.5t-3 57.5v392l14 -25l-96 19v53l267 5v-53l-94 -24l12 25v-392q0 -25 2 -51.5t10 -51t25.5 -43t47.5 -30t76 -11.5
q47 0 78 12t49 32t26.5 45.5t10.5 53.5t2 56v381l11 -25l-93 18v53zM296 743l53 27l-78 174l-72 -38zM443 743l54 26l-73 175l-73 -35z" />
    <glyph glyph-name="uni0215" unicode="&#x215;" horiz-adv-x="624" 
d="M242 -10q-66 0 -109.5 42t-43.5 128v310l11 -16l-86 20v53l175 6v-356q0 -56 25.5 -83t68.5 -27q34 0 73.5 18.5t77.5 56.5l-7 -20v350l11 -18l-86 20v53l175 7v-477l-14 17l88 -20v-53l-152 -7l-14 99l14 -5q-49 -50 -103.5 -74t-103.5 -24zM210 615l53 27l-78 174
l-71 -38zM357 615l54 26l-73 175l-73 -35z" />
    <glyph glyph-name="uni0216" unicode="&#x216;" horiz-adv-x="747" 
d="M455 695l267 5v-53l-96 -24l14 26v-381q0 -42 -7.5 -82.5t-25 -75.5t-48 -62.5t-77 -42.5t-112.5 -15q-79 0 -129 19.5t-77.5 51.5t-39 68t-14.5 69.5t-3 57.5v392l14 -25l-96 19v53l267 5v-53l-94 -24l12 25v-392q0 -25 2 -51.5t10 -51t25.5 -43t47.5 -30t76 -11.5
q47 0 78 12t49 32t26.5 45.5t10.5 53.5t2 56v381l11 -25l-93 18v53zM374 900q42 0 73.5 -18t50.5 -49.5t20 -72.5l-62 -7q-4 35 -27 55.5t-58 20.5q-34 0 -55 -19t-24 -53l-60 -2q0 42 17.5 75t50 51.5t74.5 18.5z" />
    <glyph glyph-name="uni0217" unicode="&#x217;" horiz-adv-x="624" 
d="M242 -10q-66 0 -109.5 42t-43.5 128v310l11 -16l-86 20v53l175 6v-356q0 -56 25.5 -83t68.5 -27q34 0 73.5 18.5t77.5 56.5l-7 -20v350l11 -18l-86 20v53l175 7v-477l-14 17l88 -20v-53l-152 -7l-14 99l14 -5q-49 -50 -103.5 -74t-103.5 -24zM301 769q42 0 73.5 -18
t50.5 -49.5t20 -72.5l-62 -7q-4 35 -27 55.5t-58 20.5q-34 0 -55 -19t-24 -53l-60 -2q0 42 17.5 75t50 51.5t74.5 18.5z" />
    <glyph glyph-name="uni0218" unicode="&#x218;" horiz-adv-x="600" 
d="M171 528q0 -35 20 -57.5t53 -37.5t72.5 -27t79 -27t72.5 -37t53 -57t20 -88q0 -71 -36.5 -117t-97 -68t-133.5 -22q-51 0 -104 10.5t-105 31.5l6 172h60l19 -125l-11 19q33 -15 69.5 -23t71.5 -8q43 0 79.5 13t58.5 39t22 65q0 37 -20 60t-53 38t-72 27t-78.5 26
t-72.5 35.5t-53 56t-20 86.5q0 67 32.5 110.5t88 65t124.5 21.5q49 0 101.5 -10.5t103.5 -31.5l-9 -163h-61l-17 116l13 -13q-28 12 -61 18.5t-66 6.5q-39 0 -73 -10.5t-55 -33.5t-21 -61zM271 -290l-36 23q20 33 27 52t7 30t-5.5 19.5t-11.5 18.5t-6 27q0 27 17.5 40.5
t38.5 13.5t39 -14.5t18 -44.5q0 -29 -20.5 -70.5t-67.5 -94.5z" />
    <glyph glyph-name="uni0219" unicode="&#x219;" horiz-adv-x="495" 
d="M154 400q0 -29 20 -45.5t52 -27.5t68.5 -22t68.5 -28t52.5 -45.5t20.5 -74.5q0 -54 -29.5 -91t-80.5 -56.5t-114 -19.5q-37 0 -78 6t-84 18l7 141h63l11 -95l-10 12q22 -6 47.5 -9.5t46.5 -3.5q31 0 58.5 9t45 27.5t17.5 45.5q0 30 -20.5 47.5t-52.5 28.5t-67.5 22
t-67.5 28t-52 45t-20 75q0 53 27 87t72 50t96 16q35 0 77.5 -7t87.5 -21l-5 -121h-64l-15 81l14 -16q-50 15 -92 15q-44 0 -72 -19t-28 -52zM214 -290l-36 23q20 33 27 52t7 30t-5.5 19.5t-11.5 18.5t-6 27q0 27 17.5 40.5t38.5 13.5t39 -14.5t18 -44.5q0 -29 -20.5 -70.5
t-67.5 -94.5z" />
    <glyph glyph-name="uni021A" unicode="&#x21a;" horiz-adv-x="594" 
d="M151 0v53l114 23l-19 -27v593l22 -17h-183l24 21l-23 -127h-61v181h544v-181h-61l-22 123l23 -17h-183l22 17v-593l-18 27l113 -23v-53h-292zM262 -290l-36 23q20 33 27 52t7 30t-5.5 19.5t-11.5 18.5t-6 27q0 27 17.5 40.5t38.5 13.5t39 -14.5t18 -44.5
q0 -29 -20.5 -70.5t-67.5 -94.5z" />
    <glyph glyph-name="uni021B" unicode="&#x21b;" horiz-adv-x="373" 
d="M218 -10q-58 0 -89.5 35.5t-31.5 106.5v344l14 -14h-100v54l102 18l-16 -19v133l100 17v-150l-12 15h155l-3 -68h-152l12 14v-330q0 -42 15.5 -61t45.5 -19q17 0 37.5 5.5t44.5 16.5l20 -57q-76 -41 -142 -41zM159 -290l-36 23q20 33 27 52t7 30t-5.5 19.5t-11.5 18.5
t-6 27q0 27 17.5 40.5t38.5 13.5t39 -14.5t18 -44.5q0 -29 -20.5 -70.5t-67.5 -94.5z" />
    <glyph glyph-name="uni022A" unicode="&#x22a;" horiz-adv-x="741" 
d="M359 -10q-89 0 -158 39.5t-108 118t-39 194.5q0 92 24.5 161t68.5 115t102.5 69t126.5 23q67 0 124 -22t99 -65.5t65 -109t23 -151.5q0 -117 -42.5 -200.5t-116.5 -127.5t-169 -44zM366 70q58 0 106 29t76.5 92.5t28.5 165.5q0 97 -26.5 157t-73 88t-105.5 28
q-58 0 -105 -28.5t-75 -90.5t-28 -165q0 -97 26.5 -157.5t72 -89.5t103.5 -29zM477 749q-26 0 -40.5 15.5t-14.5 43.5q-1 28 15.5 44t39.5 16q25 0 40 -16t15 -44t-16.5 -43.5t-38.5 -15.5zM271 749q-26 0 -40 15.5t-15 43.5q0 28 16 44t39 16q25 0 40 -16t15 -44t-16 -43.5
t-39 -15.5zM512 983v-71h-277v71h277z" />
    <glyph glyph-name="uni022B" unicode="&#x22b;" horiz-adv-x="576" 
d="M295 540q112 0 176 -69.5t64 -196.5q0 -86 -31 -150t-88.5 -99t-138.5 -35q-111 0 -173 68.5t-62 195.5q0 89 30 153t86.5 98.5t136.5 34.5zM290 467q-71 0 -107.5 -53.5t-36.5 -154.5q0 -99 35 -147.5t102 -48.5q49 0 81.5 24t49 70.5t16.5 111.5q0 99 -36 148.5
t-104 49.5zM391 604q-26 0 -40.5 15.5t-14.5 43.5q-1 28 15.5 44t39.5 16q25 0 40 -16t15 -44t-16.5 -43.5t-38.5 -15.5zM185 604q-26 0 -40 15.5t-15 43.5q0 28 16 44t39 16q25 0 40 -16t15 -44t-16 -43.5t-39 -15.5zM427 843v-71h-277v71h277z" />
    <glyph glyph-name="uni022C" unicode="&#x22c;" horiz-adv-x="741" 
d="M359 -10q-89 0 -158 39.5t-108 118t-39 194.5q0 92 24.5 161t68.5 115t102.5 69t126.5 23q67 0 124 -22t99 -65.5t65 -109t23 -151.5q0 -117 -42.5 -200.5t-116.5 -127.5t-169 -44zM366 70q58 0 106 29t76.5 92.5t28.5 165.5q0 97 -26.5 157t-73 88t-105.5 28
q-58 0 -105 -28.5t-75 -90.5t-28 -165q0 -97 26.5 -157.5t72 -89.5t103.5 -29zM245 740l-44 20q18 51 42 73.5t56 22.5q26 0 51 -11t48 -21.5t42 -10.5q17 0 31.5 10t29.5 35l44 -19q-19 -52 -44.5 -74.5t-57.5 -22.5q-25 0 -49 11t-47 21.5t-44 10.5q-17 0 -30 -11t-28 -34
zM509 971v-71h-277v71h277z" />
    <glyph glyph-name="uni022D" unicode="&#x22d;" horiz-adv-x="576" 
d="M295 540q112 0 176 -69.5t64 -196.5q0 -86 -31 -150t-88.5 -99t-138.5 -35q-111 0 -173 68.5t-62 195.5q0 89 30 153t86.5 98.5t136.5 34.5zM290 467q-71 0 -107.5 -53.5t-36.5 -154.5q0 -99 35 -147.5t102 -48.5q49 0 81.5 24t49 70.5t16.5 111.5q0 99 -36 148.5
t-104 49.5zM160 599l-44 20q18 51 42 73.5t56 22.5q26 0 51 -11t48 -21.5t42 -10.5q17 0 31.5 10t29.5 35l44 -19q-19 -52 -44.5 -74.5t-57.5 -22.5q-25 0 -49 11t-47 21.5t-44 10.5q-17 0 -30 -11t-28 -34zM426 842v-71h-277v71h277z" />
    <glyph glyph-name="uni0230" unicode="&#x230;" horiz-adv-x="741" 
d="M359 -10q-89 0 -158 39.5t-108 118t-39 194.5q0 92 24.5 161t68.5 115t102.5 69t126.5 23q67 0 124 -22t99 -65.5t65 -109t23 -151.5q0 -117 -42.5 -200.5t-116.5 -127.5t-169 -44zM366 70q58 0 106 29t76.5 92.5t28.5 165.5q0 97 -26.5 157t-73 88t-105.5 28
q-58 0 -105 -28.5t-75 -90.5t-28 -165q0 -97 26.5 -157.5t72 -89.5t103.5 -29zM373 744q-27 0 -44.5 17t-17.5 48q0 32 18 48.5t45 16.5q28 0 45.5 -16.5t17.5 -48.5t-18.5 -48.5t-45.5 -16.5zM512 983v-71h-277v71h277z" />
    <glyph glyph-name="uni0231" unicode="&#x231;" horiz-adv-x="576" 
d="M295 540q112 0 176 -69.5t64 -196.5q0 -86 -31 -150t-88.5 -99t-138.5 -35q-111 0 -173 68.5t-62 195.5q0 89 30 153t86.5 98.5t136.5 34.5zM290 467q-71 0 -107.5 -53.5t-36.5 -154.5q0 -99 35 -147.5t102 -48.5q49 0 81.5 24t49 70.5t16.5 111.5q0 99 -36 148.5
t-104 49.5zM426 849v-71h-277v71h277zM286 600q-27 0 -44.5 17t-17.5 48q0 32 18 48.5t45 16.5q28 0 45.5 -16.5t17.5 -48.5t-18.5 -48.5t-45.5 -16.5z" />
    <glyph glyph-name="uni0232" unicode="&#x232;" horiz-adv-x="643" 
d="M184 0v53l100 23l-15 -22v220l10 -39l-210 405l21 -17l-87 19v53l264 5v-53l-101 -21l9 19l163 -335h-20l165 331l9 -18l-102 19v53l250 5v-53l-87 -21l21 17l-211 -408l8 39v-220l-16 22l100 -23v-53h-271zM462 858v-71h-277v71h277z" />
    <glyph glyph-name="uni0233" unicode="&#x233;" horiz-adv-x="538" 
d="M13 -234l9 72q13 -2 24.5 -3t21.5 -1q47 0 76.5 21t50.5 63t42 106l-3 -36l-189 484l12 -10l-63 12v53l229 7v-53l-83 -16l6 10l142 -408l-24 5l133 401l7 -11l-82 12v53l220 7v-53l-68 -17l16 10l-172 -475q-19 -52 -40 -96t-48 -76t-64.5 -49.5t-89.5 -17.5
q-27 0 -63 6zM407 739v-71h-277v71h277z" />
    <glyph glyph-name="uni0237" unicode="&#x237;" horiz-adv-x="278" 
d="M8 -240q-13 0 -26.5 1.5t-28.5 3.5l8 72q10 -1 19.5 -1.5t17.5 -0.5q53 0 75.5 25.5t22.5 86.5v521l11 -14l-86 20v53l175 6v-555q0 -56 -11.5 -97t-35 -67.5t-59 -40t-82.5 -13.5z" />
    <glyph glyph-name="uni0259" unicode="&#x259;" horiz-adv-x="547" 
d="M273 540q69 0 121.5 -30.5t82 -89.5t29.5 -146t-30.5 -151t-86.5 -98.5t-133 -34.5q-72 0 -119 30t-70 82.5t-23 119.5q0 14 1.5 29.5t3.5 33.5h379l-2 -70h-299l21 26q-1 -50 9.5 -90.5t36.5 -64t70 -23.5q47 0 78 25.5t46 70t15 100.5q0 62 -17 108.5t-51 72t-85 25.5
q-36 0 -79 -14t-88 -43l-35 55q57 39 114 58t111 19z" />
    <glyph glyph-name="uni02BB" unicode="&#x2bb;" horiz-adv-x="173" 
d="M147 674q0 -29 -17 -43t-38 -14q-22 0 -40.5 15.5t-18.5 48.5q0 31 22 81t76 113l35 -23q-26 -46 -35 -70.5t-9 -37.5q0 -11 6.5 -21t12.5 -21t6 -28z" />
    <glyph glyph-name="uni02BC" unicode="&#x2bc;" horiz-adv-x="210" 
d="M56 727q0 28 17 42.5t38 14.5q22 0 40.5 -16t18.5 -48q0 -31 -21.5 -81.5t-76.5 -113.5l-35 23q27 47 35.5 72t8.5 36q0 12 -6.5 21.5t-12.5 21t-6 28.5z" />
    <glyph glyph-name="uni02BE" unicode="&#x2be;" horiz-adv-x="248" 
d="M67 611v50q28 0 40.5 16.5t12.5 39.5q0 22 -12.5 38.5t-39.5 16.5l2 50q38 0 63 -14.5t37.5 -38.5t12.5 -51q0 -28 -13 -52.5t-38.5 -39.5t-64.5 -15z" />
    <glyph glyph-name="uni02BF" unicode="&#x2bf;" horiz-adv-x="243" 
d="M179 611q-34 0 -60 13.5t-40.5 37t-14.5 53.5q0 31 14 55t40 38t61 14v-50q-25 0 -38 -15.5t-13 -40.5q0 -24 13 -39.5t38 -15.5v-50z" />
    <glyph glyph-name="circumflex" unicode="&#x2c6;" horiz-adv-x="480" 
d="M104 625l-35 39l139 133l58 5l146 -138l-36 -39l-172 123l68 -1z" />
    <glyph glyph-name="caron" unicode="&#x2c7;" horiz-adv-x="393" 
d="M328 803l34 -39l-135 -133l-58 -5l-143 138l35 39l170 -122l-68 1z" />
    <glyph glyph-name="uni02C8" unicode="&#x2c8;" horiz-adv-x="246" 
d="M84 615v232h78v-232h-78z" />
    <glyph glyph-name="uni02C9" unicode="&#x2c9;" horiz-adv-x="429" 
d="M353 739v-71h-277v71h277z" />
    <glyph glyph-name="uni02CA" unicode="&#x2ca;" horiz-adv-x="333" 
d="M87 615l-36 50l191 150l54 -73z" />
    <glyph glyph-name="uni02CB" unicode="&#x2cb;" horiz-adv-x="331" 
d="M92 816l188 -149l-38 -52l-205 129z" />
    <glyph glyph-name="uni02CC" unicode="&#x2cc;" horiz-adv-x="246" 
d="M84 -288v232h78v-232h-78z" />
    <glyph glyph-name="breve" unicode="&#x2d8;" horiz-adv-x="396" 
d="M198 629q-41 0 -73 17.5t-50.5 49.5t-19.5 73l61 7q4 -35 27 -55.5t58 -20.5q34 0 55 19.5t24 51.5l60 3q1 -42 -17 -75t-50 -51.5t-75 -18.5z" />
    <glyph glyph-name="dotaccent" unicode="&#x2d9;" horiz-adv-x="195" 
d="M93 631q-27 0 -44.5 17t-17.5 48q0 32 18 48.5t45 16.5q28 0 45.5 -16.5t17.5 -48.5t-18.5 -48.5t-45.5 -16.5z" />
    <glyph glyph-name="ring" unicode="&#x2da;" horiz-adv-x="359" 
d="M178 614q-34 0 -59.5 13t-40 36.5t-14.5 54.5t14.5 55t41 37.5t61.5 13.5t60 -13t39.5 -36.5t14.5 -53.5q0 -31 -14.5 -55t-40.5 -38t-62 -14zM179 663q26 0 39.5 16t13.5 41q0 24 -13.5 39.5t-38.5 15.5q-26 0 -39.5 -16t-13.5 -40q0 -25 13 -40.5t39 -15.5z" />
    <glyph glyph-name="ogonek" unicode="&#x2db;" horiz-adv-x="310" 
d="M161 -221q-59 0 -90.5 28t-31.5 67q0 31 20 67t63 66.5t110 43.5l17 -51q-67 -13 -101.5 -42t-34.5 -59q0 -25 21 -39.5t57 -14.5q11 0 23 1.5t25 3.5l6 -57q-23 -7 -44.5 -10.5t-39.5 -3.5z" />
    <glyph glyph-name="tilde" unicode="&#x2dc;" horiz-adv-x="492" 
d="M317 646q-28 0 -50.5 12.5t-43.5 25t-44 12.5q-19 0 -34 -11.5t-29 -36.5l-45 19q18 53 44.5 78t59.5 25q27 0 50 -12t44.5 -24.5t43.5 -12.5q19 0 34 12t30 36l44 -18q-18 -53 -44.5 -79t-59.5 -26z" />
    <glyph glyph-name="hungarumlaut" unicode="&#x2dd;" horiz-adv-x="406" 
d="M256 615l-53 27l78 174l71 -38zM109 615l-54 26l72 175l74 -35z" />
    <glyph glyph-name="gravecomb" unicode="&#x300;" 
d="M92 816l188 -149l-38 -52l-205 129z" />
    <glyph glyph-name="acutecomb" unicode="&#x301;" 
d="M99 615l-36 50l191 150l54 -73z" />
    <glyph glyph-name="uni0302" unicode="&#x302;" 
d="M104 625l-35 39l139 133l58 5l146 -138l-36 -39l-172 123l68 -1z" />
    <glyph glyph-name="tildecomb" unicode="&#x303;" 
d="M311 646q-28 0 -50.5 12.5t-43.5 25t-44 12.5q-19 0 -34 -11.5t-29 -36.5l-45 19q18 53 44.5 78t59.5 25q27 0 50 -12t44.5 -24.5t43.5 -12.5q19 0 34 12t30 36l44 -18q-18 -53 -44.5 -79t-59.5 -26z" />
    <glyph glyph-name="uni0304" unicode="&#x304;" 
d="M353 739v-71h-277v71h277z" />
    <glyph glyph-name="uni0306" unicode="&#x306;" 
d="M198 629q-41 0 -73 17.5t-50.5 49.5t-19.5 73l61 7q4 -35 27 -55.5t58 -20.5q34 0 55 19.5t24 51.5l60 3q1 -42 -17 -75t-50 -51.5t-75 -18.5z" />
    <glyph glyph-name="uni0307" unicode="&#x307;" 
d="M93 631q-27 0 -44.5 17t-17.5 48q0 32 18 48.5t45 16.5q28 0 45.5 -16.5t17.5 -48.5t-18.5 -48.5t-45.5 -16.5z" />
    <glyph glyph-name="uni0308" unicode="&#x308;" 
d="M331 637q-26 0 -40.5 15.5t-14.5 43.5q-1 28 15.5 44t39.5 16q25 0 40 -16t15 -44t-16.5 -43.5t-38.5 -15.5zM125 637q-26 0 -40 15.5t-15 43.5q0 28 16 44t39 16q25 0 40 -16t15 -44t-16 -43.5t-39 -15.5z" />
    <glyph glyph-name="hookabovecomb" unicode="&#x309;" 
d="M93 604v76q36 2 55 12.5t19 32.5q0 19 -13.5 27.5t-35.5 8.5q-13 0 -28.5 -2.5t-30.5 -7.5l-13 47q22 8 44 12.5t44 4.5q46 0 77.5 -20.5t31.5 -64.5q0 -32 -20 -53.5t-64 -29.5v-43h-66z" />
    <glyph glyph-name="uni030A" unicode="&#x30a;" 
d="M178 614q-34 0 -59.5 13t-40 36.5t-14.5 54.5t14.5 55t41 37.5t61.5 13.5t60 -13t39.5 -36.5t14.5 -53.5q0 -31 -14.5 -55t-40.5 -38t-62 -14zM179 663q26 0 39.5 16t13.5 41q0 24 -13.5 39.5t-38.5 15.5q-26 0 -39.5 -16t-13.5 -40q0 -25 13 -40.5t39 -15.5z" />
    <glyph glyph-name="uni030B" unicode="&#x30b;" 
d="M256 615l-53 27l78 174l71 -38zM109 615l-54 26l72 175l74 -35z" />
    <glyph glyph-name="uni030C" unicode="&#x30c;" 
d="M328 803l34 -39l-135 -133l-58 -5l-143 138l35 39l170 -122l-68 1z" />
    <glyph glyph-name="uni030F" unicode="&#x30f;" 
d="M154 615l53 27l-78 174l-71 -38zM301 615l54 26l-73 175l-73 -35z" />
    <glyph glyph-name="uni0311" unicode="&#x311;" 
d="M198 769q42 0 73.5 -18t50.5 -49.5t20 -72.5l-62 -7q-4 35 -27 55.5t-58 20.5q-34 0 -55 -19t-24 -53l-60 -2q0 42 17.5 75t50 51.5t74.5 18.5z" />
    <glyph glyph-name="uni0312" unicode="&#x312;" 
d="M131 856l36 -23q-20 -32 -27 -51.5t-7 -30.5t5.5 -19.5t11.5 -18.5t6 -27q0 -27 -17.5 -41t-38.5 -14t-39 15t-18 44q0 30 20.5 71.5t67.5 94.5z" />
    <glyph glyph-name="uni031B" unicode="&#x31b;" 
d="M44 480l-4 50q36 2 51.5 15.5t15.5 41.5t-14 70l74 17q12 -25 17 -47.5t5 -42.5q0 -52 -38 -79.5t-107 -24.5z" />
    <glyph glyph-name="dotbelowcomb" unicode="&#x323;" 
d="M93 -195q-27 0 -44.5 17t-17.5 48q0 32 18 48.5t45 16.5q28 0 45.5 -16.5t17.5 -48.5t-18.5 -48.5t-45.5 -16.5z" />
    <glyph glyph-name="uni0324" unicode="&#x324;" 
d="M331 -185q-26 0 -40.5 15.5t-14.5 43.5q-1 28 15.5 44t39.5 16q25 0 40 -16t15 -44t-16.5 -43.5t-38.5 -15.5zM125 -185q-26 0 -40 15.5t-15 43.5q0 28 16 44t39 16q25 0 40 -16t15 -44t-16 -43.5t-39 -15.5z" />
    <glyph glyph-name="uni0326" unicode="&#x326;" 
d="M79 -290l-36 23q20 33 27 52t7 30t-5.5 19.5t-11.5 18.5t-6 27q0 27 17.5 40.5t38.5 13.5t39 -14.5t18 -44.5q0 -29 -20.5 -70.5t-67.5 -94.5z" />
    <glyph glyph-name="uni0327" unicode="&#x327;" 
d="M149 -240q-24 0 -49 5.5t-48 16.5l20 50q18 -6 38.5 -10.5t37.5 -4.5q24 0 40 9.5t16 28.5q0 14 -13 23.5t-35.5 15t-53.5 6.5l6 100h62v-55q56 -5 82 -28.5t26 -58.5q0 -33 -18 -54.5t-47 -32.5t-64 -11z" />
    <glyph glyph-name="uni0328" unicode="&#x328;" 
d="M161 -221q-59 0 -90.5 28t-31.5 67q0 31 20 67t63 66.5t110 43.5l17 -51q-67 -13 -101.5 -42t-34.5 -59q0 -25 21 -39.5t57 -14.5q11 0 23 1.5t25 3.5l6 -57q-23 -7 -44.5 -10.5t-39.5 -3.5z" />
    <glyph glyph-name="uni032E" unicode="&#x32e;" 
d="M198 -217q-41 0 -73 17.5t-50.5 49.5t-19.5 73l61 7q4 -35 27 -55.5t58 -20.5q34 0 55 19.5t24 51.5l60 3q1 -42 -17 -75t-50 -51.5t-75 -18.5z" />
    <glyph glyph-name="uni0331" unicode="&#x331;" 
d="M354 -95v-71h-277v71h277z" />
    <glyph glyph-name="uni0335" unicode="&#x335;" 
d="M56 269v60h364v-60h-364z" />
    <glyph glyph-name="Gamma" unicode="&#x393;" horiz-adv-x="561" 
d="M45 0v53l94 22l-12 -17v585l16 -21l-98 20v53l182 5h307l1 -185h-62l-22 122l24 -12h-263l17 17v-584l-14 17l114 -22v-53h-284z" />
    <glyph glyph-name="uni0394" unicode="&#x394;" horiz-adv-x="683" 
d="M387 702l254 -636v-66h-599v67l256 635h89zM587 73l-36 -40l-238 604h41l-238 -604l-31 40h502z" />
    <glyph glyph-name="Pi" unicode="&#x3a0;" horiz-adv-x="777" 
d="M45 0v53l97 23l-15 -22v590l18 -23l-100 21v53l184 5h504v-53l-97 -25l15 22v-590l-15 22l97 -23v-53h-266v53l96 23l-14 -22v595l17 -24l-354 -1l17 26v-596l-15 22l97 -23v-53h-266z" />
    <glyph glyph-name="uni03A9" unicode="&#x3a9;" horiz-adv-x="815" 
d="M90 0v73h197l-16 -15q-54 26 -94.5 68t-63.5 100t-23 131q0 82 24.5 147t68 111t102 70.5t128.5 24.5q67 0 124 -22.5t99 -66.5t65 -106t23 -142q0 -76 -24.5 -137.5t-68.5 -106.5t-104 -72l-6 16h203v-73h-270v58q45 27 81 68t57.5 99.5t21.5 138.5q0 89 -27 148
t-73 88.5t-106 29.5q-59 0 -106.5 -30.5t-74.5 -91t-27 -152.5q0 -79 20.5 -136t57 -96.5t83.5 -66.5v-57h-271z" />
    <glyph glyph-name="uni03BC" unicode="&#x3bc;" horiz-adv-x="655" 
d="M133 125l25 -53q7 -37 15.5 -82t14.5 -100t6 -120h-100v701l11 -17l-85 20v53l174 5v-359q0 -54 25.5 -80t67.5 -26q34 0 74.5 18.5t78.5 57.5l-7 -18v348l11 -19l-86 20v53l175 5v-475l-14 18l88 -21v-53l-152 -7l-14 99l11 -5q-47 -49 -96 -73.5t-94 -24.5
q-51 0 -86 33t-43 102z" />
    <glyph glyph-name="pi" unicode="&#x3c0;" horiz-adv-x="638" 
d="M34 0v53l95 23l-20 -31v441l26 -37l-101 26v52l170 3h384v-52l-95 -28l21 36v-307q0 -55 13.5 -83.5t48.5 -28.5q20 0 44 8l11 -67q-53 -18 -93 -18q-61 0 -92.5 44.5t-31.5 129.5v318l27 -27l-259 1l27 26v-437l-18 31l90 -23v-53h-247z" />
    <glyph glyph-name="uni0400" unicode="&#x400;" horiz-adv-x="617" 
d="M494 172h62l-1 -172h-510v53l97 23l-15 -22v589l14 -21l-96 20v53l182 5h316v-165h-61l-19 105l20 -15h-271l17 17v-265l-17 17h257v-73h-257l17 20v-283l-17 17h284l-21 -17zM417 751l-225 96l44 81l209 -121z" />
    <glyph glyph-name="uni0401" unicode="&#x401;" horiz-adv-x="617" 
d="M494 172h62l-1 -172h-510v53l97 23l-15 -22v589l14 -21l-96 20v53l182 5h316v-165h-61l-19 105l20 -15h-271l17 17v-265l-17 17h257v-73h-257l17 20v-283l-17 17h284l-21 -17zM421 765q-26 0 -40.5 15.5t-14.5 43.5q-1 28 15.5 44t39.5 16q25 0 40 -16t15 -44
t-16.5 -43.5t-38.5 -15.5zM215 765q-26 0 -40 15.5t-15 43.5q0 28 16 44t39 16q25 0 40 -16t15 -44t-16 -43.5t-39 -15.5z" />
    <glyph glyph-name="uni0402" unicode="&#x402;" horiz-adv-x="754" 
d="M517 -8q-13 0 -25.5 1t-26.5 3l8 71q74 -3 103.5 28t29.5 104q0 78 -30 110t-87 32q-32 0 -73 -9t-88 -24l18 21v-329h-191v53l108 23l-19 -27v593l22 -17h-181l24 21l-23 -127h-61v181h557v-181h-62l-22 123l23 -17h-196l21 17v-274l-19 11q54 18 103 28t90 10
q58 0 101 -20.5t66.5 -65.5t23.5 -118q0 -102 -48.5 -161.5t-145.5 -59.5z" />
    <glyph glyph-name="uni0403" unicode="&#x403;" horiz-adv-x="561" 
d="M45 0v53l94 22l-12 -17v585l16 -21l-98 20v53l182 5h307l1 -185h-62l-22 122l24 -12h-263l17 17v-584l-14 17l114 -22v-53h-284zM243 751l-30 55l211 122l41 -80z" />
    <glyph glyph-name="uni0404" unicode="&#x404;" horiz-adv-x="647" 
d="M350 -10q-82 0 -149 41.5t-107 121.5t-40 195q0 116 40.5 197t113 123t166.5 42q50 0 107 -12t118 -38l-8 -162h-62l-20 117l18 -17q-40 15 -80 23.5t-74 8.5q-64 0 -111.5 -32t-73.5 -93t-26 -147q0 -90 27 -154t74.5 -97.5t108.5 -33.5q43 0 91.5 18t100.5 55l40 -59
q-64 -49 -128.5 -73t-125.5 -24zM155 325v70h314v-70h-314z" />
    <glyph glyph-name="uni0405" unicode="&#x405;" horiz-adv-x="600" 
d="M171 528q0 -35 20 -57.5t53 -37.5t72.5 -27t79 -27t72.5 -37t53 -57t20 -88q0 -71 -36.5 -117t-97 -68t-133.5 -22q-51 0 -104 10.5t-105 31.5l6 172h60l19 -125l-11 19q33 -15 69.5 -23t71.5 -8q43 0 79.5 13t58.5 39t22 65q0 37 -20 60t-53 38t-72 27t-78.5 26
t-72.5 35.5t-53 56t-20 86.5q0 67 32.5 110.5t88 65t124.5 21.5q49 0 101.5 -10.5t103.5 -31.5l-9 -163h-61l-17 116l13 -13q-28 12 -61 18.5t-66 6.5q-39 0 -73 -10.5t-55 -33.5t-21 -61z" />
    <glyph glyph-name="uni0406" unicode="&#x406;" horiz-adv-x="355" 
d="M311 647l-94 -24l12 16v-581l-12 17l94 -22v-53h-266v53l93 21l-11 -16v581l14 -17l-96 20v53l266 5v-53z" />
    <glyph glyph-name="uni0407" unicode="&#x407;" horiz-adv-x="355" 
d="M311 647l-94 -24l12 16v-581l-12 17l94 -22v-53h-266v53l93 21l-11 -16v581l14 -17l-96 20v53l266 5v-53zM280 765q-26 0 -40.5 15.5t-14.5 43.5q-1 28 15.5 44t39.5 16q25 0 40 -16t15 -44t-16.5 -43.5t-38.5 -15.5zM74 765q-26 0 -40 15.5t-15 43.5q0 28 16 44t39 16
q25 0 40 -16t15 -44t-16 -43.5t-39 -15.5z" />
    <glyph glyph-name="uni0408" unicode="&#x408;" horiz-adv-x="335" 
d="M27 695l274 5v-52l-95 -26l13 22v-572q0 -54 -9.5 -95.5t-31.5 -70t-57 -43.5t-86 -15q-16 0 -31.5 1.5t-32.5 4.5l9 74q9 -1 17 -2t17 -1q56 0 79.5 31t23.5 96v592l13 -20l-103 18v53z" />
    <glyph glyph-name="uni0409" unicode="&#x409;" horiz-adv-x="968" 
d="M77 -11q-14 0 -32 2.5t-38 8.5l15 95q10 -2 19 -3.5t17 -1.5q39 0 64.5 25.5t41.5 69.5t25 100t13 117.5t5.5 123t3.5 113.5l17 -18l-99 21v53l160 5h381v-53l-98 -25l16 22v-248l-20 20h136q118 0 175.5 -51.5t57.5 -144.5q0 -66 -30.5 -115.5t-91 -77t-151.5 -27.5
h-265v53l101 23l-14 -22v595l17 -24l-231 -1l20 21q-5 -73 -8 -149.5t-8.5 -150t-17.5 -137.5t-34 -113.5t-57.5 -77.5t-89.5 -28zM588 58l-17 17h93q81 0 124.5 36t43.5 105q0 64 -36 96.5t-106 32.5h-119l17 18v-305z" />
    <glyph glyph-name="uni040A" unicode="&#x40a;" horiz-adv-x="1021" 
d="M45 0v53l97 23l-15 -22v590l18 -23l-100 21v53l266 5v-53l-99 -26l17 23v-258l-17 17h345l-18 -17v258l18 -22l-100 20v53l267 5v-53l-98 -25l16 22v-261l-20 20h139q115 0 172.5 -49t57.5 -141q0 -67 -30.5 -115t-90 -73t-149.5 -25h-264v53l97 23l-15 -22v293l18 -17
h-345l17 17v-293l-15 22l97 -23v-53h-266zM642 58l-22 17h101q78 0 121.5 32t43.5 102q0 62 -36 91.5t-104 29.5h-122l18 17v-289z" />
    <glyph glyph-name="uni040B" unicode="&#x40b;" horiz-adv-x="808" 
d="M156 0v53l109 23l-19 -27v593l22 -17h-183l24 21l-23 -127h-61v181h554v-181h-61l-22 123l23 -17h-193l22 17v-274l-18 12q55 17 103.5 26t89.5 9q89 0 139.5 -45t50.5 -144v-170l-19 23l102 -26v-53h-265v53l96 26l-16 -23v153q0 71 -30.5 100.5t-88.5 29.5
q-32 0 -73 -7.5t-88 -22.5l17 20v-280l-18 27l101 -23v-53h-275z" />
    <glyph glyph-name="uni040C" unicode="&#x40c;" horiz-adv-x="712" 
d="M636 53l-30 22l92 -22v-53h-261v53l85 22l-4 -18l-192 284l30 -20h-144l17 21v-288l-15 23l95 -24v-53h-264v53l95 22l-13 -21v590l12 -20l-94 18v53l264 5v-52l-94 -25l14 24v-269l-17 18h148l-28 -18l159 265l9 -16l-92 15v53l252 5v-53l-93 -24l24 19l-181 -292v28z
M263 751l-30 55l211 122l41 -80z" />
    <glyph glyph-name="uni040D" unicode="&#x40d;" horiz-adv-x="808" 
d="M45 0v53l97 23l-15 -22v590l18 -23l-100 21v53l266 5v-53l-99 -26l17 23v-465l-17 6l378 431l-10 -27v55l17 -22l-100 20v53l267 5v-53l-98 -25l16 22v-590l-16 22l98 -23v-53h-267v53l97 23l-14 -22v473l17 -8l-378 -432l10 25v-58l-15 22l97 -23v-53h-266zM507 751
l-225 96l44 81l209 -121z" />
    <glyph glyph-name="uni040E" unicode="&#x40e;" horiz-adv-x="680" 
d="M103 3l20 81q26 -8 46.5 -12t37.5 -4q42 0 66.5 28.5t47.5 79.5l-8 -43l-241 508l25 -18l-92 19v53l272 5v-53l-105 -23l12 26l178 -414l-13 -5l167 413l8 -21l-101 19v53l253 5v-53l-92 -23l26 20l-196 -465q-27 -63 -57.5 -107t-68 -66t-85.5 -22q-22 0 -47 5t-53 14z
M357 763q-78 0 -123.5 35.5t-49.5 99.5l90 7q4 -42 27.5 -64.5t65.5 -22.5q39 0 59.5 20.5t20.5 61.5l77 5q2 -66 -43 -104t-124 -38z" />
    <glyph glyph-name="uni040F" unicode="&#x40f;" horiz-adv-x="772" 
d="M356 -182l-18 195l16 -13h-309v53l97 23l-15 -22v590l18 -23l-100 21v53l266 5v-53l-99 -26l17 23v-596l-15 27h350l-20 -27v596l17 -22l-100 20v53l267 5v-53l-98 -25l16 22v-593l-15 25l97 -23v-53h-308l15 13l-18 -195h-61z" />
    <glyph glyph-name="uni0410" unicode="&#x410;" horiz-adv-x="710" 
d="M642 52l-27 24l91 -23v-53h-269v53l98 21l-10 -16l-48 150l17 -14h-292l15 14l-52 -148l-5 13l95 -20v-53h-251v53l89 22l-25 -21l241 645l105 3zM231 252l-9 15h254l-11 -16l-122 391h24z" />
    <glyph glyph-name="uni0411" unicode="&#x411;" horiz-adv-x="628" 
d="M45 0v53l94 22l-12 -17v585l16 -21l-98 20v53l182 5h298v-181h-61l-18 118l19 -12h-253l17 17v-247l-19 19h135q118 0 175.5 -51t57.5 -144q0 -66 -30 -115.5t-90.5 -76.5t-152.5 -27h-260zM229 58l-22 17h97q81 0 124.5 35.5t43.5 104.5q0 64 -36 96.5t-107 32.5h-117
l17 17v-303z" />
    <glyph glyph-name="uni0412" unicode="&#x412;" horiz-adv-x="646" 
d="M367 351l7 11q68 -1 116.5 -20t73.5 -56.5t25 -94.5q0 -58 -28 -101t-85.5 -66.5t-145.5 -23.5h-285v53l97 23l-15 -22v589l18 -22l-100 21v53l180 5h117q72 0 121 -19.5t74 -57.5t25 -95q0 -75 -46.5 -120t-148.5 -57zM321 626h-109l17 18v-267l-17 16h85q52 0 88.5 13
t55 40t18.5 68q0 40 -16.5 64.5t-47 36t-74.5 11.5zM321 74q53 0 89 13.5t55 41t19 69.5q0 41 -17 68t-47.5 41t-71.5 14h-136l17 19v-283l-17 17h109z" />
    <glyph glyph-name="uni0413" unicode="&#x413;" horiz-adv-x="561" 
d="M45 0v53l94 22l-12 -17v585l16 -21l-98 20v53l182 5h307l1 -185h-62l-22 122l24 -12h-263l17 17v-584l-14 17l114 -22v-53h-284z" />
    <glyph glyph-name="uni0414" unicode="&#x414;" horiz-adv-x="700" 
d="M130 48q30 22 52 55t37.5 80.5t24 112.5t12.5 151.5t4 197.5l-14 -21l230 1l-17 24v-601l20 27h-349v-27zM59 60l32 15l-83 -4l-2 -253h62l38 192l-11 -10h485l-12 10l37 -192h61v253l-122 4l17 -27v596l-16 -22l98 25v53h-384l-161 -5v-53l102 -21l-19 18
q-1 -112 -5 -195t-12.5 -143t-22 -103.5t-33.5 -76.5t-49 -61z" />
    <glyph glyph-name="uni0415" unicode="&#x415;" horiz-adv-x="617" 
d="M494 172h62l-1 -172h-510v53l97 23l-15 -22v589l14 -21l-96 20v53l182 5h316v-165h-61l-19 105l20 -15h-271l17 17v-265l-17 17h257v-73h-257l17 20v-283l-17 17h284l-21 -17z" />
    <glyph glyph-name="uni0416" unicode="&#x416;" horiz-adv-x="1032" 
d="M21 0v53l93 22l-26 -22l227 325l-8 -28l-178 292l27 -19l-96 22v53l248 -1v-53l-92 -17l11 16l156 -265l-29 17h134l-17 -16v265l12 -20l-92 18v53l251 5v-52l-90 -25l15 24v-269l-18 17h129l-28 -17l158 265l9 -16l-92 15v53l247 5v-53l-96 -24l25 19l-180 -292v28
l227 -325l-30 22l94 -22v-53h-261v53l85 22l-3 -18l-190 284l31 -16h-125l18 17v-288l-15 23l90 -24v-53h-248v53l90 22l-13 -21v289l17 -18h-130l33 16l-191 -284l-3 18l84 -22v-53h-260z" />
    <glyph glyph-name="uni0417" unicode="&#x417;" horiz-adv-x="581" 
d="M255 -10q-111 0 -217 49l28 74q45 -20 93 -31t91 -11q47 0 84 14t59 43.5t22 74.5q0 37 -16 65t-51.5 44.5t-94.5 16.5h-76v74h75q74 0 110 30t36 87q0 62 -38 88t-99 26q-29 0 -64 -6t-70 -17l15 15l-13 -119h-62l-7 163q57 19 113 29.5t107 10.5q65 0 115 -17.5
t78.5 -56t28.5 -100.5q0 -51 -20.5 -87.5t-59 -57.5t-92.5 -25v8q99 -6 144 -52t45 -122q0 -71 -36 -117.5t-96.5 -69.5t-131.5 -23z" />
    <glyph glyph-name="uni0418" unicode="&#x418;" horiz-adv-x="808" 
d="M45 0v53l97 23l-15 -22v590l18 -23l-100 21v53l266 5v-53l-99 -26l17 23v-465l-17 6l378 431l-10 -27v55l17 -22l-100 20v53l267 5v-53l-98 -25l16 22v-590l-16 22l98 -23v-53h-267v53l97 23l-14 -22v473l17 -8l-378 -432l10 25v-58l-15 22l97 -23v-53h-266z" />
    <glyph glyph-name="uni0419" unicode="&#x419;" horiz-adv-x="808" 
d="M45 0v53l97 23l-15 -22v590l18 -23l-100 21v53l266 5v-53l-99 -26l17 23v-465l-17 6l378 431l-10 -27v55l17 -22l-100 20v53l267 5v-53l-98 -25l16 22v-590l-16 22l98 -23v-53h-267v53l97 23l-14 -22v473l17 -8l-378 -432l10 25v-58l-15 22l97 -23v-53h-266zM408 763
q-78 0 -123.5 35.5t-49.5 99.5l90 7q4 -42 27.5 -64.5t65.5 -22.5q39 0 59.5 20.5t20.5 61.5l77 5q2 -66 -43 -104t-124 -38z" />
    <glyph glyph-name="uni041A" unicode="&#x41a;" horiz-adv-x="712" 
d="M636 53l-30 22l92 -22v-53h-261v53l85 22l-4 -18l-192 284l30 -20h-144l17 21v-288l-15 23l95 -24v-53h-264v53l95 22l-13 -21v590l12 -20l-94 18v53l264 5v-52l-94 -25l14 24v-269l-17 18h148l-28 -18l159 265l9 -16l-92 15v53l252 5v-53l-93 -24l24 19l-181 -292v28z
" />
    <glyph glyph-name="uni041B" unicode="&#x41b;" horiz-adv-x="714" 
d="M80 -12q-31 0 -73 12l15 96q21 -6 36 -6q38 0 63.5 25t42 68t25 98.5t13 117t6 123.5t3.5 117l15 -18l-97 21v53l160 5h381v-53l-98 -25l16 22v-590l-16 22l98 -23v-53h-279v53l109 23l-14 -22v595l17 -24l-231 -1l20 21q-4 -75 -7.5 -152.5t-9 -151t-17.5 -137.5
t-34 -112.5t-57 -76t-87 -27.5z" />
    <glyph glyph-name="uni041C" unicode="&#x41c;" horiz-adv-x="885" 
d="M841 647l-98 -26l16 27v-594l-16 22l98 -23v-53h-259v53l100 23l-18 -22v534l16 -1l-213 -405l-66 -4l-206 411l15 1v-536l-13 20l96 -21v-53h-248v53l97 23l-15 -22v594l15 -26l-97 20v53l207 5l200 -420h-14l207 415l196 5v-53z" />
    <glyph glyph-name="uni041D" unicode="&#x41d;" horiz-adv-x="793" 
d="M45 0v53l97 23l-15 -22v590l18 -23l-100 21v53l266 5v-53l-99 -26l17 23v-267l-17 17h370l-18 -17v267l18 -22l-100 20v53l267 5v-53l-98 -25l16 22v-590l-16 22l98 -23v-53h-267v53l97 23l-15 -22v282l18 -17h-370l17 17v-282l-15 22l97 -23v-53h-266z" />
    <glyph glyph-name="uni041E" unicode="&#x41e;" horiz-adv-x="741" 
d="M359 -10q-89 0 -158 39.5t-108 118t-39 194.5q0 92 24.5 161t68.5 115t102.5 69t126.5 23q67 0 124 -22t99 -65.5t65 -109t23 -151.5q0 -117 -42.5 -200.5t-116.5 -127.5t-169 -44zM366 70q58 0 106 29t76.5 92.5t28.5 165.5q0 97 -26.5 157t-73 88t-105.5 28
q-58 0 -105 -28.5t-75 -90.5t-28 -165q0 -97 26.5 -157.5t72 -89.5t103.5 -29z" />
    <glyph glyph-name="uni041F" unicode="&#x41f;" horiz-adv-x="777" 
d="M45 0v53l97 23l-15 -22v590l18 -23l-100 21v53l184 5h504v-53l-97 -25l15 22v-590l-15 22l97 -23v-53h-266v53l96 23l-14 -22v595l17 -24l-354 -1l17 26v-596l-15 22l97 -23v-53h-266z" />
    <glyph glyph-name="uni0420" unicode="&#x420;" horiz-adv-x="601" 
d="M296 261h-89l22 17v-224l-16 21l121 -22v-53h-289v53l99 23l-17 -22v591l19 -23l-101 20v53l186 5h106q79 0 130 -27t76 -74t25 -108q0 -67 -30 -119t-90.5 -81.5t-151.5 -29.5zM321 625h-109l17 18v-324l-22 17h89q81 0 124.5 41.5t43.5 111.5q0 63 -36.5 99.5
t-106.5 36.5z" />
    <glyph glyph-name="uni0421" unicode="&#x421;" horiz-adv-x="641" 
d="M347 -10q-81 0 -147.5 41t-106 120.5t-39.5 195.5q0 114 39.5 195t110.5 124.5t166 43.5q50 0 104.5 -12.5t114.5 -38.5l-8 -164h-61l-20 121l18 -18q-38 16 -76 24t-70 8q-65 0 -111.5 -32.5t-71.5 -93t-25 -145.5q0 -93 27.5 -156.5t75 -96t106.5 -32.5q44 0 92 19
t94 57l40 -60q-60 -51 -125 -75.5t-127 -24.5z" />
    <glyph glyph-name="uni0422" unicode="&#x422;" horiz-adv-x="594" 
d="M151 0v53l114 23l-19 -27v593l22 -17h-183l24 21l-23 -127h-61v181h544v-181h-61l-22 123l23 -17h-183l22 17v-593l-18 27l113 -23v-53h-292z" />
    <glyph glyph-name="uni0423" unicode="&#x423;" horiz-adv-x="680" 
d="M103 3l20 81q26 -8 46.5 -12t37.5 -4q42 0 66.5 28.5t47.5 79.5l-8 -43l-241 508l25 -18l-92 19v53l272 5v-53l-105 -23l12 26l178 -414l-13 -5l167 413l8 -21l-101 19v53l253 5v-53l-92 -23l26 20l-196 -465q-27 -63 -57.5 -107t-68 -66t-85.5 -22q-22 0 -47 5t-53 14z
" />
    <glyph glyph-name="uni0424" unicode="&#x424;" horiz-adv-x="800" 
d="M525 685l-94 -22l12 12v-637l-12 13l94 -20v-51h-250v51l93 20l-11 -13v637l14 -12l-96 17v51l250 5v-51zM385 106q-109 0 -185 25t-116 79.5t-40 140.5q0 91 43.5 148t124.5 83.5t195 26.5q83 0 148 -14.5t109.5 -43.5t68 -75t23.5 -110q0 -87 -43.5 -145.5
t-126.5 -86.5t-201 -28zM393 166q80 -1 137 17t88.5 61.5t31.5 118.5q0 69 -29 110t-84 58.5t-136 17.5q-78 0 -134.5 -17.5t-86.5 -60t-30 -116.5q0 -69 27.5 -110.5t82 -60t133.5 -18.5z" />
    <glyph glyph-name="uni0425" unicode="&#x425;" horiz-adv-x="702" 
d="M626 52l-32 23l88 -22v-53h-272v53l95 20l1 -17l-178 260l26 1l-180 -264l-6 23l98 -23v-53h-245v53l88 22l-29 -24l224 318l-1 -29l-210 303l26 -16l-86 15v53l267 5v-53l-90 -21l5 15l162 -240l-24 5l160 235l7 -17l-92 18v53l241 5v-53l-88 -26l27 22l-210 -295l3 28z
" />
    <glyph glyph-name="uni0426" unicode="&#x426;" horiz-adv-x="783" 
d="M690 -182l-39 192l11 -10h-617v53l97 23l-15 -22v590l18 -23l-100 21v53l266 5v-53l-99 -26l17 23v-596l-15 27h350l-20 -27v596l17 -22l-100 20v53l267 5v-53l-98 -25l16 22v-597l-16 28l120 -4l1 -253h-61z" />
    <glyph glyph-name="uni0427" unicode="&#x427;" horiz-adv-x="695" 
d="M480 305q-51 -18 -98.5 -28t-88.5 -10q-59 0 -104.5 21.5t-71 67t-25.5 117.5v171l20 -23l-102 21v53l265 5v-53l-96 -26l16 23v-146q0 -58 15.5 -92t44.5 -48t67 -14q35 0 75 9.5t83 22.5l-13 -11v279l17 -22l-97 20v53l264 5v-53l-97 -25l15 22v-590l-15 22l97 -23v-53
h-288v53l119 23l-15 -22v264z" />
    <glyph glyph-name="uni0428" unicode="&#x428;" horiz-adv-x="1038" 
d="M45 0v53l97 23l-15 -22v590l18 -23l-100 21v53l264 5v-53l-97 -26l17 23v-596l-15 27h274l-20 -26v595l17 -23l-97 21v53l262 5v-53l-95 -25l15 22v-596l-15 27h275l-21 -27v596l18 -22l-98 20v53l265 5v-53l-98 -25l16 22v-593l-15 25l97 -23v-53h-949z" />
    <glyph glyph-name="uni0429" unicode="&#x429;" horiz-adv-x="1051" 
d="M955 -182l-38 192l17 -10h-889v53l97 23l-15 -22v590l18 -23l-100 21v53l264 5v-53l-97 -26l17 23v-596l-15 27h274l-20 -26v595l17 -23l-97 21v53l262 5v-53l-95 -25l15 22v-596l-15 27h275l-21 -27v596l18 -22l-98 20v53l265 5v-53l-98 -25l16 22v-597l-17 28l121 -4
l1 -253h-62z" />
    <glyph glyph-name="uni042A" unicode="&#x42a;" horiz-adv-x="728" 
d="M151 0v53l107 22l-13 -17v588l22 -21h-182l24 21l-23 -127h-61v181h405v-53l-99 -26l17 23v-241l-20 20h136q118 0 175.5 -52t57.5 -148q0 -68 -30.5 -118t-91 -77.5t-151.5 -27.5h-273zM348 58l-22 17h98q81 0 124.5 36.5t43.5 108.5q0 66 -36 99t-107 33h-119l18 17
v-311z" />
    <glyph glyph-name="uni042B" unicode="&#x42b;" horiz-adv-x="916" 
d="M45 0v53l94 22l-12 -17v585l16 -21l-98 20v53l266 5v-53l-99 -26l17 23v-241l-19 20h127q118 0 175.5 -52t57.5 -148q0 -68 -30 -118t-90.5 -77.5t-152.5 -27.5h-252zM229 58l-22 17h91q81 0 124.5 36.5t43.5 108.5q0 66 -36.5 99t-106.5 33h-111l17 17v-311zM872 647
l-95 -24l12 16v-581l-12 17l95 -22v-53h-267v53l94 21l-12 -16v581l15 -17l-97 20v53l267 5v-53z" />
    <glyph glyph-name="uni042C" unicode="&#x42c;" horiz-adv-x="610" 
d="M45 0v53l94 22l-12 -17v585l16 -21l-98 20v53l266 5v-53l-99 -26l17 23v-241l-19 20h135q118 0 175.5 -52t57.5 -148q0 -68 -30 -118t-90.5 -77.5t-152.5 -27.5h-260zM229 58l-22 17h99q81 0 124 36t43 109q0 66 -36 99t-106 33h-119l17 17v-311z" />
    <glyph glyph-name="uni042D" unicode="&#x42d;" horiz-adv-x="653" 
d="M45 81l38 65q50 -36 99 -54.5t95 -18.5q61 0 109 31.5t76.5 95t28.5 160.5q0 85 -24.5 145.5t-72 92.5t-117.5 32q-66 0 -152 -30l19 15l-19 -117h-61l-9 158q133 54 240 54q92 0 160.5 -40t105.5 -117t37 -188q0 -121 -41.5 -204.5t-112 -127t-156.5 -43.5
q-60 0 -122 22.5t-121 68.5zM183 325v70h349v-70h-349z" />
    <glyph glyph-name="uni042E" unicode="&#x42e;" horiz-adv-x="1026" 
d="M651 -10q-86 0 -153.5 39.5t-106 118t-38.5 194.5q0 92 23.5 161t67 115t101 69t124.5 23q66 0 121.5 -22t96.5 -65.5t63.5 -108.5t22.5 -151q0 -118 -41.5 -201.5t-114 -127.5t-166.5 -44zM45 0v53l97 23l-15 -22v590l18 -23l-100 21v53l266 5v-53l-99 -26l17 23v-266
l-17 17h199v-75h-199l17 17v-283l-15 22l97 -23v-53h-266zM658 70q56 0 103 29t74.5 92.5t27.5 165.5q0 97 -26 157t-70.5 88t-102.5 28q-55 0 -101 -28.5t-73 -90.5t-27 -165q0 -97 25.5 -157.5t70 -89.5t99.5 -29z" />
    <glyph glyph-name="uni042F" unicode="&#x42f;" horiz-adv-x="656" 
d="M612 0h-281v53l111 23l-15 -22v249l18 -16l-76 1q-30 0 -52.5 -4.5t-41.5 -24t-38 -63.5l-86 -196h-136v53l87 25l-25 -20l71 161q17 38 39 59t55 29.5t82 7.5l-1 -17q-83 3 -134 27t-74 67.5t-23 102.5q0 101 61.5 153t176.5 52h282v-53l-102 -21l19 20v-592l-14 21
l97 -22v-53zM427 338v305l18 -18h-110q-70 0 -104.5 -32.5t-34.5 -94.5q0 -68 40 -105t127 -37h82z" />
    <glyph glyph-name="uni0430" unicode="&#x430;" horiz-adv-x="552" 
d="M459 54l-15 21l90 -21v-53l-152 -7l-14 96l8 -3q-43 -49 -93 -73t-97 -24q-58 0 -99.5 38t-41.5 114q0 58 25 90.5t70 46.5t106 14h122l-9 -11v86q0 52 -27 74.5t-75 22.5q-25 0 -52.5 -5t-59.5 -16l14 14l-11 -89h-66l-8 133q61 19 112.5 28.5t95.5 9.5q84 0 130.5 -37
t46.5 -117v-332zM146 149q0 -43 21 -63.5t53 -20.5t70.5 20.5t74.5 54.5l-6 -25v124l9 -10h-106q-66 0 -91 -20t-25 -60z" />
    <glyph glyph-name="uni0431" unicode="&#x431;" horiz-adv-x="590" 
d="M302 -10q-88 0 -142.5 45t-79.5 126t-25 190t23 187t71.5 128t124.5 74.5t181 25.5l-20 -20l16 80h64l2 -145q-84 0 -145.5 -6t-102.5 -23t-65 -51t-34.5 -90t-10.5 -140q0 -50 3 -95t11.5 -82.5t25.5 -65.5t43.5 -43t64.5 -15q68 0 104 47t36 130q0 62 -18.5 103
t-49.5 61t-71 20q-37 0 -78.5 -17.5t-81.5 -51.5l-3 68q48 39 99 58.5t97 19.5q59 0 106 -28t75.5 -84t28.5 -138q0 -86 -32 -146t-88 -91t-129 -31z" />
    <glyph glyph-name="uni0432" unicode="&#x432;" horiz-adv-x="569" 
d="M209 530h93q64 0 109.5 -12.5t69 -40.5t23.5 -75q0 -43 -21 -70t-61 -40.5t-99 -18.5l5 10q44 0 80.5 -7.5t63 -24t41 -42.5t14.5 -64q0 -74 -57.5 -109.5t-175.5 -35.5h-259v53l84 20l-10 -12v403l9 -9l-83 19v53zM282 463h-89l16 17v-190l-16 13h67q77 0 110.5 20.5
t33.5 63.5q0 42 -30 59t-92 17zM282 68q74 0 107 20t33 68q0 45 -29 68.5t-91 23.5h-109l16 15v-210l-16 15h89z" />
    <glyph glyph-name="uni0433" unicode="&#x433;" horiz-adv-x="486" 
d="M470 530l-3 -185h-62l-16 125l14 -15h-200l6 14v-413l-13 17l108 -20v-53h-269v53l86 20l-12 -17v415l13 -18l-87 21v53l152 3h283z" />
    <glyph glyph-name="uni0434" unicode="&#x434;" horiz-adv-x="617" 
d="M12 -163l-3 220l90 17l-54 -21q34 24 59 55t41.5 78t24.5 117t9 172l26 -22l-108 25v52h472v-52l-95 -26l20 22v-419l-20 17l124 -17l-2 -218h-63l-25 178l23 -15h-457l25 15l-25 -178h-62zM136 57l1 18h276l-19 -17v420l17 -23h-180l20 24q0 -120 -11 -203t-36 -135
t-68 -84z" />
    <glyph glyph-name="uni0435" unicode="&#x435;" horiz-adv-x="549" 
d="M276 -10q-69 0 -121.5 30.5t-82 90t-29.5 145.5q0 88 30.5 151.5t87 98t132.5 34.5q73 0 119.5 -30t69 -82.5t22.5 -119.5q0 -13 -1 -26t-3 -30h-379v69h289l-9 -6q1 41 -10 75t-37 54.5t-69 20.5q-47 0 -78 -25.5t-46 -69.5t-15 -101q0 -61 17 -106.5t51.5 -71
t85.5 -25.5q36 0 78.5 14t87.5 42l35 -55q-56 -39 -113.5 -58t-111.5 -19z" />
    <glyph glyph-name="uni0436" unicode="&#x436;" horiz-adv-x="856" 
d="M10 0v52l84 19l-17 -14l145 238l-4 -28l-121 213l24 -17l-88 12v52l228 6v-52l-78 -19l9 12l97 -183l-20 13h125l-18 -16v188l15 -21l-85 20v52l231 6v-52l-82 -22l12 17v-188l-18 16h124l-21 -13l104 183l8 -12l-78 12v53l227 7v-52l-87 -19l23 17l-125 -214v28
l151 -237l-17 13l83 -18v-52h-140l-151 246l18 -10h-119l18 11v-193l-12 20l92 -21v-53h-243v53l86 21l-14 -20v193l18 -11h-120l20 10l-144 -246h-140z" />
    <glyph glyph-name="uni0437" unicode="&#x437;" horiz-adv-x="491" 
d="M212 -10q-47 0 -94 11t-86 32l22 64q35 -19 74.5 -29t76.5 -10t68 10t49.5 31.5t18.5 55.5q0 26 -13 46t-42.5 31.5t-78.5 11.5h-67v61h65q67 0 97 23.5t30 63.5q0 44 -31.5 62.5t-78.5 18.5q-27 0 -56.5 -4.5t-59.5 -12.5l22 22l-14 -92h-64l-4 124q49 14 97.5 22
t93.5 8q55 0 99.5 -13.5t70 -43.5t25.5 -78q0 -58 -38.5 -90t-118.5 -41l-3 8q90 -4 131.5 -39t41.5 -93q0 -55 -33.5 -90.5t-86 -52.5t-113.5 -17z" />
    <glyph glyph-name="uni0438" unicode="&#x438;" horiz-adv-x="665" 
d="M34 0v53l95 24l-20 -22v418l26 -23l-101 25v52l242 6v-52l-94 -27l22 21v-312l-15 3l282 282l-9 -19l-1 44l17 -18l-88 20v52l241 6v-52l-95 -27l21 21v-420l-20 22l94 -24v-53h-241v53l89 21l-18 -19v327l14 -11l-281 -289l10 19v-46l-8 15l80 -17v-53h-242z" />
    <glyph glyph-name="uni0439" unicode="&#x439;" horiz-adv-x="665" 
d="M34 0v53l95 24l-20 -22v418l26 -23l-101 25v52l242 6v-52l-94 -27l22 21v-312l-15 3l282 282l-9 -19l-1 44l17 -18l-88 20v52l241 6v-52l-95 -27l21 21v-420l-20 22l94 -24v-53h-241v53l89 21l-18 -19v327l14 -11l-281 -289l10 19v-46l-8 15l80 -17v-53h-242zM333 639
q-42 0 -78.5 14t-59.5 43.5t-26 77.5l95 5q3 -45 27 -65.5t57 -20.5q32 0 53.5 20.5t20.5 61.5l73 4q1 -48 -21.5 -79.5t-59.5 -46t-81 -14.5z" />
    <glyph glyph-name="uni043A" unicode="&#x43a;" horiz-adv-x="595" 
d="M34 0v53l88 21l-13 -20v422l15 -21l-90 20v52l243 6v-52l-80 -22l12 17v-185l-18 22h139l-32 -18l109 179l8 -12l-79 12v53l228 7v-52l-87 -19l28 17l-131 -211l7 28l142 -240l-15 13l81 -18v-52h-140l-141 249l17 -4h-134l18 5v-196l-12 20l92 -21v-53h-255z" />
    <glyph glyph-name="uni043B" unicode="&#x43b;" horiz-adv-x="607" 
d="M75 -9q-15 0 -32.5 3t-37.5 9l15 80q8 -2 16 -3t15 -1q55 0 82 48t36 138t10 218l26 -30l-109 25v52h477v-52l-95 -26l21 32v-423l-10 12l84 -20v-53h-249v53l84 20l-9 -12v423l16 -29h-189l30 28q-1 -115 -8.5 -205.5t-27.5 -154.5t-55 -98t-90 -34z" />
    <glyph glyph-name="uni043C" unicode="&#x43c;" horiz-adv-x="752" 
d="M171 445h16v-393l-11 21l81 -20v-53h-223v53l88 21l-13 -22v426l17 -26l-92 23v52l185 6l178 -378h-42l180 372l183 6v-52l-91 -27l17 27v-428l-13 21l87 -21v-53h-230v53l81 20l-13 -16v393h16l-178 -364l-48 -3z" />
    <glyph glyph-name="uni043D" unicode="&#x43d;" horiz-adv-x="665" 
d="M34 0v53l95 24l-20 -32v437l26 -32l-101 25v52l246 6v-52l-94 -27l23 30v-198l-27 27h302l-28 -27v196l17 -27l-88 20v52l246 6v-52l-95 -27l20 30v-439l-20 32l95 -24v-53h-246v53l89 21l-18 -29v222l28 -27h-302l27 27v-222l-18 29l89 -21v-53h-246z" />
    <glyph glyph-name="uni043E" unicode="&#x43e;" horiz-adv-x="576" 
d="M295 540q112 0 176 -69.5t64 -196.5q0 -86 -31 -150t-88.5 -99t-138.5 -35q-111 0 -173 68.5t-62 195.5q0 89 30 153t86.5 98.5t136.5 34.5zM290 467q-71 0 -107.5 -53.5t-36.5 -154.5q0 -99 35 -147.5t102 -48.5q49 0 81.5 24t49 70.5t16.5 111.5q0 99 -36 148.5
t-104 49.5z" />
    <glyph glyph-name="uni043F" unicode="&#x43f;" horiz-adv-x="661" 
d="M34 0v53l95 24l-20 -32v441l26 -37l-101 26v52l170 3h423v-52l-96 -28l21 36v-441l-20 32l95 -24v-53h-245v53l88 21l-18 -29v437l27 -27l-297 1l27 26v-437l-18 29l88 -21v-53h-245z" />
    <glyph glyph-name="uni0440" unicode="&#x440;" horiz-adv-x="600" 
d="M25 -230v53l89 23l-15 -18v640l13 -15l-87 21v53l152 7l12 -87l-12 7q47 43 92.5 64.5t91.5 21.5q56 0 100.5 -31t70.5 -89.5t26 -144.5q0 -93 -32 -157t-90 -96.5t-136 -32.5q-26 0 -55 4.5t-60 12.5l14 12v-190l-12 16l99 -21v-53h-261zM288 62q83 0 124.5 54t41.5 149
q0 63 -17 107.5t-46 68.5t-67 24q-32 0 -67 -17t-70 -52l12 29v-366l-13 21q56 -18 102 -18z" />
    <glyph glyph-name="uni0441" unicode="&#x441;" horiz-adv-x="514" 
d="M272 -10q-65 0 -118 32t-83.5 92t-30.5 145q0 75 21.5 128t58 87t82.5 50t96 16q43 0 89.5 -11.5t79.5 -28.5l-4 -133h-66l-14 90l9 -8q-21 10 -47 14t-47 4q-49 0 -83.5 -24.5t-52.5 -70t-18 -107.5q0 -64 19.5 -109t53.5 -67.5t78 -22.5q34 0 73 14t81 43l35 -53
q-54 -41 -107 -60.5t-105 -19.5z" />
    <glyph glyph-name="uni0442" unicode="&#x442;" horiz-adv-x="526" 
d="M123 0v52l111 21l-21 -26v425l23 -17h-161l21 20l-20 -109h-61v164h496v-164h-62l-19 106l19 -17h-157l21 17v-425l-18 26l109 -21v-52h-281z" />
    <glyph glyph-name="uni0443" unicode="&#x443;" horiz-adv-x="538" 
d="M13 -234l9 72q13 -2 24.5 -3t21.5 -1q47 0 76.5 21t50.5 63t42 106l-3 -36l-189 484l12 -10l-63 12v53l229 7v-53l-83 -16l6 10l142 -408l-24 5l133 401l7 -11l-82 12v53l220 7v-53l-68 -17l16 10l-172 -475q-19 -52 -40 -96t-48 -76t-64.5 -49.5t-89.5 -17.5
q-27 0 -63 6z" />
    <glyph glyph-name="uni0444" unicode="&#x444;" horiz-adv-x="705" 
d="M395 -169l-9 12l84 -20v-53h-236v53l84 20l-9 -12v873l8 -9l-83 19v53l161 7v-943zM361 534q158 0 232.5 -67.5t74.5 -192.5q0 -84 -35 -146.5t-108 -97t-186 -34.5q-154 0 -228.5 65.5t-74.5 192.5q0 89 35.5 151.5t108 95.5t181.5 33zM353 466q-78 0 -126.5 -23
t-70.5 -68t-22 -114q0 -67 21.5 -110.5t68.5 -65t122 -21.5q81 0 130.5 24t71.5 70t22 113q0 65 -21.5 108.5t-69.5 65t-126 21.5z" />
    <glyph glyph-name="uni0445" unicode="&#x445;" horiz-adv-x="559" 
d="M10 0v52l86 17l-26 -15l159 229l24 3l161 241l120 7v-53l-86 -20l30 18l-155 -217l-21 -3l-171 -259h-121zM307 0v53l71 12l-6 -15l-136 197l-163 232l23 -19l-75 14v53l226 7v-53l-75 -14l8 16l125 -182l175 -246l-19 14l83 -16v-53h-237z" />
    <glyph glyph-name="uni0446" unicode="&#x446;" horiz-adv-x="665" 
d="M645 55l1 -218h-64l-26 175l18 -12h-539v53l95 24l-21 -32v437l26 -32l-100 25v52l244 6v-52l-92 -27l22 30v-439l-26 30h287l-28 -30v437l17 -27l-87 20v52l245 6v-52l-96 -27l21 30v-439l-22 30z" />
    <glyph glyph-name="uni0447" unicode="&#x447;" horiz-adv-x="599" 
d="M74 476l26 -26l-101 25v52l243 6v-52l-91 -27l23 22v-103q0 -63 26.5 -88.5t77.5 -25.5q27 0 59.5 5.5t71.5 15.5l-19 -20v216l17 -21l-84 20v52l242 6v-52l-95 -27l20 22v-422l-20 23l95 -24v-53h-270v53l113 21l-18 -20v188l19 -26q-46 -14 -88 -22t-78 -8
q-77 0 -123 40.5t-46 131.5v118z" />
    <glyph glyph-name="uni0448" unicode="&#x448;" horiz-adv-x="898" 
d="M34 0v53l95 24l-20 -32v437l26 -32l-101 25v52l243 6v-52l-91 -27l23 30v-439l-27 30h241l-24 -30v437l17 -27l-85 20v52l236 6v-52l-89 -27l21 30v-443l-23 34h240l-27 -30v437l17 -27l-85 20v52l243 6v-52l-96 -27l21 30v-439l-20 32l95 -24v-53h-830z" />
    <glyph glyph-name="uni0449" unicode="&#x449;" horiz-adv-x="911" 
d="M828 -163l-25 178l18 -15h-787v53l95 24l-20 -32v437l26 -32l-101 25v52l243 6v-52l-91 -27l23 30v-439l-27 30h241l-24 -30v437l17 -27l-85 20v52l236 6v-52l-89 -27l21 30v-443l-23 34h240l-27 -30v437l17 -27l-85 20v52l243 6v-52l-96 -27l21 30v-439l-20 32l124 -20
l-3 -220h-62z" />
    <glyph glyph-name="uni044A" unicode="&#x44a;" horiz-adv-x="611" 
d="M116 0v52l104 21l-20 -26v425l23 -17h-148l21 20l-20 -109h-61v164h371v-52l-104 -20l18 17v-145l-17 14h117q92 0 142 -42t50 -125t-55.5 -130t-179.5 -47h-241zM300 53l-17 15h73q69 0 100.5 27.5t31.5 78.5q0 50 -27.5 76t-82.5 26h-95l17 15v-238z" />
    <glyph glyph-name="uni044B" unicode="&#x44b;" horiz-adv-x="814" 
d="M706 476v-415l-9 12l83 -20v-53h-249v53l84 20l-9 -12v414l12 -20l-87 20v52l249 6v-52l-92 -23zM35 0v53l84 20l-10 -12v414l13 -20l-87 20v52l261 6v-52l-104 -23l17 17v-149l-16 14h118q92 0 142 -41.5t50 -123.5q0 -83 -55.5 -129t-179.5 -46h-233zM209 53l-16 15h74
q69 0 100.5 26.5t31.5 77.5q0 50 -27.5 75t-83.5 25h-95l16 15v-234z" />
    <glyph glyph-name="uni044C" unicode="&#x44c;" horiz-adv-x="520" 
d="M34 0v53l84 20l-9 -12v414l12 -20l-87 20v52l261 6v-52l-104 -23l18 17v-149l-17 14h119q92 0 141.5 -41.5t49.5 -123.5q0 -83 -55.5 -129t-179.5 -46h-233zM209 53l-17 15h74q71 0 103.5 26.5t32.5 77.5q0 50 -28.5 75t-86.5 25h-95l17 15v-234z" />
    <glyph glyph-name="uni044D" unicode="&#x44d;" horiz-adv-x="518" 
d="M30 63l33 62q43 -29 82.5 -44.5t74.5 -15.5q45 0 79.5 23.5t54.5 68t20 108.5q0 97 -41.5 150t-120.5 53q-42 0 -93 -18l8 9l-12 -83h-64l-4 125q99 39 182 39q75 0 130.5 -31t87 -90.5t31.5 -146.5q0 -88 -34 -151.5t-90.5 -97t-125.5 -33.5q-48 0 -99 18t-99 55z
M154 242l2 61h269v-61h-271z" />
    <glyph glyph-name="uni044E" unicode="&#x44e;" horiz-adv-x="838" 
d="M34 0v53l95 24l-20 -32v437l26 -32l-101 25v52l246 6v-52l-94 -27l23 30v-198l-27 27h187v-73h-187l27 27v-222l-18 29l89 -21v-53h-246zM564 540q108 0 170.5 -68t62.5 -196q0 -88 -30 -152t-87 -99t-136 -35q-106 0 -167 66t-61 197q0 93 30.5 156.5t86 97t131.5 33.5z
M558 467q-42 0 -73.5 -22t-48.5 -67.5t-17 -118.5q0 -68 16 -111.5t46 -64t70 -20.5q44 0 76 22.5t49.5 69t17.5 116.5q0 68 -17 111.5t-47.5 64t-71.5 20.5z" />
    <glyph glyph-name="uni044F" unicode="&#x44f;" horiz-adv-x="562" 
d="M10 0v52l83 20l-18 -16l45 106q15 34 40.5 48.5t62.5 17.5l10 -8q-77 2 -118.5 39.5t-41.5 107.5q0 54 23 90t66.5 54.5t103.5 18.5h261v-52l-86 -23l12 11v-408l-10 15l84 -20v-53h-244v53l80 18l-10 -14v160l10 -10h-67q-33 0 -53.5 -14t-34.5 -49l-55 -144h-143z
M353 257v218l11 -11h-86q-47 0 -77 -21.5t-30 -75.5t30 -76.5t91 -22.5h71z" />
    <glyph glyph-name="uni0450" unicode="&#x450;" horiz-adv-x="549" 
d="M276 -10q-69 0 -121.5 30.5t-82 90t-29.5 145.5q0 88 30.5 151.5t87 98t132.5 34.5q73 0 119.5 -30t69 -82.5t22.5 -119.5q0 -13 -1 -26t-3 -30h-379v69h289l-9 -6q1 41 -10 75t-37 54.5t-69 20.5q-47 0 -78 -25.5t-46 -69.5t-15 -101q0 -61 17 -106.5t51.5 -71
t85.5 -25.5q36 0 78.5 14t87.5 42l35 -55q-56 -39 -113.5 -58t-111.5 -19zM218 816l188 -149l-38 -52l-205 129z" />
    <glyph glyph-name="uni0451" unicode="&#x451;" horiz-adv-x="549" 
d="M276 -10q-69 0 -121.5 30.5t-82 90t-29.5 145.5q0 88 30.5 151.5t87 98t132.5 34.5q73 0 119.5 -30t69 -82.5t22.5 -119.5q0 -13 -1 -26t-3 -30h-379v69h289l-9 -6q1 41 -10 75t-37 54.5t-69 20.5q-47 0 -78 -25.5t-46 -69.5t-15 -101q0 -61 17 -106.5t51.5 -71
t85.5 -25.5q36 0 78.5 14t87.5 42l35 -55q-56 -39 -113.5 -58t-111.5 -19zM387 637q-26 0 -40.5 15.5t-14.5 43.5q-1 28 15.5 44t39.5 16q25 0 40 -16t15 -44t-16.5 -43.5t-38.5 -15.5zM181 637q-26 0 -40 15.5t-15 43.5q0 28 16 44t39 16q25 0 40 -16t15 -44t-16 -43.5
t-39 -15.5z" />
    <glyph glyph-name="uni0452" unicode="&#x452;" horiz-adv-x="597" 
d="M355 -240l-8 72q51 7 70 39.5t19 103.5v315q0 54 -25 80t-66 26q-35 0 -75 -18.5t-80 -57.5l8 18v-282l-11 16l81 -19v-53h-244v53l88 21l-14 -17v654l14 -18l-88 21v53l174 7v-404l-19 5q49 50 103 74t103 24q43 0 77.5 -18.5t54 -54.5t19.5 -90v-307q0 -83 -20.5 -136
t-60.5 -78.5t-100 -28.5zM24 559v57h327v-57h-327z" />
    <glyph glyph-name="uni0453" unicode="&#x453;" horiz-adv-x="486" 
d="M470 530l-3 -185h-62l-16 125l14 -15h-200l6 14v-413l-13 17l108 -20v-53h-269v53l86 20l-12 -17v415l13 -18l-87 21v53l152 3h283zM196 615l-36 50l191 150l54 -73z" />
    <glyph glyph-name="uni0454" unicode="&#x454;" horiz-adv-x="518" 
d="M363 303l-2 -61h-269v61h271zM275 -10q-68 0 -121 32t-83.5 92t-30.5 145q0 93 34 155.5t93 94t132 31.5q39 0 84 -9t87 -30l-3 -125h-64l-13 82l7 -10q-24 11 -49 15t-46 4q-50 0 -85.5 -23.5t-54 -68.5t-18.5 -110t19.5 -110t54 -67t79.5 -22q35 0 75.5 14t82.5 43
l34 -53q-53 -41 -107 -60.5t-107 -19.5z" />
    <glyph glyph-name="uni0455" unicode="&#x455;" horiz-adv-x="495" 
d="M154 400q0 -29 20 -45.5t52 -27.5t68.5 -22t68.5 -28t52.5 -45.5t20.5 -74.5q0 -54 -29.5 -91t-80.5 -56.5t-114 -19.5q-37 0 -78 6t-84 18l7 141h63l11 -95l-10 12q22 -6 47.5 -9.5t46.5 -3.5q31 0 58.5 9t45 27.5t17.5 45.5q0 30 -20.5 47.5t-52.5 28.5t-67.5 22
t-67.5 28t-52 45t-20 75q0 53 27 87t72 50t96 16q35 0 77.5 -7t87.5 -21l-5 -121h-64l-15 81l14 -16q-50 15 -92 15q-44 0 -72 -19t-28 -52z" />
    <glyph glyph-name="uni0456" unicode="&#x456;" horiz-adv-x="305" 
d="M209 61l-9 12l84 -20v-53h-249v53l84 20l-10 -12v403l9 -9l-83 19v53l174 6v-472zM154 631q-27 0 -44.5 17t-17.5 48q0 32 18 48.5t45 16.5q28 0 45.5 -16.5t17.5 -48.5t-18.5 -48.5t-45.5 -16.5z" />
    <glyph glyph-name="uni0457" unicode="&#x457;" horiz-adv-x="305" 
d="M243 637q-24 0 -38 15.5t-15 43.5q0 28 16 44t37 16q24 0 38.5 -16t14.5 -44t-16 -43.5t-37 -15.5zM51 637q-24 0 -38 15.5t-14 43.5q-1 28 15 44t37 16q24 0 38.5 -16t14.5 -44t-16 -43.5t-37 -15.5zM209 61l-9 12l84 -20v-53h-249v53l84 20l-10 -12v403l9 -9l-83 19v53
l174 6v-472z" />
    <glyph glyph-name="uni0458" unicode="&#x458;" horiz-adv-x="302" 
d="M28 -240q-11 0 -21.5 0.5t-22.5 2.5l8 74q7 -1 13 -1.5t11 -0.5q53 0 75.5 25.5t22.5 86.5v521l12 -14l-86 20v53l174 6v-555q0 -50 -10.5 -90t-33 -68.5t-57.5 -44t-85 -15.5zM156 631q-28 0 -45.5 17t-17.5 48q0 32 18 48.5t46 16.5q27 0 45 -16.5t18 -48.5
t-18.5 -48.5t-45.5 -16.5z" />
    </font>
</defs>
</svg>
