<?xml version="1.0" standalone="no"?>
<!DOCTYPE svg PUBLIC "-//W3C//DTD SVG 1.1//EN" "http://www.w3.org/Graphics/SVG/1.1/DTD/svg11.dtd" >
<svg xmlns="http://www.w3.org/2000/svg" xmlns:xlink="http://www.w3.org/1999/xlink" version="1.1">
<metadata>
Created by FontForge 20170731 at Thu Oct 10 08:09:08 2019
 By Aleksey,,,
(c) by L. Hartmann, Hinwil 2005
</metadata>
<defs>
<font id="Alkaios" horiz-adv-x="679" >
  <font-face 
    font-family="Alkaios"
    font-weight="400"
    font-stretch="normal"
    units-per-em="2048"
    panose-1="0 0 4 0 0 0 0 0 0 0"
    ascent="1638"
    descent="-410"
    x-height="926"
    cap-height="1378"
    bbox="-508 -551 2367 1905"
    underline-thickness="50"
    underline-position="25"
    unicode-range="U+000D-F002"
  />
<missing-glyph horiz-adv-x="1024" 
d="M127 0v1536h770v-1536h-770zM256 127h512v1280h-512v-1280z" />
    <glyph glyph-name="ellipsis" unicode="&#x2e;&#x2e;&#x2e;" horiz-adv-x="2048" 
d="M1821 90q0 -47 -35 -80q-33 -35 -80 -35t-80 35q-35 33 -35 80t33 82q35 35 82 35t82 -35q33 -35 33 -82zM1024 207q47 0 80 -35t33 -82t-33 -80q-35 -35 -80 -35q-49 0 -84 33q-33 35 -33 82t33 82q35 35 84 35zM342 207q45 0 80 -35q33 -35 33 -82t-33 -80
q-35 -35 -80 -35q-47 0 -82 35q-33 33 -33 80t33 82t82 35z" />
    <glyph glyph-name="trademark" unicode="TM" horiz-adv-x="2004" 
d="M201 1356h569l21 -258h-37q-25 139 -86 186q-35 29 -121 37v-571q0 -50 35 -66q18 -8 77 -8v-37h-344v37q60 2 76 10q35 14 35 64v571q-90 -8 -133 -47q-53 -47 -74 -176h-35zM877 676q61 8 79 22q25 23 25 76v471q0 51 -29 66q-14 8 -75 10v35h239l191 -527l176 527h227
v-35q-57 -4 -72 -10q-22 -15 -22 -66v-495q0 -48 24 -62q17 -8 70 -12v-37h-311v37q51 2 67 12q27 14 27 62v495l-209 -606h-33l-231 645v-512q0 -57 29 -78q20 -14 84 -18v-37h-256v37z" />
    <glyph glyph-name=".notdef" horiz-adv-x="1024" 
d="M127 0v1536h770v-1536h-770zM256 127h512v1280h-512v-1280z" />
    <glyph glyph-name="glyph1" horiz-adv-x="0" 
 />
    <glyph glyph-name="uni000D" unicode="&#xd;" horiz-adv-x="682" 
 />
    <glyph glyph-name="space" unicode=" " horiz-adv-x="512" 
 />
    <glyph glyph-name="exclam" unicode="!" horiz-adv-x="1298" 
d="M1325 688q0 -364 -227 -571q-166 -152 -398 -152q-231 0 -397 152q-227 209 -227 571q0 361 227 563q170 152 397 152q228 0 398 -152q227 -202 227 -563zM795 -512h-185v512h185v-512zM1085 418q25 114 25 252q0 133 -25 256q-24 121 -73 209q-105 188 -312 188
q-204 0 -311 -188q-39 -68 -70 -209q-26 -123 -26 -258q0 -129 22 -250q27 -135 101 -230q114 -143 284 -143q174 0 289 143q64 78 96 230z" />
    <glyph glyph-name="quotedbl" unicode="&#x22;" horiz-adv-x="868" 
d="M682 645q-111 -106 -272 -106q-105 0 -203 49q-230 155 -230 432q0 194 123 340q117 137 299 137q129 0 246 -78q199 -135 199 -393q0 -225 -162 -381zM522 553l-2 -520q0 -74 -2 -107q-4 -57 -16 -106h-162q0 2 12 78q10 51 10 84v571h160zM604 713q62 94 62 284
q0 230 -101 353q-78 94 -176 94q-61 0 -115 -37q-55 -39 -77 -94q-41 -96 -41 -232q0 -190 80 -336q73 -133 204 -133q101 0 164 101z" />
    <glyph glyph-name="numbersign" unicode="#" horiz-adv-x="1026" 
d="M1034 1149q-4 -23 -55 -23q-23 0 -166 19q-14 2 -31 2q-82 0 -190 -37q-115 -41 -199 -102q-49 -35 -98 -224q-51 -192 -51 -346q0 -80 16 -125q31 -82 43 -94q27 -24 119 -41l110 -18l82 -6q45 -4 82 -25q66 -37 103 -152q12 -32 12 -73q0 -64 -27 -125
q-59 -148 -186 -195q-43 -16 -88 -16q-53 0 -98 24q-56 29 -56 86q0 35 29 58q16 14 55 18q39 6 62 0q37 -10 71 -22q29 -6 60 0q94 22 98 125q2 49 -18 77q-25 35 -70 35l-184 -2q-10 0 -37 -2t-39 -2q-98 0 -174 66q-111 96 -133 290q-4 37 -4 84q0 181 47 400
q47 223 100 278q29 29 131 88q129 70 213 84q62 11 201 0q137 -6 174 -20q100 -39 96 -84z" />
    <glyph glyph-name="dollar" unicode="$" horiz-adv-x="1026" 
d="M1028 793q-4 -23 -55 -23q-60 0 -178 14q-119 17 -181 17q-233 0 -329 -72q-54 -39 -92 -119q-48 -92 -48 -184q0 -55 19 -107q63 -178 221 -167l147 8q101 6 164 -31q66 -37 103 -152q12 -32 12 -73q0 -64 -27 -125q-59 -148 -186 -195q-43 -16 -88 -16q-53 0 -98 24
q-56 29 -56 86q0 35 29 58q16 14 55 18q39 6 62 0q37 -10 71 -22q29 -6 60 0q94 22 98 125q2 49 -18 77q-25 35 -70 35l-184 -2q-10 0 -37 -2t-39 -2q-98 0 -174 66q-137 118 -137 383q0 250 125 381q24 24 104 65q98 47 184 62q19 4 50 4q86 0 229 -19q135 -16 168 -28
q100 -39 96 -84z" />
    <glyph glyph-name="percent" unicode="%" horiz-adv-x="1136" 
d="M1120 1061h-55q-23 143 -94 184q-51 33 -215 33h-281q-39 0 -51 -14q-12 -15 -12 -56v-456h297q122 0 163 39q37 32 62 157h47v-475h-47q-25 125 -64 160q-41 37 -161 37h-297v-449q0 -110 39 -143q30 -33 147 -41v-37h-575v37q122 12 151 49q29 33 29 160v887
q0 108 -35 143t-145 41v39h1091z" />
    <glyph glyph-name="ampersand" unicode="&#x26;" horiz-adv-x="1163" 
d="M1272 1321q0 -33 -51 -66q-47 -30 -82 -30q-49 0 -107 55q-55 57 -125 57q-78 0 -147 -86q-70 -86 -103 -213q-22 -84 -69 -272h362l-32 -111h-357l-88 -374q-65 -279 -160 -484q-157 -348 -344 -348q-41 0 -67 25q-33 24 -33 67q0 72 74 72q24 0 59 -23q35 -22 51 -22
q66 0 113 174q31 111 80 358q55 277 84 389l51 207l16 80q86 422 271 563q137 109 438 109q59 0 108 -33q58 -37 58 -94z" />
    <glyph glyph-name="quotesingle" unicode="'" horiz-adv-x="1062" 
d="M989 801l-325 -801h-195l246 610h-639l323 799h195l-244 -608h639z" />
    <glyph glyph-name="parenleft" unicode="(" horiz-adv-x="745" 
d="M676 522l-211 -522q-4 -10 -16 -16l-132 -64q-16 0 -16 17l199 450h-430l186 463q4 10 16 16l131 62q5 2 7 2q10 0 10 -17l-172 -391h428z" />
    <glyph glyph-name="parenright" unicode=")" horiz-adv-x="1302" 
d="M825 1126l-389 -213l-164 9l465 264zM1053 639l-389 -188l-164 -5l465 265zM981 1194q201 -229 201 -537q0 -370 -281 -614q-229 -201 -532 -201q-80 0 -158 17h2q315 0 539 223q223 221 223 536q0 316 -223 537q-224 223 -539 223q-205 0 -379 -102l-6 -2
q231 201 537 201q370 0 616 -281z" />
    <glyph glyph-name="asterisk" unicode="*" horiz-adv-x="976" 
d="M686 819l-250 -135l-102 4l297 170zM834 510l-250 -123l-107 -2l299 170zM786 864q127 -147 127 -344q0 -235 -178 -393q-147 -127 -342 -127q-51 0 -98 8q203 0 344 144q143 143 143 344q0 200 -143 344q-141 141 -344 141q-131 0 -244 -66h-4q150 127 344 127
q240 0 395 -178z" />
    <glyph glyph-name="plus" unicode="+" horiz-adv-x="827" 
d="M717 61q-111 -71 -262 -71q-168 0 -283 94q-131 113 -141 326q43 239 233 376q160 115 336 115q49 0 86 -10v-62q-59 31 -131 31q-139 0 -250 -104q-125 -123 -151 -346q18 -187 120 -285q88 -86 215 -86q132 0 228 84v-62z" />
    <glyph glyph-name="comma" unicode="," horiz-adv-x="1329" 
d="M1260 102q-242 -112 -500 -112q-281 0 -453 139q-201 164 -215 485q19 369 287 596q244 207 567 207q170 0 314 -65v-41q-132 55 -271 55q-287 0 -483 -201q-213 -215 -199 -551q25 -571 504 -571q199 0 449 100v-41z" />
    <glyph glyph-name="hyphen" unicode="-" horiz-adv-x="1511" 
d="M1448 1364q-51 -27 -66 -43q-22 -33 -26 -111l-13 -260q-10 -184 -184 -272q-129 -64 -325 -64v-446q0 -82 49 -111q35 -20 118 -20v-37h-526v37q82 0 119 20q47 31 47 111v446q-197 0 -324 64q-178 88 -186 272l-12 260q-4 78 -27 111q-12 16 -63 43v37q94 -6 129 -19
q45 -14 86 -59q30 -35 57 -94q27 -55 29 -88l14 -183q12 -170 113 -227q57 -33 184 -35v514q0 80 -47 111q-37 20 -119 20v37h526v-37q-83 0 -118 -20q-49 -31 -49 -111v-514q127 2 184 35q98 57 112 227l15 183q4 33 29 88q26 59 59 94q43 45 88 59q35 13 127 19v-37z" />
    <glyph glyph-name="hyphen" unicode="&#x2010;" horiz-adv-x="1511" 
d="M1448 1364q-51 -27 -66 -43q-22 -33 -26 -111l-13 -260q-10 -184 -184 -272q-129 -64 -325 -64v-446q0 -82 49 -111q35 -20 118 -20v-37h-526v37q82 0 119 20q47 31 47 111v446q-197 0 -324 64q-178 88 -186 272l-12 260q-4 78 -27 111q-12 16 -63 43v37q94 -6 129 -19
q45 -14 86 -59q30 -35 57 -94q27 -55 29 -88l14 -183q12 -170 113 -227q57 -33 184 -35v514q0 80 -47 111q-37 20 -119 20v37h526v-37q-83 0 -118 -20q-49 -31 -49 -111v-514q127 2 184 35q98 57 112 227l15 183q4 33 29 88q26 59 59 94q43 45 88 59q35 13 127 19v-37z" />
    <glyph glyph-name="period" unicode="." horiz-adv-x="1310" 
d="M1298 870q-71 -16 -88 -22q-53 -31 -59 -105l-35 -368q-6 -60 -45 -139q-41 -80 -82 -125q-67 -72 -135 -103q-31 -12 -135 -39v-391h-117v391q-106 27 -135 39q-66 31 -135 103q-41 43 -80 120q-41 84 -47 144l-35 368q-6 74 -59 105q-17 6 -88 22v35q79 31 143 21
q125 -21 178 -142q21 -47 45 -268l29 -260q18 -174 184 -215v862h117v-862q170 43 186 215l27 260q14 137 16 154q10 71 29 114q53 123 178 142q8 2 14 2q58 4 129 -23v-35z" />
    <glyph glyph-name="slash" unicode="/" horiz-adv-x="1413" 
d="M1325 688q0 -364 -227 -571q-166 -152 -398 -152q-231 0 -397 152q-227 209 -227 571q0 361 227 563q170 152 397 152q228 0 398 -152q227 -202 227 -563zM1085 418q25 117 25 252q0 133 -25 256q-24 121 -73 209q-105 188 -312 188q-204 0 -311 -188q-49 -86 -74 -209
q-24 -123 -24 -256q0 -135 24 -252q33 -150 97 -230q114 -143 284 -143q178 0 293 143q64 80 96 230zM969 516l-27 -2q-33 109 -125 109h-233q-95 0 -125 -109l-27 2q10 113 10 176q0 66 -10 174l27 2q33 -108 125 -108h233q92 0 125 108l27 -2q-11 -108 -11 -174
q0 -63 11 -176z" />
    <glyph glyph-name="zero" unicode="0" horiz-adv-x="1226" 
d="M1169 639l-137 84q-18 -320 -82 -469q-90 -211 -192 -256q-64 -29 -158 -29q-108 0 -164 27q-37 16 -78 63q-47 56 -65 113q-39 127 -29 231l31 304q4 38 6 43q6 -33 -8 -33q-6 0 -14 10q-23 33 -50 33q-20 0 -51 -19q-26 -16 -33 -59q-10 -59 -20 -82l-31 10l39 187
q12 63 103 108q18 8 51 8q65 0 110 -43q25 -22 29 -49q4 -18 4 -98v-266q0 -271 62 -355q49 -67 124 -67q50 0 93 28q53 35 77 76q17 27 41 97q68 188 62 548q-162 103 -232 168q-90 86 -141 207q-37 84 -37 135q0 66 62 148q53 71 170 71q39 0 63 -8q98 -30 156 -131
q33 -61 61 -182q25 -107 41 -350l137 -82v-121zM887 905l-21 195q-12 123 -22 149q-17 43 -76 109q-23 22 -53 22q-68 0 -90 -59q-21 -49 -21 -74q0 -16 12 -33q23 -26 29 -38q94 -187 242 -271z" />
    <glyph glyph-name="one" unicode="1" horiz-adv-x="1024" 
d="M182 -242q0 -20 -16 -43q-14 -20 -14 -30q0 -25 38 -25q95 0 136 145q34 123 53 328q12 166 24 336q11 74 33 250l6 51h-225l21 64h217q41 221 96 335q100 215 283 215q63 0 112 -34q55 -39 55 -101q0 -98 -90 -98q-80 0 -80 72q0 18 15 43q12 22 12 28q0 33 -43 33
q-90 0 -131 -133q-27 -86 -59 -360h260l-21 -64h-248q-41 -410 -104 -702q-43 -195 -98 -295q-90 -162 -242 -162q-63 0 -111 35q-51 39 -51 100q0 96 84 96q88 0 88 -84z" />
    <glyph glyph-name="two" unicode="2" horiz-adv-x="0" 
d="M-346 1008q45 18 98 82q51 63 51 108q0 29 -24 29q12 0 -62 -8q-96 12 -96 90q0 110 113 110q67 0 108 -59q35 -51 35 -121q0 -72 -70 -158q-67 -84 -139 -110z" />
    <glyph glyph-name="three" unicode="3" horiz-adv-x="0" 
d="M-252 1309q0 -78 -96 -90q-74 8 -60 8q-26 0 -26 -29q0 -45 53 -108q51 -64 98 -82l-16 -37q-72 26 -137 110q-72 86 -72 158q0 70 35 121q41 59 111 59q110 0 110 -110z" />
    <glyph glyph-name="four" unicode="4" horiz-adv-x="1024" 
d="M598 1167l-492 -694h492v694zM664 1374h94v-901h209v-131h-209v-342h-160v342h-575v131z" />
    <glyph glyph-name="five" unicode="5" horiz-adv-x="1024" 
d="M154 182q51 0 149 -63q96 -66 141 -66q129 0 211 117q76 102 76 236q0 260 -274 372q-154 64 -287 64q-31 0 -41 12q2 6 8 23l217 479h430q45 0 95 51l16 -14l-78 -185q-6 -14 -61 -14h-387l-84 -174q166 -31 239 -53q232 -78 318 -285q37 -88 37 -186q0 -232 -164 -377
q-160 -142 -391 -142q-258 0 -258 132q0 73 88 73z" />
    <glyph glyph-name="six" unicode="6" horiz-adv-x="1024" 
d="M958 455q0 -191 -114 -328q-123 -150 -309 -150q-216 0 -349 203q-116 176 -116 402q0 360 280 606q242 213 561 213l7 -35q-250 -45 -377 -172q-174 -172 -226 -403q62 38 107 57q80 31 162 31q178 0 278 -125q96 -115 96 -299zM774 379q0 133 -41 235q-69 172 -237 172
q-156 0 -207 -92q-31 -55 -31 -180q0 -172 61 -303q78 -172 230 -172q121 0 180 115q45 90 45 225z" />
    <glyph glyph-name="seven" unicode="7" horiz-adv-x="1024" 
d="M920 1356v-33l-435 -1341h-133l406 1222h-436q-99 0 -150 -41q-35 -26 -96 -125l-35 17l80 196q14 37 41 105h758z" />
    <glyph glyph-name="eight" unicode="8" horiz-adv-x="1024" 
d="M514 35q109 0 170 57q64 62 64 166q0 121 -109 223q-33 31 -211 158q-164 -102 -164 -305q0 -125 64 -207q67 -92 186 -92zM528 799q95 65 129 110q64 76 64 187q0 106 -66 168q-63 59 -172 59q-88 0 -149 -55q-62 -58 -62 -144q0 -168 256 -325zM375 682
q-131 104 -180 170q-74 94 -74 211q0 149 127 237q110 78 266 78q139 0 240 -71q110 -82 110 -217q0 -117 -96 -209q-55 -54 -180 -123q153 -115 215 -185q100 -118 100 -256q0 -159 -123 -254q-110 -86 -274 -86q-160 0 -273 84q-124 93 -124 246q0 127 81 223
q54 64 185 152z" />
    <glyph glyph-name="nine" unicode="9" horiz-adv-x="1024" 
d="M512 573q47 0 123 29q86 35 98 74q10 24 10 178q0 178 -51 299q-69 170 -223 170q-123 0 -178 -127q-41 -90 -41 -229q0 -160 51 -260q68 -134 211 -134zM483 1378q215 0 344 -180q115 -162 115 -387q0 -338 -221 -588q-127 -141 -324 -211q-108 -41 -274 -59l-10 39
q104 24 174 51q125 49 198 121q86 82 154 198q74 123 94 236l-35 -27q-73 -57 -174 -77q-55 -13 -94 -13q-168 0 -270 123q-99 115 -99 287q0 201 109 340q117 147 313 147z" />
    <glyph glyph-name="colon" unicode=":" horiz-adv-x="567" 
d="M387 831q0 -49 -33 -79q-30 -33 -80 -33q-47 0 -77 33q-31 30 -31 77q0 48 31 80q30 31 77 31q48 0 80 -31q33 -32 33 -78zM272 -16q-45 0 -75 32q-31 35 -31 80t31 78q32 35 79 35q48 0 82 -33q35 -33 35 -80q0 -49 -37 -82q-34 -30 -84 -30z" />
    <glyph glyph-name="semicolon" unicode=";" horiz-adv-x="567" 
d="M457 23q0 -97 -72 -189q-66 -84 -158 -127l-18 41q168 94 168 221q0 23 -29 23l-65 -6q-50 0 -80 28q-33 31 -33 78q0 53 35 84q37 33 90 33q74 0 121 -57q41 -56 41 -129zM287 713q-47 0 -80 32q-35 33 -35 82q0 47 35 80q33 33 80 33t80 -33q32 -33 32 -80
q0 -49 -32 -82q-33 -32 -80 -32z" />
    <glyph glyph-name="less" unicode="&#x3c;" horiz-adv-x="1153" 
d="M1096 135v-151l-1035 505v56l1035 508v-154l-766 -381z" />
    <glyph glyph-name="equal" unicode="=" horiz-adv-x="1153" 
d="M1096 381v-139h-1035v139h1035zM1096 795v-142h-1035v142h1035z" />
    <glyph glyph-name="greater" unicode="&#x3e;" horiz-adv-x="1153" 
d="M59 899v154l1115 -508v-56l-1115 -505v151l846 383z" />
    <glyph glyph-name="question" unicode="?" horiz-adv-x="907" 
d="M594 90q0 -45 -33 -78q-33 -30 -78 -30q-47 0 -80 30q-30 31 -30 78q0 45 30 78q33 31 78 31t80 -31q33 -33 33 -78zM489 1382q158 0 256 -84q105 -88 105 -239q0 -131 -154 -324q-168 -211 -196 -399h-35q0 102 37 223q16 51 82 199q78 178 78 289q0 116 -56 190
q-61 86 -174 86q-57 0 -121 -35q-69 -39 -69 -92q0 -18 41 -70q41 -49 41 -86q0 -32 -25 -57q-27 -25 -59 -25q-52 0 -80 43q-25 39 -25 93q0 137 115 217q100 71 239 71z" />
    <glyph glyph-name="at" unicode="@" horiz-adv-x="1884" 
d="M750 502q0 -142 122 -142q109 0 195 191q70 160 70 283q0 112 -111 112t-199 -172q-77 -149 -77 -272zM950 -29q-301 0 -524 176q-242 191 -242 484q0 327 262 547q246 206 582 206q272 0 461 -151q197 -160 197 -410q0 -184 -113 -350q-125 -184 -303 -184
q-107 0 -158 65q-35 43 -35 97q-24 -68 -94 -115q-68 -49 -139 -49q-121 0 -195 82q-71 80 -71 200q0 166 122 308q131 145 295 145q64 0 115 -33q53 -35 72 -92l32 100h164l-55 -170q-35 -108 -59 -194q-43 -148 -43 -184q0 -21 14 -46q22 -41 74 -41q131 0 225 170
q78 148 78 289q0 226 -178 361q-164 125 -396 125q-270 0 -483 -187q-231 -198 -231 -487q0 -275 194 -436q182 -154 461 -154q92 0 209 27q174 43 297 137l37 -57q-279 -179 -572 -179z" />
    <glyph glyph-name="A" unicode="A" horiz-adv-x="1329" 
d="M1268 0h-463v37q121 0 121 82q0 22 -13 57l-90 270h-481l-88 -270q-10 -33 -10 -57q0 -82 118 -82v-37h-354v37q72 0 105 45q10 12 37 86l462 1210h47l465 -1210q27 -72 39 -86q33 -45 105 -45v-37zM797 532l-209 549l-209 -549h418z" />
    <glyph glyph-name="B" unicode="B" horiz-adv-x="1261" 
d="M1098 377q-15 -242 -203 -332q-94 -45 -213 -45h-629v37q84 0 119 20q49 29 49 111v1042q0 80 -49 111q-35 20 -119 20v37h514q154 0 256 -35q115 -36 166 -124q51 -91 51 -199q0 -72 -26 -135q-43 -103 -205 -162q145 -37 223 -135q74 -90 66 -211zM846 963q4 28 4 57
q0 246 -283 270q-153 15 -153 -12v-520h145q260 0 287 205zM887 360q0 175 -117 252q-88 60 -203 60h-153v-492q0 -47 12 -65q14 -29 68 -29h110q141 0 219 90q64 76 64 184z" />
    <glyph glyph-name="C" unicode="C" horiz-adv-x="1157" 
d="M1128 1047h-45q-10 75 -22 108q-25 53 -86 90q-68 41 -195 41h-356v-1118q0 -82 49 -111q35 -20 119 -20v-37h-526v37q81 0 116 20q49 31 49 111v965q0 135 -77 182q-35 18 -109 22v41h1053z" />
    <glyph glyph-name="D" unicode="D" horiz-adv-x="1173" 
d="M1126 0h-1116l594 1409zM133 100h764l-360 959z" />
    <glyph glyph-name="E" unicode="E" horiz-adv-x="1247" 
d="M1143 348l-84 -348h-1000v37q82 0 119 20q47 29 47 111v1042q0 80 -47 111q-37 20 -119 20v37h985v-303h-51q-35 131 -37 137q-34 68 -139 68h-397v-512h289q104 0 149 49q39 45 39 144h43v-472h-43q0 99 -39 144q-45 49 -149 49h-289v-508q0 -90 74 -88l301 8
q129 2 202 90q39 45 88 164h58z" />
    <glyph glyph-name="F" unicode="F" horiz-adv-x="1243" 
d="M1180 371l-47 -371h-1051v39l795 1253h-424q-154 0 -213 -82q-29 -39 -68 -190h-45l27 358h968v-55l-766 -1237h469q166 0 238 107q27 38 61 178h56z" />
    <glyph glyph-name="G" unicode="G" horiz-adv-x="1456" 
d="M1352 0h-527v37q82 0 117 20q49 31 49 111v494h-559v-494q0 -80 47 -111q35 -20 119 -20v-37h-526v37q84 0 118 20q50 29 50 111v1042q0 80 -50 111q-34 20 -118 20v37h526v-37q-84 0 -119 -20q-47 -31 -47 -111v-462h559v462q0 80 -49 111q-35 20 -117 20v37h527v-37
q-84 0 -119 -20q-49 -31 -49 -111v-1042q0 -82 49 -111q35 -20 119 -20v-37z" />
    <glyph glyph-name="H" unicode="H" horiz-adv-x="1413" 
d="M1325 688q0 -364 -227 -571q-166 -152 -398 -152q-231 0 -397 152q-227 209 -227 571q0 361 227 563q170 152 397 152q228 0 398 -152q227 -202 227 -563zM1085 418q25 117 25 252q0 133 -25 256q-24 121 -73 209q-105 188 -312 188q-204 0 -311 -188q-49 -86 -74 -209
q-24 -123 -24 -256q0 -135 24 -252q33 -150 97 -230q114 -143 284 -143q178 0 293 143q64 80 96 230zM969 516l-27 -2q-33 109 -125 109h-233q-95 0 -125 -109l-27 2q10 113 10 176q0 66 -10 174l27 2q33 -108 125 -108h233q92 0 125 108l27 -2q-11 -108 -11 -174
q0 -63 11 -176z" />
    <glyph glyph-name="I" unicode="I" horiz-adv-x="690" 
d="M586 0h-527v37q82 0 119 20q47 29 47 111v1042q0 80 -47 111q-37 20 -119 20v37h527v-37q-82 0 -119 -20q-47 -31 -47 -111v-1042q0 -82 47 -111q37 -20 119 -20v-37z" />
    <glyph glyph-name="J" unicode="J" horiz-adv-x="1380" 
d="M1337 0h-563v37q146 0 146 57q0 35 -46 90l-389 486l-61 -62v-440q0 -82 49 -111q35 -20 119 -20v-37h-526v37q81 0 116 20q49 31 49 111v1042q0 80 -49 111q-35 20 -116 20v37h526v-37q-84 0 -119 -20q-49 -31 -49 -111v-473q233 211 440 447q45 53 45 88q0 69 -157 69
v37h481v-37q-72 0 -111 -18q-51 -25 -114 -100q-154 -181 -385 -420l477 -594q88 -109 145 -143q27 -17 92 -29v-37z" />
    <glyph glyph-name="K" unicode="K" horiz-adv-x="1310" 
d="M1260 0h-504v37q133 0 133 98q0 31 -15 68l-299 813l-272 -809q-16 -53 -16 -88q0 -53 41 -72q22 -10 82 -10v-37h-400v37q41 0 96 33q74 43 101 116l416 1223l462 -1219q60 -153 175 -153v-37z" />
    <glyph glyph-name="L" unicode="L" horiz-adv-x="1740" 
d="M1645 0h-527v37q82 0 119 20q47 31 47 111v1003l-455 -1171h-32l-482 1112v-944q0 -131 166 -131v-37h-424v37q168 0 168 131v1020q0 96 -30 123q-27 20 -144 30v37h373l434 -1044l416 1044h366v-37h-24q-19 2 -29 2q-110 0 -110 -120v-1055q0 -82 49 -111
q35 -20 119 -20v-37z" />
    <glyph glyph-name="M" unicode="M" horiz-adv-x="1409" 
d="M1335 1341q-84 0 -118 -20q-50 -31 -50 -111v-1226h-41l-815 1120v-936q0 -131 166 -131v-37h-424v37q168 0 168 131v1067q-31 39 -59 78q-33 30 -78 30q-12 0 -27 -2v37h310l710 -999v831q0 80 -49 111q-35 20 -119 20v37h426v-37z" />
    <glyph glyph-name="N" unicode="N" horiz-adv-x="1234" 
d="M1069 1069h-29q-10 61 -18 78q-29 47 -107 47h-647q-80 0 -104 -47q-12 -21 -19 -78h-30v309h954v-309zM911 512h-32q-7 94 -52 111q-16 4 -45 4h-381q-55 0 -75 -29q-17 -23 -21 -86h-33v424h33q4 -64 21 -86q20 -29 75 -29h381q49 0 70 19q22 22 27 96h32v-424zM1110 0
h-1036v397h32q17 -121 37 -155q33 -52 125 -52h647q93 0 125 52q23 37 37 155h33v-397z" />
    <glyph glyph-name="O" unicode="O" horiz-adv-x="1298" 
d="M1325 688q0 -364 -227 -571q-166 -152 -398 -152q-231 0 -397 152q-227 209 -227 571q0 361 227 563q170 152 397 152q228 0 398 -152q227 -202 227 -563zM1085 418q25 114 25 252q0 133 -25 256q-24 121 -73 209q-105 188 -312 188q-204 0 -311 -188q-39 -68 -70 -209
q-26 -123 -26 -260q0 -127 22 -248q27 -135 101 -230q114 -143 284 -143q174 0 289 143q64 78 96 230z" />
    <glyph glyph-name="P" unicode="P" horiz-adv-x="1462" 
d="M1380 0h-526v37q84 0 119 20q49 29 49 111v1126h-619l3 -1126q0 -82 49 -111q34 -20 118 -20v-37h-526v37q82 0 119 20q47 31 47 111v1014q0 159 -164 159v37h1327v-37q-164 0 -164 -159l2 -1014q0 -82 48 -111q34 -20 118 -20v-37z" />
    <glyph glyph-name="Q" unicode="Q" horiz-adv-x="1114" 
d="M1026 879q-45 -146 -197 -226q-98 -51 -256 -45l-161 6v-446q0 -80 49 -111q35 -20 117 -20v-37h-527v37q84 0 119 20q49 29 49 111v1042q0 80 -49 111q-35 20 -119 20v37h514q154 0 256 -35q115 -36 166 -126q55 -95 55 -220q0 -61 -16 -118zM842 1036q-13 131 -74 193
q-35 31 -115 57q-61 21 -176 10q-65 -6 -65 -49v-524q28 -23 108 -23q78 0 180 21q146 29 146 258q0 29 -4 57z" />
    <glyph glyph-name="R" unicode="R" horiz-adv-x="1363" 
d="M408 700q223 9 315 45q164 68 164 254q0 179 -148 242q-77 37 -204 37q-76 0 -91 -4q-36 -12 -36 -68v-506zM23 37q118 10 149 49q27 37 27 160v887q0 106 -33 141q-35 35 -143 43v39h567q520 0 520 -359q0 -286 -371 -344l422 -518q72 -88 178 -98v-37h-329l-490 631
l-112 -6v-404q0 -110 36 -143q31 -31 148 -41v-37h-569v37z" />
    <glyph glyph-name="S" unicode="S" horiz-adv-x="1157" 
d="M1092 420l-68 -420h-1014l520 670l-499 708h960l19 -309h-35q-23 92 -53 137q-62 78 -181 78h-407l373 -528l-439 -563h543q96 0 145 38q60 50 99 189h37z" />
    <glyph glyph-name="T" unicode="T" horiz-adv-x="1210" 
d="M1124 1028l-47 -4q0 260 -266 270l-121 4v-1130q0 -82 47 -111q35 -20 119 -20v-37h-526v37q84 0 119 20q49 29 49 111v1130l-123 -4q-266 -10 -266 -270l-48 4l9 350h1046z" />
    <glyph glyph-name="U" unicode="U" horiz-adv-x="1316" 
d="M1286 1341q-67 0 -98 -12q-58 -18 -96 -86l-355 -602v-473q0 -82 49 -111q35 -20 119 -20v-37h-526v37q84 0 119 20q47 31 47 111v446l-393 633q-62 99 -166 94v37h551v-37q-146 2 -146 -59q0 -20 17 -49l288 -490l260 474q25 47 25 69q0 62 -125 55v37h430v-37z" />
    <glyph glyph-name="V" unicode="V" horiz-adv-x="1454" 
d="M1374 678q0 -242 -192 -363q-150 -94 -373 -94q0 -184 188 -184v-37h-567v37q188 0 188 184q-231 0 -378 94q-191 121 -191 363q0 237 164 369q88 69 190 94q74 16 215 16q0 184 -186 184v37h563v-37q-100 0 -143 -45q-43 -43 -43 -139q135 0 211 -16q100 -25 188 -94
q166 -134 166 -369zM1155 678q8 137 -63 252q-105 164 -283 164v-801q170 0 260 110q76 93 86 275zM618 293v801q-180 0 -282 -164q-72 -115 -64 -252q13 -182 86 -275q93 -110 260 -110z" />
    <glyph glyph-name="W" unicode="W" horiz-adv-x="1355" 
d="M1305 0h-555v37q143 0 143 59q0 21 -16 49l-263 453l-305 -436q-20 -31 -20 -60q0 -65 121 -65v-37h-426v37q118 0 190 98l391 547l-364 565q-64 96 -172 94v37h555v-37q-146 2 -146 -57q0 -20 19 -51l227 -387l260 371q33 45 33 69q0 55 -133 55v37h430v-37
q-123 0 -195 -98l-346 -475l400 -637q59 -94 172 -94v-37z" />
    <glyph glyph-name="X" unicode="X" horiz-adv-x="1511" 
d="M1448 1364q-51 -27 -66 -43q-22 -33 -26 -111l-13 -260q-10 -184 -184 -272q-129 -64 -325 -64v-446q0 -82 49 -111q35 -20 118 -20v-37h-526v37q82 0 119 20q47 31 47 111v446q-197 0 -324 64q-178 88 -186 272l-12 260q-4 78 -27 111q-12 16 -63 43v37q94 -6 129 -19
q45 -14 86 -59q30 -35 57 -94q27 -55 29 -88l14 -183q12 -170 113 -227q57 -33 184 -35v514q0 80 -47 111q-37 20 -119 20v37h526v-37q-83 0 -118 -20q-49 -31 -49 -111v-514q127 2 184 35q98 57 112 227l15 183q4 33 29 88q26 59 59 94q43 45 88 59q35 13 127 19v-37z" />
    <glyph glyph-name="Y" unicode="Y" horiz-adv-x="1462" 
d="M610 0h-547v332h27q19 -76 41 -101q25 -24 82 -24h293l-4 57q-217 74 -309 223q-93 150 -93 328q0 152 64 277q65 133 211 227q137 90 338 90q200 0 340 -90q67 -45 96 -70q65 -61 115 -157q63 -125 63 -277q0 -178 -92 -328q-92 -149 -309 -223l-4 -57h292q60 0 82 24
q25 25 41 101h27v-332h-547l31 311q82 39 102 60q68 55 115 174q45 114 45 280q0 271 -127 412q-96 106 -270 106q-172 0 -269 -106q-129 -141 -129 -416q0 -164 45 -276q48 -119 115 -174q23 -21 105 -60z" />
    <glyph glyph-name="Z" unicode="Z" horiz-adv-x="690" 
d="M633 1556q0 -43 -33 -71q-31 -31 -72 -31q-39 0 -69 31q-31 31 -31 71q0 37 33 70q28 33 67 33q41 0 72 -31q33 -31 33 -72zM223 1556q0 -43 -28 -71q-31 -31 -72 -31t-72 31q-28 31 -28 71q0 37 28 70q33 33 72 33q41 0 72 -31q28 -31 28 -72zM586 0h-527v37
q82 0 119 20q47 29 47 111v1042q0 80 -47 111q-37 20 -119 20v37h527v-37q-82 0 -119 -20q-47 -31 -47 -111v-1042q0 -82 47 -111q37 -20 119 -20v-37z" />
    <glyph glyph-name="bracketleft" unicode="[" horiz-adv-x="1316" 
d="M1001 1556q0 -43 -30 -71q-31 -31 -72 -31t-70 31q-30 31 -30 71q0 37 30 70q31 33 70 33q41 0 72 -31q30 -31 30 -72zM594 1556q0 -43 -31 -71q-28 -31 -71 -31q-39 0 -70 31t-31 71q0 37 31 70q33 33 70 33q43 0 71 -31q31 -31 31 -72zM1286 1341q-67 0 -98 -12
q-58 -18 -96 -86l-355 -602v-473q0 -82 49 -111q35 -20 119 -20v-37h-526v37q84 0 119 20q47 31 47 111v446l-393 633q-62 99 -166 94v37h551v-37q-146 2 -146 -59q0 -20 17 -49l288 -490l260 474q25 47 25 69q0 62 -125 55v37h430v-37z" />
    <glyph glyph-name="backslash" unicode="\" horiz-adv-x="1208" 
d="M842 1538l-271 -344q-8 -10 -22 -10q-41 0 -41 33q0 6 2 10l182 403q8 19 43 19q41 0 66 -17q47 -28 47 -78q0 -10 -6 -16zM1153 254l-4 -109q-4 -96 -70 -149q-30 -25 -59 -25q-33 0 -66 31q-53 49 -118 227q-68 -114 -68 -116q-66 -84 -170 -119q-84 -29 -145 -29
q-76 0 -152 35q-102 45 -158 139q-67 117 -67 279q0 63 10 137q29 205 201 322q75 51 194 51q160 0 250 -150q53 -90 74 -205l121 330h161l-213 -588q21 -120 76 -176q37 -37 70 -37q29 0 55 29q31 31 45 123h33zM754 414q-31 237 -80 315q-58 90 -135 113q-43 12 -74 12
q-57 0 -109 -63q-61 -78 -82 -238q-18 -143 13 -309q18 -103 73 -158q56 -53 115 -57q51 -2 115 51q59 51 108 182z" />
    <glyph glyph-name="bracketright" unicode="]" horiz-adv-x="878" 
d="M698 1524l-270 -344q-8 -11 -22 -11q-39 0 -39 33q0 4 2 10l182 404q8 16 45 16q39 0 63 -14q46 -29 46 -76q0 -10 -7 -18zM852 199q0 -60 -41 -113q-51 -68 -154 -96q-90 -27 -176 -27q-155 0 -272 74q-109 67 -109 194q0 33 11 68q36 121 196 168q-80 37 -110 59
q-37 29 -56 74q-14 35 -14 74q0 98 96 174q105 82 283 82q96 0 143 -19q43 -16 64 -28q39 -23 59 -56q23 -30 23 -61q0 -53 -47 -82q-15 -8 -37 -8q-78 0 -103 96q-22 92 -135 92q-37 0 -74 -16q-102 -47 -102 -178q0 -23 2 -35q27 -131 162 -131q14 0 33 2l100 10
q80 8 80 -41q0 -24 -37 -43q-43 -20 -123 -8q-29 4 -51 4q-123 0 -158 -111q-8 -30 -8 -69q0 -68 27 -105q71 -96 239 -96q64 0 109 14q94 29 133 150z" />
    <glyph glyph-name="asciicircum" unicode="^" horiz-adv-x="1103" 
d="M721 1524l-270 -344q-9 -13 -25 -13q-39 0 -39 35q0 4 2 10l182 404q9 16 43 16q41 0 66 -14q45 -31 45 -78q0 -8 -4 -16zM977 -375h-166q-10 43 -25 187l-24 829q-2 107 -53 147q-62 50 -140 35q-69 -12 -125 -65q-30 -39 -63 -80v-678h-156v637q0 119 -41 170
q-24 33 -59 33q-29 0 -49 -25q-21 -22 -31 -70q-6 -36 -12 -77h-33q4 45 6 88q10 45 43 98q53 84 162 84q45 0 86 -23q43 -24 61 -73q2 -4 25 -86q47 69 82 102q65 68 141 88q29 6 64 6q88 0 139 -37q115 -86 117 -229l20 -922q10 -47 31 -139z" />
    <glyph glyph-name="underscore" unicode="_" 
d="M553 1524l-270 -344q-9 -11 -23 -11q-39 0 -39 33q0 4 2 10l180 404q9 18 43 18q43 0 68 -16q45 -29 45 -76q0 -10 -6 -18zM639 186q-41 -229 -219 -217q-82 4 -133 70q-41 51 -41 100v441q0 157 -60 198q-24 19 -104 19v37q117 24 321 98v-682q0 -107 33 -150t62 -43
q12 0 32 6q39 13 58 60l16 63h35z" />
    <glyph glyph-name="grave" unicode="`" horiz-adv-x="1105" 
d="M893 1280q0 -39 -27 -63q-24 -25 -61 -25t-62 27q-26 26 -26 61q0 37 24 63q27 27 64 27t61 -27q27 -24 27 -63zM793 1569l-271 -342q-8 -13 -22 -13q-41 0 -41 35q0 4 2 11l182 403q8 16 43 16q41 0 66 -14q47 -31 47 -78q0 -10 -6 -18zM319 1280q0 -39 -24 -63
q-27 -25 -64 -25q-34 0 -61 27q-27 26 -27 61q0 37 25 63q27 27 63 27q35 0 62 -27q26 -24 26 -63zM985 537q6 -41 6 -86q0 -146 -55 -263q-70 -145 -213 -196q-74 -27 -150 -27q-61 0 -112 19q-72 24 -135 114q-62 84 -64 236q-2 119 -4 233q-4 142 -22 185q-17 39 -58 39
q-39 0 -69 -31q-11 -10 -56 -101h-41q15 50 31 97q20 63 47 104q25 37 74 58q45 18 84 14q51 -4 92 -41q39 -35 45 -72q35 -219 35 -500q0 -139 76 -215q53 -61 106 -61q37 0 82 23q72 36 115 159q43 119 43 260q0 72 -13 140q-20 123 -92 198q-35 37 -108 84l10 33
q303 -117 346 -403z" />
    <glyph glyph-name="a" unicode="a" horiz-adv-x="1208" 
d="M1153 254l-4 -109q-4 -96 -70 -149q-30 -25 -59 -25q-33 0 -66 31q-53 49 -118 227q-68 -114 -68 -116q-66 -84 -170 -119q-84 -29 -145 -29q-76 0 -152 35q-102 45 -158 139q-67 117 -67 279q0 63 10 137q29 205 201 322q75 51 194 51q160 0 250 -150q53 -90 74 -205
l121 330h161l-213 -588q21 -120 76 -176q37 -37 70 -37q29 0 55 29q31 31 45 123h33zM754 414q-31 237 -80 315q-58 90 -135 113q-43 12 -74 12q-57 0 -109 -63q-61 -78 -82 -238q-18 -143 13 -309q18 -103 73 -158q56 -53 115 -57q51 -2 115 51q59 51 108 182z" />
    <glyph glyph-name="b" unicode="b" horiz-adv-x="1122" 
d="M1040 281q-57 -228 -243 -293q-111 -37 -240 -17q-108 19 -233 105l-5 -379q0 -19 -16 -154h-178q2 17 20 156q13 94 13 156v1341q0 111 67 184q37 41 121 88q82 50 193 50q168 0 297 -107q110 -90 110 -221q0 -23 -2 -41q-14 -96 -63 -164q-29 -37 -105 -100
q195 -92 258 -314q23 -71 23 -159q0 -70 -17 -131zM834 270q10 54 10 115q0 248 -129 393q-43 49 -111 43q-96 -10 -123 4q-37 21 -37 47q0 27 31 54q21 16 62 16q8 0 102 -12q25 -2 70 53q45 57 45 176q0 162 -101 240q-61 49 -129 49q-35 0 -63 -12q-55 -23 -99 -82
q-45 -66 -45 -131v-1033q54 -51 58 -55q35 -26 76 -43q77 -31 147 -31q61 0 111 27q100 53 125 182z" />
    <glyph glyph-name="c" unicode="c" horiz-adv-x="868" 
d="M897 915l-379 -809q8 -57 21 -112q14 -96 14 -170q0 -78 -16 -131q-33 -117 -117 -111q-88 4 -88 131q0 111 110 398q-28 225 -77 401q-48 168 -89 217q-40 51 -102 51q-39 0 -74 -28q-39 -31 -51 -82q-6 -41 -10 -82h-29q0 147 31 231q39 107 152 107q28 0 55 -8
q106 -31 160 -250q47 -187 86 -404l211 651h192z" />
    <glyph glyph-name="d" unicode="d" horiz-adv-x="1054" 
d="M905 758q80 -133 80 -293q0 -213 -151 -363q-99 -96 -205 -125q-58 -16 -121 -16q-98 0 -164 35q-149 80 -219 225q-43 92 -43 193q0 129 72 250q67 114 213 188q75 33 155 63l-237 218q-52 47 -74 122q-10 33 -10 64q0 55 39 98q10 10 67 56q58 43 189 43q96 0 170 -17
q141 -31 198 -100q37 -45 37 -88q0 -37 -31 -62q-28 -20 -61 -20q-61 0 -141 82q-58 57 -74 71q-31 25 -76 39q-37 13 -69 13q-72 0 -125 -56q-25 -24 -25 -65q0 -49 45 -96q72 -72 295 -209q182 -111 266 -250zM770 557q-43 176 -184 299q-246 -53 -279 -305q-6 -47 -6 -94
q0 -170 72 -295q59 -105 182 -105q98 0 166 90q67 91 67 252q0 80 -18 158z" />
    <glyph glyph-name="e" unicode="e" horiz-adv-x="878" 
d="M852 199q0 -60 -41 -113q-51 -68 -154 -96q-90 -27 -176 -27q-155 0 -272 74q-109 67 -109 194q0 33 11 68q36 121 196 168q-80 37 -110 59q-37 29 -56 74q-14 35 -14 74q0 98 96 174q105 82 283 82q96 0 143 -19q43 -16 64 -28q39 -23 59 -56q23 -30 23 -61
q0 -53 -47 -82q-15 -8 -37 -8q-78 0 -103 96q-22 92 -135 92q-37 0 -74 -16q-102 -47 -102 -178q0 -23 2 -35q27 -131 162 -131q14 0 33 2l100 10q80 8 80 -41q0 -24 -37 -43q-43 -20 -123 -8q-29 4 -51 4q-123 0 -158 -111q-8 -30 -8 -69q0 -68 27 -105q71 -96 239 -96
q64 0 109 14q94 29 133 150z" />
    <glyph glyph-name="f" unicode="f" horiz-adv-x="1009" 
d="M959 -74q11 -125 -53 -229q-61 -105 -162 -137q-59 -21 -125 -21q-57 0 -96 17q-76 30 -76 90q0 98 109 98q16 0 37 -4q33 -4 88 -23q41 -10 59 -10q27 0 51 12q84 41 82 148q-2 61 -49 96t-116 29l-130 -12q-75 -7 -133 4q-65 12 -143 63q-96 66 -129 148
q-51 127 -47 266q4 129 16 196q21 109 86 271q41 100 170 274l-90 31q-96 33 -96 127q0 61 49 113q64 65 176 75l4 -37q-108 -51 -108 -127q0 -18 6 -36q18 -64 110 -91l117 107q66 55 158 104q51 27 90 27q27 0 47 -12q29 -19 29 -53q0 -31 -29 -70q-20 -29 -39 -43
q-37 -33 -100 -64q-82 -41 -199 -53q-92 -76 -192 -258q-109 -197 -109 -422q0 -18 2 -39q2 -55 6 -71q13 -60 45 -107q82 -117 199 -110l94 4q205 10 293 -70q90 -80 98 -201z" />
    <glyph glyph-name="g" unicode="g" horiz-adv-x="1103" 
d="M977 -375h-166q-10 43 -25 187l-24 829q-2 107 -53 147q-62 50 -140 35q-69 -12 -125 -65q-30 -39 -63 -80v-678h-156v637q0 119 -41 170q-24 33 -59 33q-29 0 -49 -25q-21 -22 -31 -70q-6 -36 -12 -77h-33q4 45 6 88q10 45 43 98q53 84 162 84q45 0 86 -23
q43 -24 61 -73q2 -4 25 -86q47 69 82 102q65 68 141 88q29 6 64 6q88 0 139 -37q115 -86 117 -229l20 -922q10 -47 31 -139z" />
    <glyph glyph-name="h" unicode="h" horiz-adv-x="1226" 
d="M1169 639l-137 84q-18 -320 -82 -469q-90 -211 -192 -256q-64 -29 -158 -29q-108 0 -164 27q-37 16 -78 63q-47 56 -65 113q-39 127 -29 231l31 304q4 38 6 43q6 -33 -8 -33q-6 0 -14 10q-23 33 -50 33q-20 0 -51 -19q-26 -16 -33 -59q-10 -59 -20 -82l-31 10l39 187
q12 63 103 108q18 8 51 8q65 0 110 -43q25 -22 29 -49q4 -18 4 -98v-266q0 -271 62 -355q49 -67 124 -67q50 0 93 28q53 35 77 76q17 27 41 97q68 188 62 548q-162 103 -232 168q-90 86 -141 207q-37 84 -37 135q0 66 62 148q53 71 170 71q39 0 63 -8q98 -30 156 -131
q33 -61 61 -182q25 -107 41 -350l137 -82v-121zM887 905l-21 195q-12 123 -22 149q-17 43 -76 109q-23 22 -53 22q-68 0 -90 -59q-21 -49 -21 -74q0 -16 12 -33q23 -26 29 -38q94 -187 242 -271z" />
    <glyph glyph-name="i" unicode="i" 
d="M639 186q-41 -229 -219 -217q-82 4 -133 70q-41 51 -41 100v441q0 157 -60 198q-24 19 -104 19v37q117 24 321 98v-682q0 -107 33 -150t62 -43q12 0 32 6q39 13 58 60l16 63h35z" />
    <glyph glyph-name="j" unicode="j" horiz-adv-x="1054" 
d="M1034 0h-436v33q84 0 84 35q0 14 -16 34l-306 375v-477h-139v651q0 105 -55 135q-29 17 -105 19v39q60 10 115 22q78 19 184 62v-402q199 201 394 353q59 47 143 47q59 0 100 -31q35 -27 35 -66q0 -53 -39 -77q-30 -21 -65 -21q-37 0 -62 21q-59 41 -75 41q-25 0 -72 -31
q-41 -29 -211 -197l330 -415q53 -66 77 -84q48 -33 119 -33v-33z" />
    <glyph glyph-name="k" unicode="k" horiz-adv-x="1122" 
d="M1122 313q-10 -110 -10 -116q-10 -72 -39 -123q-63 -115 -170 -109q-121 6 -178 141q-29 64 -72 265q-43 204 -63 377l-352 -748h-189l473 1020q-55 256 -112 301q-48 39 -97 39q-34 0 -71 -21q-54 -28 -74 -79q-14 -48 -29 -93h-39q13 140 54 236q49 110 147 110
q64 0 125 -45q59 -47 84 -110q84 -213 154 -557q81 -414 102 -479q31 -103 86 -144q45 -33 88 -33q27 0 49 11q49 20 74 80q10 38 20 77h39z" />
    <glyph glyph-name="l" unicode="l" horiz-adv-x="1105" 
d="M313 926v-617q0 -153 97 -196q43 -19 79 -19q35 0 72 17q103 49 135 127v688h160v-711q0 -86 43 -129q29 -29 57 -29q21 0 41 13q31 18 43 57q9 31 15 59h37q-17 -69 -31 -100q-31 -57 -94 -92q-47 -27 -99 -27q-57 0 -94 29q-41 33 -55 74q-10 41 -21 80
q-20 -29 -39 -50q-34 -37 -90 -77q-82 -62 -174 -56q-55 2 -110 39q-31 27 -64 51v-43q0 -61 21 -125q28 -84 34 -120q5 -27 5 -52q0 -61 -29 -98q-27 -33 -62 -33q-34 0 -61 33q-27 37 -27 98q0 25 4 54q7 26 31 118q17 64 17 125v912h159z" />
    <glyph glyph-name="m" unicode="m" horiz-adv-x="1005" 
d="M874 780q-18 -59 -73 -198q0 -2 -174 -340q-107 -203 -129 -271h-68l-317 811q-17 43 -45 54q-7 2 -84 12v35q102 10 129 14q37 8 112 43l293 -750l148 283q47 90 47 154q0 43 -17 112q-22 95 -4 129q31 60 86 60q45 0 76 -37q41 -47 20 -111z" />
    <glyph glyph-name="n" unicode="n" horiz-adv-x="1007" 
d="M1001 -92q-4 -49 -14 -88q-20 -78 -67 -142q-31 -43 -48 -57q-49 -47 -120 -72q-29 -10 -70 -10q-90 0 -137 39q-37 31 -37 78q0 45 41 70q22 14 65 8l136 -17q10 -2 18 -2q59 0 96 37q43 43 37 117q-10 133 -168 123q-63 -4 -213 -4q-168 0 -280 86q-41 30 -82 104
q-39 70 -52 131q-10 47 -10 92q0 105 58 232q28 65 61 104q33 37 139 123q-108 123 -108 211q0 19 2 41q8 90 74 154l-70 26q-39 21 -62 62q-16 28 -16 59q0 49 39 90q59 66 147 66q17 0 31 -4l4 -33q-33 -14 -65 -31q-47 -28 -47 -71q0 -13 2 -25q16 -62 106 -70l105 82
q104 82 192 82q86 0 86 -61q0 -37 -29 -72q-30 -33 -86 -59q-65 -31 -116 -37q-54 -6 -107 -13q-110 -77 -119 -182q-4 -51 25 -92q23 -31 88 -82q148 70 225 82q127 21 189 -12q35 -21 35 -51q0 -19 -11 -37q-30 -58 -161 -72q-48 -4 -86 -4q-39 0 -168 24
q-97 -57 -136 -94q-90 -86 -116 -207q-11 -47 -11 -67q0 -51 23 -109q59 -151 246 -157l235 -9q150 -6 207 -49q113 -86 100 -231z" />
    <glyph glyph-name="o" unicode="o" horiz-adv-x="1005" 
d="M768 72q-111 -107 -272 -107q-105 0 -203 49q-227 156 -227 432q0 195 120 340q117 140 299 140q129 0 246 -80q199 -135 199 -391q0 -230 -162 -383zM690 139q62 94 62 287q0 227 -101 350q-78 94 -176 94q-61 0 -115 -36q-55 -39 -77 -95q-41 -96 -41 -229
q0 -195 80 -338q73 -131 204 -131q101 0 164 98z" />
    <glyph glyph-name="p" unicode="p" horiz-adv-x="1056" 
d="M412 743q-37 -432 -86 -651q-23 -104 -101 -125q-10 -4 -20 -4q-33 0 -62 23q-28 22 -34 51q-5 14 -5 29q0 32 48 94l53 65q33 45 39 94l55 424h-88q-84 0 -123 -59l-39 -57h-31q13 37 25 69q25 62 59 111q68 96 174 96h691v-160h-234q-20 -217 -20 -436q0 -92 45 -135
q33 -31 71 -31q33 0 66 25q31 22 41 59q2 29 8 56h39q-4 -211 -135 -287q-41 -25 -88 -25q-39 0 -68 21q-57 41 -90 137q-35 100 -12 317l31 299h-209z" />
    <glyph glyph-name="q" unicode="q" horiz-adv-x="1056" 
d="M969 487q8 -147 -72 -294q-80 -148 -207 -199q-74 -31 -133 -31q-37 0 -76 12q-100 27 -147 99v-287q0 -139 -19 -213h-161q0 2 14 78q8 49 8 84l-8 782q-2 232 233 363q78 45 158 45q39 0 82 -8q139 -21 231 -140q86 -112 97 -291zM801 330q4 30 4 61q0 131 -60 244
q-79 156 -231 184q-78 17 -127 -28q-74 -66 -70 -168l11 -410q2 -41 53 -96q65 -70 156 -70q16 0 30 2q92 12 150 76q69 78 84 205z" />
    <glyph glyph-name="r" unicode="r" horiz-adv-x="858" 
d="M799 -23q12 -32 12 -73q0 -64 -27 -125q-59 -148 -186 -195q-43 -16 -88 -16q-53 0 -98 24q-56 29 -56 86q0 35 29 58q16 14 55 18q39 6 62 0q37 -10 71 -22q29 -6 60 0q94 22 98 125q2 49 -18 77q-25 35 -70 35l-184 -2q-10 0 -37 -2t-39 -2q-98 0 -174 66
q-111 96 -133 290q-2 31 -2 62q0 225 166 399q114 119 245 140q119 18 193 -11q94 -37 88 -94q-8 -65 -98 -65q-19 0 -37 2q-17 2 -90 16q-60 12 -101 12q-86 0 -155 -51q-54 -39 -92 -119q-48 -92 -48 -184q0 -55 19 -107q63 -178 221 -167l147 8q101 6 164 -31
q66 -37 103 -152z" />
    <glyph glyph-name="s" unicode="s" horiz-adv-x="1157" 
d="M1090 768h-402q74 -27 160 -115q82 -86 113 -155q26 -62 26 -129q0 -62 -20 -123q-25 -76 -90 -148q-97 -102 -232 -125q-84 -14 -123 -14q-110 0 -207 59q-110 68 -184 191q-53 94 -68 184q-8 47 -8 88q0 111 74 228q55 88 213 159q127 58 268 58h480v-158zM774 213
q23 68 23 154q0 102 -31 176q-47 112 -176 225q-170 0 -254 -76q-105 -92 -88 -262q20 -229 160 -338q71 -55 141 -55q39 0 84 12q94 29 141 164z" />
    <glyph glyph-name="t" unicode="t" horiz-adv-x="851" 
d="M774 756h-285l-30 -408q-6 -100 37 -155q43 -56 82 -56q10 0 20 2q47 8 68 49q8 19 24 95h33q-2 -111 -16 -160q-25 -86 -101 -133q-43 -27 -88 -27t-82 27q-92 61 -98 252q-4 161 39 512h-170q-90 0 -156 -179h-33q50 183 127 271q70 80 195 80h434v-170z" />
    <glyph glyph-name="u" unicode="u" horiz-adv-x="1105" 
d="M985 537q6 -41 6 -86q0 -146 -55 -263q-70 -145 -213 -196q-74 -27 -150 -27q-61 0 -112 19q-72 24 -135 114q-62 84 -64 236q-2 119 -4 233q-4 142 -22 185q-17 39 -58 39q-39 0 -69 -31q-11 -10 -56 -101h-41q15 50 31 97q20 63 47 104q25 37 74 58q45 18 84 14
q51 -4 92 -41q39 -35 45 -72q35 -219 35 -500q0 -139 76 -215q53 -61 106 -61q37 0 82 23q72 36 115 159q43 119 43 260q0 72 -13 140q-20 123 -92 198q-35 37 -108 84l10 33q303 -117 346 -403z" />
    <glyph glyph-name="v" unicode="v" horiz-adv-x="1157" 
d="M1087 461q0 -187 -108 -314q-53 -61 -131 -110q-109 -66 -205 -60v-393h-117v391q-151 29 -227 70q-156 86 -209 279q-22 84 -22 157q0 82 26 162q45 131 187 219q77 49 178 49v-32q-74 -43 -88 -60q-78 -71 -99 -198q-10 -64 -10 -132q0 -188 62 -294q75 -132 202 -146
l-18 590q-4 141 82 227q59 60 145 60q47 0 92 -17q93 -32 164 -137q96 -137 96 -311zM926 319q6 25 6 76q0 144 -51 250q-19 37 -58 80q-37 41 -59 51q-21 8 -39 8q-45 0 -72 -32q-39 -76 -32 -201l22 -508q39 8 80 16q76 27 125 91q31 36 41 57q20 41 37 112z" />
    <glyph glyph-name="w" unicode="w" horiz-adv-x="980" 
d="M967 -92q-19 -244 -131 -307q-54 -29 -101 -29q-51 0 -92 37q-57 53 -86 153q-14 56 -68 344l-276 -505h-188l405 741l-59 254q-27 115 -84 154q-41 28 -82 28q-47 0 -82 -35q-35 -34 -68 -147h-32q24 205 100 287q39 43 98 43q33 0 64 -13q94 -36 123 -165l71 -310
l248 451l188 -2l-378 -692q47 -203 104 -359q37 -100 125 -100q22 0 47 8q59 20 90 80q6 12 29 84h35z" />
    <glyph glyph-name="x" unicode="x" horiz-adv-x="1310" 
d="M1298 870q-71 -16 -88 -22q-53 -31 -59 -105l-35 -368q-6 -60 -45 -139q-41 -80 -82 -125q-67 -72 -135 -103q-31 -12 -135 -39v-391h-117v391q-106 27 -135 39q-66 31 -135 103q-41 43 -80 120q-41 84 -47 144l-35 368q-6 74 -59 105q-17 6 -88 22v35q79 31 143 21
q125 -21 178 -142q21 -47 45 -268l29 -260q18 -174 184 -215v862h117v-862q170 43 186 215l27 260q14 137 16 154q10 71 29 114q53 123 178 142q8 2 14 2q58 4 129 -23v-35z" />
    <glyph glyph-name="y" unicode="y" horiz-adv-x="1310" 
d="M1262 494q6 -50 6 -91q0 -114 -47 -225q-58 -135 -166 -184q-58 -27 -117 -27q-68 0 -121 33q-86 49 -143 152q-62 -103 -146 -152q-55 -33 -118 -33q-62 0 -119 27q-111 49 -166 184q-45 111 -45 225q0 41 4 91q25 237 195 368q63 47 147 60q8 0 125 4v-31
q-152 -57 -203 -143q-82 -131 -82 -330q0 -86 17 -168q20 -115 75 -166q39 -37 86 -37q21 0 43 6q78 23 113 111l29 113q-56 157 -56 262q0 49 11 98q22 125 90 125q65 0 88 -125q8 -49 8 -100q0 -111 -53 -260l28 -113q35 -88 113 -111q23 -6 43 -6q45 0 86 37
q55 51 76 166q14 84 14 168q0 199 -80 330q-53 86 -202 143v31q116 -4 125 -4q86 -13 147 -60q170 -131 195 -368z" />
    <glyph glyph-name="z" unicode="z" horiz-adv-x="638" 
d="M668 1286q0 -41 -31 -72q-31 -30 -72 -30t-69 30q-31 31 -31 72q0 39 31 72q30 31 69 31q41 0 72 -31t31 -72zM260 1286q0 -41 -31 -72q-28 -30 -71 -30q-39 0 -70 30q-31 31 -31 72q0 39 31 72q33 31 70 31q43 0 71 -31q31 -31 31 -72zM668 197q-21 -99 -43 -140
q-62 -100 -189 -90q-86 6 -139 74q-43 53 -43 104v463q0 166 -64 209q-24 19 -108 19v38q121 25 336 105v-717q0 -108 37 -158q32 -45 63 -45q14 0 35 7q41 12 59 61q11 35 19 70h37z" />
    <glyph glyph-name="braceleft" unicode="{" horiz-adv-x="1064" 
d="M831 1286q0 -41 -30 -72q-31 -30 -72 -30t-70 30q-30 31 -30 72q0 39 30 72q31 31 70 31q41 0 72 -31q30 -31 30 -72zM424 1286q0 -41 -31 -72q-28 -30 -71 -30q-39 0 -70 30q-31 31 -31 72q0 39 31 72q33 31 70 31q43 0 71 -31q31 -31 31 -72zM985 537q6 -41 6 -86
q0 -146 -55 -263q-70 -145 -213 -196q-74 -27 -150 -27q-61 0 -112 19q-72 24 -135 114q-62 84 -64 236q-2 119 -4 233q-4 142 -22 185q-17 39 -58 39q-39 0 -69 -31q-11 -10 -56 -101h-41q15 50 31 97q20 63 47 104q25 37 74 58q45 18 84 14q51 -4 92 -41q39 -35 45 -72
q35 -219 35 -500q0 -139 76 -215q53 -61 106 -61q37 0 82 23q72 36 115 159q43 119 43 260q0 72 -13 140q-20 123 -92 198q-35 37 -108 84l10 33q303 -117 346 -403z" />
    <glyph glyph-name="bar" unicode="|" horiz-adv-x="1005" 
d="M713 1524l-271 -344q-8 -11 -22 -11q-39 0 -39 33q0 4 2 10l180 404q8 18 43 18q43 0 68 -16q45 -29 45 -76q0 -10 -6 -18zM768 72q-111 -107 -272 -107q-105 0 -203 49q-227 156 -227 432q0 195 120 340q117 140 299 140q129 0 246 -80q199 -135 199 -391
q0 -230 -162 -383zM690 139q62 94 62 287q0 227 -101 350q-78 94 -176 94q-61 0 -115 -36q-55 -39 -77 -95q-41 -96 -41 -229q0 -195 80 -338q73 -131 204 -131q101 0 164 98z" />
    <glyph glyph-name="braceright" unicode="}" horiz-adv-x="1105" 
d="M721 1524l-270 -344q-9 -13 -25 -13q-39 0 -39 35q0 4 2 10l182 404q9 16 43 16q41 0 66 -14q45 -31 45 -78q0 -8 -4 -16zM985 537q6 -41 6 -86q0 -146 -55 -263q-70 -145 -213 -196q-74 -27 -150 -27q-61 0 -112 19q-72 24 -135 114q-62 84 -64 236q-2 119 -4 233
q-4 142 -22 185q-17 39 -58 39q-39 0 -69 -31q-11 -10 -56 -101h-41q15 50 31 97q20 63 47 104q25 37 74 58q45 18 84 14q51 -4 92 -41q39 -35 45 -72q35 -219 35 -500q0 -139 76 -215q53 -61 106 -61q37 0 82 23q72 36 115 159q43 119 43 260q0 72 -13 140q-20 123 -92 198
q-35 37 -108 84l10 33q303 -117 346 -403z" />
    <glyph glyph-name="asciitilde" unicode="~" horiz-adv-x="1310" 
d="M920 1524l-271 -344q-8 -11 -22 -11q-39 0 -39 33q0 4 2 10l182 404q8 16 43 16q41 0 66 -14q45 -29 45 -76q0 -10 -6 -18zM1262 494q6 -50 6 -91q0 -114 -47 -225q-58 -135 -166 -184q-58 -27 -117 -27q-68 0 -121 33q-86 49 -143 152q-62 -103 -146 -152
q-55 -33 -118 -33q-62 0 -119 27q-111 49 -166 184q-45 111 -45 225q0 41 4 91q25 237 195 368q63 47 147 60q8 0 125 4v-31q-152 -57 -203 -143q-82 -131 -82 -330q0 -86 17 -168q20 -115 75 -166q39 -37 86 -37q21 0 43 6q78 23 113 111l29 113q-56 157 -56 262
q0 49 11 98q22 125 90 125q65 0 88 -125q8 -49 8 -100q0 -111 -53 -260l28 -113q35 -88 113 -111q23 -6 43 -6q45 0 86 37q55 51 76 166q14 84 14 168q0 199 -80 330q-53 86 -202 143v31q116 -4 125 -4q86 -13 147 -60q170 -131 195 -368z" />
    <glyph glyph-name="cedilla" unicode="&#xb8;" horiz-adv-x="2048" 
 />
    <glyph glyph-name="uni1F00" unicode="&#x1f00;" horiz-adv-x="1208" 
d="M772 1448q0 -72 -72 -158q-65 -84 -137 -110l-16 37q47 20 98 81q53 64 53 109q0 29 -26 29q14 0 -60 -9q-96 13 -96 91q0 110 111 110q69 0 110 -59q35 -51 35 -121zM1153 254l-4 -109q-4 -96 -70 -149q-30 -25 -59 -25q-33 0 -66 31q-53 49 -118 227q-68 -114 -68 -116
q-66 -84 -170 -119q-84 -29 -145 -29q-76 0 -152 35q-102 45 -158 139q-67 117 -67 279q0 63 10 137q29 205 201 322q75 51 194 51q160 0 250 -150q53 -90 74 -205l121 330h161l-213 -588q21 -120 76 -176q37 -37 70 -37q29 0 55 29q31 31 45 123h33zM754 414
q-31 237 -80 315q-58 90 -135 113q-43 12 -74 12q-57 0 -109 -63q-61 -78 -82 -238q-18 -143 13 -309q18 -103 73 -158q56 -53 115 -57q51 -2 115 51q59 51 108 182z" />
    <glyph glyph-name="uni1F01" unicode="&#x1f01;" horiz-adv-x="1208" 
d="M629 1518q0 -78 -97 -91q-73 9 -59 9q-27 0 -27 -29q0 -45 56 -111q51 -59 96 -79l-16 -37q-70 26 -140 110q-69 86 -69 158q0 70 35 121q41 59 110 59q111 0 111 -110zM1153 254l-4 -109q-4 -96 -70 -149q-30 -25 -59 -25q-33 0 -66 31q-53 49 -118 227
q-68 -114 -68 -116q-66 -84 -170 -119q-84 -29 -145 -29q-76 0 -152 35q-102 45 -158 139q-67 117 -67 279q0 63 10 137q29 205 201 322q75 51 194 51q160 0 250 -150q53 -90 74 -205l121 330h161l-213 -588q21 -120 76 -176q37 -37 70 -37q29 0 55 29q31 31 45 123h33z
M754 414q-31 237 -80 315q-58 90 -135 113q-43 12 -74 12q-57 0 -109 -63q-61 -78 -82 -238q-18 -143 13 -309q18 -103 73 -158q56 -53 115 -57q51 -2 115 51q59 51 108 182z" />
    <glyph glyph-name="uni1F02" unicode="&#x1f02;" horiz-adv-x="1208" 
d="M965 1241q2 -4 2 -10q0 -35 -39 -35q-17 0 -25 12l-270 344q-4 9 -4 17q0 49 45 78q24 16 63 16q37 0 45 -18zM518 1448q0 -72 -72 -158q-65 -84 -137 -110l-16 37q47 20 98 81q53 64 53 109q0 29 -26 29q14 0 -60 -9q-96 13 -96 91q0 110 111 110q69 0 110 -59
q35 -51 35 -121zM1153 254l-4 -109q-4 -96 -70 -149q-30 -25 -59 -25q-33 0 -66 31q-53 49 -118 227q-68 -114 -68 -116q-66 -84 -170 -119q-84 -29 -145 -29q-76 0 -152 35q-102 45 -158 139q-67 117 -67 279q0 63 10 137q29 205 201 322q75 51 194 51q160 0 250 -150
q53 -90 74 -205l121 330h161l-213 -588q21 -120 76 -176q37 -37 70 -37q29 0 55 29q31 31 45 123h33zM754 414q-31 237 -80 315q-58 90 -135 113q-43 12 -74 12q-57 0 -109 -63q-61 -78 -82 -238q-18 -143 13 -309q18 -103 73 -158q56 -53 115 -57q51 -2 115 51
q59 51 108 182z" />
    <glyph glyph-name="uni1F03" unicode="&#x1f03;" horiz-adv-x="1208" 
d="M948 1241q2 -4 2 -10q0 -33 -39 -33q-14 0 -22 10l-271 344q-6 9 -6 19q0 47 45 76q25 16 66 16q35 0 43 -18zM410 1518q0 -78 -97 -91q-73 9 -59 9q-27 0 -27 -29q0 -45 56 -111q51 -59 96 -79l-17 -37q-69 26 -139 110q-69 86 -69 158q0 70 34 121q41 59 111 59
q111 0 111 -110zM1153 254l-4 -109q-4 -96 -70 -149q-30 -25 -59 -25q-33 0 -66 31q-53 49 -118 227q-68 -114 -68 -116q-66 -84 -170 -119q-84 -29 -145 -29q-76 0 -152 35q-102 45 -158 139q-67 117 -67 279q0 63 10 137q29 205 201 322q75 51 194 51q160 0 250 -150
q53 -90 74 -205l121 330h161l-213 -588q21 -120 76 -176q37 -37 70 -37q29 0 55 29q31 31 45 123h33zM754 414q-31 237 -80 315q-58 90 -135 113q-43 12 -74 12q-57 0 -109 -63q-61 -78 -82 -238q-18 -143 13 -309q18 -103 73 -158q56 -53 115 -57q51 -2 115 51
q59 51 108 182z" />
    <glyph glyph-name="uni1F04" unicode="&#x1f04;" horiz-adv-x="1208" 
d="M932 1538l-270 -344q-9 -10 -23 -10q-39 0 -39 33q0 6 2 10l180 403q9 19 43 19q43 0 68 -17q45 -28 45 -76q0 -12 -6 -18zM520 1434q0 -70 -69 -158q-68 -82 -140 -111l-16 37q47 21 98 82q53 64 53 109q0 28 -26 28q14 0 -60 -8q-96 10 -96 90q0 111 111 111
q69 0 110 -62q35 -51 35 -118zM1153 254l-4 -109q-4 -96 -70 -149q-30 -25 -59 -25q-33 0 -66 31q-53 49 -118 227q-68 -114 -68 -116q-66 -84 -170 -119q-84 -29 -145 -29q-76 0 -152 35q-102 45 -158 139q-67 117 -67 279q0 63 10 137q29 205 201 322q75 51 194 51
q160 0 250 -150q53 -90 74 -205l121 330h161l-213 -588q21 -120 76 -176q37 -37 70 -37q29 0 55 29q31 31 45 123h33zM754 414q-31 237 -80 315q-58 90 -135 113q-43 12 -74 12q-57 0 -109 -63q-61 -78 -82 -238q-18 -143 13 -309q18 -103 73 -158q56 -53 115 -57
q51 -2 115 51q59 51 108 182z" />
    <glyph glyph-name="uni1F05" unicode="&#x1f05;" horiz-adv-x="1208" 
d="M954 1552l-270 -344q-8 -10 -22 -10q-39 0 -39 33q0 6 2 10l182 404q8 18 45 18q39 0 63 -16q46 -29 46 -76q0 -10 -7 -19zM465 1518q0 -78 -96 -91q-74 9 -60 9q-26 0 -26 -29q0 -45 55 -111q49 -59 96 -79l-16 -37q-72 26 -137 110q-72 86 -72 158q0 70 35 121
q41 59 110 59q111 0 111 -110zM1153 254l-4 -109q-4 -96 -70 -149q-30 -25 -59 -25q-33 0 -66 31q-53 49 -118 227q-68 -114 -68 -116q-66 -84 -170 -119q-84 -29 -145 -29q-76 0 -152 35q-102 45 -158 139q-67 117 -67 279q0 63 10 137q29 205 201 322q75 51 194 51
q160 0 250 -150q53 -90 74 -205l121 330h161l-213 -588q21 -120 76 -176q37 -37 70 -37q29 0 55 29q31 31 45 123h33zM754 414q-31 237 -80 315q-58 90 -135 113q-43 12 -74 12q-57 0 -109 -63q-61 -78 -82 -238q-18 -143 13 -309q18 -103 73 -158q56 -53 115 -57
q51 -2 115 51q59 51 108 182z" />
    <glyph glyph-name="uni1F06" unicode="&#x1f06;" horiz-adv-x="1208" 
d="M920 1475h-68q-53 180 -244 180q-84 0 -159 -53q-78 -54 -97 -127h-67q-6 122 77 206q84 84 234 84q152 0 238 -86q73 -75 86 -204zM752 1282q0 -72 -70 -158q-70 -84 -139 -110l-17 37q45 18 99 82q53 63 53 108q0 29 -27 29q15 0 -59 -8q-96 12 -96 90q0 110 110 110
q70 0 111 -59q35 -51 35 -121zM1153 254l-4 -109q-4 -96 -70 -149q-30 -25 -59 -25q-33 0 -66 31q-53 49 -118 227q-68 -114 -68 -116q-66 -84 -170 -119q-84 -29 -145 -29q-76 0 -152 35q-102 45 -158 139q-67 117 -67 279q0 63 10 137q29 205 201 322q75 51 194 51
q160 0 250 -150q53 -90 74 -205l121 330h161l-213 -588q21 -120 76 -176q37 -37 70 -37q29 0 55 29q31 31 45 123h33zM754 414q-31 237 -80 315q-58 90 -135 113q-43 12 -74 12q-57 0 -109 -63q-61 -78 -82 -238q-18 -143 13 -309q18 -103 73 -158q56 -53 115 -57
q51 -2 115 51q59 51 108 182z" />
    <glyph glyph-name="uni1F07" unicode="&#x1f07;" horiz-adv-x="1208" 
d="M889 1475h-68q-51 180 -243 180q-82 0 -160 -53q-78 -54 -96 -127h-68q-6 122 80 206t233 84q150 0 236 -86q76 -75 86 -204zM629 1352q0 -78 -97 -90q-73 8 -59 8q-27 0 -27 -29q0 -45 56 -108q51 -64 96 -82l-16 -37q-70 26 -140 110q-69 86 -69 158q0 70 35 121
q41 59 110 59q111 0 111 -110zM1153 254l-4 -109q-4 -96 -70 -149q-30 -25 -59 -25q-33 0 -66 31q-53 49 -118 227q-68 -114 -68 -116q-66 -84 -170 -119q-84 -29 -145 -29q-76 0 -152 35q-102 45 -158 139q-67 117 -67 279q0 63 10 137q29 205 201 322q75 51 194 51
q160 0 250 -150q53 -90 74 -205l121 330h161l-213 -588q21 -120 76 -176q37 -37 70 -37q29 0 55 29q31 31 45 123h33zM754 414q-31 237 -80 315q-58 90 -135 113q-43 12 -74 12q-57 0 -109 -63q-61 -78 -82 -238q-18 -143 13 -309q18 -103 73 -158q56 -53 115 -57
q51 -2 115 51q59 51 108 182z" />
    <glyph glyph-name="uni1F08" unicode="&#x1f08;" horiz-adv-x="1329" 
d="M426 1448q0 -72 -72 -158q-65 -84 -137 -110l-16 37q47 20 98 79q53 66 53 111q0 29 -26 29q14 0 -60 -9q-96 13 -96 91q0 110 111 110q69 0 110 -59q35 -51 35 -121zM1268 0h-463v37q121 0 121 82q0 22 -13 57l-90 270h-481l-88 -270q-10 -33 -10 -57q0 -82 118 -82v-37
h-354v37q72 0 105 45q10 12 37 86l462 1210h47l465 -1210q27 -72 39 -86q33 -45 105 -45v-37zM797 532l-209 549l-209 -549h418z" />
    <glyph glyph-name="uni1F09" unicode="&#x1f09;" horiz-adv-x="1329" 
d="M430 1518q0 -78 -94 -91q-76 9 -62 9q-24 0 -24 -29q0 -45 53 -111q51 -59 96 -79l-14 -37q-72 26 -139 110q-72 86 -72 158q0 70 37 121q41 59 111 59q108 0 108 -110zM1268 0h-463v37q121 0 121 82q0 22 -13 57l-90 270h-481l-88 -270q-10 -33 -10 -57q0 -82 118 -82
v-37h-354v37q72 0 105 45q10 12 37 86l462 1210h47l465 -1210q27 -72 39 -86q33 -45 105 -45v-37zM797 532l-209 549l-209 -549h418z" />
    <glyph glyph-name="uni1F0A" unicode="&#x1f0a;" horiz-adv-x="1562" 
d="M705 1241q2 -4 2 -10q0 -35 -39 -35q-17 0 -25 12l-270 344q-4 9 -4 17q0 49 45 78q24 16 63 16q37 0 45 -18zM293 1448q0 -72 -72 -158q-65 -84 -137 -110l-16 37q47 20 98 81q53 64 53 109q0 29 -26 29q14 0 -60 -9q-96 13 -96 91q0 110 110 110q70 0 111 -59
q35 -51 35 -121zM1493 0h-463v37q121 0 121 82q0 22 -12 57l-90 270h-482l-88 -270q-10 -33 -10 -57q0 -82 119 -82v-37h-355v37q70 0 105 45q8 12 37 86l463 1210h47l465 -1210q26 -72 39 -86q32 -45 104 -45v-37zM1022 532l-209 549l-209 -549h418z" />
    <glyph glyph-name="uni1F0B" unicode="&#x1f0b;" horiz-adv-x="1665" 
d="M803 1241q2 -4 2 -10q0 -35 -39 -35q-16 0 -25 12l-270 344q-4 9 -4 17q0 49 45 78q25 16 66 16q34 0 43 -18zM1606 0h-463v37q121 0 121 82q0 22 -13 57l-90 270h-481l-88 -270q-10 -33 -10 -57q0 -82 118 -82v-37h-354v37q72 0 105 45q10 12 36 86l463 1210h47
l465 -1210q29 -72 39 -86q35 -45 105 -45v-37zM305 1518q0 -78 -98 -91q-74 9 -57 9q-27 0 -27 -29q0 -45 53 -111q51 -59 98 -79l-16 -37q-72 26 -137 110q-72 86 -72 158q0 70 35 121q41 59 111 59q110 0 110 -110zM1135 532l-209 549l-209 -549h418z" />
    <glyph glyph-name="uni1F0C" unicode="&#x1f0c;" horiz-adv-x="1460" 
d="M717 1538l-271 -344q-8 -10 -22 -10q-39 0 -39 33q0 6 2 10l180 403q8 19 43 19q43 0 68 -17q45 -28 45 -76q0 -12 -6 -18zM305 1434q0 -70 -72 -158q-65 -82 -137 -111l-16 37q47 21 98 82q53 64 53 109q0 28 -26 28q14 0 -60 -8q-96 10 -96 90q0 111 111 111
q69 0 110 -62q35 -51 35 -118zM1401 0h-463v37q121 0 121 82q0 22 -12 57l-91 270h-481l-88 -270q-10 -33 -10 -57q0 -82 119 -82v-37h-355v37q72 0 105 45q10 12 37 86l462 1210h48l464 -1210q27 -72 39 -86q33 -45 105 -45v-37zM930 532l-209 549l-209 -549h418z" />
    <glyph glyph-name="uni1F0D" unicode="&#x1f0d;" horiz-adv-x="1513" 
d="M797 1552l-271 -344q-8 -10 -22 -10q-39 0 -39 33q0 6 2 10l180 404q8 18 43 18q43 0 68 -16q45 -29 45 -76q0 -10 -6 -19zM311 1518q0 -78 -96 -91q-74 9 -59 9q-27 0 -27 -29q0 -45 53 -111q51 -59 99 -79l-17 -37q-69 26 -137 110q-72 86 -72 158q0 70 35 121
q41 59 111 59q110 0 110 -110zM1442 0h-463v37q121 0 121 82q0 22 -13 57l-90 270h-481l-88 -270q-10 -33 -10 -57q0 -82 119 -82v-37h-355v37q72 0 105 45q10 12 37 86l462 1210h48l464 -1210q27 -72 39 -86q33 -45 105 -45v-37zM971 532l-209 549l-209 -549h418z" />
    <glyph glyph-name="uni1F0E" unicode="&#x1f0e;" horiz-adv-x="1511" 
d="M710 1423h-65q-53 183 -246 183q-82 0 -158 -54q-77 -55 -98 -129h-65q-9 125 75 207q86 84 236 84q149 0 235 -84q76 -78 86 -207zM545 1233q0 -72 -72 -160q-68 -82 -137 -108l-19 34q47 23 99 82q55 66 55 111q0 29 -29 29q17 0 -57 -11q-96 13 -96 93q0 108 108 108
q72 0 113 -59q35 -52 35 -119zM1460 0h-463v37q121 0 121 82q0 22 -12 57l-90 270h-482l-88 -270q-12 -33 -12 -57q0 -82 121 -82v-37h-354v37q69 0 104 45q8 12 37 86l463 1210h47l465 -1210q26 -72 39 -86q32 -45 104 -45v-37zM989 532l-209 549l-209 -549h418z" />
    <glyph glyph-name="uni1F0F" unicode="&#x1f0f;" horiz-adv-x="1536" 
d="M697 1423h-65q-52 183 -244 183q-84 0 -162 -56q-78 -53 -94 -127h-70q-6 125 80 209q86 82 236 82q147 0 233 -84q76 -78 86 -207zM1457 0h-463v37q121 0 121 82q0 22 -12 57l-90 270h-482l-88 -270q-12 -33 -12 -57q0 -82 121 -82v-37h-354v37q69 0 104 45q8 12 37 86
l463 1210h47l465 -1210q26 -72 39 -86q32 -45 104 -45v-37zM437 1303q0 -80 -94 -93q-76 11 -59 11q-27 0 -27 -29q0 -45 53 -111q51 -59 96 -82l-16 -34q-70 26 -137 108q-72 88 -72 160q0 67 37 119q41 59 111 59q108 0 108 -108zM986 532l-209 549l-209 -549h418z" />
    <glyph glyph-name="uni1F10" unicode="&#x1f10;" horiz-adv-x="878" 
d="M616 1448q0 -72 -69 -158q-70 -84 -139 -110l-17 37q45 20 98 81q54 64 54 109q0 29 -27 29q14 0 -59 -9q-97 13 -97 91q0 110 111 110q70 0 111 -59q34 -51 34 -121zM852 199q0 -60 -41 -113q-51 -68 -154 -96q-90 -27 -176 -27q-155 0 -272 74q-109 67 -109 194
q0 33 11 68q36 121 196 168q-80 37 -110 59q-37 29 -56 74q-14 35 -14 74q0 98 96 174q105 82 283 82q96 0 143 -19q43 -16 64 -28q39 -23 59 -56q23 -30 23 -61q0 -53 -47 -82q-15 -8 -37 -8q-78 0 -103 96q-22 92 -135 92q-37 0 -74 -16q-102 -47 -102 -178q0 -23 2 -35
q27 -131 162 -131q14 0 33 2l100 10q80 8 80 -41q0 -24 -37 -43q-43 -20 -123 -8q-29 4 -51 4q-123 0 -158 -111q-8 -30 -8 -69q0 -68 27 -105q71 -96 239 -96q64 0 109 14q94 29 133 150z" />
    <glyph glyph-name="uni1F11" unicode="&#x1f11;" horiz-adv-x="878" 
d="M492 1518q0 -78 -97 -91q-73 9 -59 9q-27 0 -27 -29q0 -45 56 -111q51 -59 96 -79l-17 -37q-69 26 -139 110q-69 86 -69 158q0 70 34 121q41 59 111 59q111 0 111 -110zM852 199q0 -60 -41 -113q-51 -68 -154 -96q-90 -27 -176 -27q-155 0 -272 74q-109 67 -109 194
q0 33 11 68q36 121 196 168q-80 37 -110 59q-37 29 -56 74q-14 35 -14 74q0 98 96 174q105 82 283 82q96 0 143 -19q43 -16 64 -28q39 -23 59 -56q23 -30 23 -61q0 -53 -47 -82q-15 -8 -37 -8q-78 0 -103 96q-22 92 -135 92q-37 0 -74 -16q-102 -47 -102 -178q0 -23 2 -35
q27 -131 162 -131q14 0 33 2l100 10q80 8 80 -41q0 -24 -37 -43q-43 -20 -123 -8q-29 4 -51 4q-123 0 -158 -111q-8 -30 -8 -69q0 -68 27 -105q71 -96 239 -96q64 0 109 14q94 29 133 150z" />
    <glyph glyph-name="uni1F12" unicode="&#x1f12;" horiz-adv-x="878" 
d="M829 1241q2 -4 2 -10q0 -35 -38 -35q-17 0 -25 12l-270 344q-4 9 -4 17q0 49 45 78q24 16 63 16q37 0 45 -18zM418 1448q0 -72 -72 -158q-65 -84 -137 -110l-16 37q47 20 98 81q53 64 53 109q0 29 -27 29q15 0 -59 -9q-96 13 -96 91q0 110 110 110q70 0 111 -59
q35 -51 35 -121zM852 199q0 -60 -41 -113q-51 -68 -154 -96q-90 -27 -176 -27q-155 0 -272 74q-109 67 -109 194q0 33 11 68q36 121 196 168q-80 37 -110 59q-37 29 -56 74q-14 35 -14 74q0 98 96 174q105 82 283 82q96 0 143 -19q43 -16 64 -28q39 -23 59 -56
q23 -30 23 -61q0 -53 -47 -82q-15 -8 -37 -8q-78 0 -103 96q-22 92 -135 92q-37 0 -74 -16q-102 -47 -102 -178q0 -23 2 -35q27 -131 162 -131q14 0 33 2l100 10q80 8 80 -41q0 -24 -37 -43q-43 -20 -123 -8q-29 4 -51 4q-123 0 -158 -111q-8 -30 -8 -69q0 -68 27 -105
q71 -96 239 -96q64 0 109 14q94 29 133 150z" />
    <glyph glyph-name="uni1F13" unicode="&#x1f13;" horiz-adv-x="878" 
d="M805 1241q2 -4 2 -10q0 -35 -39 -35q-16 0 -25 12l-270 344q-4 9 -4 17q0 49 45 78q25 16 66 16q34 0 43 -18zM307 1518q0 -78 -98 -91q-74 9 -57 9q-27 0 -27 -29q0 -45 53 -111q51 -59 98 -79l-16 -37q-72 26 -137 110q-72 86 -72 158q0 70 35 121q41 59 111 59
q110 0 110 -110zM852 199q0 -60 -41 -113q-51 -68 -154 -96q-90 -27 -176 -27q-155 0 -272 74q-109 67 -109 194q0 33 11 68q36 121 196 168q-80 37 -110 59q-37 29 -56 74q-14 35 -14 74q0 98 96 174q105 82 283 82q96 0 143 -19q43 -16 64 -28q39 -23 59 -56
q23 -30 23 -61q0 -53 -47 -82q-15 -8 -37 -8q-78 0 -103 96q-22 92 -135 92q-37 0 -74 -16q-102 -47 -102 -178q0 -23 2 -35q27 -131 162 -131q14 0 33 2l100 10q80 8 80 -41q0 -24 -37 -43q-43 -20 -123 -8q-29 4 -51 4q-123 0 -158 -111q-8 -30 -8 -69q0 -68 27 -105
q71 -96 239 -96q64 0 109 14q94 29 133 150z" />
    <glyph glyph-name="uni1F14" unicode="&#x1f14;" horiz-adv-x="878" 
d="M844 1538l-271 -344q-8 -10 -22 -10q-39 0 -39 33q0 6 2 10l180 403q8 19 43 19q43 0 68 -17q45 -28 45 -76q0 -12 -6 -18zM432 1434q0 -70 -72 -158q-65 -82 -137 -111l-16 37q47 21 98 82q53 64 53 109q0 28 -26 28q14 0 -60 -8q-96 10 -96 90q0 111 111 111
q69 0 110 -62q35 -51 35 -118zM852 199q0 -60 -41 -113q-51 -68 -154 -96q-90 -27 -176 -27q-155 0 -272 74q-109 67 -109 194q0 33 11 68q36 121 196 168q-80 37 -110 59q-37 29 -56 74q-14 35 -14 74q0 98 96 174q105 82 283 82q96 0 143 -19q43 -16 64 -28q39 -23 59 -56
q23 -30 23 -61q0 -53 -47 -82q-15 -8 -37 -8q-78 0 -103 96q-22 92 -135 92q-37 0 -74 -16q-102 -47 -102 -178q0 -23 2 -35q27 -131 162 -131q14 0 33 2l100 10q80 8 80 -41q0 -24 -37 -43q-43 -20 -123 -8q-29 4 -51 4q-123 0 -158 -111q-8 -30 -8 -69q0 -68 27 -105
q71 -96 239 -96q64 0 109 14q94 29 133 150z" />
    <glyph glyph-name="uni1F15" unicode="&#x1f15;" horiz-adv-x="878" 
d="M872 1552l-270 -344q-8 -10 -22 -10q-39 0 -39 33q0 6 2 10l180 404q8 18 45 18q41 0 66 -16q45 -29 45 -76q0 -10 -7 -19zM387 1518q0 -78 -96 -91q-74 9 -60 9q-26 0 -26 -29q0 -45 53 -111q51 -59 98 -79l-16 -37q-72 26 -137 110q-72 86 -72 158q0 70 35 121
q41 59 110 59q111 0 111 -110zM852 199q0 -60 -41 -113q-51 -68 -154 -96q-90 -27 -176 -27q-155 0 -272 74q-109 67 -109 194q0 33 11 68q36 121 196 168q-80 37 -110 59q-37 29 -56 74q-14 35 -14 74q0 98 96 174q105 82 283 82q96 0 143 -19q43 -16 64 -28q39 -23 59 -56
q23 -30 23 -61q0 -53 -47 -82q-15 -8 -37 -8q-78 0 -103 96q-22 92 -135 92q-37 0 -74 -16q-102 -47 -102 -178q0 -23 2 -35q27 -131 162 -131q14 0 33 2l100 10q80 8 80 -41q0 -24 -37 -43q-43 -20 -123 -8q-29 4 -51 4q-123 0 -158 -111q-8 -30 -8 -69q0 -68 27 -105
q71 -96 239 -96q64 0 109 14q94 29 133 150z" />
    <glyph glyph-name="uni1F16" unicode="&#x1f16;" horiz-adv-x="878" 
d="M805 1475h-68q-55 180 -243 180q-82 0 -160 -53q-78 -54 -96 -127h-68q-6 122 78 206q86 84 233 84q152 0 238 -86q76 -75 86 -204zM664 1282q0 -72 -70 -158q-70 -84 -139 -110l-17 37q45 18 99 82q53 63 53 108q0 29 -27 29q15 0 -59 -8q-96 12 -96 90q0 110 110 110
q70 0 111 -59q35 -51 35 -121zM852 199q0 -60 -41 -113q-51 -68 -154 -96q-90 -27 -176 -27q-155 0 -272 74q-109 67 -109 194q0 33 11 68q36 121 196 168q-80 37 -110 59q-37 29 -56 74q-14 35 -14 74q0 98 96 174q105 82 283 82q96 0 143 -19q43 -16 64 -28q39 -23 59 -56
q23 -30 23 -61q0 -53 -47 -82q-15 -8 -37 -8q-78 0 -103 96q-22 92 -135 92q-37 0 -74 -16q-102 -47 -102 -178q0 -23 2 -35q27 -131 162 -131q14 0 33 2l100 10q80 8 80 -41q0 -24 -37 -43q-43 -20 -123 -8q-29 4 -51 4q-123 0 -158 -111q-8 -30 -8 -69q0 -68 27 -105
q71 -96 239 -96q64 0 109 14q94 29 133 150z" />
    <glyph glyph-name="uni1F17" unicode="&#x1f17;" horiz-adv-x="878" 
d="M766 1475h-68q-51 180 -243 180q-82 0 -160 -53q-78 -54 -96 -127h-68q-6 122 80 206t233 84q150 0 236 -86q76 -75 86 -204zM516 1352q0 -78 -98 -90q-74 8 -58 8q-26 0 -26 -29q0 -45 53 -108q51 -64 98 -82l-16 -37q-72 26 -137 110q-72 86 -72 158q0 70 35 121
q41 59 111 59q110 0 110 -110zM852 199q0 -60 -41 -113q-51 -68 -154 -96q-90 -27 -176 -27q-155 0 -272 74q-109 67 -109 194q0 33 11 68q36 121 196 168q-80 37 -110 59q-37 29 -56 74q-14 35 -14 74q0 98 96 174q105 82 283 82q96 0 143 -19q43 -16 64 -28q39 -23 59 -56
q23 -30 23 -61q0 -53 -47 -82q-15 -8 -37 -8q-78 0 -103 96q-22 92 -135 92q-37 0 -74 -16q-102 -47 -102 -178q0 -23 2 -35q27 -131 162 -131q14 0 33 2l100 10q80 8 80 -41q0 -24 -37 -43q-43 -20 -123 -8q-29 4 -51 4q-123 0 -158 -111q-8 -30 -8 -69q0 -68 27 -105
q71 -96 239 -96q64 0 109 14q94 29 133 150z" />
    <glyph glyph-name="uni1F18" unicode="&#x1f18;" horiz-adv-x="1476" 
d="M293 1448q0 -72 -72 -158q-65 -84 -137 -110l-16 37q47 20 98 81q53 64 53 109q0 29 -26 29q14 0 -60 -9q-96 13 -96 91q0 110 110 110q70 0 111 -59q35 -51 35 -121zM1419 348l-84 -348h-999v37q84 0 119 20q47 29 47 111v1042q0 80 -47 111q-35 20 -119 20v37h985v-303
h-51q-35 131 -37 137q-37 68 -139 68h-398v-512h289q107 0 150 49q39 45 39 144h43v-472h-43q0 99 -39 144q-43 49 -150 49h-289v-508q0 -90 74 -88l301 8q129 2 203 90q39 45 88 164h57z" />
    <glyph glyph-name="uni1F19" unicode="&#x1f19;" horiz-adv-x="1511" 
d="M307 1518q0 -78 -94 -91q-76 9 -59 9q-27 0 -27 -29q0 -45 53 -111q51 -59 99 -79l-19 -37q-70 26 -137 110q-72 86 -72 158q0 70 35 121q41 59 113 59q108 0 108 -110zM1430 348l-84 -348h-1000v37q82 0 119 20q47 29 47 111v1042q0 80 -47 111q-37 20 -119 20v37h985
v-303h-51q-35 131 -37 137q-37 68 -139 68h-397v-512h288q107 0 150 49q39 45 39 144h43v-472h-43q0 99 -39 144q-43 49 -150 49h-288v-508q0 -90 73 -88l301 8q129 2 203 90q39 45 88 164h58z" />
    <glyph glyph-name="uni1F1A" unicode="&#x1f1a;" horiz-adv-x="1900" 
d="M717 1241q2 -4 2 -10q0 -35 -41 -35q-14 0 -25 12l-268 344q-6 9 -6 17q0 49 47 78q23 16 63 16q35 0 46 -18zM1819 348l-84 -348h-1000v37q82 0 119 20q47 29 47 111v1042q0 80 -47 111q-37 20 -119 20v37h985v-303h-51q-35 131 -37 137q-37 68 -139 68h-397v-512h288
q107 0 150 49q39 45 39 144h43v-472h-43q0 99 -39 144q-43 49 -150 49h-288v-508q0 -90 73 -88l301 8q129 2 203 90q39 45 88 164h58zM303 1448q0 -72 -70 -158q-67 -84 -139 -110l-14 37q45 20 98 81q51 64 51 109q0 29 -24 29q12 0 -62 -9q-96 13 -96 91q0 110 113 110
q67 0 108 -59q35 -51 35 -121z" />
    <glyph glyph-name="uni1F1B" unicode="&#x1f1b;" horiz-adv-x="2011" 
d="M813 1241q2 -4 2 -10q0 -35 -41 -35q-14 0 -22 12l-271 344q-6 9 -6 17q0 49 47 78q25 16 66 16q35 0 43 -18zM1911 348l-84 -348h-1000v37q82 0 119 20q47 29 47 111v1042q0 80 -47 111q-37 20 -119 20v37h985v-303h-51q-35 131 -37 137q-34 68 -139 68h-397v-512h289
q104 0 149 49q39 45 39 144h43v-472h-43q0 99 -39 144q-45 49 -149 49h-289v-508q0 -90 74 -88l301 8q129 2 202 90q39 45 88 164h58zM315 1518q0 -78 -98 -91q-74 9 -57 9q-27 0 -27 -29q0 -45 53 -111q54 -59 99 -79l-17 -37q-69 26 -139 110q-70 86 -70 158q0 70 35 121
q41 59 111 59q110 0 110 -110z" />
    <glyph glyph-name="uni1F1C" unicode="&#x1f1c;" horiz-adv-x="1861" 
d="M719 1538l-273 -344q-8 -10 -20 -10q-41 0 -41 33q0 6 2 10l180 403q11 19 45 19q41 0 68 -17q45 -28 45 -76q0 -12 -6 -18zM1757 348l-84 -348h-999v37q84 0 119 20q47 29 47 111v1042q0 80 -47 111q-35 20 -119 20v37h985v-303h-51q-35 131 -37 137q-35 68 -139 68
h-398v-512h289q104 0 150 49q38 45 38 144h43v-472h-43q0 99 -38 144q-46 49 -150 49h-289v-508q0 -90 74 -88l301 8q129 2 203 90q39 45 88 164h57zM305 1434q0 -70 -69 -158q-66 -82 -140 -111l-14 37q45 21 98 82q51 64 51 109q0 28 -24 28q12 0 -62 -8q-96 10 -96 90
q0 111 113 111q67 0 108 -62q35 -51 35 -118z" />
    <glyph glyph-name="uni1F1D" unicode="&#x1f1d;" horiz-adv-x="1994" 
d="M797 1552l-271 -344q-8 -10 -22 -10q-39 0 -39 33q0 6 2 10l180 404q8 18 43 18q43 0 68 -16q45 -29 45 -76q0 -10 -6 -19zM1901 348l-84 -348h-1000v37q82 0 119 20q47 29 47 111v1042q0 80 -47 111q-37 20 -119 20v37h985v-303h-51q-35 131 -37 137q-37 68 -139 68
h-397v-512h288q107 0 150 49q39 45 39 144h43v-472h-43q0 99 -39 144q-43 49 -150 49h-288v-508q0 -90 73 -88l301 8q129 2 203 90q39 45 88 164h58zM311 1518q0 -78 -96 -91q-74 9 -59 9q-27 0 -27 -29q0 -45 53 -111q51 -59 99 -79l-17 -37q-69 26 -137 110
q-72 86 -72 158q0 70 35 121q41 59 111 59q110 0 110 -110z" />
    <glyph glyph-name="uni1F1E" unicode="&#x1f1e;" horiz-adv-x="1994" 
d="M710 1423h-65q-53 183 -246 183q-82 0 -158 -54q-77 -55 -98 -129h-65q-9 125 75 207q86 84 236 84q149 0 235 -84q76 -78 86 -207zM545 1233q0 -72 -72 -160q-68 -82 -137 -108l-19 34q47 23 99 82q55 66 55 111q0 29 -29 29q17 0 -57 -11q-96 13 -96 93q0 108 108 108
q72 0 113 -59q35 -52 35 -119zM1909 348l-84 -348h-1000v37q82 0 119 20q47 29 47 111v1042q0 80 -47 111q-37 20 -119 20v37h985v-303h-51q-35 131 -37 137q-37 68 -139 68h-397v-512h288q107 0 150 49q39 45 39 144h43v-472h-43q0 99 -39 144q-43 49 -150 49h-288v-508
q0 -90 73 -88l301 8q129 2 203 90q39 45 88 164h58z" />
    <glyph glyph-name="uni1F1F" unicode="&#x1f1f;" horiz-adv-x="1994" 
d="M697 1423h-65q-52 183 -244 183q-84 0 -162 -56q-78 -53 -94 -127h-70q-6 125 80 209q86 82 236 82q147 0 233 -84q76 -78 86 -207zM437 1303q0 -80 -94 -93q-76 11 -59 11q-27 0 -27 -29q0 -45 53 -111q51 -59 96 -82l-16 -34q-70 26 -137 108q-72 88 -72 160
q0 67 37 119q41 59 111 59q108 0 108 -108zM1906 348l-84 -348h-1000v37q82 0 119 20q47 29 47 111v1042q0 80 -47 111q-37 20 -119 20v37h985v-303h-51q-35 131 -37 137q-37 68 -139 68h-397v-512h288q107 0 150 49q39 45 39 144h43v-472h-43q0 99 -39 144q-43 49 -150 49
h-288v-508q0 -90 73 -88l301 8q129 2 203 90q39 45 88 164h58z" />
    <glyph glyph-name="uni1F20" unicode="&#x1f20;" horiz-adv-x="1103" 
d="M651 1448q0 -72 -69 -158q-70 -84 -140 -110l-16 37q45 20 98 81q54 64 54 109q0 29 -27 29q14 0 -59 -9q-97 13 -97 91q0 110 111 110q69 0 110 -59q35 -51 35 -121zM977 -375h-166q-10 43 -25 187l-24 829q-2 107 -53 147q-62 50 -140 35q-69 -12 -125 -65
q-30 -39 -63 -80v-678h-156v637q0 119 -41 170q-24 33 -59 33q-29 0 -49 -25q-21 -22 -31 -70q-6 -36 -12 -77h-33q4 45 6 88q10 45 43 98q53 84 162 84q45 0 86 -23q43 -24 61 -73q2 -4 25 -86q47 69 82 102q65 68 141 88q29 6 64 6q88 0 139 -37q115 -86 117 -229l20 -922
q10 -47 31 -139z" />
    <glyph glyph-name="uni1F21" unicode="&#x1f21;" horiz-adv-x="1103" 
d="M508 1503q0 -80 -96 -90q-74 8 -60 8q-26 0 -26 -28q0 -45 55 -111q49 -59 96 -80l-16 -37q-72 29 -137 111q-72 88 -72 158q0 67 35 118q41 62 110 62q111 0 111 -111zM977 -375h-166q-10 43 -25 187l-24 829q-2 107 -53 147q-62 50 -140 35q-69 -12 -125 -65
q-30 -39 -63 -80v-678h-156v637q0 119 -41 170q-24 33 -59 33q-29 0 -49 -25q-21 -22 -31 -70q-6 -36 -12 -77h-33q4 45 6 88q10 45 43 98q53 84 162 84q45 0 86 -23q43 -24 61 -73q2 -4 25 -86q47 69 82 102q65 68 141 88q29 6 64 6q88 0 139 -37q115 -86 117 -229l20 -922
q10 -47 31 -139z" />
    <glyph glyph-name="uni1F22" unicode="&#x1f22;" horiz-adv-x="1103" 
d="M831 1241q3 -4 3 -10q0 -33 -39 -33q-15 0 -23 10l-270 344q-6 9 -6 19q0 47 45 76q24 16 65 16q37 0 45 -18zM436 1448q0 -72 -69 -158q-68 -84 -140 -110l-16 37q45 20 98 81q53 64 53 109q0 29 -26 29q14 0 -60 -9q-96 13 -96 91q0 110 111 110q69 0 110 -59
q35 -51 35 -121zM977 -375h-166q-10 43 -25 187l-24 829q-2 107 -53 147q-62 50 -140 35q-69 -12 -125 -65q-30 -39 -63 -80v-678h-156v637q0 119 -41 170q-24 33 -59 33q-29 0 -49 -25q-21 -22 -31 -70q-6 -36 -12 -77h-33q4 45 6 88q10 45 43 98q53 84 162 84q45 0 86 -23
q43 -24 61 -73q2 -4 25 -86q47 69 82 102q65 68 141 88q29 6 64 6q88 0 139 -37q115 -86 117 -229l20 -922q10 -47 31 -139z" />
    <glyph glyph-name="uni1F23" unicode="&#x1f23;" horiz-adv-x="1103" 
d="M825 1241q2 -4 2 -10q0 -33 -39 -33q-14 0 -22 10l-270 344q-7 9 -7 19q0 47 46 76q24 16 63 16q37 0 45 -18zM356 1518q0 -78 -98 -91q-74 9 -57 9q-27 0 -27 -29q0 -45 53 -111q54 -59 99 -79l-17 -37q-69 26 -139 110q-70 86 -70 158q0 70 35 121q41 59 111 59
q110 0 110 -110zM977 -375h-166q-10 43 -25 187l-24 829q-2 107 -53 147q-62 50 -140 35q-69 -12 -125 -65q-30 -39 -63 -80v-678h-156v637q0 119 -41 170q-24 33 -59 33q-29 0 -49 -25q-21 -22 -31 -70q-6 -36 -12 -77h-33q4 45 6 88q10 45 43 98q53 84 162 84q45 0 86 -23
q43 -24 61 -73q2 -4 25 -86q47 69 82 102q65 68 141 88q29 6 64 6q88 0 139 -37q115 -86 117 -229l20 -922q10 -47 31 -139z" />
    <glyph glyph-name="uni1F24" unicode="&#x1f24;" horiz-adv-x="1103" 
d="M909 1552l-270 -344q-8 -10 -23 -10q-38 0 -38 33q0 6 2 10l180 404q8 18 45 18q41 0 65 -16q45 -29 45 -76q0 -10 -6 -19zM498 1448q0 -72 -72 -158q-68 -84 -137 -110l-17 37q45 20 99 81q53 64 53 109q0 29 -27 29q15 0 -59 -9q-96 13 -96 91q0 110 110 110
q70 0 111 -59q35 -51 35 -121zM977 -375h-166q-10 43 -25 187l-24 829q-2 107 -53 147q-62 50 -140 35q-69 -12 -125 -65q-30 -39 -63 -80v-678h-156v637q0 119 -41 170q-24 33 -59 33q-29 0 -49 -25q-21 -22 -31 -70q-6 -36 -12 -77h-33q4 45 6 88q10 45 43 98
q53 84 162 84q45 0 86 -23q43 -24 61 -73q2 -4 25 -86q47 69 82 102q65 68 141 88q29 6 64 6q88 0 139 -37q115 -86 117 -229l20 -922q10 -47 31 -139z" />
    <glyph glyph-name="uni1F25" unicode="&#x1f25;" horiz-adv-x="1103" 
d="M895 1552l-270 -344q-9 -10 -23 -10q-39 0 -39 33q0 6 2 10l180 404q9 18 46 18q40 0 65 -16q45 -29 45 -76q0 -10 -6 -19zM399 1518q0 -78 -96 -91q-74 9 -59 9q-27 0 -27 -29q0 -45 53 -111q54 -59 99 -79l-17 -37q-69 26 -139 110q-70 86 -70 158q0 70 35 121
q41 59 111 59q110 0 110 -110zM977 -375h-166q-10 43 -25 187l-24 829q-2 107 -53 147q-62 50 -140 35q-69 -12 -125 -65q-30 -39 -63 -80v-678h-156v637q0 119 -41 170q-24 33 -59 33q-29 0 -49 -25q-21 -22 -31 -70q-6 -36 -12 -77h-33q4 45 6 88q10 45 43 98
q53 84 162 84q45 0 86 -23q43 -24 61 -73q2 -4 25 -86q47 69 82 102q65 68 141 88q29 6 64 6q88 0 139 -37q115 -86 117 -229l20 -922q10 -47 31 -139z" />
    <glyph glyph-name="uni1F26" unicode="&#x1f26;" horiz-adv-x="1103" 
d="M797 1475h-68q-53 180 -244 180q-84 0 -159 -53q-78 -54 -97 -127h-67q-6 122 78 206q86 84 233 84q152 0 238 -86q73 -75 86 -204zM651 1282q0 -72 -69 -158q-70 -84 -140 -110l-16 37q45 18 98 82q54 63 54 108q0 29 -27 29q14 0 -59 -8q-97 12 -97 90q0 110 111 110
q69 0 110 -59q35 -51 35 -121zM977 -375h-166q-10 43 -25 187l-24 829q-2 107 -53 147q-62 50 -140 35q-69 -12 -125 -65q-30 -39 -63 -80v-678h-156v637q0 119 -41 170q-24 33 -59 33q-29 0 -49 -25q-21 -22 -31 -70q-6 -36 -12 -77h-33q4 45 6 88q10 45 43 98
q53 84 162 84q45 0 86 -23q43 -24 61 -73q2 -4 25 -86q47 69 82 102q65 68 141 88q29 6 64 6q88 0 139 -37q115 -86 117 -229l20 -922q10 -47 31 -139z" />
    <glyph glyph-name="uni1F27" unicode="&#x1f27;" horiz-adv-x="1103" 
d="M752 1475h-68q-49 180 -244 180q-84 0 -159 -53q-78 -54 -97 -127h-67q-6 122 80 206t233 84q150 0 236 -86q73 -75 86 -204zM502 1352q0 -78 -96 -90q-74 8 -60 8q-27 0 -27 -29q0 -45 56 -108q51 -64 96 -82l-16 -37q-70 26 -140 110q-69 86 -69 158q0 70 35 121
q41 59 110 59q111 0 111 -110zM977 -375h-166q-10 43 -25 187l-24 829q-2 107 -53 147q-62 50 -140 35q-69 -12 -125 -65q-30 -39 -63 -80v-678h-156v637q0 119 -41 170q-24 33 -59 33q-29 0 -49 -25q-21 -22 -31 -70q-6 -36 -12 -77h-33q4 45 6 88q10 45 43 98
q53 84 162 84q45 0 86 -23q43 -24 61 -73q2 -4 25 -86q47 69 82 102q65 68 141 88q29 6 64 6q88 0 139 -37q115 -86 117 -229l20 -922q10 -47 31 -139z" />
    <glyph glyph-name="uni1F28" unicode="&#x1f28;" horiz-adv-x="1720" 
d="M1628 0h-526v37q84 0 119 20q47 31 47 111v494h-559v-494q0 -80 49 -111q35 -20 116 -20v-37h-526v37q84 0 119 20q49 29 49 111v1042q0 80 -49 111q-35 20 -119 20v37h526v-37q-81 0 -116 -20q-49 -31 -49 -111v-462h559v462q0 80 -47 111q-35 20 -119 20v37h526v-37
q-84 0 -119 -20q-49 -31 -49 -111v-1042q0 -82 49 -111q35 -20 119 -20v-37zM293 1448q0 -72 -72 -158q-65 -84 -137 -110l-16 37q47 20 98 81q53 64 53 109q0 29 -26 29q14 0 -60 -9q-96 13 -96 91q0 110 110 110q70 0 111 -59q35 -51 35 -121z" />
    <glyph glyph-name="uni1F29" unicode="&#x1f29;" horiz-adv-x="1738" 
d="M1638 0h-526v37q82 0 119 20q47 31 47 111v494h-559v-494q0 -80 49 -111q35 -20 117 -20v-37h-527v37q84 0 119 20q49 29 49 111v1042q0 80 -49 111q-35 20 -119 20v37h527v-37q-82 0 -117 -20q-49 -31 -49 -111v-462h559v462q0 80 -47 111q-37 20 -119 20v37h526v-37
q-84 0 -118 -20q-50 -31 -50 -111v-1042q0 -82 50 -111q34 -20 118 -20v-37zM299 1518q0 -78 -96 -91q-76 9 -62 9q-24 0 -24 -29q0 -45 53 -111q51 -59 96 -79l-14 -37q-72 26 -139 110q-70 86 -70 158q0 70 35 121q41 59 108 59q113 0 113 -110z" />
    <glyph glyph-name="uni1F2A" unicode="&#x1f2a;" horiz-adv-x="2099" 
d="M2017 0h-526v37q84 0 119 20q47 31 47 111v494h-559v-494q0 -80 49 -111q35 -20 117 -20v-37h-527v37q84 0 119 20q49 29 49 111v1042q0 80 -49 111q-35 20 -119 20v37h527v-37q-82 0 -117 -20q-49 -31 -49 -111v-462h559v462q0 80 -47 111q-35 20 -119 20v37h526v-37
q-84 0 -119 -20q-49 -31 -49 -111v-1042q0 -82 49 -111q35 -20 119 -20v-37zM715 1241q4 -4 4 -10q0 -35 -41 -35q-14 0 -25 12l-270 344q-4 9 -4 17q0 49 45 78q25 16 63 16q37 0 45 -18zM303 1448q0 -72 -72 -158q-65 -84 -137 -110l-16 37q47 20 98 81q53 64 53 109
q0 29 -26 29q14 0 -60 -9q-96 13 -96 91q0 110 111 110q69 0 110 -59q35 -51 35 -121z" />
    <glyph glyph-name="uni1F2B" unicode="&#x1f2b;" horiz-adv-x="2205" 
d="M2120 0h-527v37q82 0 117 20q49 31 49 111v494h-559v-494q0 -80 47 -111q35 -20 119 -20v-37h-526v37q84 0 118 20q50 29 50 111v1042q0 80 -50 111q-34 20 -118 20v37h526v-37q-84 0 -119 -20q-47 -31 -47 -111v-462h559v462q0 80 -49 111q-35 20 -117 20v37h527v-37
q-84 0 -119 -20q-49 -31 -49 -111v-1042q0 -82 49 -111q35 -20 119 -20v-37zM803 1241q2 -4 2 -10q0 -35 -39 -35q-16 0 -25 12l-270 344q-4 9 -4 17q0 49 45 78q25 16 66 16q34 0 43 -18zM305 1518q0 -78 -98 -91q-74 9 -57 9q-27 0 -27 -29q0 -45 53 -111q51 -59 98 -79
l-16 -37q-72 26 -137 110q-72 86 -72 158q0 70 35 121q41 59 111 59q110 0 110 -110z" />
    <glyph glyph-name="uni1F2C" unicode="&#x1f2c;" horiz-adv-x="2054" 
d="M1946 0h-527v37q82 0 117 20q49 31 49 111v494h-559v-494q0 -80 47 -111q37 -20 119 -20v-37h-526v37q84 0 118 20q50 29 50 111v1042q0 80 -50 111q-34 20 -118 20v37h526v-37q-82 0 -119 -20q-47 -31 -47 -111v-462h559v462q0 80 -49 111q-35 20 -117 20v37h527v-37
q-84 0 -119 -20q-49 -31 -49 -111v-1042q0 -82 49 -111q35 -20 119 -20v-37zM723 1552l-270 -344q-9 -10 -23 -10q-39 0 -39 33q0 6 2 10l180 404q9 18 45 18q41 0 66 -16q45 -29 45 -76q0 -10 -6 -19zM311 1448q0 -72 -69 -158q-70 -84 -140 -110l-16 37q45 20 98 81
q54 64 54 109q0 29 -27 29q14 0 -59 -9q-97 13 -97 91q0 110 111 110q70 0 110 -59q35 -51 35 -121z" />
    <glyph glyph-name="uni1F2D" unicode="&#x1f2d;" horiz-adv-x="2113" 
d="M2028 0h-527v37q82 0 119 20q47 31 47 111v494h-559v-494q0 -80 47 -111q37 -20 119 -20v-37h-526v37q83 0 118 20q49 29 49 111v1042q0 80 -49 111q-35 20 -118 20v37h526v-37q-82 0 -119 -20q-47 -31 -47 -111v-462h559v462q0 80 -47 111q-37 20 -119 20v37h527v-37
q-84 0 -119 -20q-49 -31 -49 -111v-1042q0 -82 49 -111q35 -20 119 -20v-37zM801 1552l-271 -344q-8 -10 -22 -10q-39 0 -39 33q0 6 2 10l180 404q8 18 43 18q43 0 68 -16q45 -29 45 -76q0 -10 -6 -19zM305 1518q0 -78 -96 -91q-74 9 -59 9q-27 0 -27 -29q0 -45 53 -111
q51 -59 98 -79l-16 -37q-72 26 -137 110q-72 86 -72 158q0 70 35 121q41 59 111 59q110 0 110 -110z" />
    <glyph glyph-name="uni1F2E" unicode="&#x1f2e;" horiz-adv-x="2097" 
d="M1995 0h-527v37q82 0 119 20q47 31 47 111v494h-559v-494q0 -80 47 -111q37 -20 119 -20v-37h-526v37q84 0 118 20q49 29 49 111v1042q0 80 -49 111q-34 20 -118 20v37h526v-37q-82 0 -119 -20q-47 -31 -47 -111v-462h559v462q0 80 -47 111q-37 20 -119 20v37h527v-37
q-84 0 -119 -20q-49 -31 -49 -111v-1042q0 -82 49 -111q35 -20 119 -20v-37zM708 1464h-65q-55 181 -246 181q-82 0 -160 -54q-75 -53 -96 -127h-65q-9 123 75 205q86 86 236 86q149 0 235 -86q76 -76 86 -205zM563 1272q0 -72 -70 -158q-67 -84 -139 -110l-14 36
q45 21 96 80q53 66 53 111q0 29 -24 29q12 0 -62 -9q-96 13 -96 90q0 111 113 111q67 0 108 -59q35 -54 35 -121z" />
    <glyph glyph-name="uni1F2F" unicode="&#x1f2f;" horiz-adv-x="1994" 
d="M711 1464h-68q-49 181 -244 181q-84 0 -160 -54q-77 -53 -96 -127h-67q-7 123 77 205q89 86 236 86q152 0 233 -86q76 -76 89 -205zM1921 0h-526v37q81 0 116 20q49 31 49 111v494h-559v-494q0 -80 47 -111q35 -20 119 -20v-37h-526v37q84 0 119 20q49 29 49 111v1042
q0 80 -49 111q-35 20 -119 20v37h526v-37q-84 0 -119 -20q-47 -31 -47 -111v-462h559v462q0 80 -49 111q-35 20 -116 20v37h526v-37q-84 0 -119 -20q-49 -31 -49 -111v-1042q0 -82 49 -111q35 -20 119 -20v-37zM461 1341q0 -77 -97 -90q-73 9 -59 9q-27 0 -27 -29
q0 -45 56 -111q51 -59 96 -80l-16 -36q-70 26 -140 110q-69 86 -69 158q0 67 34 121q41 59 111 59q111 0 111 -111z" />
    <glyph glyph-name="uni1F30" unicode="&#x1f30;" 
d="M502 1448q0 -72 -72 -158q-65 -84 -137 -110l-17 37q48 20 99 81q53 64 53 109q0 29 -27 29q17 0 -57 -9q-98 13 -98 91q0 110 110 110q70 0 111 -59q35 -51 35 -121zM639 186q-41 -229 -219 -217q-82 4 -133 70q-41 51 -41 100v441q0 157 -60 198q-24 19 -104 19v37
q117 24 321 98v-682q0 -107 33 -150t62 -43q12 0 32 6q39 13 58 60l16 63h35z" />
    <glyph glyph-name="uni1F31" unicode="&#x1f31;" 
d="M340 1518q0 -78 -96 -91q-74 9 -60 9q-26 0 -26 -29q0 -45 55 -111q49 -59 96 -79l-16 -37q-72 26 -137 110q-72 86 -72 158q0 70 35 121q41 59 110 59q111 0 111 -110zM639 186q-41 -229 -219 -217q-82 4 -133 70q-41 51 -41 100v441q0 157 -60 198q-24 19 -104 19v37
q117 24 321 98v-682q0 -107 33 -150t62 -43q12 0 32 6q39 13 58 60l16 63h35z" />
    <glyph glyph-name="uni1F32" unicode="&#x1f32;" 
d="M696 1241q2 -4 2 -10q0 -33 -39 -33q-14 0 -22 10l-270 344q-7 9 -7 19q0 47 46 76q24 16 65 16q37 0 45 -18zM270 1448q0 -72 -69 -158q-70 -84 -140 -110l-16 37q45 20 98 81q54 64 54 109q0 29 -27 29q14 0 -59 -9q-97 13 -97 91q0 110 111 110q70 0 111 -59
q34 -51 34 -121zM639 186q-41 -229 -219 -217q-82 4 -133 70q-41 51 -41 100v441q0 157 -60 198q-24 19 -104 19v37q117 24 321 98v-682q0 -107 33 -150t62 -43q12 0 32 6q39 13 58 60l16 63h35z" />
    <glyph glyph-name="uni1F33" unicode="&#x1f33;" 
d="M657 1241q2 -4 2 -10q0 -33 -38 -33q-15 0 -23 10l-270 344q-6 9 -6 19q0 47 45 76q24 16 65 16q37 0 45 -18zM158 1518q0 -78 -97 -91q-73 9 -59 9q-27 0 -27 -29q0 -45 56 -111q51 -59 96 -79l-16 -37q-70 26 -140 110q-69 86 -69 158q0 70 35 121q40 59 110 59
q111 0 111 -110zM639 186q-41 -229 -219 -217q-82 4 -133 70q-41 51 -41 100v441q0 157 -60 198q-24 19 -104 19v37q117 24 321 98v-682q0 -107 33 -150t62 -43q12 0 32 6q39 13 58 60l16 63h35z" />
    <glyph glyph-name="uni1F34" unicode="&#x1f34;" 
d="M731 1567l-270 -344q-8 -13 -25 -13q-39 0 -39 35q0 4 2 10l183 404q8 16 45 16q39 0 63 -14q45 -31 45 -78q0 -8 -4 -16zM315 1462q0 -69 -69 -157q-70 -82 -140 -111l-16 37q45 18 98 82q54 63 54 108q0 29 -27 29q14 0 -59 -8q-97 10 -97 90q0 110 111 110
q70 0 111 -61q34 -49 34 -119zM639 186q-41 -229 -219 -217q-82 4 -133 70q-41 51 -41 100v441q0 157 -60 198q-24 19 -104 19v37q117 24 321 98v-682q0 -107 33 -150t62 -43q12 0 32 6q39 13 58 60l16 63h35z" />
    <glyph glyph-name="uni1F35" unicode="&#x1f35;" 
d="M711 1552l-271 -344q-8 -10 -22 -10q-39 0 -39 33q0 6 2 10l180 404q8 18 43 18q43 0 68 -16q45 -29 45 -76q0 -10 -6 -19zM205 1518q0 -78 -96 -91q-74 9 -60 9q-26 0 -26 -29q0 -45 55 -111q49 -59 96 -79l-16 -37q-72 26 -140 110q-69 86 -69 158q0 70 35 121
q41 59 110 59q111 0 111 -110zM639 186q-41 -229 -219 -217q-82 4 -133 70q-41 51 -41 100v441q0 157 -60 198q-24 19 -104 19v37q117 24 321 98v-682q0 -107 33 -150t62 -43q12 0 32 6q39 13 58 60l16 63h35z" />
    <glyph glyph-name="uni1F36" unicode="&#x1f36;" 
d="M658 1475h-67q-49 180 -244 180q-84 0 -160 -53q-78 -54 -96 -127h-68q-6 122 80 206q84 84 234 84q149 0 233 -86q76 -75 88 -204zM497 1282q0 -72 -70 -158q-70 -84 -139 -110l-17 37q45 18 99 82q53 63 53 108q0 29 -27 29q15 0 -59 -8q-96 12 -96 90q0 110 110 110
q70 0 111 -59q35 -51 35 -121zM644 186q-41 -229 -219 -217q-82 4 -133 70q-41 51 -41 100v441q0 157 -60 198q-24 19 -104 19v37q117 24 321 98v-682q0 -107 33 -150t62 -43q12 0 32 6q39 13 58 60l16 63h35z" />
    <glyph glyph-name="uni1F37" unicode="&#x1f37;" 
d="M641 1475h-68q-55 180 -243 180q-82 0 -160 -53q-78 -54 -96 -127h-68q-6 122 78 206q86 84 233 84q152 0 238 -86q76 -75 86 -204zM381 1352q0 -78 -96 -90q-74 8 -60 8q-26 0 -26 -29q0 -45 55 -108q51 -64 96 -82l-16 -37q-72 26 -140 110q-69 86 -69 158q0 70 35 121
q41 59 110 59q111 0 111 -110zM645 186q-41 -229 -219 -217q-82 4 -133 70q-41 51 -41 100v441q0 157 -60 198q-24 19 -104 19v37q117 24 321 98v-682q0 -107 33 -150t62 -43q12 0 32 6q39 13 58 60l16 63h35z" />
    <glyph glyph-name="uni1F38" unicode="&#x1f38;" horiz-adv-x="950" 
d="M313 1448q0 -72 -69 -158q-70 -84 -140 -110l-16 37q45 20 98 81q54 64 54 109q0 29 -27 29q14 0 -59 -9q-97 13 -97 91q0 110 111 110q70 0 111 -59q34 -51 34 -121zM893 0h-526v37q84 0 118 20q47 29 47 111v1042q0 80 -47 111q-34 20 -118 20v37h526v-37
q-82 0 -119 -20q-47 -31 -47 -111v-1042q0 -82 47 -111q37 -20 119 -20v-37z" />
    <glyph glyph-name="uni1F39" unicode="&#x1f39;" horiz-adv-x="974" 
d="M299 1518q0 -78 -96 -91q-76 9 -62 9q-24 0 -24 -29q0 -45 53 -111q51 -59 96 -79l-14 -37q-72 26 -139 110q-70 86 -70 158q0 70 35 121q41 59 108 59q113 0 113 -110zM883 0h-527v37q82 0 119 20q47 29 47 111v1042q0 80 -47 111q-37 20 -119 20v37h527v-37
q-82 0 -119 -20q-47 -31 -47 -111v-1042q0 -82 47 -111q37 -20 119 -20v-37z" />
    <glyph glyph-name="uni1F3A" unicode="&#x1f3a;" horiz-adv-x="1329" 
d="M705 1241q4 -4 4 -10q0 -35 -41 -35q-17 0 -25 12l-270 344q-4 9 -4 17q0 49 45 78q24 16 63 16q37 0 45 -18zM1241 0h-526v37q84 0 119 20q47 29 47 111v1042q0 80 -47 111q-35 20 -119 20v37h526v-37q-84 0 -119 -20q-47 -31 -47 -111v-1042q0 -82 47 -111
q35 -20 119 -20v-37zM293 1448q0 -72 -72 -158q-65 -84 -137 -110l-16 37q47 20 98 81q53 64 53 109q0 29 -26 29q14 0 -60 -9q-96 13 -96 91q0 110 110 110q70 0 111 -59q35 -51 35 -121z" />
    <glyph glyph-name="uni1F3B" unicode="&#x1f3b;" horiz-adv-x="1476" 
d="M803 1241q2 -4 2 -10q0 -35 -39 -35q-16 0 -25 12l-270 344q-4 9 -4 17q0 49 45 78q25 16 66 16q34 0 43 -18zM1354 0h-527v37q82 0 119 20q47 29 47 111v1042q0 80 -47 111q-37 20 -119 20v37h527v-37q-82 0 -119 -20q-47 -31 -47 -111v-1042q0 -82 47 -111
q37 -20 119 -20v-37zM305 1518q0 -78 -98 -91q-74 9 -57 9q-27 0 -27 -29q0 -45 53 -111q51 -59 98 -79l-16 -37q-72 26 -137 110q-72 86 -72 158q0 70 35 121q41 59 111 59q110 0 110 -110z" />
    <glyph glyph-name="uni1F3C" unicode="&#x1f3c;" horiz-adv-x="1259" 
d="M725 1567l-270 -344q-9 -13 -25 -13q-39 0 -39 35q0 4 2 10l182 404q9 16 46 16q38 0 63 -14q45 -31 45 -78q0 -8 -4 -16zM1190 0h-526v37q81 0 118 20q47 29 47 111v1042q0 80 -47 111q-37 20 -118 20v37h526v-37q-82 0 -119 -20q-47 -31 -47 -111v-1042q0 -82 47 -111
q37 -20 119 -20v-37zM309 1462q0 -69 -69 -157q-70 -82 -140 -111l-16 37q45 18 98 82q54 63 54 108q0 29 -27 29q14 0 -59 -8q-97 10 -97 90q0 110 111 110q69 0 110 -61q35 -49 35 -119z" />
    <glyph glyph-name="uni1F3D" unicode="&#x1f3d;" horiz-adv-x="1380" 
d="M799 1552l-273 -344q-8 -10 -20 -10q-39 0 -39 33q0 6 2 10l178 404q8 18 45 18q41 0 68 -16q43 -29 43 -76q0 -10 -4 -19zM1303 0h-527v37q82 0 119 20q47 29 47 111v1042q0 80 -47 111q-37 20 -119 20v37h527v-37q-82 0 -119 -20q-47 -31 -47 -111v-1042q0 -82 47 -111
q37 -20 119 -20v-37zM293 1518q0 -78 -96 -91q-74 9 -62 9q-24 0 -24 -29q0 -45 53 -111q51 -59 96 -79l-14 -37q-72 26 -140 110q-69 86 -69 158q0 70 35 121q41 59 108 59q113 0 113 -110z" />
    <glyph glyph-name="uni1F3E" unicode="&#x1f3e;" horiz-adv-x="1171" 
d="M671 1475h-68q-51 180 -246 180q-82 0 -157 -51q-78 -56 -99 -129h-65q-6 122 78 204q88 86 233 86q152 0 236 -86q75 -75 88 -204zM509 1282q0 -72 -72 -158q-65 -84 -137 -110l-16 37q47 18 96 82q53 63 53 108q0 29 -27 29q17 0 -59 -8q-94 12 -94 90q0 110 108 110
q70 0 113 -59q35 -51 35 -121zM1092 0h-526v37q82 0 119 20q47 29 47 111v1042q0 80 -47 111q-37 20 -119 20v37h526v-37q-81 0 -118 -20q-47 -31 -47 -111v-1042q0 -82 47 -111q37 -20 118 -20v-37z" />
    <glyph glyph-name="uni1F3F" unicode="&#x1f3f;" horiz-adv-x="1060" 
d="M683 1475h-70q-53 180 -241 180q-84 0 -162 -53q-78 -54 -94 -127h-68q-8 122 76 204q86 86 233 86q152 0 238 -86q76 -75 88 -204zM423 1352q0 -78 -99 -90q-71 8 -59 8q-27 0 -27 -29q0 -45 56 -108q51 -64 98 -82l-16 -37q-72 26 -140 110q-69 86 -69 158q0 70 35 121
q38 59 108 59q113 0 113 -110zM1002 0h-526v37q84 0 119 20q47 29 47 111v1042q0 80 -47 111q-35 20 -119 20v37h526v-37q-84 0 -118 -20q-48 -31 -48 -111v-1042q0 -82 48 -111q34 -20 118 -20v-37z" />
    <glyph glyph-name="uni1F40" unicode="&#x1f40;" horiz-adv-x="1005" 
d="M643 1434q0 -70 -72 -158q-65 -82 -137 -111l-16 37q47 21 98 82q53 64 53 109q0 28 -26 28q14 0 -60 -8q-96 10 -96 90q0 111 111 111q69 0 110 -62q35 -51 35 -118zM768 72q-111 -107 -272 -107q-105 0 -203 49q-227 156 -227 432q0 195 120 340q117 140 299 140
q129 0 246 -80q199 -135 199 -391q0 -230 -162 -383zM690 139q62 94 62 287q0 227 -101 350q-78 94 -176 94q-61 0 -115 -36q-55 -39 -77 -95q-41 -96 -41 -229q0 -195 80 -338q73 -131 204 -131q101 0 164 98z" />
    <glyph glyph-name="uni1F41" unicode="&#x1f41;" horiz-adv-x="1005" 
d="M510 1503q0 -80 -96 -90q-74 8 -60 8q-26 0 -26 -28q0 -45 55 -111q49 -59 96 -80l-16 -37q-72 29 -137 111q-72 88 -72 158q0 67 35 118q41 62 110 62q111 0 111 -111zM768 72q-111 -107 -272 -107q-105 0 -203 49q-227 156 -227 432q0 195 120 340q117 140 299 140
q129 0 246 -80q199 -135 199 -391q0 -230 -162 -383zM690 139q62 94 62 287q0 227 -101 350q-78 94 -176 94q-61 0 -115 -36q-55 -39 -77 -95q-41 -96 -41 -229q0 -195 80 -338q73 -131 204 -131q101 0 164 98z" />
    <glyph glyph-name="uni1F42" unicode="&#x1f42;" horiz-adv-x="1005" 
d="M840 1241q2 -4 2 -10q0 -35 -39 -35q-17 0 -25 12l-270 344q-4 9 -4 17q0 49 45 78q24 16 63 16q37 0 45 -18zM432 1436q0 -70 -72 -158q-65 -84 -137 -111l-16 37q47 21 98 82q53 64 53 109q0 28 -26 28q14 0 -60 -8q-96 10 -96 90q0 111 111 111q69 0 110 -62
q35 -51 35 -118zM768 72q-111 -107 -272 -107q-105 0 -203 49q-227 156 -227 432q0 195 120 340q117 140 299 140q129 0 246 -80q199 -135 199 -391q0 -230 -162 -383zM690 139q62 94 62 287q0 227 -101 350q-78 94 -176 94q-61 0 -115 -36q-55 -39 -77 -95
q-41 -96 -41 -229q0 -195 80 -338q73 -131 204 -131q101 0 164 98z" />
    <glyph glyph-name="uni1F43" unicode="&#x1f43;" horiz-adv-x="1005" 
d="M811 1241q2 -4 2 -10q0 -33 -39 -33q-14 0 -22 10l-271 344q-6 9 -6 19q0 47 45 76q25 16 66 16q35 0 43 -18zM319 1518q0 -78 -96 -91q-73 9 -59 9q-27 0 -27 -29q0 -45 53 -111q54 -59 99 -79l-17 -37q-69 26 -139 110q-70 86 -70 158q0 70 35 121q41 59 111 59
q110 0 110 -110zM768 72q-111 -107 -272 -107q-105 0 -203 49q-227 156 -227 432q0 195 120 340q117 140 299 140q129 0 246 -80q199 -135 199 -391q0 -230 -162 -383zM690 139q62 94 62 287q0 227 -101 350q-78 94 -176 94q-61 0 -115 -36q-55 -39 -77 -95
q-41 -96 -41 -229q0 -195 80 -338q73 -131 204 -131q101 0 164 98z" />
    <glyph glyph-name="uni1F44" unicode="&#x1f44;" horiz-adv-x="1005" 
d="M891 1538l-270 -344q-9 -10 -23 -10q-41 0 -41 33q0 6 2 10l182 403q9 19 43 19q41 0 66 -17q47 -28 47 -78q0 -10 -6 -16zM475 1434q0 -70 -72 -158q-65 -82 -137 -111l-16 37q47 21 98 82q53 64 53 109q0 28 -26 28q14 0 -60 -8q-96 10 -96 90q0 111 111 111
q69 0 110 -62q35 -51 35 -118zM768 72q-111 -107 -272 -107q-105 0 -203 49q-227 156 -227 432q0 195 120 340q117 140 299 140q129 0 246 -80q199 -135 199 -391q0 -230 -162 -383zM690 139q62 94 62 287q0 227 -101 350q-78 94 -176 94q-61 0 -115 -36q-55 -39 -77 -95
q-41 -96 -41 -229q0 -195 80 -338q73 -131 204 -131q101 0 164 98z" />
    <glyph glyph-name="uni1F45" unicode="&#x1f45;" horiz-adv-x="1005" 
d="M899 1538l-270 -344q-8 -10 -23 -10q-39 0 -39 33q0 6 2 10l181 403q8 19 45 19q41 0 65 -17q45 -28 45 -76q0 -12 -6 -18zM397 1503q0 -80 -96 -90q-74 8 -59 8q-27 0 -27 -28q0 -45 53 -111q54 -59 99 -80l-17 -37q-69 29 -137 111q-72 88 -72 158q0 67 35 118
q41 62 111 62q110 0 110 -111zM768 72q-111 -107 -272 -107q-105 0 -203 49q-227 156 -227 432q0 195 120 340q117 140 299 140q129 0 246 -80q199 -135 199 -391q0 -230 -162 -383zM690 139q62 94 62 287q0 227 -101 350q-78 94 -176 94q-61 0 -115 -36q-55 -39 -77 -95
q-41 -96 -41 -229q0 -195 80 -338q73 -131 204 -131q101 0 164 98z" />
    <glyph glyph-name="uni1F46" unicode="&#x1f46;" horiz-adv-x="1005" 
d="M805 1475h-68q-55 180 -243 180q-82 0 -160 -53q-78 -54 -96 -127h-68q-6 122 78 206q86 84 233 84q152 0 238 -86q76 -75 86 -204zM664 1282q0 -72 -70 -158q-70 -84 -139 -110l-17 37q45 18 99 82q53 63 53 108q0 29 -27 29q15 0 -59 -8q-96 12 -96 90q0 110 110 110
q70 0 111 -59q35 -51 35 -121zM768 72q-111 -107 -272 -107q-105 0 -203 49q-227 156 -227 432q0 195 120 340q117 140 299 140q129 0 246 -80q199 -135 199 -391q0 -230 -162 -383zM690 139q62 94 62 287q0 227 -101 350q-78 94 -176 94q-61 0 -115 -36q-55 -39 -77 -95
q-41 -96 -41 -229q0 -195 80 -338q73 -131 204 -131q101 0 164 98z" />
    <glyph glyph-name="uni1F47" unicode="&#x1f47;" horiz-adv-x="1005" 
d="M766 1475h-68q-51 180 -243 180q-82 0 -160 -53q-78 -54 -96 -127h-68q-6 122 80 206t233 84q150 0 236 -86q76 -75 86 -204zM516 1352q0 -78 -98 -90q-74 8 -58 8q-26 0 -26 -29q0 -45 53 -108q51 -64 98 -82l-16 -37q-72 26 -137 110q-72 86 -72 158q0 70 35 121
q41 59 111 59q110 0 110 -110zM768 72q-111 -107 -272 -107q-105 0 -203 49q-227 156 -227 432q0 195 120 340q117 140 299 140q129 0 246 -80q199 -135 199 -391q0 -230 -162 -383zM690 139q62 94 62 287q0 227 -101 350q-78 94 -176 94q-61 0 -115 -36q-55 -39 -77 -95
q-41 -96 -41 -229q0 -195 80 -338q73 -131 204 -131q101 0 164 98z" />
    <glyph glyph-name="uni1F48" unicode="&#x1f48;" horiz-adv-x="1298" 
d="M254 1434q0 -70 -72 -158q-67 -82 -139 -111l-14 37q45 21 98 82q51 64 51 109q0 28 -24 28q14 0 -62 -8q-94 10 -94 90q0 111 111 111q67 0 108 -62q37 -51 37 -118zM1325 688q0 -364 -227 -571q-166 -152 -398 -152q-231 0 -397 152q-227 209 -227 571q0 361 227 563
q170 152 397 152q228 0 398 -152q227 -202 227 -563zM1085 418q25 114 25 252q0 133 -25 256q-24 121 -73 209q-105 188 -312 188q-204 0 -311 -188q-39 -68 -70 -209q-26 -123 -26 -258q0 -129 22 -250q27 -135 101 -230q114 -143 284 -143q174 0 289 143q64 78 96 230z
" />
    <glyph glyph-name="uni1F49" unicode="&#x1f49;" horiz-adv-x="1298" 
d="M180 1503q0 -80 -96 -90q-74 8 -59 8q-27 0 -27 -28q0 -45 53 -111q51 -59 99 -80l-17 -37q-72 29 -137 111q-72 88 -72 158q0 67 35 118q41 62 111 62q110 0 110 -111zM1325 688q0 -364 -227 -571q-166 -152 -398 -152q-231 0 -397 152q-227 209 -227 571q0 361 227 563
q170 152 397 152q228 0 398 -152q227 -202 227 -563zM1085 418q25 114 25 252q0 133 -25 256q-24 121 -73 209q-105 188 -312 188q-204 0 -311 -188q-39 -68 -70 -209q-26 -123 -26 -258q0 -129 22 -250q27 -135 101 -230q114 -143 284 -143q174 0 289 143q64 78 96 230z
" />
    <glyph glyph-name="uni1F4A" unicode="&#x1f4a;" horiz-adv-x="1771" 
d="M641 1241q2 -4 2 -10q0 -35 -41 -35q-14 0 -22 12l-271 344q-6 9 -6 17q0 49 47 78q25 16 66 16q35 0 43 -18zM1796 688q0 -364 -227 -571q-166 -152 -398 -152q-231 0 -397 152q-227 209 -227 571q0 361 227 563q170 152 397 152q228 0 398 -152q227 -202 227 -563z
M233 1436q0 -70 -69 -158q-70 -84 -139 -111l-17 37q45 21 98 82q54 64 54 109q0 28 -27 28q14 0 -59 -8q-97 10 -97 90q0 111 111 111q70 0 111 -62q34 -51 34 -118zM1556 418q25 114 25 252q0 133 -25 256q-24 121 -73 209q-105 188 -312 188q-204 0 -311 -188
q-39 -68 -69 -209q-27 -123 -27 -258q0 -129 22 -250q25 -135 101 -230q114 -143 284 -143q175 0 289 143q64 78 96 230z" />
    <glyph glyph-name="uni1F4B" unicode="&#x1f4b;" horiz-adv-x="1849" 
d="M715 1241q2 -4 2 -10q0 -33 -39 -33q-14 0 -25 10l-268 344q-6 9 -6 19q0 47 45 76q22 16 63 16q35 0 43 -18zM1878 688q0 -364 -227 -571q-166 -152 -398 -152q-231 0 -397 152q-227 209 -227 571q0 361 227 563q170 152 397 152q228 0 398 -152q227 -202 227 -563z
M221 1518q0 -78 -94 -91q-76 9 -59 9q-27 0 -27 -29q0 -45 53 -111q51 -59 96 -79l-16 -37q-70 26 -137 110q-72 86 -72 158q0 70 35 121q43 59 113 59q108 0 108 -110zM1638 418q25 114 25 252q0 133 -25 256q-24 121 -73 209q-105 188 -312 188q-204 0 -311 -188
q-39 -68 -70 -209q-26 -123 -26 -258q0 -129 22 -250q27 -135 101 -230q114 -143 284 -143q174 0 289 143q64 78 96 230z" />
    <glyph glyph-name="uni1F4C" unicode="&#x1f4c;" horiz-adv-x="1593" 
d="M688 1538l-270 -344q-8 -10 -25 -10q-41 0 -41 33q0 6 4 10l183 403q8 19 45 19q39 0 63 -17q45 -28 45 -78q0 -10 -4 -16zM1622 688q0 -364 -227 -571q-166 -152 -398 -152q-231 0 -397 152q-227 209 -227 571q0 361 227 563q170 152 397 152q228 0 398 -152
q227 -202 227 -563zM272 1434q0 -70 -69 -158q-70 -82 -140 -111l-16 37q45 21 98 82q54 64 54 109q0 28 -27 28q14 0 -59 -8q-97 10 -97 90q0 111 111 111q70 0 111 -62q34 -51 34 -118zM1382 418q27 114 27 252q0 133 -27 256q-24 121 -73 209q-105 188 -312 188
q-204 0 -311 -188q-39 -68 -70 -209q-26 -123 -26 -258q0 -129 22 -250q27 -135 101 -230q114 -143 284 -143q174 0 289 143q64 78 96 230z" />
    <glyph glyph-name="uni1F4D" unicode="&#x1f4d;" horiz-adv-x="1658" 
d="M776 1538l-268 -344q-8 -10 -25 -10q-39 0 -39 33q0 6 2 10l183 403q8 19 45 19q41 0 63 -17q45 -28 45 -76q0 -12 -6 -18zM1683 688q0 -364 -227 -571q-168 -152 -397 -152q-232 0 -397 152q-228 209 -228 571q0 361 228 563q169 152 397 152q227 0 397 -152
q227 -202 227 -563zM274 1503q0 -80 -96 -90q-74 8 -57 8q-29 0 -29 -28q0 -45 55 -111q52 -59 99 -80l-19 -37q-69 29 -137 111q-72 88 -72 158q0 67 37 118q39 62 111 62q108 0 108 -111zM1444 418q24 114 24 252q0 133 -24 256q-25 121 -74 209q-104 188 -311 188
q-205 0 -311 -188q-39 -68 -70 -209q-27 -123 -27 -258q0 -129 23 -250q24 -135 100 -230q115 -143 285 -143q174 0 289 143q63 78 96 230z" />
    <glyph glyph-name="uni1F4E" unicode="&#x1f4e;" horiz-adv-x="1658" 
d="M650 1423h-65q-56 183 -244 183q-84 0 -160 -54q-80 -55 -96 -129h-70q-6 125 78 207q86 84 236 84q149 0 235 -84q76 -78 86 -207zM482 1233q0 -72 -69 -160q-66 -82 -140 -108l-14 34q45 23 96 82q53 66 53 111q0 29 -24 29q12 0 -62 -11q-96 13 -96 93q0 108 113 108
q67 0 108 -59q35 -52 35 -119zM1688 688q0 -364 -227 -571q-168 -152 -397 -152q-232 0 -397 152q-228 209 -228 571q0 361 228 563q169 152 397 152q227 0 397 -152q227 -202 227 -563zM1449 418q24 114 24 252q0 133 -24 256q-25 121 -74 209q-104 188 -311 188
q-205 0 -311 -188q-39 -68 -70 -209q-27 -123 -27 -258q0 -129 23 -250q24 -135 100 -230q115 -143 285 -143q174 0 289 143q63 78 96 230z" />
    <glyph glyph-name="uni1F4F" unicode="&#x1f4f;" horiz-adv-x="1658" 
d="M697 1423h-65q-52 183 -244 183q-84 0 -162 -56q-78 -53 -94 -127h-70q-6 125 80 209q86 82 236 82q147 0 233 -84q76 -78 86 -207zM437 1303q0 -80 -94 -93q-76 11 -59 11q-27 0 -27 -29q0 -45 53 -111q51 -59 96 -82l-16 -34q-70 26 -137 108q-72 88 -72 160
q0 67 37 119q41 59 111 59q108 0 108 -108zM1688 688q0 -364 -227 -571q-168 -152 -397 -152q-232 0 -397 152q-228 209 -228 571q0 361 228 563q169 152 397 152q227 0 397 -152q227 -202 227 -563zM1449 418q24 114 24 252q0 133 -24 256q-25 121 -74 209
q-104 188 -311 188q-205 0 -311 -188q-39 -68 -70 -209q-27 -123 -27 -258q0 -129 23 -250q24 -135 100 -230q115 -143 285 -143q174 0 289 143q63 78 96 230z" />
    <glyph glyph-name="uni1F50" unicode="&#x1f50;" horiz-adv-x="1105" 
d="M649 1448q0 -72 -69 -158q-68 -84 -140 -110l-16 37q45 20 98 81q53 64 53 109q0 29 -26 29q14 0 -60 -9q-96 13 -96 91q0 110 111 110q69 0 110 -59q35 -51 35 -121zM985 537q6 -41 6 -86q0 -146 -55 -263q-70 -145 -213 -196q-74 -27 -150 -27q-61 0 -112 19
q-72 24 -135 114q-62 84 -64 236q-2 119 -4 233q-4 142 -22 185q-17 39 -58 39q-39 0 -69 -31q-11 -10 -56 -101h-41q15 50 31 97q20 63 47 104q25 37 74 58q45 18 84 14q51 -4 92 -41q39 -35 45 -72q35 -219 35 -500q0 -139 76 -215q53 -61 106 -61q37 0 82 23
q72 36 115 159q43 119 43 260q0 72 -13 140q-20 123 -92 198q-35 37 -108 84l10 33q303 -117 346 -403z" />
    <glyph glyph-name="uni1F51" unicode="&#x1f51;" horiz-adv-x="1105" 
d="M500 1518q0 -78 -97 -91q-73 9 -59 9q-27 0 -27 -29q0 -45 56 -111q51 -59 96 -79l-16 -37q-70 26 -140 110q-69 86 -69 158q0 70 35 121q40 59 110 59q111 0 111 -110zM985 537q6 -41 6 -86q0 -146 -55 -263q-70 -145 -213 -196q-74 -27 -150 -27q-61 0 -112 19
q-72 24 -135 114q-62 84 -64 236q-2 119 -4 233q-4 142 -22 185q-17 39 -58 39q-39 0 -69 -31q-11 -10 -56 -101h-41q15 50 31 97q20 63 47 104q25 37 74 58q45 18 84 14q51 -4 92 -41q39 -35 45 -72q35 -219 35 -500q0 -139 76 -215q53 -61 106 -61q37 0 82 23
q72 36 115 159q43 119 43 260q0 72 -13 140q-20 123 -92 198q-35 37 -108 84l10 33q303 -117 346 -403z" />
    <glyph glyph-name="uni1F52" unicode="&#x1f52;" horiz-adv-x="1105" 
d="M838 1227q2 -4 2 -10q0 -33 -39 -33q-17 0 -25 10l-270 344q-4 6 -4 16q0 50 45 78q24 17 63 17q37 0 45 -19zM412 1434q0 -70 -70 -158q-70 -82 -139 -111l-17 37q45 21 99 82q53 64 53 109q0 28 -27 28q15 0 -59 -8q-96 10 -96 90q0 111 110 111q70 0 111 -62
q35 -51 35 -118zM985 537q6 -41 6 -86q0 -146 -55 -263q-70 -145 -213 -196q-74 -27 -150 -27q-61 0 -112 19q-72 24 -135 114q-62 84 -64 236q-2 119 -4 233q-4 142 -22 185q-17 39 -58 39q-39 0 -69 -31q-11 -10 -56 -101h-41q15 50 31 97q20 63 47 104q25 37 74 58
q45 18 84 14q51 -4 92 -41q39 -35 45 -72q35 -219 35 -500q0 -139 76 -215q53 -61 106 -61q37 0 82 23q72 36 115 159q43 119 43 260q0 72 -13 140q-20 123 -92 198q-35 37 -108 84l10 33q303 -117 346 -403z" />
    <glyph glyph-name="uni1F53" unicode="&#x1f53;" horiz-adv-x="1105" 
d="M846 1227q2 -4 2 -10q0 -33 -39 -33q-16 0 -25 10l-270 344q-4 6 -4 16q0 50 45 78q25 17 66 17q34 0 43 -19zM348 1503q0 -80 -96 -90q-74 8 -59 8q-27 0 -27 -28q0 -45 53 -111q51 -59 98 -80l-16 -37q-72 29 -137 111q-72 88 -72 158q0 67 35 118q41 62 111 62
q110 0 110 -111zM985 537q6 -41 6 -86q0 -146 -55 -263q-70 -145 -213 -196q-74 -27 -150 -27q-61 0 -112 19q-72 24 -135 114q-62 84 -64 236q-2 119 -4 233q-4 142 -22 185q-17 39 -58 39q-39 0 -69 -31q-11 -10 -56 -101h-41q15 50 31 97q20 63 47 104q25 37 74 58
q45 18 84 14q51 -4 92 -41q39 -35 45 -72q35 -219 35 -500q0 -139 76 -215q53 -61 106 -61q37 0 82 23q72 36 115 159q43 119 43 260q0 72 -13 140q-20 123 -92 198q-35 37 -108 84l10 33q303 -117 346 -403z" />
    <glyph glyph-name="uni1F54" unicode="&#x1f54;" horiz-adv-x="1105" 
d="M893 1538l-270 -344q-9 -10 -25 -10q-39 0 -39 33q0 6 2 10l182 403q9 19 43 19q41 0 66 -17q45 -28 45 -78q0 -10 -4 -16zM477 1434q0 -70 -69 -158q-68 -82 -140 -111l-16 37q47 21 98 82q53 64 53 109q0 28 -26 28q14 0 -60 -8q-96 10 -96 90q0 111 111 111
q69 0 110 -62q35 -51 35 -118zM985 537q6 -41 6 -86q0 -146 -55 -263q-70 -145 -213 -196q-74 -27 -150 -27q-61 0 -112 19q-72 24 -135 114q-62 84 -64 236q-2 119 -4 233q-4 142 -22 185q-17 39 -58 39q-39 0 -69 -31q-11 -10 -56 -101h-41q15 50 31 97q20 63 47 104
q25 37 74 58q45 18 84 14q51 -4 92 -41q39 -35 45 -72q35 -219 35 -500q0 -139 76 -215q53 -61 106 -61q37 0 82 23q72 36 115 159q43 119 43 260q0 72 -13 140q-20 123 -92 198q-35 37 -108 84l10 33q303 -117 346 -403z" />
    <glyph glyph-name="uni1F55" unicode="&#x1f55;" horiz-adv-x="1105" 
d="M889 1538l-271 -344q-8 -10 -22 -10q-41 0 -41 33q0 6 2 10l182 403q9 19 43 19q41 0 66 -17q47 -28 47 -78q0 -10 -6 -16zM383 1503q0 -80 -96 -90q-74 8 -60 8q-26 0 -26 -28q0 -45 55 -111q49 -59 96 -80l-16 -37q-72 29 -137 111q-72 88 -72 158q0 67 35 118
q41 62 110 62q111 0 111 -111zM985 537q6 -41 6 -86q0 -146 -55 -263q-70 -145 -213 -196q-74 -27 -150 -27q-61 0 -112 19q-72 24 -135 114q-62 84 -64 236q-2 119 -4 233q-4 142 -22 185q-17 39 -58 39q-39 0 -69 -31q-11 -10 -56 -101h-41q15 50 31 97q20 63 47 104
q25 37 74 58q45 18 84 14q51 -4 92 -41q39 -35 45 -72q35 -219 35 -500q0 -139 76 -215q53 -61 106 -61q37 0 82 23q72 36 115 159q43 119 43 260q0 72 -13 140q-20 123 -92 198q-35 37 -108 84l10 33q303 -117 346 -403z" />
    <glyph glyph-name="uni1F56" unicode="&#x1f56;" horiz-adv-x="1105" 
d="M805 1475h-68q-55 180 -243 180q-82 0 -160 -53q-78 -54 -96 -127h-68q-6 122 78 206q86 84 233 84q152 0 238 -86q76 -75 86 -204zM664 1282q0 -72 -70 -158q-70 -84 -139 -110l-17 37q45 18 99 82q53 63 53 108q0 29 -27 29q15 0 -59 -8q-96 12 -96 90q0 110 110 110
q70 0 111 -59q35 -51 35 -121zM985 537q6 -41 6 -86q0 -146 -55 -263q-70 -145 -213 -196q-74 -27 -150 -27q-61 0 -112 19q-72 24 -135 114q-62 84 -64 236q-2 119 -4 233q-4 142 -22 185q-17 39 -58 39q-39 0 -69 -31q-11 -10 -56 -101h-41q15 50 31 97q20 63 47 104
q25 37 74 58q45 18 84 14q51 -4 92 -41q39 -35 45 -72q35 -219 35 -500q0 -139 76 -215q53 -61 106 -61q37 0 82 23q72 36 115 159q43 119 43 260q0 72 -13 140q-20 123 -92 198q-35 37 -108 84l10 33q303 -117 346 -403z" />
    <glyph glyph-name="uni1F57" unicode="&#x1f57;" horiz-adv-x="1105" 
d="M766 1475h-68q-51 180 -243 180q-82 0 -160 -53q-78 -54 -96 -127h-68q-6 122 80 206t233 84q150 0 236 -86q76 -75 86 -204zM516 1352q0 -78 -98 -90q-74 8 -58 8q-26 0 -26 -29q0 -45 53 -108q51 -64 98 -82l-16 -37q-72 26 -137 110q-72 86 -72 158q0 70 35 121
q41 59 111 59q110 0 110 -110zM985 537q6 -41 6 -86q0 -146 -55 -263q-70 -145 -213 -196q-74 -27 -150 -27q-61 0 -112 19q-72 24 -135 114q-62 84 -64 236q-2 119 -4 233q-4 142 -22 185q-17 39 -58 39q-39 0 -69 -31q-11 -10 -56 -101h-41q15 50 31 97q20 63 47 104
q25 37 74 58q45 18 84 14q51 -4 92 -41q39 -35 45 -72q35 -219 35 -500q0 -139 76 -215q53 -61 106 -61q37 0 82 23q72 36 115 159q43 119 43 260q0 72 -13 140q-20 123 -92 198q-35 37 -108 84l10 33q303 -117 346 -403z" />
    <glyph glyph-name="uni1F58" unicode="&#x1f58;" horiz-adv-x="1638" 
d="M262 1448q0 -72 -72 -158q-65 -84 -137 -110l-16 37q47 20 96 79q55 66 55 111q0 29 -26 29q14 0 -60 -9q-96 13 -96 91q0 110 111 110q69 0 110 -59q35 -51 35 -121zM1593 1341q-67 0 -100 -12q-55 -18 -94 -86l-355 -602v-473q0 -82 50 -111q34 -20 118 -20v-37h-526
v37q82 0 119 20q47 31 47 111v446l-393 633q-62 99 -166 94v37h551v-37q-146 2 -146 -59q0 -20 17 -49l289 -490l260 474q24 47 24 69q0 62 -125 55v37h430v-37z" />
    <glyph glyph-name="uni1F59" unicode="&#x1f59;" horiz-adv-x="1638" 
d="M1593 1341q-67 0 -100 -12q-55 -18 -94 -86l-355 -602v-473q0 -82 50 -111q34 -20 118 -20v-37h-526v37q82 0 119 20q47 31 47 111v446l-393 633q-62 99 -166 94v37h551v-37q-146 2 -146 -59q0 -20 17 -49l289 -490l260 474q24 47 24 69q0 62 -125 55v37h430v-37z
M276 1518q0 -78 -96 -91q-74 9 -59 9q-27 0 -27 -29q0 -45 53 -111q54 -59 99 -79l-17 -37q-69 26 -139 110q-70 86 -70 158q0 70 35 121q41 59 111 59q110 0 110 -110z" />
    <glyph glyph-name="uni1F5A" unicode="&#x1f5a;" horiz-adv-x="2174" 
d="M336 1440q0 -72 -72 -158q-65 -84 -137 -111l-16 37q47 21 96 80q53 66 53 111q0 28 -27 28q17 0 -59 -8q-94 13 -94 90q0 111 108 111q70 0 111 -59q37 -54 37 -121zM2116 1341q-68 0 -101 -12q-55 -18 -94 -86l-354 -602v-473q0 -82 49 -111q35 -20 119 -20v-37h-527
v37q82 0 117 20q49 31 49 111v446l-393 633q-61 99 -166 94v37h551v-37q-145 2 -145 -59q0 -20 16 -49l289 -490l260 474q24 47 24 69q0 62 -124 55v37h430v-37zM797 1227q2 -4 2 -10q0 -33 -41 -33q-17 0 -25 10l-268 344q-6 6 -6 16q0 50 47 78q22 17 63 17q35 0 43 -19z
" />
    <glyph glyph-name="uni1F5B" unicode="&#x1f5b;" horiz-adv-x="2174" 
d="M2116 1341q-68 0 -101 -12q-55 -18 -94 -86l-354 -602v-473q0 -82 49 -111q35 -20 119 -20v-37h-527v37q82 0 117 20q49 31 49 111v446l-393 633q-61 99 -166 94v37h551v-37q-145 2 -145 -59q0 -20 16 -49l289 -490l260 474q24 47 24 69q0 62 -124 55v37h430v-37z
M797 1227q2 -4 2 -10q0 -33 -41 -33q-17 0 -25 10l-268 344q-6 6 -6 16q0 50 47 78q22 17 63 17q35 0 43 -19zM299 1503q0 -80 -96 -90q-76 8 -62 8q-24 0 -24 -28q0 -45 53 -111q49 -59 96 -80l-14 -37q-74 29 -139 111q-70 88 -70 158q0 67 35 118q41 62 108 62
q113 0 113 -111z" />
    <glyph glyph-name="uni1F5C" unicode="&#x1f5c;" horiz-adv-x="2136" 
d="M387 1448q0 -72 -72 -158q-65 -84 -137 -110l-16 37q47 20 96 79q55 66 55 111q0 29 -26 29q14 0 -60 -9q-96 13 -96 91q0 110 111 110q69 0 110 -59q35 -51 35 -121zM2064 1341q-67 0 -100 -12q-55 -18 -94 -86l-354 -602v-473q0 -82 49 -111q34 -20 118 -20v-37h-526
v37q82 0 119 20q47 31 47 111v446l-393 633q-62 99 -166 94v37h551v-37q-146 2 -146 -59q0 -20 17 -49l289 -490l260 474q24 47 24 69q0 62 -125 55v37h430v-37zM807 1538l-270 -344q-9 -10 -23 -10q-41 0 -41 33q0 6 2 10l182 403q9 19 43 19q41 0 66 -17q45 -28 45 -78
q0 -10 -4 -16z" />
    <glyph glyph-name="uni1F5D" unicode="&#x1f5d;" horiz-adv-x="2136" 
d="M2064 1341q-67 0 -100 -12q-55 -18 -94 -86l-354 -602v-473q0 -82 49 -111q34 -20 118 -20v-37h-526v37q82 0 119 20q47 31 47 111v446l-393 633q-62 99 -166 94v37h551v-37q-146 2 -146 -59q0 -20 17 -49l289 -490l260 474q24 47 24 69q0 62 -125 55v37h430v-37z
M807 1538l-270 -344q-9 -10 -23 -10q-41 0 -41 33q0 6 2 10l182 403q9 19 43 19q41 0 66 -17q45 -28 45 -78q0 -10 -4 -16zM301 1503q0 -80 -96 -90q-74 8 -60 8q-26 0 -26 -28q0 -45 53 -111q51 -59 98 -80l-16 -37q-72 29 -137 111q-72 88 -72 158q0 67 35 118
q41 62 110 62q111 0 111 -111z" />
    <glyph glyph-name="uni1F5E" unicode="&#x1f5e;" horiz-adv-x="1878" 
d="M452 1290q0 -69 -69 -155q-68 -84 -139 -111l-17 37q47 18 96 80q56 63 56 108q0 31 -27 31q14 0 -59 -8q-97 10 -97 90q0 108 111 108q70 0 111 -59q34 -51 34 -121zM665 1475h-65q-51 180 -246 180q-82 0 -160 -53q-75 -54 -96 -127h-65q-9 122 77 206t236 84
q147 0 233 -86q76 -75 86 -204zM1827 1341q-70 0 -101 -12q-55 -18 -94 -86l-354 -602v-473q0 -82 49 -111q35 -20 119 -20v-37h-527v37q82 0 117 20q49 31 49 111v446l-393 633q-61 99 -166 94v37h551v-37q-145 2 -145 -59q0 -20 16 -49l289 -490l260 474q24 47 24 69
q0 62 -124 55v37h430v-37z" />
    <glyph glyph-name="uni1F5F" unicode="&#x1f5f;" horiz-adv-x="1878" 
d="M665 1475h-65q-51 180 -246 180q-82 0 -160 -53q-75 -54 -96 -127h-65q-9 122 77 206t236 84q147 0 233 -86q76 -75 86 -204zM1827 1341q-70 0 -101 -12q-55 -18 -94 -86l-354 -602v-473q0 -82 49 -111q35 -20 119 -20v-37h-527v37q82 0 117 20q49 31 49 111v446
l-393 633q-61 99 -166 94v37h551v-37q-145 2 -145 -59q0 -20 16 -49l289 -490l260 474q24 47 24 69q0 62 -124 55v37h430v-37zM418 1352q0 -78 -101 -90q-71 8 -55 8q-29 0 -29 -29q0 -45 56 -108q51 -64 98 -82l-19 -37q-69 26 -137 110q-69 86 -69 158q0 70 32 121
q41 59 113 59q111 0 111 -110z" />
    <glyph glyph-name="uni1F60" unicode="&#x1f60;" horiz-adv-x="1310" 
d="M842 1448q0 -72 -72 -158q-68 -84 -137 -110l-17 37q48 20 99 81q53 64 53 109q0 29 -27 29q15 0 -59 -9q-96 13 -96 91q0 110 110 110q70 0 111 -59q35 -51 35 -121zM1262 494q6 -50 6 -91q0 -114 -47 -225q-58 -135 -166 -184q-58 -27 -117 -27q-68 0 -121 33
q-86 49 -143 152q-62 -103 -146 -152q-55 -33 -118 -33q-62 0 -119 27q-111 49 -166 184q-45 111 -45 225q0 41 4 91q25 237 195 368q63 47 147 60q8 0 125 4v-31q-152 -57 -203 -143q-82 -131 -82 -330q0 -86 17 -168q20 -115 75 -166q39 -37 86 -37q21 0 43 6
q78 23 113 111l29 113q-56 157 -56 262q0 49 11 98q22 125 90 125q65 0 88 -125q8 -49 8 -100q0 -111 -53 -260l28 -113q35 -88 113 -111q23 -6 43 -6q45 0 86 37q55 51 76 166q14 84 14 168q0 199 -80 330q-53 86 -202 143v31q116 -4 125 -4q86 -13 147 -60
q170 -131 195 -368z" />
    <glyph glyph-name="uni1F61" unicode="&#x1f61;" horiz-adv-x="1310" 
d="M690 1503q0 -80 -96 -90q-74 8 -59 8q-27 0 -27 -28q0 -45 53 -111q51 -59 98 -80l-16 -37q-72 29 -137 111q-72 88 -72 158q0 67 35 118q41 62 111 62q110 0 110 -111zM1262 494q6 -50 6 -91q0 -114 -47 -225q-58 -135 -166 -184q-58 -27 -117 -27q-68 0 -121 33
q-86 49 -143 152q-62 -103 -146 -152q-55 -33 -118 -33q-62 0 -119 27q-111 49 -166 184q-45 111 -45 225q0 41 4 91q25 237 195 368q63 47 147 60q8 0 125 4v-31q-152 -57 -203 -143q-82 -131 -82 -330q0 -86 17 -168q20 -115 75 -166q39 -37 86 -37q21 0 43 6
q78 23 113 111l29 113q-56 157 -56 262q0 49 11 98q22 125 90 125q65 0 88 -125q8 -49 8 -100q0 -111 -53 -260l28 -113q35 -88 113 -111q23 -6 43 -6q45 0 86 37q55 51 76 166q14 84 14 168q0 199 -80 330q-53 86 -202 143v31q116 -4 125 -4q86 -13 147 -60
q170 -131 195 -368z" />
    <glyph glyph-name="uni1F62" unicode="&#x1f62;" horiz-adv-x="1310" 
d="M1032 1227q2 -4 2 -10q0 -33 -39 -33q-14 0 -22 10l-271 344q-6 6 -6 18q0 48 45 76q25 17 66 17q35 0 43 -19zM614 1434q0 -70 -69 -158q-70 -82 -139 -111l-17 37q45 21 98 82q54 64 54 109q0 28 -27 28q14 0 -59 -8q-97 10 -97 90q0 111 111 111q70 0 111 -62
q34 -51 34 -118zM1262 494q6 -50 6 -91q0 -114 -47 -225q-58 -135 -166 -184q-58 -27 -117 -27q-68 0 -121 33q-86 49 -143 152q-62 -103 -146 -152q-55 -33 -118 -33q-62 0 -119 27q-111 49 -166 184q-45 111 -45 225q0 41 4 91q25 237 195 368q63 47 147 60q8 0 125 4v-31
q-152 -57 -203 -143q-82 -131 -82 -330q0 -86 17 -168q20 -115 75 -166q39 -37 86 -37q21 0 43 6q78 23 113 111l29 113q-56 157 -56 262q0 49 11 98q22 125 90 125q65 0 88 -125q8 -49 8 -100q0 -111 -53 -260l28 -113q35 -88 113 -111q23 -6 43 -6q45 0 86 37
q55 51 76 166q14 84 14 168q0 199 -80 330q-53 86 -202 143v31q116 -4 125 -4q86 -13 147 -60q170 -131 195 -368z" />
    <glyph glyph-name="uni1F63" unicode="&#x1f63;" horiz-adv-x="1310" 
d="M1006 1241q2 -4 2 -10q0 -33 -39 -33q-15 0 -23 10l-270 344q-6 9 -6 19q0 47 45 76q24 16 65 16q37 0 45 -18zM518 1518q0 -78 -96 -91q-74 9 -60 9q-26 0 -26 -29q0 -45 53 -111q51 -59 98 -79l-16 -37q-72 26 -137 110q-72 86 -72 158q0 70 35 121q41 59 111 59
q110 0 110 -110zM1262 494q6 -50 6 -91q0 -114 -47 -225q-58 -135 -166 -184q-58 -27 -117 -27q-68 0 -121 33q-86 49 -143 152q-62 -103 -146 -152q-55 -33 -118 -33q-62 0 -119 27q-111 49 -166 184q-45 111 -45 225q0 41 4 91q25 237 195 368q63 47 147 60q8 0 125 4v-31
q-152 -57 -203 -143q-82 -131 -82 -330q0 -86 17 -168q20 -115 75 -166q39 -37 86 -37q21 0 43 6q78 23 113 111l29 113q-56 157 -56 262q0 49 11 98q22 125 90 125q65 0 88 -125q8 -49 8 -100q0 -111 -53 -260l28 -113q35 -88 113 -111q23 -6 43 -6q45 0 86 37
q55 51 76 166q14 84 14 168q0 199 -80 330q-53 86 -202 143v31q116 -4 125 -4q86 -13 147 -60q170 -131 195 -368z" />
    <glyph glyph-name="uni1F64" unicode="&#x1f64;" horiz-adv-x="1310" 
d="M1163 1552l-270 -344q-8 -10 -22 -10q-39 0 -39 33q0 6 2 10l180 404q8 18 45 18q41 0 65 -16q46 -29 46 -76q0 -10 -7 -19zM752 1448q0 -72 -72 -158q-65 -84 -137 -110l-17 37q48 20 99 81q53 64 53 109q0 29 -27 29q15 0 -59 -9q-96 13 -96 91q0 110 110 110
q70 0 111 -59q35 -51 35 -121zM1342 494q6 -50 6 -91q0 -114 -47 -225q-58 -135 -166 -184q-58 -27 -117 -27q-68 0 -121 33q-86 49 -143 152q-62 -103 -146 -152q-55 -33 -118 -33q-62 0 -119 27q-111 49 -166 184q-45 111 -45 225q0 41 4 91q25 237 195 368q63 47 147 60
q8 0 125 4v-31q-152 -57 -203 -143q-82 -131 -82 -330q0 -86 17 -168q20 -115 75 -166q39 -37 86 -37q21 0 43 6q78 23 113 111l29 113q-56 157 -56 262q0 49 11 98q22 125 90 125q65 0 88 -125q8 -49 8 -100q0 -111 -53 -260l28 -113q35 -88 113 -111q23 -6 43 -6
q45 0 86 37q55 51 76 166q14 84 14 168q0 199 -80 330q-53 86 -202 143v31q116 -4 125 -4q86 -13 147 -60q170 -131 195 -368zM80 0z" />
    <glyph glyph-name="uni1F65" unicode="&#x1f65;" horiz-adv-x="1310" 
d="M1069 1538l-270 -344q-8 -10 -23 -10q-39 0 -39 33q0 6 2 10l181 403q8 19 45 19q41 0 65 -17q45 -28 45 -76q0 -12 -6 -18zM553 1503q0 -80 -96 -90q-74 8 -60 8q-26 0 -26 -28q0 -45 55 -111q49 -59 96 -80l-16 -37q-72 29 -137 111q-72 88 -72 158q0 67 35 118
q41 62 110 62q111 0 111 -111zM1262 494q6 -50 6 -91q0 -114 -47 -225q-58 -135 -166 -184q-58 -27 -117 -27q-68 0 -121 33q-86 49 -143 152q-62 -103 -146 -152q-55 -33 -118 -33q-62 0 -119 27q-111 49 -166 184q-45 111 -45 225q0 41 4 91q25 237 195 368q63 47 147 60
q8 0 125 4v-31q-152 -57 -203 -143q-82 -131 -82 -330q0 -86 17 -168q20 -115 75 -166q39 -37 86 -37q21 0 43 6q78 23 113 111l29 113q-56 157 -56 262q0 49 11 98q22 125 90 125q65 0 88 -125q8 -49 8 -100q0 -111 -53 -260l28 -113q35 -88 113 -111q23 -6 43 -6
q45 0 86 37q55 51 76 166q14 84 14 168q0 199 -80 330q-53 86 -202 143v31q116 -4 125 -4q86 -13 147 -60q170 -131 195 -368z" />
    <glyph glyph-name="uni1F66" unicode="&#x1f66;" horiz-adv-x="1310" 
d="M1001 1485h-67q-53 180 -244 180q-84 0 -160 -53q-77 -53 -96 -127h-67q-7 125 77 207q84 84 234 84q151 0 235 -84q76 -78 88 -207zM856 1290q0 -69 -72 -157q-65 -82 -137 -111l-16 37q47 18 98 82q53 63 53 108q0 29 -26 29q14 0 -60 -8q-96 10 -96 90q0 110 111 110
q69 0 110 -61q35 -49 35 -119zM1262 494q6 -50 6 -91q0 -114 -47 -225q-58 -135 -166 -184q-58 -27 -117 -27q-68 0 -121 33q-86 49 -143 152q-62 -103 -146 -152q-55 -33 -118 -33q-62 0 -119 27q-111 49 -166 184q-45 111 -45 225q0 41 4 91q25 237 195 368q63 47 147 60
q8 0 125 4v-31q-152 -57 -203 -143q-82 -131 -82 -330q0 -86 17 -168q20 -115 75 -166q39 -37 86 -37q21 0 43 6q78 23 113 111l29 113q-56 157 -56 262q0 49 11 98q22 125 90 125q65 0 88 -125q8 -49 8 -100q0 -111 -53 -260l28 -113q35 -88 113 -111q23 -6 43 -6
q45 0 86 37q55 51 76 166q14 84 14 168q0 199 -80 330q-53 86 -202 143v31q116 -4 125 -4q86 -13 147 -60q170 -131 195 -368z" />
    <glyph glyph-name="uni1F67" unicode="&#x1f67;" horiz-adv-x="1310" 
d="M936 1485h-68q-51 180 -243 180q-82 0 -160 -53t-96 -127h-68q-6 125 80 207q86 84 233 84q150 0 236 -84q76 -78 86 -207zM731 1360q0 -80 -96 -90q-74 8 -60 8q-26 0 -26 -29q0 -45 53 -108q51 -64 98 -82l-16 -37q-72 29 -137 111q-72 88 -72 157q0 70 35 119
q41 61 111 61q110 0 110 -110zM1262 494q6 -50 6 -91q0 -114 -47 -225q-58 -135 -166 -184q-58 -27 -117 -27q-68 0 -121 33q-86 49 -143 152q-62 -103 -146 -152q-55 -33 -118 -33q-62 0 -119 27q-111 49 -166 184q-45 111 -45 225q0 41 4 91q25 237 195 368q63 47 147 60
q8 0 125 4v-31q-152 -57 -203 -143q-82 -131 -82 -330q0 -86 17 -168q20 -115 75 -166q39 -37 86 -37q21 0 43 6q78 23 113 111l29 113q-56 157 -56 262q0 49 11 98q22 125 90 125q65 0 88 -125q8 -49 8 -100q0 -111 -53 -260l28 -113q35 -88 113 -111q23 -6 43 -6
q45 0 86 37q55 51 76 166q14 84 14 168q0 199 -80 330q-53 86 -202 143v31q116 -4 125 -4q86 -13 147 -60q170 -131 195 -368z" />
    <glyph glyph-name="uni1F68" unicode="&#x1f68;" horiz-adv-x="1462" 
d="M262 1448q0 -72 -72 -158q-65 -84 -137 -110l-16 37q47 20 98 81q53 64 53 109q0 29 -26 29q14 0 -60 -9q-96 13 -96 91q0 110 111 110q67 0 108 -59q37 -51 37 -121zM1364 0h-547l31 311q82 39 102 60q68 55 115 174q45 114 45 280q0 271 -127 412q-96 106 -270 106
q-172 0 -269 -106q-129 -141 -129 -416q0 -164 45 -276q48 -119 115 -174q23 -21 105 -60l30 -311h-547v332h27q19 -76 41 -101q25 -24 82 -24h293l-4 57q-217 74 -309 223q-93 150 -93 328q0 152 64 277q65 133 211 227q137 90 338 90q200 0 340 -90q67 -45 96 -70
q65 -61 115 -157q63 -125 63 -277q0 -178 -92 -328q-92 -149 -309 -223l-4 -57h292q60 0 82 24q25 25 41 101h27v-332z" />
    <glyph glyph-name="uni1F69" unicode="&#x1f69;" horiz-adv-x="1462" 
d="M180 1503q0 -80 -96 -90q-74 8 -59 8q-27 0 -27 -28q0 -45 53 -111q51 -59 99 -80l-17 -37q-72 29 -137 111q-72 88 -72 158q0 67 35 118q41 62 111 62q110 0 110 -111zM1364 0h-547l31 311q82 39 102 60q68 55 115 174q45 114 45 280q0 271 -127 412q-96 106 -270 106
q-172 0 -269 -106q-129 -141 -129 -416q0 -164 45 -276q48 -119 115 -174q23 -21 105 -60l30 -311h-547v332h27q19 -76 41 -101q25 -24 82 -24h293l-4 57q-217 74 -309 223q-93 150 -93 328q0 152 64 277q65 133 211 227q137 90 338 90q200 0 340 -90q67 -45 96 -70
q65 -61 115 -157q63 -125 63 -277q0 -178 -92 -328q-92 -149 -309 -223l-4 -57h292q60 0 82 24q25 25 41 101h27v-332z" />
    <glyph glyph-name="uni1F6A" unicode="&#x1f6a;" horiz-adv-x="1959" 
d="M1886 0h-547l31 311q80 39 105 60q65 55 112 174q45 114 45 280q0 271 -127 412q-96 106 -270 106q-172 0 -268 -106q-127 -141 -127 -416q0 -164 43 -276q47 -119 114 -174q23 -21 105 -60l31 -311h-547v332h26q19 -76 41 -101q25 -24 82 -24h293l-4 57
q-217 74 -309 223q-92 150 -92 328q0 152 63 277q68 133 211 227q137 90 338 90q203 0 340 -90q70 -45 96 -70q68 -61 115 -157q63 -125 63 -277q0 -178 -92 -328q-92 -149 -309 -223l-4 -57h293q57 0 82 24q22 25 41 101h26v-332zM684 1227q2 -4 2 -10q0 -33 -39 -33
q-14 0 -22 10l-271 344q-6 6 -6 18q0 48 45 76q25 17 66 17q37 0 43 -19zM266 1434q0 -70 -69 -158q-68 -82 -140 -111l-16 37q47 21 96 80q56 66 56 111q0 28 -27 28q14 0 -60 -8q-96 10 -96 90q0 111 111 111q69 0 110 -62q35 -51 35 -118z" />
    <glyph glyph-name="uni1F6B" unicode="&#x1f6b;" horiz-adv-x="2056" 
d="M770 1241q2 -4 2 -10q0 -33 -39 -33q-14 0 -22 10l-271 344q-6 9 -6 19q0 47 45 76q25 16 66 16q37 0 45 -18zM1968 0h-547l31 311q82 39 102 60q68 55 115 174q45 114 45 280q0 271 -127 412q-96 106 -270 106q-172 0 -268 -106q-127 -141 -127 -416q0 -164 43 -276
q47 -119 114 -174q23 -21 105 -60l30 -311h-546v332h26q19 -76 41 -101q25 -24 82 -24h293l-4 57q-217 74 -309 223q-92 150 -92 328q0 152 63 277q68 133 211 227q137 90 338 90q203 0 340 -90q67 -45 96 -70q68 -61 115 -157q63 -125 63 -277q0 -178 -92 -328
q-92 -149 -309 -223l-4 -57h293q59 0 82 24q22 25 41 101h26v-332zM283 1518q0 -78 -97 -91q-73 9 -59 9q-27 0 -27 -29q0 -45 56 -111q51 -59 96 -79l-16 -37q-72 26 -140 110q-69 86 -69 158q0 70 34 121q41 59 111 59q111 0 111 -110z" />
    <glyph glyph-name="uni1F6C" unicode="&#x1f6c;" horiz-adv-x="1777" 
d="M700 1552l-270 -344q-8 -10 -22 -10q-39 0 -39 33q0 6 2 10l180 404q8 18 45 18q41 0 66 -16q45 -29 45 -76q0 -10 -7 -19zM1681 0h-546l30 311q80 39 105 60q65 55 112 174q45 114 45 280q0 271 -127 412q-96 106 -270 106q-172 0 -268 -106q-127 -141 -127 -416
q0 -164 43 -276q47 -119 115 -174q20 -21 104 -60l31 -311h-547v332h27q18 -76 41 -101q22 -24 81 -24h293l-4 57q-217 74 -309 223q-92 150 -92 328q0 152 63 277q68 133 211 227q137 90 338 90q203 0 340 -90q70 -45 96 -70q68 -61 115 -157q64 -125 64 -277
q0 -178 -93 -328q-92 -149 -309 -223l-4 -57h293q57 0 82 24q22 25 41 101h26v-332zM289 1448q0 -72 -72 -158q-65 -84 -137 -110l-17 37q48 20 99 79q53 66 53 111q0 29 -27 29q15 0 -59 -9q-96 13 -96 91q0 110 110 110q70 0 111 -59q35 -51 35 -121z" />
    <glyph glyph-name="uni1F6D" unicode="&#x1f6d;" horiz-adv-x="1847" 
d="M809 1538l-270 -344q-11 -10 -25 -10q-39 0 -39 33q0 6 2 10l180 403q11 19 45 19q41 0 66 -17q45 -28 45 -76q0 -12 -4 -18zM1763 0h-546l30 311q80 39 105 60q65 55 112 174q45 114 45 280q0 271 -127 412q-96 106 -270 106q-172 0 -268 -106q-127 -141 -127 -416
q0 -164 43 -276q47 -119 114 -174q23 -21 105 -60l31 -311h-547v332h26q19 -76 41 -101q25 -24 82 -24h293l-4 57q-217 74 -309 223q-92 150 -92 328q0 152 63 277q68 133 211 227q137 90 338 90q203 0 340 -90q70 -45 96 -70q68 -61 115 -157q63 -125 63 -277
q0 -178 -92 -328q-92 -149 -309 -223l-4 -57h293q57 0 82 24q22 25 41 101h26v-332zM293 1503q0 -80 -96 -90q-74 8 -62 8q-24 0 -24 -28q0 -45 53 -111q51 -59 96 -80l-14 -37q-72 29 -140 111q-69 88 -69 158q0 67 35 118q41 62 108 62q113 0 113 -111z" />
    <glyph glyph-name="uni1F6E" unicode="&#x1f6e;" horiz-adv-x="1841" 
d="M679 1485h-70q-53 180 -244 180q-82 0 -159 -53q-78 -53 -97 -127h-65q-8 125 76 207q86 84 233 84q152 0 238 -84q73 -78 88 -207zM1750 0h-547l31 311q82 39 102 60q68 55 115 174q45 114 45 280q0 271 -127 412q-96 106 -270 106q-172 0 -269 -106
q-129 -141 -129 -416q0 -164 45 -276q47 -119 115 -174q23 -21 104 -60l31 -311h-547v332h27q16 -76 41 -101q25 -24 82 -24h293l-4 57q-217 74 -310 223q-92 150 -92 328q0 152 64 277q65 133 211 227q139 90 338 90q200 0 340 -90q67 -45 96 -70q65 -61 114 -157
q64 -125 64 -277q0 -178 -92 -328q-92 -149 -309 -223l-5 -57h293q60 0 82 24q25 25 41 101h27v-332zM531 1290q0 -69 -69 -157q-68 -82 -140 -111l-16 37q47 18 100 82q54 63 54 108q0 29 -27 29q12 0 -59 -8q-99 10 -99 90q0 110 113 110q70 0 108 -61q35 -49 35 -119z
" />
    <glyph glyph-name="uni1F6F" unicode="&#x1f6f;" horiz-adv-x="1822" 
d="M658 1485h-65q-51 180 -246 180q-82 0 -158 -51q-80 -55 -98 -129h-68q-6 125 78 207q88 84 238 84q149 0 233 -84q76 -78 86 -207zM1748 0h-547l31 311q82 39 102 60q68 55 115 174q45 114 45 280q0 271 -127 412q-96 106 -270 106q-172 0 -269 -106
q-129 -141 -129 -416q0 -164 45 -276q47 -119 115 -174q23 -21 104 -60l31 -311h-547v332h27q16 -76 41 -101q25 -24 82 -24h293l-4 57q-217 74 -310 223q-92 150 -92 328q0 152 64 277q65 133 211 227q139 90 338 90q200 0 340 -90q67 -45 96 -70q65 -61 114 -157
q64 -125 64 -277q0 -178 -92 -328q-92 -149 -309 -223l-5 -57h293q60 0 82 24q25 25 41 101h27v-332zM456 1360q0 -80 -99 -90q-71 8 -57 8q-29 0 -29 -29q0 -45 56 -108q51 -64 98 -82l-19 -37q-69 29 -137 111q-69 88 -69 157q0 70 34 119q41 61 111 61q111 0 111 -110z
" />
    <glyph glyph-name="uni1F70" unicode="&#x1f70;" horiz-adv-x="1208" 
d="M670 1212q2 -6 2 -10q0 -35 -39 -35q-17 0 -25 13l-270 344q-4 8 -4 16q0 47 45 78q24 14 63 14q37 0 45 -16zM1153 254l-4 -109q-4 -96 -70 -149q-30 -25 -59 -25q-33 0 -66 31q-53 49 -118 227q-68 -114 -68 -116q-66 -84 -170 -119q-84 -29 -145 -29q-76 0 -152 35
q-102 45 -158 139q-67 117 -67 279q0 63 10 137q29 205 201 322q75 51 194 51q160 0 250 -150q53 -90 74 -205l121 330h161l-213 -588q21 -120 76 -176q37 -37 70 -37q29 0 55 29q31 31 45 123h33zM754 414q-31 237 -80 315q-58 90 -135 113q-43 12 -74 12q-57 0 -109 -63
q-61 -78 -82 -238q-18 -143 13 -309q18 -103 73 -158q56 -53 115 -57q51 -2 115 51q59 51 108 182z" />
    <glyph glyph-name="uni1F71" unicode="&#x1f71;" horiz-adv-x="1208" 
d="M842 1538l-271 -344q-8 -10 -22 -10q-41 0 -41 33q0 6 2 10l182 403q8 19 43 19q41 0 66 -17q47 -28 47 -78q0 -10 -6 -16zM1153 254l-4 -109q-4 -96 -70 -149q-30 -25 -59 -25q-33 0 -66 31q-53 49 -118 227q-68 -114 -68 -116q-66 -84 -170 -119q-84 -29 -145 -29
q-76 0 -152 35q-102 45 -158 139q-67 117 -67 279q0 63 10 137q29 205 201 322q75 51 194 51q160 0 250 -150q53 -90 74 -205l121 330h161l-213 -588q21 -120 76 -176q37 -37 70 -37q29 0 55 29q31 31 45 123h33zM754 414q-31 237 -80 315q-58 90 -135 113q-43 12 -74 12
q-57 0 -109 -63q-61 -78 -82 -238q-18 -143 13 -309q18 -103 73 -158q56 -53 115 -57q51 -2 115 51q59 51 108 182z" />
    <glyph glyph-name="uni1F72" unicode="&#x1f72;" horiz-adv-x="878" 
d="M512 1212q2 -6 2 -10q0 -33 -39 -33q-14 0 -22 11l-271 344q-6 8 -6 18q0 47 45 76q25 16 68 16q35 0 43 -18zM852 199q0 -60 -41 -113q-51 -68 -154 -96q-90 -27 -176 -27q-155 0 -272 74q-109 67 -109 194q0 33 11 68q36 121 196 168q-80 37 -110 59q-37 29 -56 74
q-14 35 -14 74q0 98 96 174q105 82 283 82q96 0 143 -19q43 -16 64 -28q39 -23 59 -56q23 -30 23 -61q0 -53 -47 -82q-15 -8 -37 -8q-78 0 -103 96q-22 92 -135 92q-37 0 -74 -16q-102 -47 -102 -178q0 -23 2 -35q27 -131 162 -131q14 0 33 2l100 10q80 8 80 -41
q0 -24 -37 -43q-43 -20 -123 -8q-29 4 -51 4q-123 0 -158 -111q-8 -30 -8 -69q0 -68 27 -105q71 -96 239 -96q64 0 109 14q94 29 133 150z" />
    <glyph glyph-name="uni1F73" unicode="&#x1f73;" horiz-adv-x="878" 
d="M698 1524l-270 -344q-8 -11 -22 -11q-39 0 -39 33q0 4 2 10l182 404q8 16 45 16q39 0 63 -14q46 -29 46 -76q0 -10 -7 -18zM852 199q0 -60 -41 -113q-51 -68 -154 -96q-90 -27 -176 -27q-155 0 -272 74q-109 67 -109 194q0 33 11 68q36 121 196 168q-80 37 -110 59
q-37 29 -56 74q-14 35 -14 74q0 98 96 174q105 82 283 82q96 0 143 -19q43 -16 64 -28q39 -23 59 -56q23 -30 23 -61q0 -53 -47 -82q-15 -8 -37 -8q-78 0 -103 96q-22 92 -135 92q-37 0 -74 -16q-102 -47 -102 -178q0 -23 2 -35q27 -131 162 -131q14 0 33 2l100 10
q80 8 80 -41q0 -24 -37 -43q-43 -20 -123 -8q-29 4 -51 4q-123 0 -158 -111q-8 -30 -8 -69q0 -68 27 -105q71 -96 239 -96q64 0 109 14q94 29 133 150z" />
    <glyph glyph-name="uni1F74" unicode="&#x1f74;" horiz-adv-x="1103" 
d="M547 1241q2 -4 2 -10q0 -35 -39 -35q-16 0 -25 12l-270 344q-4 9 -4 17q0 49 45 78q25 16 66 16q34 0 43 -18zM977 -375h-166q-10 43 -25 187l-24 829q-2 107 -53 147q-62 50 -140 35q-69 -12 -125 -65q-30 -39 -63 -80v-678h-156v637q0 119 -41 170q-24 33 -59 33
q-29 0 -49 -25q-21 -22 -31 -70q-6 -36 -12 -77h-33q4 45 6 88q10 45 43 98q53 84 162 84q45 0 86 -23q43 -24 61 -73q2 -4 25 -86q47 69 82 102q65 68 141 88q29 6 64 6q88 0 139 -37q115 -86 117 -229l20 -922q10 -47 31 -139z" />
    <glyph glyph-name="uni1F75" unicode="&#x1f75;" horiz-adv-x="1103" 
d="M721 1524l-270 -344q-9 -13 -25 -13q-39 0 -39 35q0 4 2 10l182 404q9 16 43 16q41 0 66 -14q45 -31 45 -78q0 -8 -4 -16zM977 -375h-166q-10 43 -25 187l-24 829q-2 107 -53 147q-62 50 -140 35q-69 -12 -125 -65q-30 -39 -63 -80v-678h-156v637q0 119 -41 170
q-24 33 -59 33q-29 0 -49 -25q-21 -22 -31 -70q-6 -36 -12 -77h-33q4 45 6 88q10 45 43 98q53 84 162 84q45 0 86 -23q43 -24 61 -73q2 -4 25 -86q47 69 82 102q65 68 141 88q29 6 64 6q88 0 139 -37q115 -86 117 -229l20 -922q10 -47 31 -139z" />
    <glyph glyph-name="uni1F76" unicode="&#x1f76;" 
d="M379 1198q2 -4 2 -10q0 -33 -39 -33q-14 0 -23 10l-270 344q-6 9 -6 19q0 47 45 76q25 16 68 16q34 0 43 -18zM639 186q-41 -229 -219 -217q-82 4 -133 70q-41 51 -41 100v441q0 157 -60 198q-24 19 -104 19v37q117 24 321 98v-682q0 -107 33 -150t62 -43q12 0 32 6
q39 13 58 60l16 63h35z" />
    <glyph glyph-name="uni1F77" unicode="&#x1f77;" 
d="M553 1524l-270 -344q-9 -11 -23 -11q-39 0 -39 33q0 4 2 10l180 404q9 18 43 18q43 0 68 -16q45 -29 45 -76q0 -10 -6 -18zM639 186q-41 -229 -219 -217q-82 4 -133 70q-41 51 -41 100v441q0 157 -60 198q-24 19 -104 19v37q117 24 321 98v-682q0 -107 33 -150t62 -43
q12 0 32 6q39 13 58 60l16 63h35z" />
    <glyph glyph-name="uni1F78" unicode="&#x1f78;" horiz-adv-x="1005" 
d="M532 1212q3 -6 3 -10q0 -35 -39 -35q-17 0 -25 13l-270 344q-4 8 -4 16q0 47 45 78q24 14 63 14q37 0 45 -16zM768 72q-111 -107 -272 -107q-105 0 -203 49q-227 156 -227 432q0 195 120 340q117 140 299 140q129 0 246 -80q199 -135 199 -391q0 -230 -162 -383zM690 139
q62 94 62 287q0 227 -101 350q-78 94 -176 94q-61 0 -115 -36q-55 -39 -77 -95q-41 -96 -41 -229q0 -195 80 -338q73 -131 204 -131q101 0 164 98z" />
    <glyph glyph-name="uni1F79" unicode="&#x1f79;" horiz-adv-x="1005" 
d="M713 1524l-271 -344q-8 -11 -22 -11q-39 0 -39 33q0 4 2 10l180 404q8 18 43 18q43 0 68 -16q45 -29 45 -76q0 -10 -6 -18zM768 72q-111 -107 -272 -107q-105 0 -203 49q-227 156 -227 432q0 195 120 340q117 140 299 140q129 0 246 -80q199 -135 199 -391
q0 -230 -162 -383zM690 139q62 94 62 287q0 227 -101 350q-78 94 -176 94q-61 0 -115 -36q-55 -39 -77 -95q-41 -96 -41 -229q0 -195 80 -338q73 -131 204 -131q101 0 164 98z" />
    <glyph glyph-name="uni1F7A" unicode="&#x1f7a;" horiz-adv-x="1105" 
d="M539 1227q2 -4 2 -10q0 -33 -39 -33q-15 0 -23 10l-270 344q-6 6 -6 18q0 48 45 76q24 17 65 17q37 0 45 -19zM985 537q6 -41 6 -86q0 -146 -55 -263q-70 -145 -213 -196q-74 -27 -150 -27q-61 0 -112 19q-72 24 -135 114q-62 84 -64 236q-2 119 -4 233q-4 142 -22 185
q-17 39 -58 39q-39 0 -69 -31q-11 -10 -56 -101h-41q15 50 31 97q20 63 47 104q25 37 74 58q45 18 84 14q51 -4 92 -41q39 -35 45 -72q35 -219 35 -500q0 -139 76 -215q53 -61 106 -61q37 0 82 23q72 36 115 159q43 119 43 260q0 72 -13 140q-20 123 -92 198q-35 37 -108 84
l10 33q303 -117 346 -403z" />
    <glyph glyph-name="uni1F7B" unicode="&#x1f7b;" horiz-adv-x="1105" 
d="M721 1524l-270 -344q-9 -13 -25 -13q-39 0 -39 35q0 4 2 10l182 404q9 16 43 16q41 0 66 -14q45 -31 45 -78q0 -8 -4 -16zM985 537q6 -41 6 -86q0 -146 -55 -263q-70 -145 -213 -196q-74 -27 -150 -27q-61 0 -112 19q-72 24 -135 114q-62 84 -64 236q-2 119 -4 233
q-4 142 -22 185q-17 39 -58 39q-39 0 -69 -31q-11 -10 -56 -101h-41q15 50 31 97q20 63 47 104q25 37 74 58q45 18 84 14q51 -4 92 -41q39 -35 45 -72q35 -219 35 -500q0 -139 76 -215q53 -61 106 -61q37 0 82 23q72 36 115 159q43 119 43 260q0 72 -13 140q-20 123 -92 198
q-35 37 -108 84l10 33q303 -117 346 -403z" />
    <glyph glyph-name="uni1F7C" unicode="&#x1f7c;" horiz-adv-x="1310" 
d="M741 1212q2 -6 2 -10q0 -35 -41 -35q-14 0 -22 13l-270 344q-7 8 -7 16q0 47 48 78q24 14 63 14q37 0 45 -16zM1262 494q6 -50 6 -91q0 -114 -47 -225q-58 -135 -166 -184q-58 -27 -117 -27q-68 0 -121 33q-86 49 -143 152q-62 -103 -146 -152q-55 -33 -118 -33
q-62 0 -119 27q-111 49 -166 184q-45 111 -45 225q0 41 4 91q25 237 195 368q63 47 147 60q8 0 125 4v-31q-152 -57 -203 -143q-82 -131 -82 -330q0 -86 17 -168q20 -115 75 -166q39 -37 86 -37q21 0 43 6q78 23 113 111l29 113q-56 157 -56 262q0 49 11 98q22 125 90 125
q65 0 88 -125q8 -49 8 -100q0 -111 -53 -260l28 -113q35 -88 113 -111q23 -6 43 -6q45 0 86 37q55 51 76 166q14 84 14 168q0 199 -80 330q-53 86 -202 143v31q116 -4 125 -4q86 -13 147 -60q170 -131 195 -368z" />
    <glyph glyph-name="uni1F7D" unicode="&#x1f7d;" horiz-adv-x="1310" 
d="M920 1524l-271 -344q-8 -11 -22 -11q-39 0 -39 33q0 4 2 10l182 404q8 16 43 16q41 0 66 -14q45 -29 45 -76q0 -10 -6 -18zM1262 494q6 -50 6 -91q0 -114 -47 -225q-58 -135 -166 -184q-58 -27 -117 -27q-68 0 -121 33q-86 49 -143 152q-62 -103 -146 -152
q-55 -33 -118 -33q-62 0 -119 27q-111 49 -166 184q-45 111 -45 225q0 41 4 91q25 237 195 368q63 47 147 60q8 0 125 4v-31q-152 -57 -203 -143q-82 -131 -82 -330q0 -86 17 -168q20 -115 75 -166q39 -37 86 -37q21 0 43 6q78 23 113 111l29 113q-56 157 -56 262
q0 49 11 98q22 125 90 125q65 0 88 -125q8 -49 8 -100q0 -111 -53 -260l28 -113q35 -88 113 -111q23 -6 43 -6q45 0 86 37q55 51 76 166q14 84 14 168q0 199 -80 330q-53 86 -202 143v31q116 -4 125 -4q86 -13 147 -60q170 -131 195 -368z" />
    <glyph glyph-name="uni1F80" unicode="&#x1f80;" horiz-adv-x="1208" 
d="M758 1448q0 -72 -72 -158q-65 -84 -137 -110l-17 37q48 20 99 81q53 64 53 109q0 29 -27 29q15 0 -59 -9q-96 13 -96 91q0 110 110 110q70 0 111 -59q35 -51 35 -121zM1153 254l-4 -109q-4 -96 -70 -149q-30 -25 -59 -25q-33 0 -66 31q-53 49 -118 227q-68 -114 -68 -116
q-66 -84 -170 -119q-84 -29 -145 -29q-76 0 -152 35q-102 45 -158 139q-67 117 -67 279q0 63 10 137q29 205 201 322q75 51 194 51q160 0 250 -150q53 -90 74 -205l121 330h161l-213 -588q21 -120 76 -176q37 -37 70 -37q29 0 55 29q31 31 45 123h33zM741 -348l-22 -162
q-64 -41 -121 -41q-41 0 -74 21q-67 45 -67 135q0 35 10 80q20 88 63 182h91q-29 -49 -54 -141q-10 -33 -10 -60q0 -82 76 -72q39 -4 65 17q7 4 43 41zM754 414q-31 237 -80 315q-58 90 -135 113q-43 12 -74 12q-57 0 -109 -63q-61 -78 -82 -238q-18 -143 13 -309
q18 -103 73 -158q56 -53 115 -57q51 -2 115 51q59 51 108 182z" />
    <glyph glyph-name="uni1F81" unicode="&#x1f81;" horiz-adv-x="1208" 
d="M629 1518q0 -78 -97 -91q-73 9 -59 9q-27 0 -27 -29q0 -45 56 -111q51 -59 96 -79l-16 -37q-70 26 -140 110q-69 86 -69 158q0 70 35 121q41 59 110 59q111 0 111 -110zM1153 254l-4 -109q-4 -96 -70 -149q-30 -25 -59 -25q-33 0 -66 31q-53 49 -118 227
q-68 -114 -68 -116q-66 -84 -170 -119q-84 -29 -145 -29q-76 0 -152 35q-102 45 -158 139q-67 117 -67 279q0 63 10 137q29 205 201 322q75 51 194 51q160 0 250 -150q53 -90 74 -205l121 330h161l-213 -588q21 -120 76 -176q37 -37 70 -37q29 0 55 29q31 31 45 123h33z
M741 -348l-22 -162q-64 -41 -121 -41q-41 0 -74 21q-67 45 -67 135q0 35 10 80q20 88 63 182h91q-29 -49 -54 -141q-10 -33 -10 -60q0 -82 76 -72q39 -4 65 17q7 4 43 41zM754 414q-31 237 -80 315q-58 90 -135 113q-43 12 -74 12q-57 0 -109 -63q-61 -78 -82 -238
q-18 -143 13 -309q18 -103 73 -158q56 -53 115 -57q51 -2 115 51q59 51 108 182z" />
    <glyph glyph-name="uni1F82" unicode="&#x1f82;" horiz-adv-x="1208" 
d="M965 1227q2 -4 2 -10q0 -33 -39 -33q-17 0 -25 10l-270 344q-4 6 -4 16q0 50 45 78q24 17 63 17q37 0 45 -19zM518 1434q0 -70 -72 -158q-65 -82 -137 -111l-16 37q47 21 98 82q53 64 53 109q0 28 -26 28q14 0 -60 -8q-96 10 -96 90q0 111 111 111q69 0 110 -62
q35 -51 35 -118zM1153 254l-4 -109q-4 -96 -70 -149q-30 -25 -59 -25q-33 0 -66 31q-53 49 -118 227q-68 -114 -68 -116q-66 -84 -170 -119q-84 -29 -145 -29q-76 0 -152 35q-102 45 -158 139q-67 117 -67 279q0 63 10 137q29 205 201 322q75 51 194 51q160 0 250 -150
q53 -90 74 -205l121 330h161l-213 -588q21 -120 76 -176q37 -37 70 -37q29 0 55 29q31 31 45 123h33zM741 -348l-22 -162q-64 -41 -121 -41q-41 0 -74 21q-67 45 -67 135q0 35 10 80q20 88 63 182h91q-29 -49 -54 -141q-10 -33 -10 -60q0 -82 76 -72q39 -4 65 17q7 4 43 41z
M754 414q-31 237 -80 315q-58 90 -135 113q-43 12 -74 12q-57 0 -109 -63q-61 -78 -82 -238q-18 -143 13 -309q18 -103 73 -158q56 -53 115 -57q51 -2 115 51q59 51 108 182z" />
    <glyph glyph-name="uni1F83" unicode="&#x1f83;" horiz-adv-x="1208" 
d="M948 1255q2 -6 2 -10q0 -33 -39 -33q-14 0 -22 11l-271 344q-6 8 -6 18q0 47 45 76q25 14 66 14q35 0 43 -16zM410 1532q0 -80 -97 -90q-73 8 -59 8q-27 0 -27 -29q0 -45 56 -108q51 -64 96 -82l-17 -37q-69 29 -139 111q-69 88 -69 157q0 70 34 119q41 61 111 61
q111 0 111 -110zM1153 254l-4 -109q-4 -96 -70 -149q-30 -25 -59 -25q-33 0 -66 31q-53 49 -118 227q-68 -114 -68 -116q-66 -84 -170 -119q-84 -29 -145 -29q-76 0 -152 35q-102 45 -158 139q-67 117 -67 279q0 63 10 137q29 205 201 322q75 51 194 51q160 0 250 -150
q53 -90 74 -205l121 330h161l-213 -588q21 -120 76 -176q37 -37 70 -37q29 0 55 29q31 31 45 123h33zM741 -348l-22 -162q-64 -41 -121 -41q-41 0 -74 21q-67 45 -67 135q0 35 10 80q20 88 63 182h91q-29 -49 -54 -141q-10 -33 -10 -60q0 -82 76 -72q39 -4 65 17q7 4 43 41z
M754 414q-31 237 -80 315q-58 90 -135 113q-43 12 -74 12q-57 0 -109 -63q-61 -78 -82 -238q-18 -143 13 -309q18 -103 73 -158q56 -53 115 -57q51 -2 115 51q59 51 108 182z" />
    <glyph glyph-name="uni1F84" unicode="&#x1f84;" horiz-adv-x="1208" 
d="M961 1552l-271 -344q-8 -10 -22 -10q-39 0 -39 33q0 6 2 10l180 404q8 18 43 18q43 0 68 -16q45 -29 45 -76q0 -10 -6 -19zM549 1448q0 -72 -72 -158q-65 -84 -137 -110l-16 37q47 20 98 81q53 64 53 109q0 29 -26 29q14 0 -60 -9q-96 13 -96 91q0 110 110 110
q70 0 111 -59q35 -51 35 -121zM1153 254l-4 -109q-4 -96 -70 -149q-30 -25 -59 -25q-33 0 -66 31q-53 49 -118 227q-68 -114 -68 -116q-66 -84 -170 -119q-84 -29 -145 -29q-76 0 -152 35q-102 45 -158 139q-67 117 -67 279q0 63 10 137q29 205 201 322q75 51 194 51
q160 0 250 -150q53 -90 74 -205l121 330h161l-213 -588q21 -120 76 -176q37 -37 70 -37q29 0 55 29q31 31 45 123h33zM741 -348l-22 -162q-64 -41 -121 -41q-41 0 -74 21q-67 45 -67 135q0 35 10 80q20 88 63 182h91q-29 -49 -54 -141q-10 -33 -10 -60q0 -82 76 -72
q39 -4 65 17q7 4 43 41zM754 414q-31 237 -80 315q-58 90 -135 113q-43 12 -74 12q-57 0 -109 -63q-61 -78 -82 -238q-18 -143 13 -309q18 -103 73 -158q56 -53 115 -57q51 -2 115 51q59 51 108 182z" />
    <glyph glyph-name="uni1F85" unicode="&#x1f85;" horiz-adv-x="1208" 
d="M954 1552l-270 -344q-8 -10 -22 -10q-39 0 -39 33q0 6 2 10l182 404q8 18 45 18q39 0 63 -16q46 -29 46 -76q0 -10 -7 -19zM424 1518q0 -78 -96 -91q-74 9 -60 9q-26 0 -26 -29q0 -45 55 -111q49 -59 96 -79l-16 -37q-72 26 -137 110q-72 86 -72 158q0 70 35 121
q41 59 110 59q111 0 111 -110zM1153 254l-4 -109q-4 -96 -70 -149q-30 -25 -59 -25q-33 0 -66 31q-53 49 -118 227q-68 -114 -68 -116q-66 -84 -170 -119q-84 -29 -145 -29q-76 0 -152 35q-102 45 -158 139q-67 117 -67 279q0 63 10 137q29 205 201 322q75 51 194 51
q160 0 250 -150q53 -90 74 -205l121 330h161l-213 -588q21 -120 76 -176q37 -37 70 -37q29 0 55 29q31 31 45 123h33zM741 -348l-22 -162q-64 -41 -121 -41q-41 0 -74 21q-67 45 -67 135q0 35 10 80q20 88 63 182h91q-29 -49 -54 -141q-10 -33 -10 -60q0 -82 76 -72
q39 -4 65 17q7 4 43 41zM754 414q-31 237 -80 315q-58 90 -135 113q-43 12 -74 12q-57 0 -109 -63q-61 -78 -82 -238q-18 -143 13 -309q18 -103 73 -158q56 -53 115 -57q51 -2 115 51q59 51 108 182z" />
    <glyph glyph-name="uni1F86" unicode="&#x1f86;" horiz-adv-x="1208" 
d="M920 1475h-68q-53 180 -244 180q-84 0 -159 -53q-78 -54 -97 -127h-67q-6 122 77 206q84 84 234 84q152 0 238 -86q73 -75 86 -204zM752 1282q0 -72 -70 -158q-70 -84 -139 -110l-17 37q45 18 99 82q53 63 53 108q0 29 -27 29q15 0 -59 -8q-96 12 -96 90q0 110 110 110
q70 0 111 -59q35 -51 35 -121zM1153 254l-4 -109q-4 -96 -70 -149q-30 -25 -59 -25q-33 0 -66 31q-53 49 -118 227q-68 -114 -68 -116q-66 -84 -170 -119q-84 -29 -145 -29q-76 0 -152 35q-102 45 -158 139q-67 117 -67 279q0 63 10 137q29 205 201 322q75 51 194 51
q160 0 250 -150q53 -90 74 -205l121 330h161l-213 -588q21 -120 76 -176q37 -37 70 -37q29 0 55 29q31 31 45 123h33zM741 -348l-22 -162q-64 -41 -121 -41q-41 0 -74 21q-67 45 -67 135q0 35 10 80q20 88 63 182h91q-29 -49 -54 -141q-10 -33 -10 -60q0 -82 76 -72
q39 -4 65 17q7 4 43 41zM754 414q-31 237 -80 315q-58 90 -135 113q-43 12 -74 12q-57 0 -109 -63q-61 -78 -82 -238q-18 -143 13 -309q18 -103 73 -158q56 -53 115 -57q51 -2 115 51q59 51 108 182z" />
    <glyph glyph-name="uni1F87" unicode="&#x1f87;" horiz-adv-x="1208" 
d="M889 1475h-68q-51 180 -243 180q-82 0 -160 -53q-78 -54 -96 -127h-68q-6 122 80 206t233 84q150 0 236 -86q76 -75 86 -204zM629 1352q0 -78 -97 -90q-73 8 -59 8q-27 0 -27 -29q0 -45 56 -108q51 -64 96 -82l-16 -37q-70 26 -140 110q-69 86 -69 158q0 70 35 121
q41 59 110 59q111 0 111 -110zM1153 254l-4 -109q-4 -96 -70 -149q-30 -25 -59 -25q-33 0 -66 31q-53 49 -118 227q-68 -114 -68 -116q-66 -84 -170 -119q-84 -29 -145 -29q-76 0 -152 35q-102 45 -158 139q-67 117 -67 279q0 63 10 137q29 205 201 322q75 51 194 51
q160 0 250 -150q53 -90 74 -205l121 330h161l-213 -588q21 -120 76 -176q37 -37 70 -37q29 0 55 29q31 31 45 123h33zM741 -348l-22 -162q-64 -41 -121 -41q-41 0 -74 21q-67 45 -67 135q0 35 10 80q20 88 63 182h91q-29 -49 -54 -141q-10 -33 -10 -60q0 -82 76 -72
q39 -4 65 17q7 4 43 41zM754 414q-31 237 -80 315q-58 90 -135 113q-43 12 -74 12q-57 0 -109 -63q-61 -78 -82 -238q-18 -143 13 -309q18 -103 73 -158q56 -53 115 -57q51 -2 115 51q59 51 108 182z" />
    <glyph glyph-name="uni1F88" unicode="&#x1f88;" horiz-adv-x="1665" 
d="M459 1448q0 -72 -72 -158q-68 -84 -137 -110l-19 37q48 20 101 81q53 64 53 109q0 29 -29 29q17 0 -57 -9q-96 13 -96 91q0 110 108 110q72 0 113 -59q35 -51 35 -121zM1640 203l-22 -162q-64 -41 -121 -41q-41 0 -74 20q-67 43 -67 136q0 32 10 80q23 88 64 182h90
q-27 -49 -54 -142q-8 -32 -8 -59q0 -82 74 -72q39 -4 65 17q7 4 43 41zM1268 0h-463v37q121 0 121 82q0 22 -13 57l-90 270h-481l-88 -270q-10 -33 -10 -57q0 -82 118 -82v-37h-354v37q72 0 105 45q10 12 37 86l462 1210h47l465 -1210q27 -72 39 -86q33 -45 105 -45v-37z
M797 532l-209 549l-209 -549h418z" />
    <glyph glyph-name="uni1F89" unicode="&#x1f89;" horiz-adv-x="1665" 
d="M438 1518q0 -78 -96 -91q-74 9 -59 9q-27 0 -27 -29q0 -45 53 -111q51 -59 99 -79l-17 -37q-69 26 -137 110q-72 86 -72 158q0 70 35 121q41 59 111 59q110 0 110 -110zM1640 203l-22 -162q-64 -41 -121 -41q-41 0 -74 20q-67 43 -67 136q0 32 10 80q23 88 64 182h90
q-27 -49 -54 -142q-8 -32 -8 -59q0 -82 74 -72q39 -4 65 17q7 4 43 41zM1268 0h-463v37q121 0 121 82q0 22 -13 57l-90 270h-481l-88 -270q-10 -33 -10 -57q0 -82 118 -82v-37h-354v37q72 0 105 45q10 12 37 86l462 1210h47l465 -1210q27 -72 39 -86q33 -45 105 -45v-37z
M797 532l-209 549l-209 -549h418z" />
    <glyph glyph-name="uni1F8A" unicode="&#x1f8a;" horiz-adv-x="1935" 
d="M1896 203l-22 -162q-64 -41 -121 -41q-41 0 -74 20q-67 43 -67 136q0 32 10 80q23 88 64 182h90q-27 -49 -54 -142q-8 -32 -8 -59q0 -82 74 -72q39 -4 65 17q7 4 43 41zM711 1227q2 -4 2 -10q0 -33 -39 -33q-17 0 -25 10l-270 344q-4 6 -4 16q0 50 45 78q24 17 63 17
q37 0 45 -19zM1524 0h-463v37q121 0 121 82q0 22 -13 57l-90 270h-481l-88 -270q-10 -33 -10 -57q0 -82 118 -82v-37h-354v37q72 0 105 45q10 12 37 86l462 1210h47l465 -1210q29 -72 39 -86q33 -45 105 -45v-37zM264 1434q0 -70 -69 -158q-68 -82 -140 -111l-16 37
q47 21 98 82q53 64 53 109q0 28 -26 28q14 0 -60 -8q-96 10 -96 90q0 111 111 111q69 0 110 -62q35 -51 35 -118zM1053 532l-209 549l-209 -549h418z" />
    <glyph glyph-name="uni1F8B" unicode="&#x1f8b;" horiz-adv-x="1998" 
d="M797 1255q2 -6 2 -10q0 -33 -39 -33q-17 0 -25 11l-268 344q-6 8 -6 18q0 47 45 76q22 14 63 14q35 0 43 -16zM1958 203l-23 -162q-61 -41 -118 -41q-43 0 -76 20q-68 43 -68 136q0 32 10 80q23 88 64 182h90q-29 -49 -53 -142q-8 -32 -8 -59q0 -82 73 -72q39 -4 68 17z
M1585 0h-463v37q119 0 119 82q0 22 -10 57l-90 270h-482l-88 -270q-12 -33 -12 -57q0 -82 121 -82v-37h-354v37q69 0 102 45q10 12 39 86l463 1210h47l465 -1210q26 -72 39 -86q32 -45 104 -45v-37zM256 1532q0 -80 -94 -90q-76 8 -62 8q-24 0 -24 -29q0 -45 53 -108
q51 -64 96 -82l-14 -37q-72 29 -139 111q-72 88 -72 157q0 70 37 119q41 61 108 61q111 0 111 -110zM1114 532l-209 549l-209 -549h418z" />
    <glyph glyph-name="uni1F8C" unicode="&#x1f8c;" horiz-adv-x="1665" 
d="M641 1552l-270 -344q-11 -10 -25 -10q-39 0 -39 33q0 6 4 10l181 404q8 18 45 18q41 0 65 -16q43 -29 43 -76q0 -10 -4 -19zM1640 203l-22 -162q-64 -41 -121 -41q-41 0 -74 20q-67 43 -67 136q0 32 10 80q23 88 64 182h90q-27 -49 -54 -142q-8 -32 -8 -59q0 -82 74 -72
q39 -4 65 17q7 4 43 41zM229 1448q0 -72 -69 -158q-70 -84 -140 -110l-16 37q45 20 98 81q54 64 54 109q0 29 -27 29q14 0 -59 -9q-99 13 -99 91q0 110 113 110q70 0 111 -59q34 -51 34 -121zM1268 0h-463v37q121 0 121 82q0 22 -13 57l-90 270h-481l-88 -270
q-10 -33 -10 -57q0 -82 118 -82v-37h-354v37q72 0 105 45q10 12 37 86l462 1210h47l465 -1210q27 -72 39 -86q33 -45 105 -45v-37zM797 532l-209 549l-209 -549h418z" />
    <glyph glyph-name="uni1F8D" unicode="&#x1f8d;" horiz-adv-x="1665" 
d="M653 1552l-268 -344q-8 -10 -25 -10q-36 0 -36 33q0 6 2 10l182 404q6 18 43 18q41 0 63 -16q45 -29 45 -76q0 -10 -6 -19zM1640 203l-22 -162q-64 -41 -121 -41q-41 0 -74 20q-67 43 -67 136q0 32 10 80q23 88 64 182h90q-27 -49 -54 -142q-8 -32 -8 -59q0 -82 74 -72
q39 -4 65 17q7 4 43 41zM125 1518q0 -78 -96 -91q-74 9 -62 9q-24 0 -24 -29q0 -45 53 -111q51 -59 96 -79l-14 -37q-72 26 -139 110q-70 86 -70 158q0 70 35 121q41 59 108 59q113 0 113 -110zM1268 0h-463v37q121 0 121 82q0 22 -13 57l-90 270h-481l-88 -270
q-10 -33 -10 -57q0 -82 118 -82v-37h-354v37q72 0 105 45q10 12 37 86l462 1210h47l465 -1210q27 -72 39 -86q33 -45 105 -45v-37zM797 532l-209 549l-209 -549h418z" />
    <glyph glyph-name="uni1F8E" unicode="&#x1f8e;" horiz-adv-x="1816" 
d="M654 1475h-67q-54 180 -244 180q-82 0 -160 -51q-78 -56 -96 -129h-68q-6 122 76 204q88 86 236 86q151 0 235 -86q78 -75 88 -204zM1758 203l-22 -162q-64 -41 -119 -41q-43 0 -76 20q-68 43 -68 136q0 32 11 80q20 88 63 182h90q-26 -49 -53 -142q-8 -32 -8 -59
q0 -82 74 -72q38 -4 65 17q6 4 43 41zM486 1282q0 -168 -137 -221l-88 -10q45 18 98 82q54 63 54 108q0 29 -27 29q14 0 -59 -8q-97 12 -97 90q0 110 111 110q70 0 110 -59q35 -51 35 -121zM1385 0h-462v37q118 0 118 82q0 22 -10 57l-90 270h-481l-88 -270q-13 -33 -13 -57
q0 -82 121 -82v-37h-354v37q69 0 102 45q10 12 39 86l463 1210h47l465 -1210q29 -72 39 -86q35 -45 104 -45v-37zM914 532l-209 549l-208 -549h417z" />
    <glyph glyph-name="uni1F8F" unicode="&#x1f8f;" horiz-adv-x="1822" 
d="M665 1475h-65q-51 180 -246 180q-82 0 -158 -51q-77 -56 -98 -129h-65q-9 122 75 204q88 86 238 86q149 0 233 -86q76 -75 86 -204zM1782 203l-23 -162q-61 -41 -121 -41q-41 0 -74 20q-67 43 -67 136q0 32 10 80q23 88 64 182h90q-29 -49 -54 -142q-8 -32 -8 -59
q0 -82 74 -72q39 -4 68 17zM405 1352q0 -78 -96 -90q-74 8 -57 8q-29 0 -29 -29q0 -45 55 -108q52 -64 99 -82l-19 -37q-69 26 -137 110q-72 86 -72 158q0 70 37 121q41 59 111 59q108 0 108 -110zM1409 0h-463v37q121 0 121 82q0 22 -12 57l-91 270h-481l-88 -270
q-10 -33 -10 -57q0 -82 119 -82v-37h-355v37q72 0 105 45q10 12 37 86l462 1210h48l464 -1210q27 -72 39 -86q33 -45 105 -45v-37zM938 532l-209 549l-209 -549h418z" />
    <glyph glyph-name="uni1F90" unicode="&#x1f90;" horiz-adv-x="1103" 
d="M637 1448q0 -72 -72 -158q-65 -84 -137 -110l-16 37q47 20 98 81q53 64 53 109q0 29 -26 29q14 0 -60 -9q-96 13 -96 91q0 110 111 110q69 0 110 -59q35 -51 35 -121zM977 -375h-166q-10 43 -25 187l-24 829q-2 107 -53 147q-62 50 -140 35q-69 -12 -125 -65
q-30 -39 -63 -80v-678h-156v637q0 119 -41 170q-24 33 -59 33q-29 0 -49 -25q-21 -22 -31 -70q-6 -36 -12 -77h-33q4 45 6 88q10 45 43 98q53 84 162 84q45 0 86 -23q43 -24 61 -73q2 -4 25 -86q47 69 82 102q65 68 141 88q29 6 64 6q88 0 139 -37q115 -86 117 -229l20 -922
q10 -47 31 -139zM526 -328l-22 -161q-64 -41 -121 -41q-41 0 -74 20q-67 43 -67 131q0 35 12 84q25 96 61 182h91q-29 -49 -54 -141q-10 -33 -10 -57q0 -84 78 -74q37 -2 63 16q6 4 43 41z" />
    <glyph glyph-name="uni1F91" unicode="&#x1f91;" horiz-adv-x="1103" 
d="M494 1518q0 -78 -97 -91q-73 9 -59 9q-27 0 -27 -29q0 -45 56 -111q51 -59 96 -79l-17 -37q-69 26 -139 110q-69 86 -69 158q0 70 34 121q41 59 111 59q111 0 111 -110zM977 -375h-166q-10 43 -25 187l-24 829q-2 107 -53 147q-62 50 -140 35q-69 -12 -125 -65
q-30 -39 -63 -80v-678h-156v637q0 119 -41 170q-24 33 -59 33q-29 0 -49 -25q-21 -22 -31 -70q-6 -36 -12 -77h-33q4 45 6 88q10 45 43 98q53 84 162 84q45 0 86 -23q43 -24 61 -73q2 -4 25 -86q47 69 82 102q65 68 141 88q29 6 64 6q88 0 139 -37q115 -86 117 -229l20 -922
q10 -47 31 -139zM526 -328l-22 -161q-64 -41 -121 -41q-41 0 -74 20q-67 43 -67 131q0 35 12 84q25 96 61 182h91q-29 -49 -54 -141q-10 -33 -10 -57q0 -84 78 -74q37 -2 63 16q6 4 43 41z" />
    <glyph glyph-name="uni1F92" unicode="&#x1f92;" horiz-adv-x="1103" 
d="M846 1227q2 -4 2 -10q0 -33 -39 -33q-14 0 -23 10l-270 344q-6 6 -6 18q0 48 45 76q25 17 68 17q34 0 43 -19zM451 1434q0 -70 -70 -158q-70 -82 -139 -111l-17 37q45 21 99 82q53 64 53 109q0 28 -27 28q15 0 -59 -8q-96 10 -96 90q0 111 110 111q70 0 111 -62
q35 -51 35 -118zM977 -375h-166q-10 43 -25 187l-24 829q-2 107 -53 147q-62 50 -140 35q-69 -12 -125 -65q-30 -39 -63 -80v-678h-156v637q0 119 -41 170q-24 33 -59 33q-29 0 -49 -25q-21 -22 -31 -70q-6 -36 -12 -77h-33q4 45 6 88q10 45 43 98q53 84 162 84q45 0 86 -23
q43 -24 61 -73q2 -4 25 -86q47 69 82 102q65 68 141 88q29 6 64 6q88 0 139 -37q115 -86 117 -229l20 -922q10 -47 31 -139zM526 -328l-22 -161q-64 -41 -121 -41q-41 0 -74 20q-67 43 -67 131q0 35 12 84q25 96 61 182h91q-29 -49 -54 -141q-10 -33 -10 -57q0 -84 78 -74
q37 -2 63 16q6 4 43 41z" />
    <glyph glyph-name="uni1F93" unicode="&#x1f93;" horiz-adv-x="1103" 
d="M825 1241q2 -4 2 -10q0 -33 -39 -33q-14 0 -22 10l-270 344q-7 9 -7 19q0 47 46 76q24 16 63 16q37 0 45 -18zM356 1518q0 -78 -98 -91q-74 9 -57 9q-27 0 -27 -29q0 -45 53 -111q54 -59 99 -79l-17 -37q-69 26 -139 110q-70 86 -70 158q0 70 35 121q41 59 111 59
q110 0 110 -110zM977 -375h-166q-10 43 -25 187l-24 829q-2 107 -53 147q-62 50 -140 35q-69 -12 -125 -65q-30 -39 -63 -80v-678h-156v637q0 119 -41 170q-24 33 -59 33q-29 0 -49 -25q-21 -22 -31 -70q-6 -36 -12 -77h-33q4 45 6 88q10 45 43 98q53 84 162 84q45 0 86 -23
q43 -24 61 -73q2 -4 25 -86q47 69 82 102q65 68 141 88q29 6 64 6q88 0 139 -37q115 -86 117 -229l20 -922q10 -47 31 -139zM526 -328l-22 -161q-64 -41 -121 -41q-41 0 -74 20q-67 43 -67 131q0 35 12 84q25 96 61 182h91q-29 -49 -54 -141q-10 -33 -10 -57q0 -84 78 -74
q37 -2 63 16q6 4 43 41z" />
    <glyph glyph-name="uni1F94" unicode="&#x1f94;" horiz-adv-x="1103" 
d="M909 1567l-270 -344q-8 -11 -23 -11q-38 0 -38 33q0 4 2 10l180 404q8 18 45 18q41 0 65 -16q45 -29 45 -76q0 -10 -6 -18zM498 1462q0 -69 -72 -157q-68 -82 -137 -111l-17 37q45 18 99 82q53 63 53 108q0 29 -27 29q15 0 -59 -8q-96 10 -96 90q0 110 110 110
q70 0 111 -61q35 -49 35 -119zM977 -375h-166q-10 43 -25 187l-24 829q-2 107 -53 147q-62 50 -140 35q-69 -12 -125 -65q-30 -39 -63 -80v-678h-156v637q0 119 -41 170q-24 33 -59 33q-29 0 -49 -25q-21 -22 -31 -70q-6 -36 -12 -77h-33q4 45 6 88q10 45 43 98
q53 84 162 84q45 0 86 -23q43 -24 61 -73q2 -4 25 -86q47 69 82 102q65 68 141 88q29 6 64 6q88 0 139 -37q115 -86 117 -229l20 -922q10 -47 31 -139zM526 -328l-22 -161q-64 -41 -121 -41q-41 0 -74 20q-67 43 -67 131q0 35 12 84q25 96 61 182h91q-29 -49 -54 -141
q-10 -33 -10 -57q0 -84 78 -74q37 -2 63 16q6 4 43 41z" />
    <glyph glyph-name="uni1F95" unicode="&#x1f95;" horiz-adv-x="1103" 
d="M907 1552l-270 -344q-8 -10 -23 -10q-39 0 -39 33q0 6 3 10l180 404q8 18 45 18q41 0 65 -16q45 -29 45 -76q0 -10 -6 -19zM371 1518q0 -78 -97 -91q-73 9 -59 9q-27 0 -27 -29q0 -45 56 -111q51 -59 96 -79l-16 -37q-70 26 -140 110q-69 86 -69 158q0 70 35 121
q40 59 110 59q111 0 111 -110zM977 -375h-166q-10 43 -25 187l-24 829q-2 107 -53 147q-62 50 -140 35q-69 -12 -125 -65q-30 -39 -63 -80v-678h-156v637q0 119 -41 170q-24 33 -59 33q-29 0 -49 -25q-21 -22 -31 -70q-6 -36 -12 -77h-33q4 45 6 88q10 45 43 98
q53 84 162 84q45 0 86 -23q43 -24 61 -73q2 -4 25 -86q47 69 82 102q65 68 141 88q29 6 64 6q88 0 139 -37q115 -86 117 -229l20 -922q10 -47 31 -139zM526 -328l-22 -161q-64 -41 -121 -41q-41 0 -74 20q-67 43 -67 131q0 35 12 84q25 96 61 182h91q-29 -49 -54 -141
q-10 -33 -10 -57q0 -84 78 -74q37 -2 63 16q6 4 43 41z" />
    <glyph glyph-name="uni1F96" unicode="&#x1f96;" horiz-adv-x="1103" 
d="M797 1475h-68q-53 180 -244 180q-84 0 -159 -53q-78 -54 -97 -127h-67q-6 122 78 206q86 84 233 84q152 0 238 -86q73 -75 86 -204zM651 1282q0 -72 -69 -158q-70 -84 -140 -110l-16 37q45 18 98 82q54 63 54 108q0 29 -27 29q14 0 -59 -8q-97 12 -97 90q0 110 111 110
q69 0 110 -59q35 -51 35 -121zM977 -375h-166q-10 43 -25 187l-24 829q-2 107 -53 147q-62 50 -140 35q-69 -12 -125 -65q-30 -39 -63 -80v-678h-156v637q0 119 -41 170q-24 33 -59 33q-29 0 -49 -25q-21 -22 -31 -70q-6 -36 -12 -77h-33q4 45 6 88q10 45 43 98
q53 84 162 84q45 0 86 -23q43 -24 61 -73q2 -4 25 -86q47 69 82 102q65 68 141 88q29 6 64 6q88 0 139 -37q115 -86 117 -229l20 -922q10 -47 31 -139zM526 -328l-22 -161q-64 -41 -121 -41q-41 0 -74 20q-67 43 -67 131q0 35 12 84q25 96 61 182h91q-29 -49 -54 -141
q-10 -33 -10 -57q0 -84 78 -74q37 -2 63 16q6 4 43 41z" />
    <glyph glyph-name="uni1F97" unicode="&#x1f97;" horiz-adv-x="1103" 
d="M752 1475h-68q-49 180 -244 180q-84 0 -159 -53q-78 -54 -97 -127h-67q-6 122 80 206t233 84q150 0 236 -86q73 -75 86 -204zM502 1352q0 -78 -96 -90q-74 8 -60 8q-27 0 -27 -29q0 -45 56 -108q51 -64 96 -82l-16 -37q-70 26 -140 110q-69 86 -69 158q0 70 35 121
q41 59 110 59q111 0 111 -110zM977 -375h-166q-10 43 -25 187l-24 829q-2 107 -53 147q-62 50 -140 35q-69 -12 -125 -65q-30 -39 -63 -80v-678h-156v637q0 119 -41 170q-24 33 -59 33q-29 0 -49 -25q-21 -22 -31 -70q-6 -36 -12 -77h-33q4 45 6 88q10 45 43 98
q53 84 162 84q45 0 86 -23q43 -24 61 -73q2 -4 25 -86q47 69 82 102q65 68 141 88q29 6 64 6q88 0 139 -37q115 -86 117 -229l20 -922q10 -47 31 -139zM526 -328l-22 -161q-64 -41 -121 -41q-41 0 -74 20q-67 43 -67 131q0 35 12 84q25 96 61 182h91q-29 -49 -54 -141
q-10 -33 -10 -57q0 -84 78 -74q37 -2 63 16q6 4 43 41z" />
    <glyph glyph-name="uni1F98" unicode="&#x1f98;" horiz-adv-x="1953" 
d="M1907 203l-23 -162q-61 -41 -121 -41q-41 0 -73 20q-68 43 -68 136q0 32 10 80q23 88 64 182h90q-29 -49 -53 -142q-11 -32 -11 -59q0 -82 76 -72q39 -4 66 17q6 4 43 41zM1597 0h-526v37q82 0 119 20q47 31 47 111v494h-559v-494q0 -80 47 -111q37 -20 119 -20v-37h-527
v37q84 0 119 20q49 29 49 111v1042q0 80 -49 111q-35 20 -119 20v37h527v-37q-82 0 -119 -20q-47 -31 -47 -111v-462h559v462q0 80 -47 111q-37 20 -119 20v37h526v-37q-84 0 -118 -20q-49 -31 -49 -111v-1042q0 -82 49 -111q34 -20 118 -20v-37zM262 1448q0 -72 -69 -158
q-68 -84 -140 -110l-14 37q45 20 98 81q51 64 51 109q0 29 -24 29q12 0 -62 -9q-96 13 -96 91q0 110 113 110q67 0 108 -59q35 -51 35 -121z" />
    <glyph glyph-name="uni1F99" unicode="&#x1f99;" horiz-adv-x="1939" 
d="M1876 203l-23 -162q-61 -41 -120 -41q-41 0 -74 20q-70 43 -70 136q0 32 13 80q20 88 63 182h90q-29 -49 -53 -142q-8 -32 -8 -59q0 -82 73 -72q39 -4 66 17q6 4 43 41zM1567 0h-527v37q82 0 117 20q49 31 49 111v494h-559v-494q0 -80 47 -111q35 -20 119 -20v-37h-526
v37q84 0 119 20q49 29 49 111v1042q0 80 -49 111q-35 20 -119 20v37h526v-37q-84 0 -119 -20q-47 -31 -47 -111v-462h559v462q0 80 -49 111q-35 20 -117 20v37h527v-37q-84 0 -119 -20q-49 -31 -49 -111v-1042q0 -82 49 -111q35 -20 119 -20v-37zM279 1518q0 -78 -97 -91
q-73 9 -59 9q-27 0 -27 -29q0 -45 56 -111q51 -59 96 -79l-17 -37q-69 26 -139 110q-69 86 -69 158q0 70 34 121q41 59 111 59q111 0 111 -110z" />
    <glyph glyph-name="uni1F9A" unicode="&#x1f9a;" horiz-adv-x="2373" 
d="M2327 203l-23 -162q-61 -41 -121 -41q-41 0 -74 20q-67 43 -67 136q0 32 10 80q23 88 64 182h90q-29 -49 -54 -142q-10 -32 -10 -59q0 -82 76 -72q39 -4 66 17q6 4 43 41zM2017 0h-526v37q84 0 119 20q47 31 47 111v494h-559v-494q0 -80 49 -111q35 -20 117 -20v-37h-527
v37q84 0 119 20q49 29 49 111v1042q0 80 -49 111q-35 20 -119 20v37h527v-37q-82 0 -117 -20q-49 -31 -49 -111v-462h559v462q0 80 -47 111q-35 20 -119 20v37h526v-37q-84 0 -119 -20q-49 -31 -49 -111v-1042q0 -82 49 -111q35 -20 119 -20v-37zM700 1227q2 -4 2 -10
q0 -33 -36 -33q-17 0 -25 10l-268 344q-6 6 -6 18q0 48 45 76q22 17 65 17q35 0 43 -19zM305 1434q0 -70 -69 -158q-68 -82 -140 -111l-14 37q45 21 98 82q51 64 51 109q0 28 -24 28q12 0 -62 -8q-96 10 -96 90q0 111 113 111q67 0 108 -62q35 -51 35 -118z" />
    <glyph glyph-name="uni1F9B" unicode="&#x1f9b;" horiz-adv-x="2465" 
d="M2367 203l-22 -162q-64 -41 -121 -41q-41 0 -74 20q-67 43 -67 136q0 32 10 80q23 88 64 182h90q-29 -49 -54 -142q-10 -32 -10 -59q0 -82 76 -72q39 -4 65 17q7 4 43 41zM2058 0h-526v37q84 0 119 20q47 31 47 111v494h-559v-494q0 -80 49 -111q35 -20 117 -20v-37h-527
v37q84 0 119 20q49 29 49 111v1042q0 80 -49 111q-35 20 -119 20v37h527v-37q-82 0 -117 -20q-49 -31 -49 -111v-462h559v462q0 80 -47 111q-35 20 -119 20v37h526v-37q-84 0 -119 -20q-49 -31 -49 -111v-1042q0 -82 49 -111q35 -20 119 -20v-37zM752 1241q4 -4 4 -10
q0 -33 -41 -33q-15 0 -23 10l-270 344q-4 9 -4 19q0 47 43 76q24 16 63 16q37 0 45 -18zM283 1518q0 -78 -99 -91q-73 9 -57 9q-27 0 -27 -29q0 -45 56 -111q51 -59 96 -79l-16 -37q-70 26 -140 110q-69 86 -69 158q0 70 34 121q41 59 111 59q111 0 111 -110z" />
    <glyph glyph-name="uni1F9C" unicode="&#x1f9c;" horiz-adv-x="2248" 
d="M2173 203l-23 -162q-61 -41 -120 -41q-41 0 -74 20q-70 43 -70 136q0 32 12 80q23 88 64 182h90q-29 -49 -53 -142q-8 -32 -8 -59q0 -82 73 -72q39 -4 66 17q6 4 43 41zM682 1567l-270 -344q-11 -11 -25 -11q-39 0 -39 33q0 4 2 10l180 404q11 18 48 18q38 0 63 -16
q45 -29 45 -76q0 -10 -4 -18zM1864 0h-527v37q82 0 117 20q49 31 49 111v494h-559v-494q0 -80 47 -111q35 -20 119 -20v-37h-526v37q84 0 118 20q50 29 50 111v1042q0 80 -50 111q-34 20 -118 20v37h526v-37q-84 0 -119 -20q-47 -31 -47 -111v-462h559v462q0 80 -49 111
q-35 20 -117 20v37h527v-37q-84 0 -119 -20q-49 -31 -49 -111v-1042q0 -82 49 -111q35 -20 119 -20v-37zM268 1462q0 -69 -69 -157q-68 -82 -140 -111l-16 37q47 18 100 82q54 63 54 108q0 29 -27 29q12 0 -59 -8q-99 10 -99 90q0 110 113 110q70 0 108 -61q35 -49 35 -119z
" />
    <glyph glyph-name="uni1F9D" unicode="&#x1f9d;" horiz-adv-x="2443" 
d="M2367 203l-22 -162q-64 -41 -121 -41q-41 0 -74 20q-67 43 -67 136q0 32 10 80q23 88 64 182h90q-29 -49 -54 -142q-10 -32 -10 -59q0 -82 76 -72q39 -4 65 17q7 4 43 41zM2058 0h-526v37q84 0 119 20q47 31 47 111v494h-559v-494q0 -80 49 -111q35 -20 117 -20v-37h-527
v37q84 0 119 20q49 29 49 111v1042q0 80 -49 111q-35 20 -119 20v37h527v-37q-82 0 -117 -20q-49 -31 -49 -111v-462h559v462q0 80 -47 111q-35 20 -119 20v37h526v-37q-84 0 -119 -20q-49 -31 -49 -111v-1042q0 -82 49 -111q35 -20 119 -20v-37zM834 1552l-271 -344
q-8 -10 -22 -10q-39 0 -39 33q0 6 2 10l180 404q8 18 45 18q41 0 66 -16q45 -29 45 -76q0 -10 -6 -19zM297 1518q0 -78 -96 -91q-74 9 -60 9q-26 0 -26 -29q0 -45 55 -111q49 -59 96 -79l-16 -37q-72 26 -137 110q-72 86 -72 158q0 70 37 121q39 59 108 59q111 0 111 -110z
" />
    <glyph glyph-name="uni1F9E" unicode="&#x1f9e;" horiz-adv-x="2306" 
d="M2229 203l-22 -162q-64 -41 -121 -41q-41 0 -74 20q-70 43 -70 136q0 32 13 80q20 88 63 182h90q-28 -49 -53 -142q-8 -32 -8 -59q0 -82 74 -72q38 -4 65 17q6 4 43 41zM1920 0h-526v37q81 0 116 20q49 31 49 111v494h-559v-494q0 -80 47 -111q35 -20 119 -20v-37h-526
v37q84 0 119 20q49 29 49 111v1042q0 80 -49 111q-35 20 -119 20v37h526v-37q-84 0 -119 -20q-47 -31 -47 -111v-462h559v462q0 80 -49 111q-35 20 -116 20v37h526v-37q-84 0 -119 -20q-49 -31 -49 -111v-1042q0 -82 49 -111q35 -20 119 -20v-37zM652 1475h-65
q-56 180 -244 180q-84 0 -162 -53q-78 -54 -94 -127h-70q-6 122 80 206q84 84 234 84q149 0 235 -86q76 -75 86 -204zM509 1282q0 -72 -72 -158q-67 -84 -137 -110l-16 37q45 18 98 82q51 63 51 108q0 29 -27 29q17 0 -59 -8q-94 12 -94 90q0 110 108 110q70 0 113 -59
q35 -51 35 -121z" />
    <glyph glyph-name="uni1F9F" unicode="&#x1f9f;" horiz-adv-x="2215" 
d="M2150 203l-22 -162q-64 -41 -121 -41q-41 0 -74 20q-67 43 -67 136q0 32 10 80q20 88 63 182h90q-28 -49 -53 -142q-8 -32 -8 -59q0 -82 74 -72q39 -4 65 17q6 4 43 41zM667 1475h-65q-51 180 -246 180q-82 0 -158 -51q-77 -56 -98 -129h-65q-9 122 75 204q88 86 238 86
q149 0 233 -86q76 -75 86 -204zM1841 0h-526v37q84 0 116 20q50 31 50 111v494h-560v-494q0 -80 50 -111q32 -20 116 -20v-37h-526v37q84 0 119 20q49 29 49 111v1042q0 80 -49 111q-35 20 -119 20v37h526v-37q-84 0 -116 -20q-50 -31 -50 -111v-462h560v462q0 80 -50 111
q-32 20 -116 20v37h526v-37q-84 0 -119 -20q-49 -31 -49 -111v-1042q0 -82 49 -111q35 -20 119 -20v-37zM420 1352q0 -78 -99 -90q-71 8 -57 8q-29 0 -29 -29q0 -45 56 -108q51 -64 98 -82l-16 -37q-72 26 -140 110q-69 86 -69 158q0 70 34 121q41 59 109 59q113 0 113 -110
z" />
    <glyph glyph-name="uni1FA0" unicode="&#x1fa0;" horiz-adv-x="1310" 
d="M856 1462q0 -69 -72 -157q-65 -82 -137 -111l-16 37q47 18 98 82q53 63 53 108q0 29 -26 29q14 0 -60 -8q-96 10 -96 90q0 110 111 110q69 0 110 -61q35 -49 35 -119zM1262 494q6 -50 6 -91q0 -114 -47 -225q-58 -135 -166 -184q-58 -27 -117 -27q-68 0 -121 33
q-86 49 -143 152q-62 -103 -146 -152q-55 -33 -118 -33q-62 0 -119 27q-111 49 -166 184q-45 111 -45 225q0 41 4 91q25 237 195 368q63 47 147 60q8 0 125 4v-31q-152 -57 -203 -143q-82 -131 -82 -330q0 -86 17 -168q20 -115 75 -166q39 -37 86 -37q21 0 43 6
q78 23 113 111l29 113q-56 157 -56 262q0 49 11 98q22 125 90 125q65 0 88 -125q8 -49 8 -100q0 -111 -53 -260l28 -113q35 -88 113 -111q23 -6 43 -6q45 0 86 37q55 51 76 166q14 84 14 168q0 199 -80 330q-53 86 -202 143v31q116 -4 125 -4q86 -13 147 -60
q170 -131 195 -368zM838 -307l-23 -162q-61 -41 -121 -41q-41 0 -73 21q-68 43 -68 131q0 32 12 84q25 98 62 182h90q-27 -45 -53 -141q-11 -33 -11 -60q0 -82 76 -72q39 -4 66 17q6 4 43 41z" />
    <glyph glyph-name="uni1FA1" unicode="&#x1fa1;" horiz-adv-x="1310" 
d="M705 1518q0 -78 -97 -91q-73 9 -59 9q-27 0 -27 -29q0 -45 56 -111q51 -59 96 -79l-17 -37q-69 26 -139 110q-69 86 -69 158q0 70 34 121q41 59 111 59q111 0 111 -110zM1262 494q6 -50 6 -91q0 -114 -47 -225q-58 -135 -166 -184q-58 -27 -117 -27q-68 0 -121 33
q-86 49 -143 152q-62 -103 -146 -152q-55 -33 -118 -33q-62 0 -119 27q-111 49 -166 184q-45 111 -45 225q0 41 4 91q25 237 195 368q63 47 147 60q8 0 125 4v-31q-152 -57 -203 -143q-82 -131 -82 -330q0 -86 17 -168q20 -115 75 -166q39 -37 86 -37q21 0 43 6
q78 23 113 111l29 113q-56 157 -56 262q0 49 11 98q22 125 90 125q65 0 88 -125q8 -49 8 -100q0 -111 -53 -260l28 -113q35 -88 113 -111q23 -6 43 -6q45 0 86 37q55 51 76 166q14 84 14 168q0 199 -80 330q-53 86 -202 143v31q116 -4 125 -4q86 -13 147 -60
q170 -131 195 -368zM838 -307l-23 -162q-61 -41 -121 -41q-41 0 -73 21q-68 43 -68 131q0 32 12 84q25 98 62 182h90q-27 -45 -53 -141q-11 -33 -11 -60q0 -82 76 -72q39 -4 66 17q6 4 43 41z" />
    <glyph glyph-name="uni1FA2" unicode="&#x1fa2;" horiz-adv-x="1310" 
d="M1032 1241q2 -4 2 -10q0 -33 -39 -33q-14 0 -22 10l-271 344q-6 9 -6 19q0 47 45 76q25 16 66 16q35 0 43 -18zM614 1448q0 -72 -69 -158q-70 -84 -139 -110l-17 37q45 20 98 81q54 64 54 109q0 29 -27 29q14 0 -59 -9q-97 13 -97 91q0 110 111 110q70 0 111 -59
q34 -51 34 -121zM1262 494q6 -50 6 -91q0 -114 -47 -225q-58 -135 -166 -184q-58 -27 -117 -27q-68 0 -121 33q-86 49 -143 152q-62 -103 -146 -152q-55 -33 -118 -33q-62 0 -119 27q-111 49 -166 184q-45 111 -45 225q0 41 4 91q25 237 195 368q63 47 147 60q8 0 125 4v-31
q-152 -57 -203 -143q-82 -131 -82 -330q0 -86 17 -168q20 -115 75 -166q39 -37 86 -37q21 0 43 6q78 23 113 111l29 113q-56 157 -56 262q0 49 11 98q22 125 90 125q65 0 88 -125q8 -49 8 -100q0 -111 -53 -260l28 -113q35 -88 113 -111q23 -6 43 -6q45 0 86 37
q55 51 76 166q14 84 14 168q0 199 -80 330q-53 86 -202 143v31q116 -4 125 -4q86 -13 147 -60q170 -131 195 -368zM838 -307l-23 -162q-61 -41 -121 -41q-41 0 -73 21q-68 43 -68 131q0 32 12 84q25 98 62 182h90q-27 -45 -53 -141q-11 -33 -11 -60q0 -82 76 -72
q39 -4 66 17q6 4 43 41z" />
    <glyph glyph-name="uni1FA3" unicode="&#x1fa3;" horiz-adv-x="1310" 
d="M991 1241q2 -4 2 -10q0 -33 -39 -33q-14 0 -22 10l-270 344q-7 9 -7 19q0 47 45 76q25 16 68 16q35 0 43 -18zM504 1518q0 -78 -96 -91q-74 9 -60 9q-26 0 -26 -29q0 -45 55 -111q49 -59 96 -79l-16 -37q-72 26 -140 110q-69 86 -69 158q0 70 35 121q41 59 110 59
q111 0 111 -110zM1262 494q6 -50 6 -91q0 -114 -47 -225q-58 -135 -166 -184q-58 -27 -117 -27q-68 0 -121 33q-86 49 -143 152q-62 -103 -146 -152q-55 -33 -118 -33q-62 0 -119 27q-111 49 -166 184q-45 111 -45 225q0 41 4 91q25 237 195 368q63 47 147 60q8 0 125 4v-31
q-152 -57 -203 -143q-82 -131 -82 -330q0 -86 17 -168q20 -115 75 -166q39 -37 86 -37q21 0 43 6q78 23 113 111l29 113q-56 157 -56 262q0 49 11 98q22 125 90 125q65 0 88 -125q8 -49 8 -100q0 -111 -53 -260l28 -113q35 -88 113 -111q23 -6 43 -6q45 0 86 37
q55 51 76 166q14 84 14 168q0 199 -80 330q-53 86 -202 143v31q116 -4 125 -4q86 -13 147 -60q170 -131 195 -368zM838 -307l-23 -162q-61 -41 -121 -41q-41 0 -73 21q-68 43 -68 131q0 32 12 84q25 98 62 182h90q-27 -45 -53 -141q-11 -33 -11 -60q0 -82 76 -72
q39 -4 66 17q6 4 43 41z" />
    <glyph glyph-name="uni1FA4" unicode="&#x1fa4;" horiz-adv-x="1310" 
d="M1055 1552l-271 -344q-8 -10 -22 -10q-39 0 -39 33q0 6 2 10l180 404q8 18 43 18q43 0 68 -16q45 -29 45 -76q0 -10 -6 -19zM643 1448q0 -72 -72 -158q-65 -84 -137 -110l-16 37q47 20 98 81q53 64 53 109q0 29 -26 29q14 0 -60 -9q-96 13 -96 91q0 110 111 110
q69 0 110 -59q35 -51 35 -121zM1262 494q6 -50 6 -91q0 -114 -47 -225q-58 -135 -166 -184q-58 -27 -117 -27q-68 0 -121 33q-86 49 -143 152q-62 -103 -146 -152q-55 -33 -118 -33q-62 0 -119 27q-111 49 -166 184q-45 111 -45 225q0 41 4 91q25 237 195 368q63 47 147 60
q8 0 125 4v-31q-152 -57 -203 -143q-82 -131 -82 -330q0 -86 17 -168q20 -115 75 -166q39 -37 86 -37q21 0 43 6q78 23 113 111l29 113q-56 157 -56 262q0 49 11 98q22 125 90 125q65 0 88 -125q8 -49 8 -100q0 -111 -53 -260l28 -113q35 -88 113 -111q23 -6 43 -6
q45 0 86 37q55 51 76 166q14 84 14 168q0 199 -80 330q-53 86 -202 143v31q116 -4 125 -4q86 -13 147 -60q170 -131 195 -368zM838 -307l-23 -162q-61 -41 -121 -41q-41 0 -73 21q-68 43 -68 131q0 32 12 84q25 98 62 182h90q-27 -45 -53 -141q-11 -33 -11 -60q0 -82 76 -72
q39 -4 66 17q6 4 43 41z" />
    <glyph glyph-name="uni1FA5" unicode="&#x1fa5;" horiz-adv-x="1310" 
d="M1083 1552l-270 -344q-8 -10 -22 -10q-39 0 -39 33q0 6 2 10l180 404q8 18 45 18q41 0 65 -16q46 -29 46 -76q0 -10 -7 -19zM545 1518q0 -78 -96 -91q-74 9 -60 9q-27 0 -27 -29q0 -45 56 -111q51 -59 96 -79l-16 -37q-72 26 -140 110q-69 86 -69 158q0 70 35 121
q41 59 110 59q111 0 111 -110zM1262 494q6 -50 6 -91q0 -114 -47 -225q-58 -135 -166 -184q-58 -27 -117 -27q-68 0 -121 33q-86 49 -143 152q-62 -103 -146 -152q-55 -33 -118 -33q-62 0 -119 27q-111 49 -166 184q-45 111 -45 225q0 41 4 91q25 237 195 368q63 47 147 60
q8 0 125 4v-31q-152 -57 -203 -143q-82 -131 -82 -330q0 -86 17 -168q20 -115 75 -166q39 -37 86 -37q21 0 43 6q78 23 113 111l29 113q-56 157 -56 262q0 49 11 98q22 125 90 125q65 0 88 -125q8 -49 8 -100q0 -111 -53 -260l28 -113q35 -88 113 -111q23 -6 43 -6
q45 0 86 37q55 51 76 166q14 84 14 168q0 199 -80 330q-53 86 -202 143v31q116 -4 125 -4q86 -13 147 -60q170 -131 195 -368zM838 -307l-23 -162q-61 -41 -121 -41q-41 0 -73 21q-68 43 -68 131q0 32 12 84q25 98 62 182h90q-27 -45 -53 -141q-11 -33 -11 -60q0 -82 76 -72
q39 -4 66 17q6 4 43 41z" />
    <glyph glyph-name="uni1FA6" unicode="&#x1fa6;" horiz-adv-x="1310" 
d="M1001 1485h-67q-53 180 -244 180q-84 0 -160 -53q-77 -53 -96 -127h-67q-7 125 77 207q84 84 234 84q151 0 235 -84q76 -78 88 -207zM856 1290q0 -69 -72 -157q-65 -82 -137 -111l-16 37q47 18 98 82q53 63 53 108q0 29 -26 29q14 0 -60 -8q-96 10 -96 90q0 110 111 110
q69 0 110 -61q35 -49 35 -119zM1262 494q6 -50 6 -91q0 -114 -47 -225q-58 -135 -166 -184q-58 -27 -117 -27q-68 0 -121 33q-86 49 -143 152q-62 -103 -146 -152q-55 -33 -118 -33q-62 0 -119 27q-111 49 -166 184q-45 111 -45 225q0 41 4 91q25 237 195 368q63 47 147 60
q8 0 125 4v-31q-152 -57 -203 -143q-82 -131 -82 -330q0 -86 17 -168q20 -115 75 -166q39 -37 86 -37q21 0 43 6q78 23 113 111l29 113q-56 157 -56 262q0 49 11 98q22 125 90 125q65 0 88 -125q8 -49 8 -100q0 -111 -53 -260l28 -113q35 -88 113 -111q23 -6 43 -6
q45 0 86 37q55 51 76 166q14 84 14 168q0 199 -80 330q-53 86 -202 143v31q116 -4 125 -4q86 -13 147 -60q170 -131 195 -368zM838 -307l-23 -162q-61 -41 -121 -41q-41 0 -73 21q-68 43 -68 131q0 32 12 84q25 98 62 182h90q-27 -45 -53 -141q-11 -33 -11 -60q0 -82 76 -72
q39 -4 66 17q6 4 43 41z" />
    <glyph glyph-name="uni1FA7" unicode="&#x1fa7;" horiz-adv-x="1310" 
d="M936 1485h-68q-51 180 -243 180q-82 0 -160 -53t-96 -127h-68q-6 125 80 207q86 84 233 84q150 0 236 -84q76 -78 86 -207zM731 1360q0 -80 -96 -90q-74 8 -60 8q-26 0 -26 -29q0 -45 53 -108q51 -64 98 -82l-16 -37q-72 29 -137 111q-72 88 -72 157q0 70 35 119
q41 61 111 61q110 0 110 -110zM1262 494q6 -50 6 -91q0 -114 -47 -225q-58 -135 -166 -184q-58 -27 -117 -27q-68 0 -121 33q-86 49 -143 152q-62 -103 -146 -152q-55 -33 -118 -33q-62 0 -119 27q-111 49 -166 184q-45 111 -45 225q0 41 4 91q25 237 195 368q63 47 147 60
q8 0 125 4v-31q-152 -57 -203 -143q-82 -131 -82 -330q0 -86 17 -168q20 -115 75 -166q39 -37 86 -37q21 0 43 6q78 23 113 111l29 113q-56 157 -56 262q0 49 11 98q22 125 90 125q65 0 88 -125q8 -49 8 -100q0 -111 -53 -260l28 -113q35 -88 113 -111q23 -6 43 -6
q45 0 86 37q55 51 76 166q14 84 14 168q0 199 -80 330q-53 86 -202 143v31q116 -4 125 -4q86 -13 147 -60q170 -131 195 -368zM838 -307l-23 -162q-61 -41 -121 -41q-41 0 -73 21q-68 43 -68 131q0 32 12 84q25 98 62 182h90q-27 -45 -53 -141q-11 -33 -11 -60q0 -82 76 -72
q39 -4 66 17q6 4 43 41z" />
    <glyph glyph-name="uni1FA8" unicode="&#x1fa8;" horiz-adv-x="1732" 
d="M1702 203l-25 -162q-61 -41 -118 -41q-41 0 -74 20q-70 43 -70 136q0 32 10 80q23 88 66 182h88q-29 -49 -51 -142q-10 -32 -10 -59q0 -82 73 -72q39 -4 68 17q4 4 43 41zM315 1462q0 -69 -69 -157q-68 -82 -137 -111l-19 37q47 18 100 82q54 63 54 108q0 29 -29 29
q14 0 -57 -8q-99 10 -99 90q0 110 111 110q72 0 111 -61q34 -49 34 -119zM1364 0h-547l31 311q82 39 102 60q68 55 115 174q45 114 45 280q0 271 -127 412q-96 106 -270 106q-172 0 -269 -106q-129 -141 -129 -416q0 -164 45 -276q48 -119 115 -174q23 -21 105 -60l30 -311
h-547v332h27q19 -76 41 -101q25 -24 82 -24h293l-4 57q-217 74 -309 223q-93 150 -93 328q0 152 64 277q65 133 211 227q137 90 338 90q200 0 340 -90q67 -45 96 -70q65 -61 115 -157q63 -125 63 -277q0 -178 -92 -328q-92 -149 -309 -223l-4 -57h292q60 0 82 24
q25 25 41 101h27v-332z" />
    <glyph glyph-name="uni1FA9" unicode="&#x1fa9;" horiz-adv-x="1732" 
d="M1702 203l-25 -162q-61 -41 -118 -41q-41 0 -74 20q-70 43 -70 136q0 32 10 80q23 88 66 182h88q-29 -49 -51 -142q-10 -32 -10 -59q0 -82 73 -72q39 -4 68 17q4 4 43 41zM195 1518q0 -78 -97 -91q-73 9 -59 9q-27 0 -27 -29q0 -45 56 -111q51 -59 96 -79l-17 -37
q-69 26 -139 110q-69 86 -69 158q0 70 34 121q41 59 111 59q111 0 111 -110zM1364 0h-547l31 311q82 39 102 60q68 55 115 174q45 114 45 280q0 271 -127 412q-96 106 -270 106q-172 0 -269 -106q-129 -141 -129 -416q0 -164 45 -276q48 -119 115 -174q23 -21 105 -60
l30 -311h-547v332h27q19 -76 41 -101q25 -24 82 -24h293l-4 57q-217 74 -309 223q-93 150 -93 328q0 152 64 277q65 133 211 227q137 90 338 90q200 0 340 -90q67 -45 96 -70q65 -61 115 -157q63 -125 63 -277q0 -178 -92 -328q-92 -149 -309 -223l-4 -57h292q60 0 82 24
q25 25 41 101h27v-332z" />
    <glyph glyph-name="uni1FAA" unicode="&#x1faa;" horiz-adv-x="2310" 
d="M2255 203l-25 -162q-61 -41 -121 -41q-38 0 -71 20q-70 43 -70 136q0 32 10 80q23 88 66 182h90q-31 -49 -53 -142q-10 -32 -10 -59q0 -82 73 -72q39 -4 68 17q6 4 43 41zM1917 0h-547l31 311q82 39 102 60q68 55 115 174q45 114 45 280q0 271 -127 412q-96 106 -270 106
q-172 0 -269 -106q-129 -141 -129 -416q0 -164 45 -276q48 -119 115 -174q23 -21 105 -60l30 -311h-547v332h27q16 -76 41 -101q25 -24 82 -24h293l-4 57q-217 74 -310 223q-92 150 -92 328q0 152 64 277q65 133 211 227q139 90 338 90q200 0 340 -90q67 -45 96 -70
q65 -61 115 -157q63 -125 63 -277q0 -178 -92 -328q-92 -149 -309 -223l-4 -57h292q60 0 82 24q25 25 41 101h27v-332zM707 1241q2 -4 2 -10q0 -33 -39 -33q-17 0 -25 10l-268 344q-6 9 -6 19q0 47 45 76q22 16 63 16q35 0 43 -18zM289 1448q0 -72 -72 -158
q-67 -84 -137 -110l-19 37q48 20 101 81q51 64 51 109q0 29 -27 29q17 0 -59 -9q-94 13 -94 91q0 110 108 110q70 0 111 -59q37 -51 37 -121z" />
    <glyph glyph-name="uni1FAB" unicode="&#x1fab;" horiz-adv-x="2365" 
d="M2273 203l-20 -162q-64 -41 -121 -41q-41 0 -76 20q-67 43 -67 136q0 32 12 80q20 88 61 182h90q-26 -49 -53 -142q-8 -32 -8 -59q0 -82 76 -72q39 -4 63 17q6 4 43 41zM766 1241q2 -4 2 -10q0 -33 -41 -33q-12 0 -20 10l-273 344q-6 9 -6 19q0 47 45 76q27 16 68 16
q37 0 45 -18zM1937 0h-546l30 311q80 39 105 60q65 55 112 174q45 114 45 280q0 271 -127 412q-96 106 -270 106q-172 0 -268 -106q-127 -141 -127 -416q0 -164 43 -276q47 -119 115 -174q20 -21 104 -60l31 -311h-547v332h27q18 -76 41 -101q22 -24 81 -24h293l-4 57
q-217 74 -309 223q-92 150 -92 328q0 152 63 277q68 133 211 227q137 90 338 90q203 0 340 -90q70 -45 96 -70q68 -61 115 -157q64 -125 64 -277q0 -178 -93 -328q-92 -149 -309 -223l-4 -57h293q57 0 82 24q22 25 41 101h26v-332zM279 1518q0 -78 -99 -91q-71 9 -57 9
q-29 0 -29 -29q0 -45 56 -111q51 -59 98 -79l-19 -37q-69 26 -137 110q-69 86 -69 158q0 70 32 121q41 59 113 59q111 0 111 -110z" />
    <glyph glyph-name="uni1FAC" unicode="&#x1fac;" horiz-adv-x="2015" 
d="M1966 203l-20 -162q-64 -41 -121 -41q-41 0 -76 20q-68 43 -68 136q0 32 13 80q20 88 61 182h90q-26 -49 -53 -142q-8 -32 -8 -59q0 -82 76 -72q36 -4 63 17q6 4 43 41zM690 1552l-268 -344q-8 -10 -25 -10q-39 0 -39 33q0 6 2 10l183 404q8 18 43 18q41 0 65 -16
q45 -29 45 -76q0 -10 -6 -19zM1630 0h-547l31 311q80 39 105 60q65 55 112 174q45 114 45 280q0 271 -127 412q-96 106 -270 106q-172 0 -268 -106q-127 -141 -127 -416q0 -164 43 -276q47 -119 114 -174q23 -21 105 -60l31 -311h-547v332h26q19 -76 41 -101q25 -24 82 -24
h293l-4 57q-217 74 -309 223q-92 150 -92 328q0 152 63 277q68 133 211 227q137 90 338 90q203 0 340 -90q70 -45 96 -70q68 -61 115 -157q63 -125 63 -277q0 -178 -92 -328q-92 -149 -309 -223l-4 -57h293q57 0 82 24q22 25 41 101h26v-332zM281 1448q0 -72 -72 -158
q-68 -84 -137 -110l-19 37q47 20 101 81q53 64 53 109q0 29 -29 29q17 0 -57 -9q-96 13 -96 91q0 110 108 110q72 0 113 -59q35 -51 35 -121z" />
    <glyph glyph-name="uni1FAD" unicode="&#x1fad;" horiz-adv-x="2058" 
d="M1999 203l-25 -162q-61 -41 -121 -41q-38 0 -71 20q-70 43 -70 136q0 32 10 80q23 88 66 182h90q-31 -49 -53 -142q-10 -32 -10 -59q0 -82 73 -72q39 -4 68 17q6 4 43 41zM700 1552l-270 -344q-8 -10 -22 -10q-39 0 -39 33q0 6 2 10l180 404q8 18 45 18q41 0 66 -16
q45 -29 45 -76q0 -10 -7 -19zM1661 0h-547l31 311q82 39 102 60q68 55 115 174q45 114 45 280q0 271 -127 412q-96 106 -270 106q-172 0 -269 -106q-129 -141 -129 -416q0 -164 45 -276q48 -119 115 -174q23 -21 105 -60l30 -311h-547v332h27q16 -76 41 -101q25 -24 82 -24
h293l-4 57q-217 74 -310 223q-92 150 -92 328q0 152 64 277q65 133 211 227q139 90 338 90q200 0 340 -90q67 -45 96 -70q65 -61 115 -157q63 -125 63 -277q0 -178 -92 -328q-92 -149 -309 -223l-4 -57h292q60 0 82 24q25 25 41 101h27v-332zM283 1518q0 -78 -99 -91
q-71 9 -57 9q-29 0 -29 -29q0 -45 56 -111q51 -59 98 -79l-19 -37q-69 26 -137 110q-69 86 -69 158q0 70 32 121q41 59 111 59q113 0 113 -110z" />
    <glyph glyph-name="uni1FAE" unicode="&#x1fae;" horiz-adv-x="2109" 
d="M2046 203l-25 -162q-61 -41 -121 -41q-41 0 -71 20q-70 43 -70 136q0 32 10 80q23 88 66 182h90q-31 -49 -53 -142q-11 -32 -11 -59q0 -82 74 -72q39 -4 68 17q6 4 43 41zM604 1485h-68q-55 180 -243 180q-82 0 -160 -53q-80 -53 -96 -127h-68q-6 125 76 207
q88 84 235 84q152 0 236 -84q76 -78 88 -207zM1708 0h-547l31 311q82 39 102 60q68 55 115 174q45 114 45 280q0 271 -127 412q-96 106 -270 106q-172 0 -269 -106q-129 -141 -129 -416q0 -164 45 -276q47 -119 115 -174q23 -21 105 -60l30 -311h-547v332h27q16 -76 41 -101
q25 -24 82 -24h293l-4 57q-217 74 -310 223q-92 150 -92 328q0 152 64 277q65 133 211 227q139 90 338 90q200 0 340 -90q67 -45 96 -70q65 -61 115 -157q63 -125 63 -277q0 -178 -92 -328q-92 -149 -309 -223l-4 -57h292q60 0 82 24q25 25 41 101h27v-332zM459 1290
q0 -69 -70 -157q-70 -82 -139 -111l-17 37q45 18 99 82q53 63 53 108q0 29 -27 29q15 0 -59 -8q-96 10 -96 90q0 110 110 110q70 0 111 -61q35 -49 35 -119z" />
    <glyph glyph-name="uni1FAF" unicode="&#x1faf;" horiz-adv-x="2234" 
d="M2180 203l-25 -162q-61 -41 -118 -41q-41 0 -74 20q-70 43 -70 136q0 32 10 80q23 88 66 182h88q-29 -49 -51 -142q-10 -32 -10 -59q0 -82 73 -72q39 -4 68 17q4 4 43 41zM673 1485h-68q-51 180 -246 180q-84 0 -157 -51q-80 -55 -99 -129h-65q-8 125 75 207
q89 84 236 84q152 0 236 -84q73 -78 88 -207zM1842 0h-547l31 311q82 39 102 60q68 55 115 174q45 114 45 280q0 271 -127 412q-96 106 -270 106q-172 0 -269 -106q-129 -141 -129 -416q0 -164 45 -276q48 -119 115 -174q23 -21 105 -60l30 -311h-546v332h26q19 -76 41 -101
q25 -24 82 -24h293l-4 57q-217 74 -309 223q-93 150 -93 328q0 152 64 277q65 133 211 227q137 90 338 90q200 0 340 -90q67 -45 96 -70q68 -61 115 -157q63 -125 63 -277q0 -178 -92 -328q-92 -149 -309 -223l-4 -57h293q59 0 81 24q25 25 41 101h27v-332zM468 1360
q0 -80 -96 -90q-74 8 -62 8q-24 0 -24 -29q0 -45 53 -108q51 -64 96 -82l-14 -37q-72 29 -140 111q-69 88 -69 157q0 70 35 119q41 61 108 61q113 0 113 -110z" />
    <glyph glyph-name="uni1FB0" unicode="&#x1fb0;" horiz-adv-x="1208" 
d="M883 1360q-15 -129 -60 -201q-73 -121 -245 -121q-80 0 -144 39q-121 78 -131 283h64q26 -199 231 -199q109 0 166 72q31 39 57 127h62zM1153 254l-4 -109q-4 -96 -70 -149q-30 -25 -59 -25q-33 0 -66 31q-53 49 -118 227q-68 -114 -68 -116q-66 -84 -170 -119
q-84 -29 -145 -29q-76 0 -152 35q-102 45 -158 139q-67 117 -67 279q0 63 10 137q29 205 201 322q75 51 194 51q160 0 250 -150q53 -90 74 -205l121 330h161l-213 -588q21 -120 76 -176q37 -37 70 -37q29 0 55 29q31 31 45 123h33zM754 414q-31 237 -80 315q-58 90 -135 113
q-43 12 -74 12q-57 0 -109 -63q-61 -78 -82 -238q-18 -143 13 -309q18 -103 73 -158q56 -53 115 -57q51 -2 115 51q59 51 108 182z" />
    <glyph glyph-name="uni1FB1" unicode="&#x1fb1;" horiz-adv-x="1208" 
d="M997 1098h-809v112h809v-112zM1153 254l-4 -109q-4 -96 -70 -149q-30 -25 -59 -25q-33 0 -66 31q-53 49 -118 227q-68 -114 -68 -116q-66 -84 -170 -119q-84 -29 -145 -29q-76 0 -152 35q-102 45 -158 139q-67 117 -67 279q0 63 10 137q29 205 201 322q75 51 194 51
q160 0 250 -150q53 -90 74 -205l121 330h161l-213 -588q21 -120 76 -176q37 -37 70 -37q29 0 55 29q31 31 45 123h33zM754 414q-31 237 -80 315q-58 90 -135 113q-43 12 -74 12q-57 0 -109 -63q-61 -78 -82 -238q-18 -143 13 -309q18 -103 73 -158q56 -53 115 -57
q51 -2 115 51q59 51 108 182z" />
    <glyph glyph-name="uni1FB2" unicode="&#x1fb2;" horiz-adv-x="1208" 
d="M641 1227q2 -4 2 -10q0 -33 -41 -33q-14 0 -22 10l-271 344q-6 6 -6 16q0 50 47 78q25 17 66 17q35 0 43 -19zM1153 254l-4 -109q-4 -96 -70 -149q-30 -25 -59 -25q-33 0 -66 31q-53 49 -118 227q-68 -114 -68 -116q-66 -84 -170 -119q-84 -29 -145 -29q-76 0 -152 35
q-102 45 -158 139q-67 117 -67 279q0 63 10 137q29 205 201 322q75 51 194 51q160 0 250 -150q53 -90 74 -205l121 330h161l-213 -588q21 -120 76 -176q37 -37 70 -37q29 0 55 29q31 31 45 123h33zM741 -348l-22 -162q-64 -41 -121 -41q-41 0 -74 21q-67 45 -67 135
q0 35 10 80q20 88 63 182h91q-29 -49 -54 -141q-10 -33 -10 -60q0 -82 76 -72q39 -4 65 17q7 4 43 41zM754 414q-31 237 -80 315q-58 90 -135 113q-43 12 -74 12q-57 0 -109 -63q-61 -78 -82 -238q-18 -143 13 -309q18 -103 73 -158q56 -53 115 -57q51 -2 115 51
q59 51 108 182z" />
    <glyph glyph-name="uni1FB3" unicode="&#x1fb3;" horiz-adv-x="1208" 
d="M1153 254l-4 -109q-4 -96 -70 -149q-30 -25 -59 -25q-33 0 -66 31q-53 49 -118 227q-68 -114 -68 -116q-66 -84 -170 -119q-84 -29 -145 -29q-76 0 -152 35q-102 45 -158 139q-67 117 -67 279q0 63 10 137q29 205 201 322q75 51 194 51q160 0 250 -150q53 -90 74 -205
l121 330h161l-213 -588q21 -120 76 -176q37 -37 70 -37q29 0 55 29q31 31 45 123h33zM741 -348l-22 -162q-64 -41 -121 -41q-41 0 -74 21q-67 45 -67 135q0 35 10 80q20 88 63 182h91q-29 -49 -54 -141q-10 -33 -10 -60q0 -82 76 -72q39 -4 65 17q7 4 43 41zM754 414
q-31 237 -80 315q-58 90 -135 113q-43 12 -74 12q-57 0 -109 -63q-61 -78 -82 -238q-18 -143 13 -309q18 -103 73 -158q56 -53 115 -57q51 -2 115 51q59 51 108 182z" />
    <glyph glyph-name="uni1FB4" unicode="&#x1fb4;" horiz-adv-x="1208" 
d="M856 1538l-270 -344q-8 -10 -25 -10q-39 0 -39 33q0 6 2 10l183 403q8 19 45 19q39 0 63 -17q45 -28 45 -78q0 -10 -4 -16zM1153 254l-4 -109q-4 -96 -70 -149q-30 -25 -59 -25q-33 0 -66 31q-53 49 -118 227q-68 -114 -68 -116q-66 -84 -170 -119q-84 -29 -145 -29
q-76 0 -152 35q-102 45 -158 139q-67 117 -67 279q0 63 10 137q29 205 201 322q75 51 194 51q160 0 250 -150q53 -90 74 -205l121 330h161l-213 -588q21 -120 76 -176q37 -37 70 -37q29 0 55 29q31 31 45 123h33zM741 -348l-22 -162q-64 -41 -121 -41q-41 0 -74 21
q-67 45 -67 135q0 35 10 80q20 88 63 182h91q-29 -49 -54 -141q-10 -33 -10 -60q0 -82 76 -72q39 -4 65 17q7 4 43 41zM754 414q-31 237 -80 315q-58 90 -135 113q-43 12 -74 12q-57 0 -109 -63q-61 -78 -82 -238q-18 -143 13 -309q18 -103 73 -158q56 -53 115 -57
q51 -2 115 51q59 51 108 182z" />
    <glyph glyph-name="uni1FB6" unicode="&#x1fb6;" horiz-adv-x="1208" 
d="M840 1159h-74q-57 180 -266 180q-90 0 -176 -53q-84 -53 -105 -127h-74q-6 123 86 207q97 84 256 84q164 0 256 -84q82 -78 97 -207zM1153 254l-4 -109q-4 -96 -70 -149q-30 -25 -59 -25q-33 0 -66 31q-53 49 -118 227q-68 -114 -68 -116q-66 -84 -170 -119
q-84 -29 -145 -29q-76 0 -152 35q-102 45 -158 139q-67 117 -67 279q0 63 10 137q29 205 201 322q75 51 194 51q160 0 250 -150q53 -90 74 -205l121 330h161l-213 -588q21 -120 76 -176q37 -37 70 -37q29 0 55 29q31 31 45 123h33zM754 414q-31 237 -80 315q-58 90 -135 113
q-43 12 -74 12q-57 0 -109 -63q-61 -78 -82 -238q-18 -143 13 -309q18 -103 73 -158q56 -53 115 -57q51 -2 115 51q59 51 108 182z" />
    <glyph glyph-name="uni1FB7" unicode="&#x1fb7;" horiz-adv-x="1208" 
d="M840 1159h-74q-57 180 -266 180q-90 0 -176 -53q-84 -53 -105 -127h-74q-6 123 86 207q97 84 256 84q164 0 256 -84q82 -78 97 -207zM1153 254l-4 -109q-4 -96 -70 -149q-30 -25 -59 -25q-33 0 -66 31q-53 49 -118 227q-68 -114 -68 -116q-66 -84 -170 -119
q-84 -29 -145 -29q-76 0 -152 35q-102 45 -158 139q-67 117 -67 279q0 63 10 137q29 205 201 322q75 51 194 51q160 0 250 -150q53 -90 74 -205l121 330h161l-213 -588q21 -120 76 -176q37 -37 70 -37q29 0 55 29q31 31 45 123h33zM741 -348l-22 -162q-64 -41 -121 -41
q-41 0 -74 21q-67 45 -67 135q0 35 10 80q20 88 63 182h91q-29 -49 -54 -141q-10 -33 -10 -60q0 -82 76 -72q39 -4 65 17q7 4 43 41zM754 414q-31 237 -80 315q-58 90 -135 113q-43 12 -74 12q-57 0 -109 -63q-61 -78 -82 -238q-18 -143 13 -309q18 -103 73 -158
q56 -53 115 -57q51 -2 115 51q59 51 108 182z" />
    <glyph glyph-name="uni1FB8" unicode="&#x1fb8;" horiz-adv-x="1329" 
d="M932 1759q-12 -129 -58 -200q-75 -121 -247 -121q-80 0 -144 41q-118 75 -129 280h62q26 -196 233 -196q107 0 164 69q31 39 57 127h62zM1268 0h-463v37q121 0 121 82q0 22 -13 57l-90 270h-481l-88 -270q-10 -33 -10 -57q0 -82 118 -82v-37h-354v37q72 0 105 45
q10 12 37 86l462 1210h47l465 -1210q27 -72 39 -86q33 -45 105 -45v-37zM797 532l-209 549l-209 -549h418z" />
    <glyph glyph-name="uni1FB9" unicode="&#x1fb9;" horiz-adv-x="1329" 
d="M1038 1458h-809v113h809v-113zM1268 0h-463v37q121 0 121 82q0 22 -13 57l-90 270h-481l-88 -270q-10 -33 -10 -57q0 -82 118 -82v-37h-354v37q72 0 105 45q10 12 37 86l462 1210h47l465 -1210q27 -72 39 -86q33 -45 105 -45v-37zM797 532l-209 549l-209 -549h418z" />
    <glyph glyph-name="uni1FBA" unicode="&#x1fba;" horiz-adv-x="1329" 
d="M401 1227q2 -4 2 -10q0 -33 -38 -33q-17 0 -25 10l-270 344q-7 6 -7 16q0 50 48 78q22 17 63 17q37 0 45 -19zM1268 0h-463v37q121 0 121 82q0 22 -13 57l-90 270h-481l-88 -270q-10 -33 -10 -57q0 -82 118 -82v-37h-354v37q72 0 105 45q10 12 37 86l462 1210h47
l465 -1210q27 -72 39 -86q33 -45 105 -45v-37zM797 532l-209 549l-209 -549h418z" />
    <glyph glyph-name="uni1FBB" unicode="&#x1fbb;" horiz-adv-x="1329" 
d="M506 1538l-270 -344q-9 -10 -23 -10q-41 0 -41 33q0 6 2 10l182 403q9 19 43 19q41 0 66 -17q47 -28 47 -78q0 -10 -6 -16zM1268 0h-463v37q121 0 121 82q0 22 -13 57l-90 270h-481l-88 -270q-10 -33 -10 -57q0 -82 118 -82v-37h-354v37q72 0 105 45q10 12 37 86
l462 1210h47l465 -1210q27 -72 39 -86q33 -45 105 -45v-37zM797 532l-209 549l-209 -549h418z" />
    <glyph glyph-name="uni1FBC" unicode="&#x1fbc;" horiz-adv-x="1665" 
d="M1640 203l-22 -162q-64 -41 -121 -41q-41 0 -74 20q-67 43 -67 136q0 32 10 80q23 88 64 182h90q-27 -49 -54 -142q-8 -32 -8 -59q0 -82 74 -72q39 -4 65 17q7 4 43 41zM1268 0h-463v37q121 0 121 82q0 22 -13 57l-90 270h-481l-88 -270q-10 -33 -10 -57q0 -82 118 -82
v-37h-354v37q72 0 105 45q10 12 37 86l462 1210h47l465 -1210q27 -72 39 -86q33 -45 105 -45v-37zM797 532l-209 549l-209 -549h418z" />
    <glyph glyph-name="uni1FBD" unicode="&#x1fbd;" horiz-adv-x="612" 
d="M549 1239q0 -72 -72 -158q-65 -84 -137 -110l-16 37q47 18 98 82q53 63 53 108q0 29 -26 29q14 0 -60 -8q-96 12 -96 90q0 110 110 110q70 0 111 -59q35 -51 35 -121z" />
    <glyph glyph-name="uni1FBE" unicode="&#x1fbe;" horiz-adv-x="1208" 
d="M741 -348l-22 -162q-64 -41 -121 -41q-41 0 -74 21q-67 45 -67 135q0 35 10 80q20 88 63 182h91q-29 -49 -54 -141q-10 -33 -10 -60q0 -82 76 -72q39 -4 65 17q7 4 43 41z" />
    <glyph glyph-name="uni1FBF" unicode="&#x1fbf;" horiz-adv-x="612" 
d="M549 1239q0 -72 -72 -158q-65 -84 -137 -110l-16 37q47 18 98 82q53 63 53 108q0 29 -26 29q14 0 -60 -8q-96 12 -96 90q0 110 110 110q70 0 111 -59q35 -51 35 -121z" />
    <glyph glyph-name="uni1FC0" unicode="&#x1fc0;" horiz-adv-x="817" 
d="M812 1159h-74q-57 180 -266 180q-90 0 -176 -53q-84 -53 -105 -127h-73q-4 123 86 207q96 84 256 84q164 0 258 -84q82 -78 94 -207z" />
    <glyph glyph-name="uni1FC1" unicode="&#x1fc1;" horiz-adv-x="817" 
d="M812 1249h-74q-57 181 -266 181q-90 0 -176 -54q-84 -53 -105 -127h-73q-4 123 86 205q96 86 256 86q164 0 258 -86q82 -76 94 -205zM765 1126q0 -43 -31 -71q-31 -31 -72 -31q-38 0 -69 31q-31 30 -31 71q0 37 31 70t69 33q41 0 72 -31t31 -72zM357 1126q0 -43 -30 -71
q-31 -31 -72 -31q-39 0 -70 31q-30 30 -30 71q0 37 30 70q31 33 70 33q41 0 72 -31q30 -31 30 -72z" />
    <glyph glyph-name="uni1FC2" unicode="&#x1fc2;" horiz-adv-x="1103" 
d="M532 1227q3 -4 3 -10q0 -33 -39 -33q-17 0 -25 10l-270 344q-4 6 -4 16q0 50 45 78q24 17 63 17q37 0 45 -19zM977 -375h-166q-10 43 -25 187l-24 829q-2 107 -53 147q-62 50 -140 35q-69 -12 -125 -65q-30 -39 -63 -80v-678h-156v637q0 119 -41 170q-24 33 -59 33
q-29 0 -49 -25q-21 -22 -31 -70q-6 -36 -12 -77h-33q4 45 6 88q10 45 43 98q53 84 162 84q45 0 86 -23q43 -24 61 -73q2 -4 25 -86q47 69 82 102q65 68 141 88q29 6 64 6q88 0 139 -37q115 -86 117 -229l20 -922q10 -47 31 -139zM526 -328l-22 -161q-64 -41 -121 -41
q-41 0 -74 20q-67 43 -67 131q0 35 12 84q25 96 61 182h91q-29 -49 -54 -141q-10 -33 -10 -57q0 -84 78 -74q37 -2 63 16q6 4 43 41z" />
    <glyph glyph-name="uni1FC3" unicode="&#x1fc3;" horiz-adv-x="1103" 
d="M977 -375h-166q-10 43 -25 187l-24 829q-2 107 -53 147q-62 50 -140 35q-69 -12 -125 -65q-30 -39 -63 -80v-678h-156v637q0 119 -41 170q-24 33 -59 33q-29 0 -49 -25q-21 -22 -31 -70q-6 -36 -12 -77h-33q4 45 6 88q10 45 43 98q53 84 162 84q45 0 86 -23
q43 -24 61 -73q2 -4 25 -86q47 69 82 102q65 68 141 88q29 6 64 6q88 0 139 -37q115 -86 117 -229l20 -922q10 -47 31 -139zM526 -328l-22 -161q-64 -41 -121 -41q-41 0 -74 20q-67 43 -67 131q0 35 12 84q25 96 61 182h91q-29 -49 -54 -141q-10 -33 -10 -57q0 -84 78 -74
q37 -2 63 16q6 4 43 41z" />
    <glyph glyph-name="uni1FC4" unicode="&#x1fc4;" horiz-adv-x="1103" 
d="M707 1524l-271 -344q-8 -13 -22 -13q-41 0 -41 35q0 4 2 10l182 404q8 16 43 16q41 0 66 -14q47 -31 47 -78q0 -8 -6 -16zM977 -375h-166q-10 43 -25 187l-24 829q-2 107 -53 147q-62 50 -140 35q-69 -12 -125 -65q-30 -39 -63 -80v-678h-156v637q0 119 -41 170
q-24 33 -59 33q-29 0 -49 -25q-21 -22 -31 -70q-6 -36 -12 -77h-33q4 45 6 88q10 45 43 98q53 84 162 84q45 0 86 -23q43 -24 61 -73q2 -4 25 -86q47 69 82 102q65 68 141 88q29 6 64 6q88 0 139 -37q115 -86 117 -229l20 -922q10 -47 31 -139zM526 -328l-22 -161
q-64 -41 -121 -41q-41 0 -74 20q-67 43 -67 131q0 35 12 84q25 96 61 182h91q-29 -49 -54 -141q-10 -33 -10 -57q0 -84 78 -74q37 -2 63 16q6 4 43 41z" />
    <glyph glyph-name="uni1FC6" unicode="&#x1fc6;" horiz-adv-x="1103" 
d="M840 1159h-74q-57 180 -266 180q-90 0 -176 -53q-84 -53 -105 -127h-74q-6 123 86 207q97 84 256 84q164 0 256 -84q82 -78 97 -207zM977 -375h-166q-10 43 -25 187l-24 829q-2 107 -53 147q-62 50 -140 35q-69 -12 -125 -65q-30 -39 -63 -80v-678h-156v637
q0 119 -41 170q-24 33 -59 33q-29 0 -49 -25q-21 -22 -31 -70q-6 -36 -12 -77h-33q4 45 6 88q10 45 43 98q53 84 162 84q45 0 86 -23q43 -24 61 -73q2 -4 25 -86q47 69 82 102q65 68 141 88q29 6 64 6q88 0 139 -37q115 -86 117 -229l20 -922q10 -47 31 -139z" />
    <glyph glyph-name="uni1FC7" unicode="&#x1fc7;" horiz-adv-x="1103" 
d="M840 1159h-74q-57 180 -266 180q-90 0 -176 -53q-84 -53 -105 -127h-74q-6 123 86 207q97 84 256 84q164 0 256 -84q82 -78 97 -207zM977 -375h-166q-10 43 -25 187l-24 829q-2 107 -53 147q-62 50 -140 35q-69 -12 -125 -65q-30 -39 -63 -80v-678h-156v637
q0 119 -41 170q-24 33 -59 33q-29 0 -49 -25q-21 -22 -31 -70q-6 -36 -12 -77h-33q4 45 6 88q10 45 43 98q53 84 162 84q45 0 86 -23q43 -24 61 -73q2 -4 25 -86q47 69 82 102q65 68 141 88q29 6 64 6q88 0 139 -37q115 -86 117 -229l20 -922q10 -47 31 -139zM526 -328
l-22 -161q-64 -41 -121 -41q-41 0 -74 20q-67 43 -67 131q0 35 12 84q25 96 61 182h91q-29 -49 -54 -141q-10 -33 -10 -57q0 -84 78 -74q37 -2 63 16q6 4 43 41z" />
    <glyph glyph-name="uni1FC8" unicode="&#x1fc8;" horiz-adv-x="1574" 
d="M1481 348l-84 -348h-1000v37q82 0 119 20q47 29 47 111v1042q0 80 -47 111q-37 20 -119 20v37h985v-303h-51q-35 131 -37 137q-37 68 -139 68h-397v-512h289q104 0 149 49q39 45 39 144h43v-472h-43q0 99 -39 144q-45 49 -149 49h-289v-508q0 -90 73 -88l302 8
q129 2 202 90q39 45 88 164h58zM360 1227q2 -4 2 -10q0 -33 -38 -33q-17 0 -25 10l-270 344q-4 6 -4 16q0 50 45 78q24 17 63 17q37 0 45 -19z" />
    <glyph glyph-name="uni1FC9" unicode="&#x1fc9;" horiz-adv-x="1519" 
d="M383 1524l-270 -344q-9 -13 -25 -13q-39 0 -39 35q0 4 2 10l182 404q9 16 46 16q38 0 63 -14q45 -31 45 -78q0 -8 -4 -16zM1419 348l-84 -348h-999v37q84 0 119 20q47 29 47 111v1042q0 80 -47 111q-35 20 -119 20v37h985v-303h-51q-35 131 -37 137q-37 68 -139 68h-398
v-512h289q107 0 150 49q39 45 39 144h43v-472h-43q0 99 -39 144q-43 49 -150 49h-289v-508q0 -90 74 -88l301 8q129 2 203 90q39 45 88 164h57z" />
    <glyph glyph-name="uni1FCA" unicode="&#x1fca;" horiz-adv-x="1773" 
d="M1700 0h-526v37q81 0 116 20q49 31 49 111v494h-559v-494q0 -80 47 -111q35 -20 119 -20v-37h-526v37q84 0 119 20q49 29 49 111v1042q0 80 -49 111q-35 20 -119 20v37h526v-37q-84 0 -119 -20q-47 -31 -47 -111v-462h559v462q0 80 -49 111q-35 20 -116 20v37h526v-37
q-84 0 -119 -20q-49 -31 -49 -111v-1042q0 -82 49 -111q35 -20 119 -20v-37zM371 1227q2 -4 2 -10q0 -33 -39 -33q-17 0 -25 10l-270 344q-4 6 -4 16q0 50 45 78q24 17 63 17q37 0 45 -19z" />
    <glyph glyph-name="uni1FCB" unicode="&#x1fcb;" horiz-adv-x="1699" 
d="M1618 0h-526v37q84 0 116 20q49 31 49 111v494h-559v-494q0 -80 47 -111q35 -20 119 -20v-37h-526v37q84 0 119 20q49 29 49 111v1042q0 80 -49 111q-35 20 -119 20v37h526v-37q-84 0 -119 -20q-47 -31 -47 -111v-462h559v462q0 80 -49 111q-32 20 -116 20v37h526v-37
q-84 0 -119 -20q-49 -31 -49 -111v-1042q0 -82 49 -111q35 -20 119 -20v-37zM373 1524l-271 -344q-8 -13 -22 -13q-41 0 -41 35q0 4 2 10l182 404q8 16 43 16q41 0 66 -14q47 -31 47 -78q0 -8 -6 -16z" />
    <glyph glyph-name="uni1FCC" unicode="&#x1fcc;" horiz-adv-x="1693" 
d="M1661 203l-23 -162q-61 -41 -120 -41q-41 0 -74 20q-70 43 -70 136q0 32 12 80q23 88 64 182h90q-29 -49 -53 -142q-8 -32 -8 -59q0 -82 73 -72q39 -4 66 17q6 4 43 41zM1352 0h-527v37q82 0 117 20q49 31 49 111v494h-559v-494q0 -80 47 -111q35 -20 119 -20v-37h-526
v37q84 0 118 20q50 29 50 111v1042q0 80 -50 111q-34 20 -118 20v37h526v-37q-84 0 -119 -20q-47 -31 -47 -111v-462h559v462q0 80 -49 111q-35 20 -117 20v37h527v-37q-84 0 -119 -20q-49 -31 -49 -111v-1042q0 -82 49 -111q35 -20 119 -20v-37z" />
    <glyph glyph-name="uni1FCD" unicode="&#x1fcd;" horiz-adv-x="899" 
d="M895 1018q2 -4 2 -10q0 -33 -39 -33q-14 0 -22 10l-271 344q-6 6 -6 19q0 47 45 75q25 17 68 17q35 0 43 -19zM446 1239q0 -72 -69 -158q-70 -84 -139 -110l-17 37q45 18 98 82q54 63 54 108q0 29 -27 29q14 0 -59 -8q-97 12 -97 90q0 110 111 110q70 0 111 -59
q34 -51 34 -121z" />
    <glyph glyph-name="uni1FCE" unicode="&#x1fce;" horiz-adv-x="899" 
d="M858 1319l-270 -344q-8 -10 -23 -10q-39 0 -39 32q0 4 2 11l181 403q8 19 45 19q41 0 65 -17q45 -29 45 -76q0 -12 -6 -18zM446 1239q0 -72 -69 -158q-70 -84 -139 -110l-17 37q45 18 98 82q54 63 54 108q0 29 -27 29q14 0 -59 -8q-97 12 -97 90q0 110 111 110
q70 0 111 -59q34 -51 34 -121z" />
    <glyph glyph-name="uni1FCF" unicode="&#x1fcf;" horiz-adv-x="665" 
d="M639 1294h-68q-53 181 -243 181q-82 0 -160 -54q-78 -53 -96 -127h-68q-6 123 78 207q86 84 233 84q152 0 238 -86q76 -76 86 -205zM452 1085q0 -69 -69 -157q-70 -82 -139 -111l-17 37q45 18 98 82q54 63 54 108q0 29 -27 29q14 0 -59 -8q-97 10 -97 90q0 111 111 111
q70 0 111 -62q34 -51 34 -119z" />
    <glyph glyph-name="uni1FD0" unicode="&#x1fd0;" 
d="M582 1360q-13 -129 -58 -201q-75 -121 -245 -121q-82 0 -146 39q-121 78 -129 283h62q26 -199 233 -199q109 0 164 72q31 39 57 127h62zM639 186q-41 -229 -219 -217q-82 4 -133 70q-41 51 -41 100v441q0 157 -60 198q-24 19 -104 19v37q117 24 321 98v-682
q0 -107 33 -150t62 -43q12 0 32 6q39 13 58 60l16 63h35z" />
    <glyph glyph-name="uni1FD1" unicode="&#x1fd1;" 
d="M682 1098h-682v112h682v-112zM639 186q-41 -229 -219 -217q-82 4 -133 70q-41 51 -41 100v441q0 157 -60 198q-24 19 -104 19v37q117 24 321 98v-682q0 -107 33 -150t62 -43q12 0 32 6q39 13 58 60l16 63h35z" />
    <glyph glyph-name="uni1FD2" unicode="&#x1fd2;" 
d="M721 1294q0 -39 -27 -63q-24 -25 -61 -25q-35 0 -62 27q-26 27 -26 61q0 35 24 64q27 26 64 26t61 -26q27 -27 27 -64zM408 1317q2 -4 2 -10q0 -33 -39 -33q-15 0 -23 10l-270 342q-6 8 -6 21q0 47 45 75q24 17 65 17q37 0 45 -19zM158 1294q0 -39 -27 -63
q-25 -25 -61 -25q-35 0 -62 27q-26 27 -26 61q0 35 24 64q27 26 64 26q34 0 61 -26q27 -27 27 -64zM639 186q-41 -229 -219 -217q-82 4 -133 70q-41 51 -41 100v441q0 157 -60 198q-24 19 -104 19v37q117 24 321 98v-682q0 -107 33 -150t62 -43q12 0 32 6q39 13 58 60l16 63
h35z" />
    <glyph glyph-name="uni1FD3" unicode="&#x1fd3;" 
d="M610 1640l-270 -342q-8 -12 -25 -12q-39 0 -39 35q0 4 3 10l182 404q8 16 45 16q39 0 63 -14q47 -31 47 -78q0 -10 -6 -19zM657 1280q0 -39 -24 -63q-27 -25 -64 -25q-34 0 -61 27q-27 26 -27 61q0 37 25 63q24 27 63 27q35 0 62 -27q26 -24 26 -63zM176 1280
q0 -39 -24 -63q-27 -25 -64 -25t-61 27q-27 26 -27 61q0 37 25 63q24 27 63 27q37 0 62 -27q26 -24 26 -63zM639 186q-41 -229 -219 -217q-82 4 -133 70q-41 51 -41 100v441q0 157 -60 198q-24 19 -104 19v37q117 24 321 98v-682q0 -107 33 -150t62 -43q12 0 32 6
q39 13 58 60l16 63h35z" />
    <glyph glyph-name="uni1FD6" unicode="&#x1fd6;" 
d="M593 1159h-62q-47 180 -221 180q-76 0 -145 -53q-72 -53 -88 -127h-62q-6 123 72 207q80 84 213 84q137 0 215 -84q68 -78 78 -207zM644 186q-41 -229 -219 -217q-82 4 -133 70q-41 51 -41 100v441q0 157 -60 198q-24 19 -104 19v37q117 24 321 98v-682q0 -107 33 -150
t62 -43q12 0 32 6q39 13 58 60l16 63h35z" />
    <glyph glyph-name="uni1FD7" unicode="&#x1fd7;" 
d="M674 1249h-74q-57 181 -266 181q-92 0 -174 -54q-88 -53 -109 -127h-74q-4 123 86 205q97 86 256 86q166 0 258 -86q82 -76 97 -205zM627 1126q0 -43 -31 -71q-33 -31 -74 -31q-39 0 -69 31q-29 30 -29 71q0 37 31 70q30 33 67 33q41 0 74 -31q31 -31 31 -72zM217 1126
q0 -43 -31 -71q-28 -31 -69 -31t-72 31q-31 30 -31 71q0 37 33 70q31 33 70 33q41 0 69 -31q31 -31 31 -72zM643 186q-41 -229 -219 -217q-82 4 -133 70q-41 51 -41 100v441q0 157 -60 198q-24 19 -104 19v37q117 24 321 98v-682q0 -107 33 -150t62 -43q12 0 32 6
q39 13 58 60l16 63h35z" />
    <glyph glyph-name="uni1FD8" unicode="&#x1fd8;" horiz-adv-x="690" 
d="M633 1769q-12 -129 -60 -200q-73 -121 -245 -121q-80 0 -144 41q-121 78 -131 280h64q26 -196 231 -196q109 0 164 69q33 39 59 127h62zM586 0h-527v37q82 0 119 20q47 29 47 111v1042q0 80 -47 111q-37 20 -119 20v37h527v-37q-82 0 -119 -20q-47 -31 -47 -111v-1042
q0 -82 47 -111q37 -20 119 -20v-37z" />
    <glyph glyph-name="uni1FD9" unicode="&#x1fd9;" horiz-adv-x="690" 
d="M692 1458h-684v113h684v-113zM586 0h-527v37q82 0 119 20q47 29 47 111v1042q0 80 -47 111q-37 20 -119 20v37h527v-37q-82 0 -119 -20q-47 -31 -47 -111v-1042q0 -82 47 -111q37 -20 119 -20v-37z" />
    <glyph glyph-name="uni1FDA" unicode="&#x1fda;" horiz-adv-x="1034" 
d="M360 1227q2 -4 2 -10q0 -33 -38 -33q-17 0 -25 10l-270 344q-4 6 -4 16q0 50 45 78q24 17 63 17q37 0 45 -19zM924 0h-527v37q82 0 119 20q47 29 47 111v1042q0 80 -47 111q-37 20 -119 20v37h527v-37q-82 0 -119 -20q-47 -31 -47 -111v-1042q0 -82 47 -111
q37 -20 119 -20v-37z" />
    <glyph glyph-name="uni1FDB" unicode="&#x1fdb;" horiz-adv-x="923" 
d="M362 1524l-270 -344q-8 -13 -22 -13q-41 0 -41 35q0 4 2 10l182 404q8 16 43 16q41 0 66 -14q47 -31 47 -78q0 -8 -7 -16zM842 0h-527v37q82 0 119 20q47 29 47 111v1042q0 80 -47 111q-37 20 -119 20v37h527v-37q-82 0 -119 -20q-47 -31 -47 -111v-1042q0 -82 47 -111
q37 -20 119 -20v-37z" />
    <glyph glyph-name="uni1FDD" unicode="&#x1fdd;" horiz-adv-x="899" 
d="M874 1018q3 -4 3 -10q0 -33 -39 -33q-15 0 -23 10l-270 344q-6 6 -6 19q0 47 45 75q24 17 63 17q37 0 45 -19zM352 1309q0 -78 -96 -90q-74 8 -59 8q-27 0 -27 -29q0 -45 53 -108q51 -64 99 -82l-17 -37q-72 26 -137 110q-72 86 -72 158q0 70 35 121q41 59 111 59
q110 0 110 -110z" />
    <glyph glyph-name="uni1FDE" unicode="&#x1fde;" horiz-adv-x="899" 
d="M854 1319l-270 -344q-9 -10 -25 -10q-39 0 -39 32q0 4 2 11l183 403q8 16 45 16q38 0 63 -14q45 -31 45 -78q0 -10 -4 -16zM373 1309q0 -78 -97 -90q-73 8 -59 8q-27 0 -27 -29q0 -45 56 -108q51 -64 96 -82l-16 -37q-70 26 -140 110q-69 86 -69 158q0 70 35 121
q41 59 110 59q111 0 111 -110z" />
    <glyph glyph-name="uni1FDF" unicode="&#x1fdf;" horiz-adv-x="665" 
d="M588 1294h-68q-49 181 -244 181q-84 0 -159 -54q-78 -53 -97 -127h-67q-6 123 80 207t233 84q150 0 236 -86q73 -76 86 -205zM389 1155q0 -80 -96 -90q-74 8 -60 8q-26 0 -26 -29q0 -45 55 -108q49 -64 96 -82l-16 -37q-72 29 -137 111q-72 88 -72 157q0 68 35 119
q41 62 110 62q111 0 111 -111z" />
    <glyph glyph-name="uni1FE0" unicode="&#x1fe0;" horiz-adv-x="1105" 
d="M793 1360q-15 -129 -60 -201q-76 -121 -246 -121q-79 0 -143 39q-121 78 -131 283h63q27 -199 234 -199q106 0 164 72q28 39 57 127h62zM985 537q6 -41 6 -86q0 -146 -55 -263q-70 -145 -213 -196q-74 -27 -150 -27q-61 0 -112 19q-72 24 -135 114q-62 84 -64 236
q-2 119 -4 233q-4 142 -22 185q-17 39 -58 39q-39 0 -69 -31q-11 -10 -56 -101h-41q15 50 31 97q20 63 47 104q25 37 74 58q45 18 84 14q51 -4 92 -41q39 -35 45 -72q35 -219 35 -500q0 -139 76 -215q53 -61 106 -61q37 0 82 23q72 36 115 159q43 119 43 260q0 72 -13 140
q-20 123 -92 198q-35 37 -108 84l10 33q303 -117 346 -403z" />
    <glyph glyph-name="uni1FE1" unicode="&#x1fe1;" horiz-adv-x="1105" 
d="M897 1098h-809v112h809v-112zM985 537q6 -41 6 -86q0 -146 -55 -263q-70 -145 -213 -196q-74 -27 -150 -27q-61 0 -112 19q-72 24 -135 114q-62 84 -64 236q-2 119 -4 233q-4 142 -22 185q-17 39 -58 39q-39 0 -69 -31q-11 -10 -56 -101h-41q15 50 31 97q20 63 47 104
q25 37 74 58q45 18 84 14q51 -4 92 -41q39 -35 45 -72q35 -219 35 -500q0 -139 76 -215q53 -61 106 -61q37 0 82 23q72 36 115 159q43 119 43 260q0 72 -13 140q-20 123 -92 198q-35 37 -108 84l10 33q303 -117 346 -403z" />
    <glyph glyph-name="uni1FE2" unicode="&#x1fe2;" horiz-adv-x="1105" 
d="M864 1280q0 -39 -24 -63q-27 -25 -64 -25t-61 27q-27 26 -27 61q0 37 25 63q24 27 63 27q35 0 62 -27q26 -24 26 -63zM573 1303q2 -7 2 -11q0 -32 -38 -32q-15 0 -23 10l-270 342q-6 8 -6 18q0 47 45 78q24 16 65 16q37 0 45 -18zM352 1280q0 -39 -24 -63
q-27 -25 -64 -25t-61 27q-27 26 -27 61q0 37 25 63q24 27 63 27q35 0 62 -27q26 -24 26 -63zM985 537q6 -41 6 -86q0 -146 -55 -263q-70 -145 -213 -196q-74 -27 -150 -27q-61 0 -112 19q-72 24 -135 114q-62 84 -64 236q-2 119 -4 233q-4 142 -22 185q-17 39 -58 39
q-39 0 -69 -31q-11 -10 -56 -101h-41q15 50 31 97q20 63 47 104q25 37 74 58q45 18 84 14q51 -4 92 -41q39 -35 45 -72q35 -219 35 -500q0 -139 76 -215q53 -61 106 -61q37 0 82 23q72 36 115 159q43 119 43 260q0 72 -13 140q-20 123 -92 198q-35 37 -108 84l10 33
q303 -117 346 -403z" />
    <glyph glyph-name="uni1FE3" unicode="&#x1fe3;" horiz-adv-x="1105" 
d="M893 1280q0 -39 -27 -63q-24 -25 -61 -25t-62 27q-26 26 -26 61q0 37 24 63q27 27 64 27t61 -27q27 -24 27 -63zM793 1569l-271 -342q-8 -13 -22 -13q-41 0 -41 35q0 4 2 11l182 403q8 16 43 16q41 0 66 -14q47 -31 47 -78q0 -10 -6 -18zM319 1280q0 -39 -24 -63
q-27 -25 -64 -25q-34 0 -61 27q-27 26 -27 61q0 37 25 63q27 27 63 27q35 0 62 -27q26 -24 26 -63zM985 537q6 -41 6 -86q0 -146 -55 -263q-70 -145 -213 -196q-74 -27 -150 -27q-61 0 -112 19q-72 24 -135 114q-62 84 -64 236q-2 119 -4 233q-4 142 -22 185q-17 39 -58 39
q-39 0 -69 -31q-11 -10 -56 -101h-41q15 50 31 97q20 63 47 104q25 37 74 58q45 18 84 14q51 -4 92 -41q39 -35 45 -72q35 -219 35 -500q0 -139 76 -215q53 -61 106 -61q37 0 82 23q72 36 115 159q43 119 43 260q0 72 -13 140q-20 123 -92 198q-35 37 -108 84l10 33
q303 -117 346 -403z" />
    <glyph glyph-name="uni1FE4" unicode="&#x1fe4;" horiz-adv-x="1056" 
d="M643 1434q0 -70 -72 -158q-65 -82 -137 -111l-16 37q47 21 98 82q53 64 53 109q0 28 -26 28q14 0 -60 -8q-96 10 -96 90q0 111 111 111q69 0 110 -62q35 -51 35 -118zM969 487q8 -147 -72 -294q-80 -148 -207 -199q-74 -31 -133 -31q-37 0 -76 12q-100 27 -147 99v-287
q0 -139 -19 -213h-161q0 2 14 78q8 49 8 84l-8 782q-2 232 233 363q78 45 158 45q39 0 82 -8q139 -21 231 -140q86 -112 97 -291zM801 330q4 30 4 61q0 131 -60 244q-79 156 -231 184q-78 17 -127 -28q-74 -66 -70 -168l11 -410q2 -41 53 -96q65 -70 156 -70q16 0 30 2
q92 12 150 76q69 78 84 205z" />
    <glyph glyph-name="uni1FE5" unicode="&#x1fe5;" horiz-adv-x="1056" 
d="M623 1532q0 -80 -97 -90q-73 8 -59 8q-27 0 -27 -29q0 -45 56 -108q51 -64 96 -82l-17 -37q-69 29 -139 111q-69 88 -69 157q0 70 34 119q41 61 111 61q111 0 111 -110zM969 487q8 -147 -72 -294q-80 -148 -207 -199q-74 -31 -133 -31q-37 0 -76 12q-100 27 -147 99v-287
q0 -139 -19 -213h-161q0 2 14 78q8 49 8 84l-8 782q-2 232 233 363q78 45 158 45q39 0 82 -8q139 -21 231 -140q86 -112 97 -291zM801 330q4 30 4 61q0 131 -60 244q-79 156 -231 184q-78 17 -127 -28q-74 -66 -70 -168l11 -410q2 -41 53 -96q65 -70 156 -70q16 0 30 2
q92 12 150 76q69 78 84 205z" />
    <glyph glyph-name="uni1FE6" unicode="&#x1fe6;" horiz-adv-x="1105" 
d="M778 1159h-73q-58 180 -267 180q-92 0 -176 -53q-86 -53 -104 -127h-74q-4 123 86 207q94 84 256 84q164 0 256 -84q84 -78 96 -207zM985 537q6 -41 6 -86q0 -146 -55 -263q-70 -145 -213 -196q-74 -27 -150 -27q-61 0 -112 19q-72 24 -135 114q-62 84 -64 236
q-2 119 -4 233q-4 142 -22 185q-17 39 -58 39q-39 0 -69 -31q-11 -10 -56 -101h-41q15 50 31 97q20 63 47 104q25 37 74 58q45 18 84 14q51 -4 92 -41q39 -35 45 -72q35 -219 35 -500q0 -139 76 -215q53 -61 106 -61q37 0 82 23q72 36 115 159q43 119 43 260q0 72 -13 140
q-20 123 -92 198q-35 37 -108 84l10 33q303 -117 346 -403z" />
    <glyph glyph-name="uni1FE7" unicode="&#x1fe7;" horiz-adv-x="1105" 
d="M879 1249h-74q-57 181 -266 181q-90 0 -174 -54q-86 -53 -107 -127h-74q-4 123 86 205q97 86 256 86q164 0 256 -86q82 -76 97 -205zM831 1126q0 -43 -30 -71q-31 -31 -72 -31t-70 31q-30 30 -30 71q0 37 30 70q31 33 70 33q41 0 72 -31q30 -31 30 -72zM424 1126
q0 -43 -31 -71q-28 -31 -71 -31q-39 0 -70 31q-31 30 -31 71q0 37 31 70q33 33 70 33q43 0 71 -31q31 -31 31 -72zM985 537q6 -41 6 -86q0 -146 -55 -263q-70 -145 -213 -196q-74 -27 -150 -27q-61 0 -112 19q-72 24 -135 114q-62 84 -64 236q-2 119 -4 233q-4 142 -22 185
q-17 39 -58 39t-69 -31q-11 -10 -56 -101h-41q15 50 31 97q20 63 47 104q25 37 74 58q45 18 84 14q51 -4 92 -41q39 -35 45 -72q35 -219 35 -500q0 -139 76 -215q53 -61 106 -61q37 0 82 23q72 36 115 159q43 119 43 260q0 72 -13 140q-20 123 -92 198q-35 37 -108 84l10 33
q303 -117 346 -403z" />
    <glyph glyph-name="uni1FE8" unicode="&#x1fe8;" horiz-adv-x="1316" 
d="M973 1769q-15 -129 -60 -200q-73 -121 -245 -121q-80 0 -144 41q-121 78 -131 280h64q26 -196 231 -196q109 0 166 69q31 39 57 127h62zM1286 1341q-67 0 -98 -12q-58 -18 -96 -86l-355 -602v-473q0 -82 49 -111q35 -20 119 -20v-37h-526v37q84 0 119 20q47 31 47 111
v446l-393 633q-62 99 -166 94v37h551v-37q-146 2 -146 -59q0 -20 17 -49l288 -490l260 474q25 47 25 69q0 62 -125 55v37h430v-37z" />
    <glyph glyph-name="uni1FE9" unicode="&#x1fe9;" horiz-adv-x="1316" 
d="M1077 1479h-809v112h809v-112zM1286 1341q-67 0 -98 -12q-58 -18 -96 -86l-355 -602v-473q0 -82 49 -111q35 -20 119 -20v-37h-526v37q84 0 119 20q47 31 47 111v446l-393 633q-62 99 -166 94v37h551v-37q-146 2 -146 -59q0 -20 17 -49l288 -490l260 474q25 47 25 69
q0 62 -125 55v37h430v-37z" />
    <glyph glyph-name="uni1FEA" unicode="&#x1fea;" horiz-adv-x="1746" 
d="M1665 1341q-70 0 -98 -12q-58 -18 -97 -86l-354 -602v-473q0 -82 49 -111q35 -20 119 -20v-37h-526v37q84 0 119 20q47 31 47 111v446l-394 633q-61 99 -165 94v37h550v-37q-145 2 -145 -59q0 -20 16 -49l289 -490l260 474q27 47 27 69q0 62 -127 55v37h430v-37z
M350 1227q2 -4 2 -10q0 -33 -39 -33q-14 0 -22 10l-273 344q-4 6 -4 16q0 50 45 78q27 17 66 17q37 0 45 -19z" />
    <glyph glyph-name="uni1FEB" unicode="&#x1feb;" horiz-adv-x="1720" 
d="M1645 1341q-68 0 -101 -12q-55 -18 -94 -86l-354 -602v-473q0 -82 49 -111q35 -20 119 -20v-37h-527v37q82 0 117 20q49 31 49 111v446l-393 633q-61 99 -166 94v37h551v-37q-145 2 -145 -59q0 -20 16 -49l289 -490l260 474q24 47 24 69q0 62 -125 55v37h431v-37z
M385 1524l-270 -344q-9 -13 -25 -13q-39 0 -39 35q0 4 2 10l183 404q8 16 45 16q38 0 63 -14q45 -31 45 -78q0 -8 -4 -16z" />
    <glyph glyph-name="uni1FEC" unicode="&#x1fec;" horiz-adv-x="1372" 
d="M289 1532q0 -80 -96 -90q-74 8 -60 8q-27 0 -27 -29q0 -45 56 -108q51 -64 96 -82l-16 -37q-72 29 -140 111q-69 88 -69 157q0 70 35 119q41 61 110 61q111 0 111 -110zM1292 879q-45 -146 -196 -226q-99 -51 -256 -45l-162 6v-446q0 -80 47 -111q37 -20 119 -20v-37
h-527v37q84 0 119 20q49 29 49 111v1042q0 80 -49 111q-35 20 -119 20v37h514q152 0 256 -35q113 -36 166 -126q58 -95 58 -220q0 -61 -19 -118zM1108 1036q-12 131 -76 193q-33 31 -112 57q-62 21 -177 10q-65 -6 -65 -49v-524q31 -23 108 -23q78 0 181 21q143 29 143 258
q0 29 -2 57z" />
    <glyph glyph-name="uni1FED" unicode="&#x1fed;" 
d="M721 1294q0 -39 -27 -63q-24 -25 -61 -25q-35 0 -62 27q-26 27 -26 61q0 35 24 64q27 26 64 26t61 -26q27 -27 27 -64zM408 1317q2 -4 2 -10q0 -33 -39 -33q-15 0 -23 10l-270 342q-6 8 -6 21q0 47 45 75q24 17 65 17q37 0 45 -19zM158 1294q0 -39 -27 -63
q-25 -25 -61 -25q-35 0 -62 27q-26 27 -26 61q0 35 24 64q27 26 64 26q34 0 61 -26q27 -27 27 -64z" />
    <glyph glyph-name="uni1FEE" unicode="&#x1fee;" 
d="M610 1640l-270 -342q-8 -12 -25 -12q-39 0 -39 35q0 4 3 10l182 404q8 16 45 16q39 0 63 -14q47 -31 47 -78q0 -10 -6 -19zM657 1280q0 -39 -24 -63q-27 -25 -64 -25q-34 0 -61 27q-27 26 -27 61q0 37 25 63q24 27 63 27q35 0 62 -27q26 -24 26 -63zM176 1280
q0 -39 -24 -63q-27 -25 -64 -25t-61 27q-27 26 -27 61q0 37 25 63q24 27 63 27q37 0 62 -27q26 -24 26 -63z" />
    <glyph glyph-name="uni1FEF" unicode="&#x1fef;" 
d="M348 1141q2 -4 2 -11q0 -32 -41 -32q-14 0 -22 10l-271 344q-6 6 -6 16q0 50 47 78q25 17 66 17q35 0 43 -19z" />
    <glyph glyph-name="uni1FF0" unicode="&#x1ff0;" horiz-adv-x="878" 
d="M840 1159h-74q-57 180 -266 180q-90 0 -176 -53q-84 -53 -105 -127h-74q-6 123 86 207q97 84 256 84q164 0 256 -84q82 -78 97 -207zM852 199q0 -60 -41 -113q-51 -68 -154 -96q-90 -27 -176 -27q-155 0 -272 74q-109 67 -109 194q0 33 11 68q36 121 196 168
q-80 37 -110 59q-37 29 -56 74q-14 35 -14 74q0 98 96 174q105 82 283 82q96 0 143 -19q43 -16 64 -28q39 -23 59 -56q23 -30 23 -61q0 -53 -47 -82q-15 -8 -37 -8q-78 0 -103 96q-22 92 -135 92q-37 0 -74 -16q-102 -47 -102 -178q0 -23 2 -35q27 -131 162 -131q14 0 33 2
l100 10q80 8 80 -41q0 -24 -37 -43q-43 -20 -123 -8q-29 4 -51 4q-123 0 -158 -111q-8 -30 -8 -69q0 -68 27 -105q71 -96 239 -96q64 0 109 14q94 29 133 150z" />
    <glyph glyph-name="uni1FF1" unicode="&#x1ff1;" horiz-adv-x="1005" 
d="M840 1159h-74q-57 180 -266 180q-90 0 -176 -53q-84 -53 -105 -127h-74q-6 123 86 207q97 84 256 84q164 0 256 -84q82 -78 97 -207zM768 72q-111 -107 -272 -107q-105 0 -203 49q-227 156 -227 432q0 195 120 340q117 140 299 140q129 0 246 -80q199 -135 199 -391
q0 -230 -162 -383zM690 139q62 94 62 287q0 227 -101 350q-78 94 -176 94q-61 0 -115 -36q-55 -39 -77 -95q-41 -96 -41 -229q0 -195 80 -338q73 -131 204 -131q101 0 164 98z" />
    <glyph glyph-name="uni1FF2" unicode="&#x1ff2;" horiz-adv-x="1310" 
d="M727 1241q2 -4 2 -10q0 -35 -41 -35q-14 0 -22 12l-271 344q-6 9 -6 17q0 49 47 78q25 16 66 16q35 0 43 -18zM1262 494q6 -50 6 -91q0 -114 -47 -225q-58 -135 -166 -184q-58 -27 -117 -27q-68 0 -121 33q-86 49 -143 152q-62 -103 -146 -152q-55 -33 -118 -33
q-62 0 -119 27q-111 49 -166 184q-45 111 -45 225q0 41 4 91q25 237 195 368q63 47 147 60q8 0 125 4v-31q-152 -57 -203 -143q-82 -131 -82 -330q0 -86 17 -168q20 -115 75 -166q39 -37 86 -37q21 0 43 6q78 23 113 111l29 113q-56 157 -56 262q0 49 11 98q22 125 90 125
q65 0 88 -125q8 -49 8 -100q0 -111 -53 -260l28 -113q35 -88 113 -111q23 -6 43 -6q45 0 86 37q55 51 76 166q14 84 14 168q0 199 -80 330q-53 86 -202 143v31q116 -4 125 -4q86 -13 147 -60q170 -131 195 -368zM838 -307l-23 -162q-61 -41 -121 -41q-41 0 -73 21
q-68 43 -68 131q0 32 12 84q25 98 62 182h90q-27 -45 -53 -141q-11 -33 -11 -60q0 -82 76 -72q39 -4 66 17q6 4 43 41z" />
    </font>
</defs>
</svg>
